<svg xmlns="http://www.w3.org/2000/svg" xmlns:xlink="http://www.w3.org/1999/xlink" width="110" height="110" viewBox="0 0 110 110">
  <defs>
    <filter id="Trazado_982547" x="0" y="0" width="110" height="110" filterUnits="userSpaceOnUse">
      <feOffset dy="3" input="SourceAlpha"/>
      <feGaussianBlur stdDeviation="3" result="blur"/>
      <feFlood flood-opacity="0.161"/>
      <feComposite operator="in" in2="blur"/>
      <feComposite in="SourceGraphic"/>
    </filter>
  </defs>
  <g id="Grupo_1178751" data-name="Grupo 1178751" transform="translate(-692.74 -2944.677)">
    <g id="Grupo_1177563" data-name="Grupo 1177563" transform="translate(0.279 -12113.323)">
      <g id="Grupo_1173148" data-name="Grupo 1173148" transform="translate(701.461 15064)">
        <g id="Grupo_1163803" data-name="Grupo 1163803" transform="translate(0 0)">
          <g id="Grupo_1163015" data-name="Grupo 1163015">
            <g id="Grupo_1157017" data-name="Grupo 1157017" transform="translate(0 0)">
              <g id="Grupo_1155793" data-name="Grupo 1155793" transform="translate(0 0)">
                <g id="Grupo_1154704" data-name="Grupo 1154704">
                  <g id="Grupo_1150790" data-name="Grupo 1150790">
                    <g id="Grupo_1154214" data-name="Grupo 1154214">
                      <g id="Grupo_1152583" data-name="Grupo 1152583">
                        <g id="Grupo_1146973" data-name="Grupo 1146973" transform="translate(0 0)">
                          <g id="Grupo_1146954" data-name="Grupo 1146954">
                            <g transform="matrix(1, 0, 0, 1, -9, -6)" filter="url(#Trazado_982547)">
                              <g id="Trazado_982547-2" data-name="Trazado 982547" transform="translate(9 6)" fill="#f2f7e5">
                                <path d="M 46.00000381469727 90.49988555908203 C 39.99188232421875 90.49988555908203 34.16427230834961 89.32352447509766 28.67905807495117 87.00347137451172 C 23.38020324707031 84.76226043701172 18.62103080749512 81.55342864990234 14.53375053405762 77.46615600585938 C 10.44645690917969 73.37887573242188 7.237643718719482 68.61971282958984 4.996417045593262 63.32085800170898 C 2.676363706588745 57.83565902709961 1.500003814697266 52.00806045532227 1.500003814697266 45.99993896484375 C 1.500003814697266 39.99181747436523 2.676363706588745 34.16421890258789 4.996417045593262 28.67901802062988 C 7.237643718719482 23.38017845153809 10.44645690917969 18.62101936340332 14.53375053405762 14.53373908996582 C 18.62103080749512 10.44645881652832 23.38020324707031 7.237632274627686 28.67905807495117 4.996418952941895 C 34.16427230834961 2.676365613937378 39.99188232421875 1.500005602836609 46.00000381469727 1.500005602836609 C 52.00812530517578 1.500005602836609 57.83573532104492 2.676365613937378 63.32094955444336 4.996418952941895 C 68.61980438232422 7.237632274627686 73.37896728515625 10.44645881652832 77.46625518798828 14.53373908996582 C 81.55353546142578 18.62101936340332 84.76236724853516 23.38017845153809 87.00359344482422 28.67901802062988 C 89.32364654541016 34.16421890258789 90.5 39.99181747436523 90.5 45.99993896484375 C 90.5 52.00806045532227 89.32364654541016 57.83565902709961 87.00359344482422 63.32085800170898 C 84.76236724853516 68.61971282958984 81.55353546142578 73.37887573242188 77.46625518798828 77.46615600585938 C 73.37896728515625 81.55342864990234 68.61980438232422 84.76226043701172 63.32094955444336 87.00347137451172 C 57.83573532104492 89.32352447509766 52.00812530517578 90.49988555908203 46.00000381469727 90.49988555908203 Z" stroke="none"/>
                                <path d="M 46.00000381469727 2.999992370605469 C 40.19371795654297 2.999992370605469 34.56270217895508 4.136497497558594 29.26338958740234 6.377906799316406 C 24.14333343505859 8.543510437011719 19.54441833496094 11.64437866210938 15.59440612792969 15.59439849853516 C 11.64440155029297 19.54439544677734 8.54351806640625 24.14329528808594 6.377914428710938 29.26335144042969 C 4.136505126953125 34.56266784667969 3.000007629394531 40.19366836547852 3.000007629394531 45.99993896484375 C 3.000007629394531 51.80620956420898 4.136505126953125 57.43722534179688 6.377914428710938 62.73654174804688 C 8.54351806640625 67.85658264160156 11.64440155029297 72.45548248291016 15.59440612792969 76.40549468994141 C 19.54441833496094 80.35549926757812 24.14333343505859 83.45636749267578 29.26337432861328 85.62196350097656 C 34.56270217895508 87.86338043212891 40.19371795654297 88.9998779296875 46.00000381469727 88.9998779296875 C 51.80628967285156 88.9998779296875 57.43730545043945 87.86338043212891 62.73663330078125 85.62196350097656 C 67.85667419433594 83.45636749267578 72.45558929443359 80.35549926757812 76.40560150146484 76.40549468994141 C 80.35560607910156 72.45548248291016 83.45648956298828 67.85658264160156 85.62208557128906 62.73654174804688 C 87.86350250244141 57.43722534179688 89 51.80620956420898 89 45.99993896484375 C 89 40.19366836547852 87.86350250244141 34.56266784667969 85.62208557128906 29.26335144042969 C 83.45648956298828 24.14329528808594 80.35560607910156 19.54439544677734 76.40560150146484 15.59439849853516 C 72.45558929443359 11.64437866210938 67.85667419433594 8.543510437011719 62.73661804199219 6.377906799316406 C 57.43730545043945 4.136497497558594 51.80628967285156 2.999992370605469 46.00000381469727 2.999992370605469 M 46.00000381469727 -7.62939453125e-06 C 71.40510559082031 -7.62939453125e-06 92 20.59487915039062 92 45.99993896484375 C 92 71.40501403808594 71.40510559082031 91.99988555908203 46.00000381469727 91.99988555908203 C 20.59490203857422 91.99988555908203 7.62939453125e-06 71.40501403808594 7.62939453125e-06 45.99993896484375 C 7.62939453125e-06 20.59487915039062 20.59490203857422 -7.62939453125e-06 46.00000381469727 -7.62939453125e-06 Z" stroke="none" fill="#86b60c"/>
                              </g>
                            </g>
                          </g>
                        </g>
                      </g>
                    </g>
                  </g>
                </g>
              </g>
            </g>
          </g>
        </g>
      </g>
    </g>
    <g id="innovation" transform="translate(690.115 2965.838)">
      <path id="Trazado_1038759" data-name="Trazado 1038759" d="M138.523,88.817a.9.9,0,0,0-.964-.161l-.8.333a.908.908,0,0,0-.569.8v1.8a.6.6,0,0,1-.6.6h-3.267a.6.6,0,0,1-.6-.6v-1.8a.909.909,0,0,0-.569-.8l-.8-.333a.9.9,0,0,0-.964.161l-1.259,1.269a.6.6,0,0,1-.849,0l-2.313-2.332a.61.61,0,0,1,0-.855l1.259-1.269a.91.91,0,0,0,.161-.969l-.332-.811a.9.9,0,0,0-.8-.57h-1.776a.6.6,0,0,1-.6-.6v-3.3a.6.6,0,0,1,.6-.6h1.776a.9.9,0,0,0,.8-.57l.333-.812a.911.911,0,0,0-.161-.969l-1.259-1.269a.61.61,0,0,1,0-.855l1.915-1.93a19.343,19.343,0,0,0-7.413-1.468,19.709,19.709,0,0,0-7.2,37.987v4.728h14.392v-4.729A19.687,19.687,0,0,0,139,90.584c0-.448-.016-.891-.045-1.331Z" transform="translate(-61.349 -62.36)" fill="#ffc502"/>
      <path id="Trazado_1038760" data-name="Trazado 1038760" d="M311.94,75.71a.6.6,0,0,0,.6-.6v-3.3a.6.6,0,0,0-.6-.6h-1.776a.9.9,0,0,1-.8-.57l-.333-.812a.911.911,0,0,1,.161-.969l1.26-1.269a.61.61,0,0,0,0-.855L308.141,64.4a.6.6,0,0,0-.849,0l-1.26,1.269a.9.9,0,0,1-.964.161l-.8-.333a.908.908,0,0,1-.569-.8V62.9a.6.6,0,0,0-.6-.6h-3.267a.6.6,0,0,0-.6.6v1.8a.909.909,0,0,1-.569.8l-.8.333a.9.9,0,0,1-.964-.161L295.636,64.4a.6.6,0,0,0-.849,0l-2.313,2.331a.61.61,0,0,0,0,.855l1.259,1.269a.911.911,0,0,1,.161.969l-.333.812a.9.9,0,0,1-.8.57h-1.776a.6.6,0,0,0-.6.6v3.3a.6.6,0,0,0,.6.6h1.776a.9.9,0,0,1,.8.57l.332.811a.91.91,0,0,1-.161.969l-1.259,1.269a.61.61,0,0,0,0,.855l2.313,2.332a.6.6,0,0,0,.849,0l1.259-1.269a.9.9,0,0,1,.964-.161l.8.333a.908.908,0,0,1,.569.8v1.8a.6.6,0,0,0,.6.6H303.1a.6.6,0,0,0,.6-.6v-1.8a.909.909,0,0,1,.569-.8l.8-.333a.9.9,0,0,1,.964.161l1.26,1.27a.6.6,0,0,0,.849,0l2.314-2.332a.61.61,0,0,0,0-.855l-1.26-1.269a.911.911,0,0,1-.161-.969l.333-.812a.9.9,0,0,1,.8-.57h1.776Z" transform="translate(-228.859 -54.79)" fill="#c5ccd3"/>
      <path id="Trazado_1038761" data-name="Trazado 1038761" d="M112.271,117.906h2.862v-5.939a.361.361,0,0,0-.227-.336,19.381,19.381,0,0,1-.191-35.852,19.735,19.735,0,0,0-2.444,37.4Z" transform="translate(-61.349 -66.65)" opacity="0.1"/>
      <path id="Trazado_1038762" data-name="Trazado 1038762" d="M311.94,75.71a.6.6,0,0,0,.6-.6v-3.3a.6.6,0,0,0-.6-.6h-1.776a.9.9,0,0,1-.8-.57l-.333-.812a.911.911,0,0,1,.161-.969l1.26-1.269a.61.61,0,0,0,0-.855L308.141,64.4a.6.6,0,0,0-.849,0l-1.26,1.269a.9.9,0,0,1-.964.161l-.8-.333a.908.908,0,0,1-.569-.8V62.9a.6.6,0,0,0-.6-.6h-3.267a.6.6,0,0,0-.6.6v1.8a.909.909,0,0,1-.569.8l-.8.333a.9.9,0,0,1-.964-.161L295.636,64.4a.6.6,0,0,0-.849,0l-2.313,2.331a.61.61,0,0,0,0,.855l1.259,1.269a.911.911,0,0,1,.161.969l-.333.812a.9.9,0,0,1-.8.57h-1.776a.6.6,0,0,0-.6.6v3.3a.6.6,0,0,0,.6.6h1.776a.9.9,0,0,1,.8.57l.332.811a.91.91,0,0,1-.161.969l-1.259,1.269a.61.61,0,0,0,0,.855l2.313,2.332a.6.6,0,0,0,.849,0l1.259-1.269a.9.9,0,0,1,.964-.161l.8.333a.908.908,0,0,1,.569.8v1.8a.6.6,0,0,0,.6.6H303.1a.6.6,0,0,0,.6-.6v-1.8a.909.909,0,0,1,.569-.8l.8-.333a.9.9,0,0,1,.964.161l1.26,1.27a.6.6,0,0,0,.849,0l2.314-2.332a.61.61,0,0,0,0-.855l-1.26-1.269a.911.911,0,0,1-.161-.969l.333-.812a.9.9,0,0,1,.8-.57h1.776Z" transform="translate(-228.859 -54.79)" fill="#c5ccd3"/>
      <ellipse id="Elipse_12306" data-name="Elipse 12306" cx="5.332" cy="5.373" rx="5.332" ry="5.373" transform="translate(67.274 13.294)" fill="#9ea7af"/>
      <g id="Grupo_1178746" data-name="Grupo 1178746" transform="translate(67.274 13.295)" opacity="0.1">
        <path id="Trazado_1038763" data-name="Trazado 1038763" d="M340.609,115.736a5.366,5.366,0,0,1,4.072-5.221,5.373,5.373,0,1,0,0,10.441A5.366,5.366,0,0,1,340.609,115.736Z" transform="translate(-338.09 -110.363)" fill="#00003f"/>
      </g>
      <ellipse id="Elipse_12307" data-name="Elipse 12307" cx="2.254" cy="2.271" rx="2.254" ry="2.271" transform="translate(70.351 16.396)" fill="#fff"/>
      <g id="Grupo_1178747" data-name="Grupo 1178747" transform="translate(52.226 25.234)">
        <path id="Trazado_1038764" data-name="Trazado 1038764" d="M250.858,212.429a.6.6,0,0,0,.6.6h2.3a.6.6,0,0,0,.6-.6v-2.354a.6.6,0,0,0-.6-.6h-2.3a.6.6,0,0,0-.6.6Z" transform="translate(-246.318 -209.472)" fill="#33c7ca"/>
        <path id="Trazado_1038765" data-name="Trazado 1038765" d="M213.171,330.251a.6.6,0,0,0,.6.6h2.3a.6.6,0,0,0,.6-.6V327.9a.6.6,0,0,0-.6-.6h-2.3a.6.6,0,0,0-.6.6Z" transform="translate(-213.171 -313.101)" fill="#33c7ca"/>
      </g>
      <path id="Trazado_1038766" data-name="Trazado 1038766" d="M202.688,261.56a.61.61,0,0,0,0,.855l1.628,1.641a.6.6,0,0,0,.849,0l1.649-1.662a.61.61,0,0,0,0-.855l-1.628-1.641a.6.6,0,0,0-.849,0Z" transform="translate(-151.571 -228.435)" fill="#fff"/>
      <path id="Trazado_1038767" data-name="Trazado 1038767" d="M219.308,461.763v4.076a1.073,1.073,0,0,0,1.068,1.072h8.171a1.073,1.073,0,0,0,1.068-1.072v-4.076Z" transform="translate(-166.343 -406.138)" fill="#08375e"/>
      <g id="Grupo_1178748" data-name="Grupo 1178748" transform="translate(49.539 51.256)">
        <path id="Trazado_1038768" data-name="Trazado 1038768" d="M208.028,428.657a1.208,1.208,0,0,1-1.2,1.2H192.075a1.208,1.208,0,0,1-1.2-1.2V426.7a1.208,1.208,0,0,1,1.2-1.2h14.749a1.208,1.208,0,0,1,1.2,1.2v1.96Z" transform="translate(-190.87 -425.492)" fill="#046699"/>
        <path id="Trazado_1038769" data-name="Trazado 1038769" d="M219.308,482.256v1.608a1.073,1.073,0,0,0,1.068,1.072h8.171a1.073,1.073,0,0,0,1.068-1.072v-1.608Z" transform="translate(-215.882 -475.418)" fill="#046699"/>
      </g>
      <path id="Trazado_1038770" data-name="Trazado 1038770" d="M223.059,465.839v-4.076h-3.751v4.076a1.073,1.073,0,0,0,1.068,1.072h3.751A1.073,1.073,0,0,1,223.059,465.839Z" transform="translate(-166.343 -406.138)" opacity="0.1"/>
      <g id="Grupo_1178749" data-name="Grupo 1178749" transform="translate(49.539 51.256)" opacity="0.1">
        <path id="Trazado_1038771" data-name="Trazado 1038771" d="M194.62,428.657V426.7a1.208,1.208,0,0,1,1.2-1.2h-3.75a1.208,1.208,0,0,0-1.2,1.2v1.96a1.208,1.208,0,0,0,1.2,1.2h3.75A1.208,1.208,0,0,1,194.62,428.657Z" transform="translate(-190.87 -425.492)" fill="#00003f"/>
      </g>
      <g id="Grupo_1178750" data-name="Grupo 1178750" transform="translate(48.466 23.195)">
        <path id="Trazado_1038772" data-name="Trazado 1038772" d="M306.932,299.965a.6.6,0,0,0,.6.6h2.3a.6.6,0,0,0,.6-.6V297.61a.6.6,0,0,0-.6-.6h-2.3a.6.6,0,0,0-.6.6Z" transform="translate(-291.878 -284.425)" fill="#fff"/>
        <path id="Trazado_1038773" data-name="Trazado 1038773" d="M181.96,195.509a.6.6,0,0,0,.6.6h2.3a.6.6,0,0,0,.6-.6v-2.354a.6.6,0,0,0-.6-.6h-2.3a.6.6,0,0,0-.6.6Z" transform="translate(-181.96 -192.552)" fill="#fff"/>
      </g>
      <path id="Trazado_1038774" data-name="Trazado 1038774" d="M216.174,138.028a.6.6,0,0,0,.6.6h2.3a.6.6,0,0,0,.6-.6v-2.354a.6.6,0,0,0-.6-.6h-2.3a.6.6,0,0,0-.6.6Z" transform="translate(-163.587 -118.8)" fill="#33c7ca"/>
      <path id="Trazado_1038775" data-name="Trazado 1038775" d="M137.835,63.7H136.1l0-.009-.333-.812-.007-.016v0l1.232-1.241a1.515,1.515,0,0,0,0-2.128l-2.314-2.331a1.5,1.5,0,0,0-2.131,0L131.319,58.4l-.009,0-.8-.333-.012,0h0V56.3a1.507,1.507,0,0,0-1.506-1.506h-3.267a1.507,1.507,0,0,0-1.506,1.506v1.759h0l-.012,0-.8.333-.009,0-1.226-1.236a1.5,1.5,0,0,0-2.111-.018,20.2,20.2,0,0,0-7.189-1.317,20.612,20.612,0,0,0-8.1,39.492v3.354a2.11,2.11,0,0,0-1.383,1.977v1.96a2.111,2.111,0,0,0,2.108,2.108h1.318v3.173a1.975,1.975,0,0,0,1.971,1.975h8.171a1.975,1.975,0,0,0,1.971-1.975v-3.173h1.318a2.111,2.111,0,0,0,2.108-2.108v-1.96a2.11,2.11,0,0,0-1.383-1.977V95.323A20.461,20.461,0,0,0,131.361,85.2a.9.9,0,1,0-1.636-.767,18.668,18.668,0,0,1-8.754,8.9v-4.9h.2a1.507,1.507,0,0,0,1.506-1.506V84.574a1.507,1.507,0,0,0-1.506-1.506h-2.3a1.507,1.507,0,0,0-1.506,1.506v2.354a1.507,1.507,0,0,0,1.506,1.506h.288V98.545h-1.316V91.614a2.558,2.558,0,0,0-.686-1.666l-6.815-6.867.29-.292a1.515,1.515,0,0,0,0-2.128l-1.628-1.641a1.5,1.5,0,0,0-2.131,0l-1.649,1.662a1.515,1.515,0,0,0,0,2.128l1.628,1.641a1.5,1.5,0,0,0,2.131,0l.086-.087,6.805,6.857a.874.874,0,0,1,.162.394v6.931h-1.868V90.958a.9.9,0,0,0-1.807,0v7.588h-2.733V92.082h.246a1.507,1.507,0,0,0,1.506-1.506V88.222a1.507,1.507,0,0,0-1.506-1.506h-2.3a1.507,1.507,0,0,0-1.506,1.506v2.354a1.507,1.507,0,0,0,1.506,1.506h.245v6.463h-1.248V94.721a.9.9,0,0,0-.568-.839,18.806,18.806,0,0,1,6.861-36.244,18.416,18.416,0,0,1,5.78.927l-.924.932a1.514,1.514,0,0,0,0,2.128l1.231,1.241v0l-.007.016-.333.812,0,.009h-1.734a1.507,1.507,0,0,0-1.506,1.506v3.3a1.507,1.507,0,0,0,1.506,1.506h1.734l0,.009.332.811.007.016v0L117.728,72.1a1.515,1.515,0,0,0,0,2.128l2.314,2.332a1.5,1.5,0,0,0,2.131,0L123.4,75.32l.009,0,.8.333.012,0h0v1.759a1.507,1.507,0,0,0,1.506,1.506h3.267a1.507,1.507,0,0,0,1.506-1.506V75.663h0l.012,0,.8-.333.009,0,.158.159c.015.311.024.623.024.937a19.19,19.19,0,0,1-.163,2.5.9.9,0,0,0,1.791.236,20.966,20.966,0,0,0,.17-2.183,1.517,1.517,0,0,0,.312.033,1.491,1.491,0,0,0,1.066-.443l2.314-2.332a1.515,1.515,0,0,0,0-2.128l-1.232-1.241v0l.007-.016.333-.812,0-.009h1.734a1.507,1.507,0,0,0,1.506-1.506v-3.3A1.508,1.508,0,0,0,137.835,63.7ZM119.177,84.875h1.7v1.752h-1.7Zm-12.458-3.13,1.225-1.234,1.2,1.213-1.225,1.234Zm1.164,6.778h1.7v1.752h-1.7Zm9.239,19.371a.169.169,0,0,1-.164.168h-8.171a.169.169,0,0,1-.164-.168v-.7h8.5v.7Zm0-2.511h-8.5v-.662h8.5Zm-11.925-4.73a.305.305,0,0,1,.3-.3h14.749a.305.305,0,0,1,.3.3v1.96a.305.305,0,0,1-.3.3H105.5a.305.305,0,0,1-.3-.3ZM137.534,68.21h-1.475a1.794,1.794,0,0,0-1.641,1.15l-.316.771a1.8,1.8,0,0,0,.347,1.969l1.052,1.06-1.889,1.9-1.043-1.051a1.775,1.775,0,0,0-1.257-.5,1.705,1.705,0,0,0-.717.154l-.759.316a1.8,1.8,0,0,0-1.145,1.642v1.5h-2.665v-1.5a1.8,1.8,0,0,0-1.145-1.642l-.759-.316a1.705,1.705,0,0,0-.716-.154,1.774,1.774,0,0,0-1.257.5l-1.042,1.051-1.889-1.9L120.27,72.1a1.8,1.8,0,0,0,.347-1.969l-.316-.771a1.794,1.794,0,0,0-1.641-1.15h-1.475v-2.7h1.475a1.794,1.794,0,0,0,1.641-1.15l.316-.771a1.8,1.8,0,0,0-.347-1.969l-1.052-1.06,1.889-1.9,1.042,1.051a1.775,1.775,0,0,0,1.257.5,1.705,1.705,0,0,0,.716-.154l.759-.316a1.8,1.8,0,0,0,1.145-1.642V56.6h2.665v1.5a1.8,1.8,0,0,0,1.145,1.642l.759.316a1.7,1.7,0,0,0,.717.154,1.773,1.773,0,0,0,1.257-.5l1.043-1.05,1.889,1.9-1.052,1.06a1.8,1.8,0,0,0-.347,1.969l.316.771a1.794,1.794,0,0,0,1.641,1.15h1.475Z" transform="translate(-54.753 -48.193)"/>
      <path id="Trazado_1038776" data-name="Trazado 1038776" d="M341.609,106.6a.9.9,0,0,0-.578,1.14,4.5,4.5,0,0,1,.222,1.4,4.429,4.429,0,1,1-4.429-4.469,4.383,4.383,0,0,1,1.464.25.9.9,0,0,0,.6-1.7,6.19,6.19,0,0,0-2.065-.353,6.264,6.264,0,1,0,5.924,4.313A.9.9,0,0,0,341.609,106.6Z" transform="translate(-264.219 -90.472)"/>
      <path id="Trazado_1038777" data-name="Trazado 1038777" d="M359.3,128.61a3.175,3.175,0,1,0,3.157,3.175A3.17,3.17,0,0,0,359.3,128.61Zm0,4.542a1.368,1.368,0,1,1,1.35-1.368A1.361,1.361,0,0,1,359.3,133.152Z" transform="translate(-286.693 -113.117)"/>
      <path id="Trazado_1038778" data-name="Trazado 1038778" d="M246.013,213.841a.9.9,0,0,0,.9-.9v-5.6h.245a1.507,1.507,0,0,0,1.506-1.506v-2.354a1.507,1.507,0,0,0-1.506-1.506h-2.3a1.507,1.507,0,0,0-1.506,1.506v2.354a1.507,1.507,0,0,0,1.506,1.506h.245v5.6A.9.9,0,0,0,246.013,213.841Zm-.848-10.062h1.7v1.752h-1.7Z" transform="translate(-187.496 -177.642)"/>
      <path id="Trazado_1038779" data-name="Trazado 1038779" d="M258.8,4.324a.9.9,0,0,0,.9-.9V.9a.9.9,0,0,0-1.807,0V3.421A.9.9,0,0,0,258.8,4.324Z" transform="translate(-200.282)"/>
      <path id="Trazado_1038780" data-name="Trazado 1038780" d="M192.413,13.913a.9.9,0,0,0,1.732-.517l-.72-2.412a.9.9,0,1,0-1.731.517Z" transform="translate(-142.021 -9.094)"/>
      <path id="Trazado_1038781" data-name="Trazado 1038781" d="M132.69,42.838a.9.9,0,1,0,1.511-.991l-1.38-2.1a.9.9,0,0,0-1.511.991Z" transform="translate(-88.816 -34.598)"/>
      <path id="Trazado_1038782" data-name="Trazado 1038782" d="M81.833,86.139l1.923,1.617a.9.9,0,1,0,1.163-1.383L83,84.756a.9.9,0,1,0-1.163,1.383Z" transform="translate(-45.145 -74.359)"/>
      <path id="Trazado_1038783" data-name="Trazado 1038783" d="M47.423,143.89l2.3.995a.9.9,0,1,0,.716-1.659l-2.3-.995a.9.9,0,1,0-.716,1.659Z" transform="translate(-14.684 -125.032)"/>
      <path id="Trazado_1038784" data-name="Trazado 1038784" d="M33.474,209.415a.9.9,0,0,0,.208-1.8l-2.492-.288a.9.9,0,1,0-.208,1.795Z" transform="translate(0 -182.35)"/>
      <path id="Trazado_1038785" data-name="Trazado 1038785" d="M37.09,271.641a.9.9,0,0,0-1.049-.73l-2.469.442a.9.9,0,1,0,.318,1.779l2.469-.442A.9.9,0,0,0,37.09,271.641Z" transform="translate(-2.326 -238.263)"/>
      <path id="Trazado_1038786" data-name="Trazado 1038786" d="M57.328,328.885l-2.239,1.135a.9.9,0,1,0,.817,1.612l2.239-1.135a.9.9,0,1,0-.817-1.612Z" transform="translate(-21.471 -289.181)"/>
      <path id="Trazado_1038787" data-name="Trazado 1038787" d="M95.747,378.77l-1.82,1.732a.9.9,0,0,0,1.246,1.309l1.82-1.732a.9.9,0,0,0-1.246-1.309Z" transform="translate(-55.818 -332.923)"/>
      <path id="Trazado_1038788" data-name="Trazado 1038788" d="M175.966,185.052a1.507,1.507,0,0,0-1.506,1.506v2.354a1.507,1.507,0,0,0,1.506,1.506h2.3a1.507,1.507,0,0,0,1.506-1.506v-2.354a1.507,1.507,0,0,0-1.506-1.506Zm2,3.559h-1.7v-1.752h1.7Z" transform="translate(-126.898 -162.76)"/>
      <path id="Trazado_1038789" data-name="Trazado 1038789" d="M212.478,132.937a1.507,1.507,0,0,0,1.506-1.506v-2.354a1.507,1.507,0,0,0-1.506-1.506h-2.3a1.507,1.507,0,0,0-1.506,1.506v2.354a1.507,1.507,0,0,0,1.506,1.506Zm-2-3.559h1.7v1.752h-1.7Z" transform="translate(-156.99 -112.203)"/>
    </g>
  </g>
</svg>
