<svg xmlns="http://www.w3.org/2000/svg" xmlns:xlink="http://www.w3.org/1999/xlink" width="110" height="110" viewBox="0 0 110 110">
  <defs>
    <filter id="Trazado_982547" x="0" y="0" width="110" height="110" filterUnits="userSpaceOnUse">
      <feOffset dy="3" input="SourceAlpha"/>
      <feGaussianBlur stdDeviation="3" result="blur"/>
      <feFlood flood-opacity="0.161"/>
      <feComposite operator="in" in2="blur"/>
      <feComposite in="SourceGraphic"/>
    </filter>
  </defs>
  <g id="Grupo_1178753" data-name="Grupo 1178753" transform="translate(-6656 -2935)">
    <g id="Grupo_1177566" data-name="Grupo 1177566" transform="translate(6278.539 -12122)">
      <g id="Grupo_1173147" data-name="Grupo 1173147" transform="translate(386.461 15063)">
        <g id="Grupo_1163801" data-name="Grupo 1163801" transform="translate(0 0)">
          <g id="Grupo_1163014" data-name="Grupo 1163014">
            <g id="Grupo_1157015" data-name="Grupo 1157015" transform="translate(0 0)">
              <g id="Grupo_1155792" data-name="Grupo 1155792" transform="translate(0 0)">
                <g id="Grupo_1154703" data-name="Grupo 1154703">
                  <g id="Grupo_1150789" data-name="Grupo 1150789">
                    <g id="Grupo_1154212" data-name="Grupo 1154212">
                      <g id="Grupo_1152583" data-name="Grupo 1152583">
                        <g id="Grupo_1146973" data-name="Grupo 1146973" transform="translate(0 0)">
                          <g id="Grupo_1146954" data-name="Grupo 1146954">
                            <g transform="matrix(1, 0, 0, 1, -9, -6)" filter="url(#Trazado_982547)">
                              <g id="Trazado_982547-2" data-name="Trazado 982547" transform="translate(9 6)" fill="#f2f7e5">
                                <path d="M 46.00000381469727 90.49988555908203 C 39.99188232421875 90.49988555908203 34.16427230834961 89.32352447509766 28.67905807495117 87.00347137451172 C 23.38020324707031 84.76226043701172 18.62103080749512 81.55342864990234 14.53375053405762 77.46615600585938 C 10.44645690917969 73.37887573242188 7.237643718719482 68.61971282958984 4.996417045593262 63.32085800170898 C 2.676363706588745 57.83565902709961 1.500003814697266 52.00806045532227 1.500003814697266 45.99993896484375 C 1.500003814697266 39.99181747436523 2.676363706588745 34.16421890258789 4.996417045593262 28.67901802062988 C 7.237643718719482 23.38017845153809 10.44645690917969 18.62101936340332 14.53375053405762 14.53373908996582 C 18.62103080749512 10.44645881652832 23.38020324707031 7.237632274627686 28.67905807495117 4.996418952941895 C 34.16427230834961 2.676365613937378 39.99188232421875 1.500005602836609 46.00000381469727 1.500005602836609 C 52.00812530517578 1.500005602836609 57.83573532104492 2.676365613937378 63.32094955444336 4.996418952941895 C 68.61980438232422 7.237632274627686 73.37896728515625 10.44645881652832 77.46625518798828 14.53373908996582 C 81.55353546142578 18.62101936340332 84.76236724853516 23.38017845153809 87.00359344482422 28.67901802062988 C 89.32364654541016 34.16421890258789 90.5 39.99181747436523 90.5 45.99993896484375 C 90.5 52.00806045532227 89.32364654541016 57.83565902709961 87.00359344482422 63.32085800170898 C 84.76236724853516 68.61971282958984 81.55353546142578 73.37887573242188 77.46625518798828 77.46615600585938 C 73.37896728515625 81.55342864990234 68.61980438232422 84.76226043701172 63.32094955444336 87.00347137451172 C 57.83573532104492 89.32352447509766 52.00812530517578 90.49988555908203 46.00000381469727 90.49988555908203 Z" stroke="none"/>
                                <path d="M 46.00000381469727 2.999992370605469 C 40.19371795654297 2.999992370605469 34.56270217895508 4.136497497558594 29.26338958740234 6.377906799316406 C 24.14333343505859 8.543510437011719 19.54441833496094 11.64437866210938 15.59440612792969 15.59439849853516 C 11.64440155029297 19.54439544677734 8.54351806640625 24.14329528808594 6.377914428710938 29.26335144042969 C 4.136505126953125 34.56266784667969 3.000007629394531 40.19366836547852 3.000007629394531 45.99993896484375 C 3.000007629394531 51.80620956420898 4.136505126953125 57.43722534179688 6.377914428710938 62.73654174804688 C 8.54351806640625 67.85658264160156 11.64440155029297 72.45548248291016 15.59440612792969 76.40549468994141 C 19.54441833496094 80.35549926757812 24.14333343505859 83.45636749267578 29.26337432861328 85.62196350097656 C 34.56270217895508 87.86338043212891 40.19371795654297 88.9998779296875 46.00000381469727 88.9998779296875 C 51.80628967285156 88.9998779296875 57.43730545043945 87.86338043212891 62.73663330078125 85.62196350097656 C 67.85667419433594 83.45636749267578 72.45558929443359 80.35549926757812 76.40560150146484 76.40549468994141 C 80.35560607910156 72.45548248291016 83.45648956298828 67.85658264160156 85.62208557128906 62.73654174804688 C 87.86350250244141 57.43722534179688 89 51.80620956420898 89 45.99993896484375 C 89 40.19366836547852 87.86350250244141 34.56266784667969 85.62208557128906 29.26335144042969 C 83.45648956298828 24.14329528808594 80.35560607910156 19.54439544677734 76.40560150146484 15.59439849853516 C 72.45558929443359 11.64437866210938 67.85667419433594 8.543510437011719 62.73661804199219 6.377906799316406 C 57.43730545043945 4.136497497558594 51.80628967285156 2.999992370605469 46.00000381469727 2.999992370605469 M 46.00000381469727 -7.62939453125e-06 C 71.40510559082031 -7.62939453125e-06 92 20.59487915039062 92 45.99993896484375 C 92 71.40501403808594 71.40510559082031 91.99988555908203 46.00000381469727 91.99988555908203 C 20.59490203857422 91.99988555908203 7.62939453125e-06 71.40501403808594 7.62939453125e-06 45.99993896484375 C 7.62939453125e-06 20.59487915039062 20.59490203857422 -7.62939453125e-06 46.00000381469727 -7.62939453125e-06 Z" stroke="none" fill="#86b60c"/>
                              </g>
                            </g>
                          </g>
                        </g>
                      </g>
                    </g>
                  </g>
                </g>
              </g>
            </g>
          </g>
        </g>
      </g>
    </g>
    <g id="financial-advisor_2117801" transform="translate(6682.014 2957.998)">
      <path id="Trazado_1038790" data-name="Trazado 1038790" d="M51.128,19.135a.667.667,0,0,0-.505-.6l-3.194-.791a.642.642,0,0,1-.486-.515,15,15,0,0,0-.61-2.269.659.659,0,0,1,.162-.686l2.374-2.279a.626.626,0,0,0,.124-.763c-.124-.257-.686-1.23-.849-1.459a.638.638,0,0,0-.725-.276l-3.175.906a.676.676,0,0,1-.686-.21A14.268,14.268,0,0,0,41.9,8.542a.68.68,0,0,1-.21-.677L42.595,4.7a.625.625,0,0,0-.267-.725c-.238-.153-1.211-.715-1.459-.849a.654.654,0,0,0-.772.133L37.809,5.615a.7.7,0,0,1-.7.172,14.071,14.071,0,0,0-2.279-.61.682.682,0,0,1-.524-.486l-.791-3.184a.667.667,0,0,0-.6-.5c-.286-.01-1.411-.01-1.7,0a.66.66,0,0,0-.6.5l-.8,3.184a.667.667,0,0,1-.515.486,14.071,14.071,0,0,0-2.279.61.694.694,0,0,1-.7-.172L24.041,3.26a.656.656,0,0,0-.772-.133c-.248.133-1.22.7-1.468.849a.651.651,0,0,0-.267.725l.915,3.165a.68.68,0,0,1-.21.677,15.144,15.144,0,0,0-1.669,1.649.667.667,0,0,1-.686.21L16.718,9.5a.651.651,0,0,0-.734.276c-.153.229-.715,1.2-.849,1.459a.642.642,0,0,0,.133.763l2.374,2.279a.655.655,0,0,1,.153.686,14.978,14.978,0,0,0-.6,2.269.667.667,0,0,1-.486.515l-3.2.791a.667.667,0,0,0-.505.6V21a.667.667,0,0,0,.505.6l3.2.791a.667.667,0,0,1,.486.515c.057.334.133.658.21.982l8.943,10.478,8.581,1.907,8.619-6.321.01-.01a.676.676,0,0,1,.686-.21l3.175.906a.638.638,0,0,0,.725-.277c.162-.229.725-1.2.849-1.459a.626.626,0,0,0-.124-.763l-2.374-2.279a.659.659,0,0,1-.162-.686,15,15,0,0,0,.61-2.269.642.642,0,0,1,.486-.515l3.194-.791a.667.667,0,0,0,.505-.6c.01-.143.01-1.726,0-1.869ZM32.069,30.557a10.482,10.482,0,1,1,7.418-3.07A10.488,10.488,0,0,1,32.069,30.557Z" transform="translate(-0.606 -0.047)" fill="#cfd2da"/>
      <circle id="Elipse_12308" data-name="Elipse 12308" cx="16.208" cy="16.208" r="16.208" transform="translate(0.953 23.836)" fill="#f5ba32"/>
      <circle id="Elipse_12309" data-name="Elipse 12309" cx="12.395" cy="12.395" r="12.395" transform="translate(4.767 27.65)" fill="#fccd3a"/>
      <path id="Trazado_1038791" data-name="Trazado 1038791" d="M54.777,57.51H25.546a2.643,2.643,0,0,1-2.18-4L37.983,28.287a2.488,2.488,0,0,1,4.357,0L56.956,53.51a2.643,2.643,0,0,1-2.18,4Z" transform="translate(-1.071 -1.257)" fill="#f2a332"/>
      <g id="Grupo_1178752" data-name="Grupo 1178752" transform="translate(-0.014 0.002)">
        <path id="Trazado_1038792" data-name="Trazado 1038792" d="M44.655,30.972l1.907.543a1.662,1.662,0,0,0,.444.06,1.509,1.509,0,0,0,1.314-.706c.2-.28.788-1.3.894-1.531a1.573,1.573,0,0,0-.286-1.929L46.69,25.266a15.934,15.934,0,0,0,.544-2.039l3.037-.752a1.621,1.621,0,0,0,1.2-1.458c.012-.191.012-1.807,0-1.962a1.637,1.637,0,0,0-1.228-1.494l-3.01-.746a15.9,15.9,0,0,0-.545-2.038l2.231-2.142a1.549,1.549,0,0,0,.324-1.864c-.141-.3-.73-1.317-.882-1.526a1.593,1.593,0,0,0-1.812-.716l-2.995.858a15.109,15.109,0,0,0-1.5-1.495l.85-2.959a1.574,1.574,0,0,0-.667-1.812c-.258-.165-1.255-.742-1.535-.893a1.614,1.614,0,0,0-1.894.317L36.644,4.772a15.245,15.245,0,0,0-2.061-.549L33.82,1.172A1.621,1.621,0,0,0,32.346.009c-.3-.009-1.468-.009-1.762,0A1.6,1.6,0,0,0,29.09,1.223l-.756,3a14.946,14.946,0,0,0-2.05.548L24.126,2.554a1.607,1.607,0,0,0-1.917-.316c-.256.138-1.259.719-1.526.883a1.6,1.6,0,0,0-.667,1.793l.858,2.975a15.724,15.724,0,0,0-1.51,1.5l-3-.858a1.593,1.593,0,0,0-1.772.667c-.173.257-.754,1.264-.894,1.534a1.6,1.6,0,0,0,.313,1.907l2.226,2.138a15.9,15.9,0,0,0-.542,2.044l-3.042.752a1.638,1.638,0,0,0-1.207,1.517v1.9a1.637,1.637,0,0,0,1.23,1.495l2.27.561a17.151,17.151,0,1,0,7.346,33.37,3.4,3.4,0,0,0,2.188.793H53.706a3.444,3.444,0,0,0,3.007-1.764,3.67,3.67,0,0,0,0-3.666ZM13.348,19.355l3-.742a1.634,1.634,0,0,0,1.18-1.26,13.944,13.944,0,0,1,.561-2.118,1.621,1.621,0,0,0-.391-1.7l-2.209-2.12c.157-.279.412-.718.577-.991l2.942.842a1.621,1.621,0,0,0,1.676-.5A14.493,14.493,0,0,1,22.272,9.2a1.635,1.635,0,0,0,.487-1.648l-.85-2.941c.28-.167.718-.42,1-.578l2.143,2.205a1.662,1.662,0,0,0,1.7.4,13.294,13.294,0,0,1,2.132-.572,1.63,1.63,0,0,0,1.26-1.19l.747-2.965h1.158l.75,3.014a1.64,1.64,0,0,0,1.264,1.144,13.5,13.5,0,0,1,2.16.581,1.662,1.662,0,0,0,1.669-.415l2.136-2.193c.277.158.709.408.989.572l-.845,2.956a1.649,1.649,0,0,0,.514,1.665,13.586,13.586,0,0,1,1.584,1.579,1.621,1.621,0,0,0,1.637.467l2.956-.844c.152.245.409.688.572.993l-2.22,2.131a1.621,1.621,0,0,0-.381,1.686,14,14,0,0,1,.563,2.088,1.6,1.6,0,0,0,1.2,1.3l2.989.728V20.68l-2.991.742a1.584,1.584,0,0,0-1.182,1.256,13.961,13.961,0,0,1-.572,2.128,1.63,1.63,0,0,0,.4,1.7l2.205,2.116c-.144.265-.4.706-.572.993l-2.939-.838a1.547,1.547,0,0,0-.563-.051l-1.259-2.17a3.44,3.44,0,0,0-6.007,0l-3.487,6.018a17.156,17.156,0,0,0-9.876-8.752A9.534,9.534,0,1,1,41,20.022a9.685,9.685,0,0,1-.157,1.736.953.953,0,1,0,1.876.344,11.447,11.447,0,1,0-22.226,1.119,17.21,17.21,0,0,0-2.918-.322c-.015-.074-.033-.141-.047-.218a1.642,1.642,0,0,0-1.194-1.258l-2.984-.733Zm7.824,35.4a15.263,15.263,0,0,1-3.057.5V53.334a13.426,13.426,0,0,0,2.966-.556,3.674,3.674,0,0,0,.091,1.983Zm6.075-26.15-1.375,1.378a13.3,13.3,0,0,0-7.757-3.242V24.827a15.255,15.255,0,0,1,9.132,3.784Zm-11.039-3.77v1.907a13.271,13.271,0,0,0-7.774,3.224L7.085,28.62a15.174,15.174,0,0,1,9.123-3.782ZM7.085,31.317a13.271,13.271,0,0,0-3.224,7.774H1.955a15.174,15.174,0,0,1,3.782-9.123ZM3.862,41a13.271,13.271,0,0,0,3.224,7.774L5.737,50.121A15.174,15.174,0,0,1,1.955,41Zm4.577,9.123a13.271,13.271,0,0,0,7.77,3.224v1.907a15.174,15.174,0,0,1-9.123-3.782Zm13.941.1a11.44,11.44,0,1,1,6.2-10.7Zm7.735-13.348a13.328,13.328,0,0,0-2.884-5.539L28.6,29.951a15.16,15.16,0,0,1,2.809,4.672ZM55.061,54.491a1.539,1.539,0,0,1-1.355.809H24.475a1.54,1.54,0,0,1-1.355-.808,1.737,1.737,0,0,1,0-1.759L37.739,27.5a1.535,1.535,0,0,1,2.7,0l14.616,25.23a1.737,1.737,0,0,1,0,1.758Z" transform="translate(0.014 -0.002)" fill="#373737"/>
        <path id="Trazado_1038793" data-name="Trazado 1038793" d="M40.953,35a.953.953,0,0,0-.953.953V47.395a.953.953,0,1,0,1.907,0V35.953A.953.953,0,0,0,40.953,35Z" transform="translate(-1.849 -1.632)" fill="#373737"/>
        <path id="Trazado_1038794" data-name="Trazado 1038794" d="M40.953,51a.953.953,0,0,0-.953.953v.953a.953.953,0,1,0,1.907,0v-.953A.953.953,0,0,0,40.953,51Z" transform="translate(-1.849 -2.377)" fill="#373737"/>
        <path id="Trazado_1038795" data-name="Trazado 1038795" d="M20.627,37.721a.953.953,0,1,0,1.907,0,4.776,4.776,0,0,0-3.814-4.672v-.1a.953.953,0,0,0-1.907,0v.1a4.767,4.767,0,0,0,0,9.344v5.642a2.86,2.86,0,0,1-1.907-2.686.953.953,0,1,0-1.907,0,4.776,4.776,0,0,0,3.814,4.672v.1a.953.953,0,0,0,1.907,0v-.1a4.767,4.767,0,0,0,0-9.344V35.036A2.86,2.86,0,0,1,20.627,37.721Zm-5.721,0a2.86,2.86,0,0,1,1.907-2.685v5.37a2.86,2.86,0,0,1-1.907-2.685Zm5.721,7.628a2.86,2.86,0,0,1-1.907,2.685v-5.37a2.86,2.86,0,0,1,1.907,2.685Z" transform="translate(-0.592 -1.492)" fill="#373737"/>
      </g>
    </g>
  </g>
</svg>
