<svg xmlns="http://www.w3.org/2000/svg" xmlns:xlink="http://www.w3.org/1999/xlink" width="110" height="110" viewBox="0 0 110 110">
  <defs>
    <filter id="Trazado_982547" x="0" y="0" width="110" height="110" filterUnits="userSpaceOnUse">
      <feOffset dy="3" input="SourceAlpha"/>
      <feGaussianBlur stdDeviation="3" result="blur"/>
      <feFlood flood-opacity="0.161"/>
      <feComposite operator="in" in2="blur"/>
      <feComposite in="SourceGraphic"/>
    </filter>
  </defs>
  <g id="Grupo_1178761" data-name="Grupo 1178761" transform="translate(-6656 -3340)">
    <g id="Grupo_1177568" data-name="Grupo 1177568" transform="translate(6278.539 -11717)">
      <g id="Grupo_1173147" data-name="Grupo 1173147" transform="translate(386.461 15063)">
        <g id="Grupo_1163801" data-name="Grupo 1163801" transform="translate(0 0)">
          <g id="Grupo_1163014" data-name="Grupo 1163014">
            <g id="Grupo_1157015" data-name="Grupo 1157015" transform="translate(0 0)">
              <g id="Grupo_1155792" data-name="Grupo 1155792" transform="translate(0 0)">
                <g id="Grupo_1154703" data-name="Grupo 1154703">
                  <g id="Grupo_1150789" data-name="Grupo 1150789">
                    <g id="Grupo_1154212" data-name="Grupo 1154212">
                      <g id="Grupo_1152583" data-name="Grupo 1152583">
                        <g id="Grupo_1146973" data-name="Grupo 1146973" transform="translate(0 0)">
                          <g id="Grupo_1146954" data-name="Grupo 1146954">
                            <g transform="matrix(1, 0, 0, 1, -9, -6)" filter="url(#Trazado_982547)">
                              <g id="Trazado_982547-2" data-name="Trazado 982547" transform="translate(9 6)" fill="#f2f7e5">
                                <path d="M 46.00000381469727 90.49988555908203 C 39.99188232421875 90.49988555908203 34.16427230834961 89.32352447509766 28.67905807495117 87.00347137451172 C 23.38020324707031 84.76226043701172 18.62103080749512 81.55342864990234 14.53375053405762 77.46615600585938 C 10.44645690917969 73.37887573242188 7.237643718719482 68.61971282958984 4.996417045593262 63.32085800170898 C 2.676363706588745 57.83565902709961 1.500003814697266 52.00806045532227 1.500003814697266 45.99993896484375 C 1.500003814697266 39.99181747436523 2.676363706588745 34.16421890258789 4.996417045593262 28.67901802062988 C 7.237643718719482 23.38017845153809 10.44645690917969 18.62101936340332 14.53375053405762 14.53373908996582 C 18.62103080749512 10.44645881652832 23.38020324707031 7.237632274627686 28.67905807495117 4.996418952941895 C 34.16427230834961 2.676365613937378 39.99188232421875 1.500005602836609 46.00000381469727 1.500005602836609 C 52.00812530517578 1.500005602836609 57.83573532104492 2.676365613937378 63.32094955444336 4.996418952941895 C 68.61980438232422 7.237632274627686 73.37896728515625 10.44645881652832 77.46625518798828 14.53373908996582 C 81.55353546142578 18.62101936340332 84.76236724853516 23.38017845153809 87.00359344482422 28.67901802062988 C 89.32364654541016 34.16421890258789 90.5 39.99181747436523 90.5 45.99993896484375 C 90.5 52.00806045532227 89.32364654541016 57.83565902709961 87.00359344482422 63.32085800170898 C 84.76236724853516 68.61971282958984 81.55353546142578 73.37887573242188 77.46625518798828 77.46615600585938 C 73.37896728515625 81.55342864990234 68.61980438232422 84.76226043701172 63.32094955444336 87.00347137451172 C 57.83573532104492 89.32352447509766 52.00812530517578 90.49988555908203 46.00000381469727 90.49988555908203 Z" stroke="none"/>
                                <path d="M 46.00000381469727 2.999992370605469 C 40.19371795654297 2.999992370605469 34.56270217895508 4.136497497558594 29.26338958740234 6.377906799316406 C 24.14333343505859 8.543510437011719 19.54441833496094 11.64437866210938 15.59440612792969 15.59439849853516 C 11.64440155029297 19.54439544677734 8.54351806640625 24.14329528808594 6.377914428710938 29.26335144042969 C 4.136505126953125 34.56266784667969 3.000007629394531 40.19366836547852 3.000007629394531 45.99993896484375 C 3.000007629394531 51.80620956420898 4.136505126953125 57.43722534179688 6.377914428710938 62.73654174804688 C 8.54351806640625 67.85658264160156 11.64440155029297 72.45548248291016 15.59440612792969 76.40549468994141 C 19.54441833496094 80.35549926757812 24.14333343505859 83.45636749267578 29.26337432861328 85.62196350097656 C 34.56270217895508 87.86338043212891 40.19371795654297 88.9998779296875 46.00000381469727 88.9998779296875 C 51.80628967285156 88.9998779296875 57.43730545043945 87.86338043212891 62.73663330078125 85.62196350097656 C 67.85667419433594 83.45636749267578 72.45558929443359 80.35549926757812 76.40560150146484 76.40549468994141 C 80.35560607910156 72.45548248291016 83.45648956298828 67.85658264160156 85.62208557128906 62.73654174804688 C 87.86350250244141 57.43722534179688 89 51.80620956420898 89 45.99993896484375 C 89 40.19366836547852 87.86350250244141 34.56266784667969 85.62208557128906 29.26335144042969 C 83.45648956298828 24.14329528808594 80.35560607910156 19.54439544677734 76.40560150146484 15.59439849853516 C 72.45558929443359 11.64437866210938 67.85667419433594 8.543510437011719 62.73661804199219 6.377906799316406 C 57.43730545043945 4.136497497558594 51.80628967285156 2.999992370605469 46.00000381469727 2.999992370605469 M 46.00000381469727 -7.62939453125e-06 C 71.40510559082031 -7.62939453125e-06 92 20.59487915039062 92 45.99993896484375 C 92 71.40501403808594 71.40510559082031 91.99988555908203 46.00000381469727 91.99988555908203 C 20.59490203857422 91.99988555908203 7.62939453125e-06 71.40501403808594 7.62939453125e-06 45.99993896484375 C 7.62939453125e-06 20.59487915039062 20.59490203857422 -7.62939453125e-06 46.00000381469727 -7.62939453125e-06 Z" stroke="none" fill="#86b60c"/>
                              </g>
                            </g>
                          </g>
                        </g>
                      </g>
                    </g>
                  </g>
                </g>
              </g>
            </g>
          </g>
        </g>
      </g>
    </g>
    <g id="concept_9445846" transform="translate(6660.6 3354.974)">
      <g id="Grupo_1178760" data-name="Grupo 1178760" transform="translate(21.449 6.627)">
        <path id="Trazado_1038808" data-name="Trazado 1038808" d="M150.034,91.4c11.822,0,17.449,8.058,17.055,19.881,1.037,2.209,3.369,5.64,5.084,8.49a1.821,1.821,0,0,1,.012,1.888,1.9,1.9,0,0,1-1.629,1.012c-1.752.074-3.665.16-4.714.234-.049,2.863-.037,3.48-.086,6.331a5.08,5.08,0,0,1-5.035,4.949h-3.8a5.052,5.052,0,0,0-4.911,3.887c-.309,1.3-.617,2.579-.926,3.875H132.917c1.012-4.245,1.209-5.775,2.221-10.021,1.95-8.145-2.332-8.12-4.7-15.043-4.072-11.9-.37-25.483,19.6-25.483Z" transform="translate(-115.739 -81.466)" fill="#fad1a2" fill-rule="evenodd"/>
        <path id="Trazado_1038809" data-name="Trazado 1038809" d="M150.577,91.225h.012c.173,0,.346.012.518.012h.025c.16.012.321.012.481.025h.062l.457.037.086.012.407.037a.419.419,0,0,0,.123.012l.346.037c.062.012.123.012.185.025.1.012.2.037.3.049.074.012.148.025.234.037s.16.025.234.037.185.037.271.049l.185.037c.111.025.21.049.309.062l.148.037v38.947H135.534c-.025-.16-.049-.321-.086-.494,1.061-6.627-2.814-7.046-5.01-13.488-4.072-11.909-.37-25.5,19.6-25.5A3.908,3.908,0,0,0,150.577,91.225Z" transform="translate(-115.739 -81.291)" fill="#b79876" fill-rule="evenodd"/>
        <path id="Trazado_1038810" data-name="Trazado 1038810" d="M21.8,40.5H57.044V82.1H21.8Z" transform="translate(-21.8 -36.847)" fill="#dd6e42" fill-rule="evenodd"/>
        <path id="Trazado_1038811" data-name="Trazado 1038811" d="M42.1,61.7H72.31V98.067H42.1Z" transform="translate(-39.595 -55.431)" fill="#9e4623" fill-rule="evenodd"/>
        <path id="Trazado_1038812" data-name="Trazado 1038812" d="M54.5,73.6H83.179v34.911H54.5Z" transform="translate(-50.465 -65.863)" fill="#e6e6e6" fill-rule="evenodd"/>
        <path id="Trazado_1038813" data-name="Trazado 1038813" d="M108.043,13.64h3.6a2.892,2.892,0,0,1,5.775,0h3.616a.548.548,0,0,1,.543.543v2.986a.537.537,0,0,1-.543.531H108.043a.545.545,0,0,1-.543-.531V14.183A.548.548,0,0,1,108.043,13.64Z" transform="translate(-96.924 -10.9)" fill="gray" fill-rule="evenodd"/>
        <path id="Trazado_1038814" data-name="Trazado 1038814" d="M155.3,24.3a1.3,1.3,0,1,1-1.3,1.283A1.3,1.3,0,0,1,155.3,24.3Z" transform="translate(-137.686 -22.646)" fill="#e6e6e6" fill-rule="evenodd"/>
        <path id="Trazado_1038815" data-name="Trazado 1038815" d="M120.112,109.4v2.53H118.47a6.616,6.616,0,0,1-1.049,2.517l1.16,1.16-1.789,1.789-1.16-1.16a6.7,6.7,0,0,1-2.517,1.049v1.641h-2.53v-1.641a6.616,6.616,0,0,1-2.517-1.049l-1.16,1.16L105.13,115.6l1.16-1.16a6.7,6.7,0,0,1-1.049-2.517H103.6V109.4h1.654a6.427,6.427,0,0,1,1.049-2.517l-1.16-1.16,1.789-1.789,1.16,1.16a6.7,6.7,0,0,1,2.517-1.049V102.4h2.53v1.641a6.427,6.427,0,0,1,2.517,1.049l1.16-1.16,1.789,1.789-1.16,1.16a6.7,6.7,0,0,1,1.049,2.517Zm-4.048,1.259a4.208,4.208,0,1,1-4.208-4.208A4.213,4.213,0,0,1,116.064,110.656Z" transform="translate(-93.505 -91.108)" fill="#208380" fill-rule="evenodd"/>
        <path id="Trazado_1038816" data-name="Trazado 1038816" d="M154.559,287.1h-3.344a.822.822,0,0,0-.814.815v3.344a.814.814,0,0,0,.814.815h3.344a.814.814,0,0,0,.814-.815v-3.344A.822.822,0,0,0,154.559,287.1Z" transform="translate(-134.53 -253.016)" fill="#fdb614" fill-rule="evenodd"/>
        <path id="Trazado_1038817" data-name="Trazado 1038817" d="M85.471,287.1H82.114a.814.814,0,0,0-.814.815v3.344a.814.814,0,0,0,.814.815h3.344a.814.814,0,0,0,.814-.815v-3.344A.8.8,0,0,0,85.471,287.1Z" transform="translate(-73.957 -253.016)" fill="#ed2024" fill-rule="evenodd"/>
        <path id="Trazado_1038818" data-name="Trazado 1038818" d="M223.559,287.1h-3.344a.814.814,0,0,0-.814.815v3.344a.814.814,0,0,0,.814.815h3.344a.814.814,0,0,0,.814-.815v-3.344A.806.806,0,0,0,223.559,287.1Z" transform="translate(-195.015 -253.016)" fill="#ed2024" fill-rule="evenodd"/>
      </g>
      <path id="Trazado_1038819" data-name="Trazado 1038819" d="M49.215,24.916v2.517a.606.606,0,0,1-.6.6h-1.16a7.4,7.4,0,0,1-.753,1.826l.827.814a.6.6,0,0,1,0,.851L45.735,33.32a.6.6,0,0,1-.851,0l-.827-.827a7.435,7.435,0,0,1-1.826.765v1.16a.606.606,0,0,1-.6.6h-.654v1.8h7.836a.606.606,0,0,1,.6.6v2.666h1.148a1.427,1.427,0,0,1,1.419,1.419v3.344a1.377,1.377,0,0,1-.42,1,1.4,1.4,0,0,1-1,.42H47.216A1.427,1.427,0,0,1,45.8,44.858V41.514a1.427,1.427,0,0,1,.42-1.012,1.4,1.4,0,0,1,1-.42h1V38.009H40.972v2.073h1.061A1.419,1.419,0,0,1,43.452,41.5v3.344a1.427,1.427,0,0,1-1.419,1.419H38.689a1.427,1.427,0,0,1-1.419-1.419V41.5a1.427,1.427,0,0,1,1.419-1.419h1.074V38.009H32.531v2.073h1A1.427,1.427,0,0,1,34.95,41.5v3.344a1.377,1.377,0,0,1-.42,1,1.4,1.4,0,0,1-1,.42H30.174a1.427,1.427,0,0,1-1.419-1.419V41.5a1.427,1.427,0,0,1,.42-1.012,1.4,1.4,0,0,1,1-.42h1.148V37.4a.606.606,0,0,1,.6-.6h7.836V35h-.654a.606.606,0,0,1-.6-.6v-1.16l-.938-.321a5.971,5.971,0,0,1-.889-.444l-.827.827a.6.6,0,0,1-.851,0L33.21,31.506a.6.6,0,0,1,0-.851l.827-.814a7.435,7.435,0,0,1-.765-1.826h-1.16a.606.606,0,0,1-.6-.6V24.891a.606.606,0,0,1,.6-.6h1.16a7.435,7.435,0,0,1,.765-1.826l-.827-.827a.6.6,0,0,1,0-.851L35,18.993a.6.6,0,0,1,.851,0l.827.827a6.956,6.956,0,0,1,1.826-.753v-1.16a.606.606,0,0,1,.6-.6h2.53a.606.606,0,0,1,.6.6v1.16l.938.321a5.971,5.971,0,0,1,.889.444l.827-.827a.6.6,0,0,1,.852,0l1.789,1.789a.6.6,0,0,1,0,.851l-.827.827a6.956,6.956,0,0,1,.753,1.826h1.16A.614.614,0,0,1,49.215,24.916Zm-1.2,1.913V25.521H46.982a.6.6,0,0,1-.592-.494,6.16,6.16,0,0,0-.926-2.258.6.6,0,0,1,.049-.8l.74-.74-.926-.926-.74.74a.613.613,0,0,1-.765.074,6.289,6.289,0,0,0-1.1-.592,6,6,0,0,0-1.16-.346.612.612,0,0,1-.531-.6V18.536h-1.32v1.037a.6.6,0,0,1-.494.592,6.16,6.16,0,0,0-2.258.926.6.6,0,0,1-.8-.049l-.74-.74-.926.926.74.74a.615.615,0,0,1,.074.765,6.061,6.061,0,0,0-.938,2.258.612.612,0,0,1-.6.531H32.729v1.308h1.037a.6.6,0,0,1,.592.494,6.16,6.16,0,0,0,.926,2.258.6.6,0,0,1-.049.8l-.74.74.926.926.74-.74a.613.613,0,0,1,.765-.074,6.289,6.289,0,0,0,1.1.592,6,6,0,0,0,1.16.346.612.612,0,0,1,.531.6v1.037h1.32V32.777a.6.6,0,0,1,.494-.592,6.16,6.16,0,0,0,2.258-.926.6.6,0,0,1,.8.049l.74.74.926-.926-.74-.74a.615.615,0,0,1-.074-.765,6.062,6.062,0,0,0,.938-2.258.612.612,0,0,1,.6-.531Zm-2.838-.654a4.813,4.813,0,1,1-4.813-4.813A4.819,4.819,0,0,1,45.18,26.175ZM42.91,28.717a3.6,3.6,0,1,0-5.1,0A3.6,3.6,0,0,0,42.91,28.717Zm7.651,12.6H47.216a.211.211,0,0,0-.21.21v3.344a.208.208,0,0,0,.21.21h3.344a.211.211,0,0,0,.21-.21V41.526A.216.216,0,0,0,50.561,41.317Zm-17.042,0H30.174a.211.211,0,0,0-.21.21v3.344a.208.208,0,0,0,.21.21h3.344a.211.211,0,0,0,.21-.21V41.526A.208.208,0,0,0,33.518,41.317Zm8.515,0H38.689a.208.208,0,0,0-.21.21v3.344a.208.208,0,0,0,.21.21h3.344a.208.208,0,0,0,.21-.21V41.526A.2.2,0,0,0,42.033,41.317ZM39.615,7.676a1.894,1.894,0,1,1-1.888,1.888,1.88,1.88,0,0,1,1.888-1.888Zm.494,1.407a.685.685,0,1,0,0,.963A.671.671,0,0,0,40.108,9.083Zm-6.985-.321h3.085a3.5,3.5,0,0,1,5.825-1.777,3.564,3.564,0,0,1,1.012,1.777H46.13a1.149,1.149,0,0,1,1.123.913h10a.606.606,0,0,1,.6.6v5.726c5.331.333,9.329,2.369,12.032,5.689,2.9,3.579,4.257,8.638,4.085,14.623.7,1.456,1.95,3.431,3.2,5.417.629,1,1.271,2,1.789,2.888a2.557,2.557,0,0,1-2.1,3.826l-4.146.2-.074,5.775a5.691,5.691,0,0,1-5.652,5.541h-3.8a4.434,4.434,0,0,0-4.319,3.431l-.926,3.875a.608.608,0,0,1-.592.457H39.183a.6.6,0,0,1-.568-.8c.494-2.049.79-3.492,1.1-4.936s.6-2.863,1.123-5.023a13.2,13.2,0,0,0,.42-4.48H22a.606.606,0,0,1-.6-.6V10.28a.606.606,0,0,1,.6-.6H32.013a1.162,1.162,0,0,1,.309-.568,1.092,1.092,0,0,1,.8-.346Zm14.142,2.123v1.407h7.466a.606.606,0,0,1,.6.6V49.264a.606.606,0,0,1-.6.6H24.522a.606.606,0,0,1-.6-.6V12.9a.606.606,0,0,1,.6-.6h7.466V10.885H22.609v40.39H56.644V10.885ZM47.081,13.5a1.157,1.157,0,0,1-.963.531H33.123a1.141,1.141,0,0,1-.963-.531H25.127V48.659h29V13.5ZM36.739,9.972H33.2v2.851H46.056V9.972H42.515a.607.607,0,0,1-.6-.568,2.294,2.294,0,0,0-4.578-.037A.6.6,0,0,1,36.739,9.972Zm21.115,7.244V51.892a.606.606,0,0,1-.6.6h-14.8A14.543,14.543,0,0,1,42,57.248c-.926,3.887-1.16,5.479-2.049,9.268H56.879l.814-3.418a5.636,5.636,0,0,1,5.492-4.356h3.8a4.49,4.49,0,0,0,4.443-4.356c.025-1.432.037-2.3.037-3.159s.012-1.728.037-3.122a.614.614,0,0,1,.555-.642l4.739-.234a1.332,1.332,0,0,0,1.111-1.987c-1.555-2.579-4.06-6.306-5.109-8.54a.673.673,0,0,1-.062-.271c.185-5.763-1.074-10.588-3.813-13.969-2.456-3.048-6.146-4.924-11.069-5.245Z" transform="translate(0)"/>
    </g>
  </g>
</svg>
