<svg xmlns="http://www.w3.org/2000/svg" xmlns:xlink="http://www.w3.org/1999/xlink" width="110" height="110" viewBox="0 0 110 110">
  <defs>
    <filter id="Trazado_982547" x="0" y="0" width="110" height="110" filterUnits="userSpaceOnUse">
      <feOffset dy="3" input="SourceAlpha"/>
      <feGaussianBlur stdDeviation="3" result="blur"/>
      <feFlood flood-opacity="0.161"/>
      <feComposite operator="in" in2="blur"/>
      <feComposite in="SourceGraphic"/>
    </filter>
  </defs>
  <g id="Grupo_1178661" data-name="Grupo 1178661" transform="translate(1198.539 -5409.014)">
    <g id="Grupo_1176401" data-name="Grupo 1176401" transform="translate(-1576 -9647.986)">
      <g id="Grupo_1173147" data-name="Grupo 1173147" transform="translate(386.461 15063)">
        <g id="Grupo_1163801" data-name="Grupo 1163801" transform="translate(0 0)">
          <g id="Grupo_1163014" data-name="Grupo 1163014">
            <g id="Grupo_1157015" data-name="Grupo 1157015" transform="translate(0 0)">
              <g id="Grupo_1155792" data-name="Grupo 1155792" transform="translate(0 0)">
                <g id="Grupo_1154703" data-name="Grupo 1154703">
                  <g id="Grupo_1150789" data-name="Grupo 1150789">
                    <g id="Grupo_1154212" data-name="Grupo 1154212">
                      <g id="Grupo_1152583" data-name="Grupo 1152583">
                        <g id="Grupo_1146973" data-name="Grupo 1146973" transform="translate(0 0)">
                          <g id="Grupo_1146954" data-name="Grupo 1146954">
                            <g transform="matrix(1, 0, 0, 1, -9, -6)" filter="url(#Trazado_982547)">
                              <g id="Trazado_982547-2" data-name="Trazado 982547" transform="translate(9 6)" fill="#f2f7e5">
                                <path d="M 46.00000381469727 90.49988555908203 C 39.99188232421875 90.49988555908203 34.16427230834961 89.32352447509766 28.67905807495117 87.00347137451172 C 23.38020324707031 84.76226043701172 18.62103080749512 81.55342864990234 14.53375053405762 77.46615600585938 C 10.44645690917969 73.37887573242188 7.237643718719482 68.61971282958984 4.996417045593262 63.32085800170898 C 2.676363706588745 57.83565902709961 1.500003814697266 52.00806045532227 1.500003814697266 45.99993896484375 C 1.500003814697266 39.99181747436523 2.676363706588745 34.16421890258789 4.996417045593262 28.67901802062988 C 7.237643718719482 23.38017845153809 10.44645690917969 18.62101936340332 14.53375053405762 14.53373908996582 C 18.62103080749512 10.44645881652832 23.38020324707031 7.237632274627686 28.67905807495117 4.996418952941895 C 34.16427230834961 2.676365613937378 39.99188232421875 1.500005602836609 46.00000381469727 1.500005602836609 C 52.00812530517578 1.500005602836609 57.83573532104492 2.676365613937378 63.32094955444336 4.996418952941895 C 68.61980438232422 7.237632274627686 73.37896728515625 10.44645881652832 77.46625518798828 14.53373908996582 C 81.55353546142578 18.62101936340332 84.76236724853516 23.38017845153809 87.00359344482422 28.67901802062988 C 89.32364654541016 34.16421890258789 90.5 39.99181747436523 90.5 45.99993896484375 C 90.5 52.00806045532227 89.32364654541016 57.83565902709961 87.00359344482422 63.32085800170898 C 84.76236724853516 68.61971282958984 81.55353546142578 73.37887573242188 77.46625518798828 77.46615600585938 C 73.37896728515625 81.55342864990234 68.61980438232422 84.76226043701172 63.32094955444336 87.00347137451172 C 57.83573532104492 89.32352447509766 52.00812530517578 90.49988555908203 46.00000381469727 90.49988555908203 Z" stroke="none"/>
                                <path d="M 46.00000381469727 2.999992370605469 C 40.19371795654297 2.999992370605469 34.56270217895508 4.136497497558594 29.26338958740234 6.377906799316406 C 24.14333343505859 8.543510437011719 19.54441833496094 11.64437866210938 15.59440612792969 15.59439849853516 C 11.64440155029297 19.54439544677734 8.54351806640625 24.14329528808594 6.377914428710938 29.26335144042969 C 4.136505126953125 34.56266784667969 3.000007629394531 40.19366836547852 3.000007629394531 45.99993896484375 C 3.000007629394531 51.80620956420898 4.136505126953125 57.43722534179688 6.377914428710938 62.73654174804688 C 8.54351806640625 67.85658264160156 11.64440155029297 72.45548248291016 15.59440612792969 76.40549468994141 C 19.54441833496094 80.35549926757812 24.14333343505859 83.45636749267578 29.26337432861328 85.62196350097656 C 34.56270217895508 87.86338043212891 40.19371795654297 88.9998779296875 46.00000381469727 88.9998779296875 C 51.80628967285156 88.9998779296875 57.43730545043945 87.86338043212891 62.73663330078125 85.62196350097656 C 67.85667419433594 83.45636749267578 72.45558929443359 80.35549926757812 76.40560150146484 76.40549468994141 C 80.35560607910156 72.45548248291016 83.45648956298828 67.85658264160156 85.62208557128906 62.73654174804688 C 87.86350250244141 57.43722534179688 89 51.80620956420898 89 45.99993896484375 C 89 40.19366836547852 87.86350250244141 34.56266784667969 85.62208557128906 29.26335144042969 C 83.45648956298828 24.14329528808594 80.35560607910156 19.54439544677734 76.40560150146484 15.59439849853516 C 72.45558929443359 11.64437866210938 67.85667419433594 8.543510437011719 62.73661804199219 6.377906799316406 C 57.43730545043945 4.136497497558594 51.80628967285156 2.999992370605469 46.00000381469727 2.999992370605469 M 46.00000381469727 -7.62939453125e-06 C 71.40510559082031 -7.62939453125e-06 92 20.59487915039062 92 45.99993896484375 C 92 71.40501403808594 71.40510559082031 91.99988555908203 46.00000381469727 91.99988555908203 C 20.59490203857422 91.99988555908203 7.62939453125e-06 71.40501403808594 7.62939453125e-06 45.99993896484375 C 7.62939453125e-06 20.59487915039062 20.59490203857422 -7.62939453125e-06 46.00000381469727 -7.62939453125e-06 Z" stroke="none" fill="#86b60c"/>
                              </g>
                            </g>
                          </g>
                        </g>
                      </g>
                    </g>
                  </g>
                </g>
              </g>
            </g>
          </g>
        </g>
      </g>
    </g>
    <g id="networking" transform="translate(-1172.296 5432.497)">
      <g id="Grupo_1178659" data-name="Grupo 1178659" transform="translate(0.836 0.835)">
        <path id="Trazado_1038160" data-name="Trazado 1038160" d="M421.914,17.607h-1.023L417.042,21.5V31.993h7.375a9.311,9.311,0,0,0-2.5-14.386Z" transform="translate(-371.422 -16.481)" fill="#1ca8ff"/>
        <path id="Trazado_1038161" data-name="Trazado 1038161" d="M351.073,8.626a9.311,9.311,0,0,0-11.386,14.386h8.884a9.311,9.311,0,0,1,2.5-14.386Z" transform="translate(-300.58 -7.5)" fill="#0084fd"/>
        <circle id="Elipse_12296" data-name="Elipse 12296" cx="3.419" cy="3.419" r="3.419" transform="translate(42.632 4.141)" fill="#ffcebe"/>
        <path id="Trazado_1038162" data-name="Trazado 1038162" d="M372.459,110.592a6.218,6.218,0,0,0-5.965-4.534h-1.958a6.218,6.218,0,0,0-5.965,4.534,9.307,9.307,0,0,0,13.888,0Z" transform="translate(-319.464 -95.079)" fill="#bf7fe3"/>
        <path id="Trazado_1038163" data-name="Trazado 1038163" d="M92.1,17.607H91.072L87.223,21.5V31.993H94.6a9.311,9.311,0,0,0-2.5-14.386Z" transform="translate(-78.343 -16.481)" fill="#b166db"/>
        <path id="Trazado_1038164" data-name="Trazado 1038164" d="M21.255,8.626A9.311,9.311,0,0,0,9.869,23.012h8.884a9.311,9.311,0,0,1,2.5-14.386Z" transform="translate(-7.502 -7.5)" fill="#9956be"/>
        <circle id="Elipse_12297" data-name="Elipse 12297" cx="3.419" cy="3.419" r="3.419" transform="translate(5.893 4.141)" fill="#ffcebe"/>
        <path id="Trazado_1038165" data-name="Trazado 1038165" d="M42.64,110.592a6.218,6.218,0,0,0-5.965-4.534H34.717a6.218,6.218,0,0,0-5.965,4.534,9.307,9.307,0,0,0,13.888,0Z" transform="translate(-26.385 -95.079)" fill="#98d829"/>
        <path id="Trazado_1038166" data-name="Trazado 1038166" d="M421.914,347.426h-1.023l-3.849,3.893v10.494h7.375a9.311,9.311,0,0,0-2.5-14.386Z" transform="translate(-371.422 -309.56)" fill="#ff72c7"/>
        <path id="Trazado_1038167" data-name="Trazado 1038167" d="M351.074,338.445a9.311,9.311,0,0,0-11.386,14.386h8.884a9.311,9.311,0,0,1,2.5-14.386Z" transform="translate(-300.581 -300.579)" fill="#ff4fb9"/>
        <circle id="Elipse_12298" data-name="Elipse 12298" cx="3.419" cy="3.419" r="3.419" transform="translate(42.632 40.881)" fill="#ffcebe"/>
        <path id="Trazado_1038168" data-name="Trazado 1038168" d="M372.459,440.41a6.218,6.218,0,0,0-5.965-4.534h-1.958a6.218,6.218,0,0,0-5.965,4.534,9.307,9.307,0,0,0,13.888,0Z" transform="translate(-319.464 -388.157)" fill="#ffe02f"/>
        <path id="Trazado_1038169" data-name="Trazado 1038169" d="M92.1,347.426H91.072l-3.849,3.893v10.494H94.6a9.311,9.311,0,0,0-2.5-14.386Z" transform="translate(-78.343 -309.56)" fill="#98d829"/>
        <path id="Trazado_1038170" data-name="Trazado 1038170" d="M21.255,338.445A9.311,9.311,0,0,0,9.869,352.831h8.884a9.311,9.311,0,0,1,2.5-14.386Z" transform="translate(-7.502 -300.579)" fill="#8cc825"/>
        <circle id="Elipse_12299" data-name="Elipse 12299" cx="3.419" cy="3.419" r="3.419" transform="translate(5.893 40.881)" fill="#ffcebe"/>
        <path id="Trazado_1038171" data-name="Trazado 1038171" d="M42.64,440.41a6.218,6.218,0,0,0-5.965-4.534H34.717a6.218,6.218,0,0,0-5.965,4.534,9.307,9.307,0,0,0,13.888,0Z" transform="translate(-26.385 -388.157)" fill="#ff72c7"/>
        <path id="Trazado_1038172" data-name="Trazado 1038172" d="M218.568,156.155H217.3l-4.172,2.278-1.622,4.689v4.342l1.622,3.821,2.835,2.142v1.93h3.989l.75-.409v-.88a3.241,3.241,0,0,1,1.231-2.53,8.775,8.775,0,0,0-3.363-15.381Z" transform="translate(-188.779 -139.596)" fill="#ffe02f"/>
        <path id="Trazado_1038173" data-name="Trazado 1038173" d="M185.987,172.015a3.213,3.213,0,0,0-1.215-2.517A8.78,8.78,0,0,1,188.1,154.1a8.776,8.776,0,0,0-7.562,15.394,3.213,3.213,0,0,1,1.215,2.517v.881l.645.409h4.24l-.645-.409Z" transform="translate(-158.306 -137.545)" fill="#fbc700"/>
        <path id="Trazado_1038174" data-name="Trazado 1038174" d="M260.872,326.668l.174,1.2,1.193,1.689h.6a4.233,4.233,0,0,0,1.731-3.418v-1.29h-3.463l-.234.216Z" transform="translate(-232.648 -289.499)" fill="#dbedff"/>
        <path id="Trazado_1038175" data-name="Trazado 1038175" d="M222.954,326.14v-1.29h-5.017v1.29a4.239,4.239,0,0,0,6.748,3.418A4.234,4.234,0,0,1,222.954,326.14Z" transform="translate(-194.496 -289.499)" fill="#b5dcff"/>
      </g>
      <g id="Grupo_1178660" data-name="Grupo 1178660" transform="translate(0)">
        <path id="Trazado_1038176" data-name="Trazado 1038176" d="M10.147,20.293A10.147,10.147,0,1,0,0,10.147,10.163,10.163,0,0,0,10.147,20.293Zm-6-4.161A5.383,5.383,0,0,1,9.168,12.65h1.958a5.383,5.383,0,0,1,5.016,3.483,8.467,8.467,0,0,1-11.99,0ZM7.563,8.4a2.583,2.583,0,1,1,2.583,2.583A2.586,2.586,0,0,1,7.563,8.4Zm2.583-6.725a8.469,8.469,0,0,1,7.16,13,7.086,7.086,0,0,0-4.065-3.364,4.254,4.254,0,1,0-6.19,0,7.086,7.086,0,0,0-4.065,3.364,8.469,8.469,0,0,1,7.16-13Z" transform="translate(0 0)"/>
        <path id="Trazado_1038177" data-name="Trazado 1038177" d="M10.147,350.112A10.147,10.147,0,1,0,0,339.966a10.163,10.163,0,0,0,10.147,10.147Zm0-1.671a8.474,8.474,0,0,1-6-2.49,5.383,5.383,0,0,1,5.016-3.483h1.958a5.383,5.383,0,0,1,5.016,3.483A8.474,8.474,0,0,1,10.147,348.441ZM7.563,338.214a2.583,2.583,0,1,1,2.583,2.583A2.586,2.586,0,0,1,7.563,338.214Zm2.583-6.725a8.469,8.469,0,0,1,7.16,13,7.086,7.086,0,0,0-4.065-3.364,4.254,4.254,0,1,0-6.19,0,7.086,7.086,0,0,0-4.065,3.364,8.469,8.469,0,0,1,7.16-13Z" transform="translate(0 -293.079)"/>
        <path id="Trazado_1038178" data-name="Trazado 1038178" d="M339.965,329.819a10.141,10.141,0,0,0-7.606,16.854c.013.017.025.034.039.05a10.146,10.146,0,1,0,7.567-16.9Zm0,18.622a8.471,8.471,0,0,1-6-2.49,5.383,5.383,0,0,1,5.016-3.483h1.958a5.383,5.383,0,0,1,5.016,3.483A8.472,8.472,0,0,1,339.965,348.441Zm-2.583-10.227a2.583,2.583,0,1,1,2.583,2.583A2.586,2.586,0,0,1,337.382,338.214Zm9.743,6.278a7.086,7.086,0,0,0-4.065-3.364,4.254,4.254,0,1,0-6.19,0,7.086,7.086,0,0,0-4.065,3.364,8.476,8.476,0,1,1,14.32,0Z" transform="translate(-293.078 -293.079)"/>
        <path id="Trazado_1038179" data-name="Trazado 1038179" d="M449.52,210a.836.836,0,0,0,.809-.627,24.037,24.037,0,0,0,0-11.93.836.836,0,0,0-1.618.416,22.363,22.363,0,0,1,0,11.1A.836.836,0,0,0,449.52,210Z" transform="translate(-398.703 -174.894)"/>
        <path id="Trazado_1038180" data-name="Trazado 1038180" d="M208.95,448.71a22.365,22.365,0,0,1-11.1,0,.836.836,0,0,0-.417,1.618,24.039,24.039,0,0,0,11.932,0,.836.836,0,1,0-.417-1.618Z" transform="translate(-174.884 -398.703)"/>
        <path id="Trazado_1038181" data-name="Trazado 1038181" d="M43.642,196.9a.837.837,0,0,0-1.1.577,24.037,24.037,0,0,0,0,11.93.836.836,0,0,0,1.618-.417,22.366,22.366,0,0,1-.061-10.853A.836.836,0,0,0,43.642,196.9Z" transform="translate(-37.138 -174.925)"/>
        <path id="Trazado_1038182" data-name="Trazado 1038182" d="M197.442,42.546a.836.836,0,1,0,.416,1.618,22.367,22.367,0,0,1,11.1,0,.836.836,0,1,0,.416-1.618A24.038,24.038,0,0,0,197.442,42.546Z" transform="translate(-174.891 -37.139)"/>
        <path id="Trazado_1038183" data-name="Trazado 1038183" d="M362.07,202.914a.836.836,0,0,0-1.06-.523l-2.792.947a.835.835,0,1,0,.537,1.582l2.792-.947A.836.836,0,0,0,362.07,202.914Z" transform="translate(-317.811 -179.806)"/>
        <path id="Trazado_1038184" data-name="Trazado 1038184" d="M361.547,249.49l-2.792-.947a.835.835,0,0,0-.537,1.582l2.792.947a.835.835,0,0,0,.537-1.582Z" transform="translate(-317.811 -220.818)"/>
        <path id="Trazado_1038185" data-name="Trazado 1038185" d="M118.173,203.337l-2.792-.947a.835.835,0,0,0-.537,1.582l2.792.947a.835.835,0,0,0,.537-1.582Z" transform="translate(-101.547 -179.806)"/>
        <path id="Trazado_1038186" data-name="Trazado 1038186" d="M117.637,248.543l-2.792.947a.835.835,0,0,0,.537,1.582l2.792-.947a.835.835,0,0,0-.537-1.582Z" transform="translate(-101.548 -220.818)"/>
        <path id="Trazado_1038187" data-name="Trazado 1038187" d="M181.456,148.313a.836.836,0,0,0-.37,1.63,7.94,7.94,0,0,1,3.185,13.951,4.059,4.059,0,0,0-1.545,3.183v.045h-2.569v-5.559l2.916-3.137a.836.836,0,0,0-.062-1.2.858.858,0,0,0-1.185.086l-2.5,2.694-2.5-2.693a.859.859,0,0,0-1.185-.086.835.835,0,0,0-.062,1.2l2.916,3.137v5.559h-2.569v-.045a4.028,4.028,0,0,0-1.53-3.171,7.942,7.942,0,0,1,3.168-13.965.836.836,0,1,0-.365-1.631,9.613,9.613,0,0,0-3.864,16.887,2.41,2.41,0,0,1,.92,1.88v2.171a5.075,5.075,0,1,0,10.151,0v-2.171a2.4,2.4,0,0,1,.917-1.877,9.61,9.61,0,0,0-3.858-16.886Zm1.27,20.934a3.4,3.4,0,1,1-6.809,0v-.455h6.809Z" transform="translate(-150.806 -131.771)"/>
        <path id="Trazado_1038188" data-name="Trazado 1038188" d="M339.965,1.671a8.513,8.513,0,0,1,8.288,6.7.835.835,0,1,0,1.634-.348,10.146,10.146,0,1,0,0,4.247.835.835,0,0,0-1.634-.348,8.361,8.361,0,0,1-1.129,2.751,7.087,7.087,0,0,0-4.065-3.364,4.254,4.254,0,1,0-6.19,0,7.086,7.086,0,0,0-4.065,3.364,8.469,8.469,0,0,1,7.16-13Zm0,4.141A2.583,2.583,0,1,1,337.382,8.4a2.586,2.586,0,0,1,2.583-2.583Zm-.979,6.837h1.958a5.383,5.383,0,0,1,5.013,3.476,8.45,8.45,0,0,1-11.987.007A5.383,5.383,0,0,1,338.986,12.65Z" transform="translate(-293.078)"/>
      </g>
    </g>
  </g>
</svg>
