<svg xmlns="http://www.w3.org/2000/svg" width="567.883" height="329.954" viewBox="0 0 567.883 329.954">
  <g id="Grupo_1178765" data-name="Grupo 1178765" transform="translate(-476.192 -7486.579)">
    <path id="Parrafo" d="M19.314,24H15.888V14.783q0-1.493.129-3.3h-.086a16.228,16.228,0,0,1-.483,2.041L11.838,24H9L5.328,13.634a20.172,20.172,0,0,1-.483-2.148h-.1q.14,2.277.14,4V24H1.762V8.6H6.843L9.99,17.727a12.856,12.856,0,0,1,.548,2.2H10.6a22.174,22.174,0,0,1,.612-2.224L14.362,8.6h4.952Zm13.052-4.533H25.19q.172,2.4,3.019,2.4A5.893,5.893,0,0,0,31.4,21v2.449a8.381,8.381,0,0,1-3.964.816A5.58,5.58,0,0,1,23.3,22.792a5.58,5.58,0,0,1-1.472-4.12,5.887,5.887,0,0,1,1.59-4.34,5.3,5.3,0,0,1,3.91-1.6A4.807,4.807,0,0,1,31.05,14.16a5.5,5.5,0,0,1,1.316,3.878Zm-3.147-2.084q0-2.363-1.912-2.363a1.826,1.826,0,0,0-1.413.677,3.072,3.072,0,0,0-.725,1.687ZM45.01,24H41.626V17.888q0-2.557-1.826-2.557a1.812,1.812,0,0,0-1.45.677,2.578,2.578,0,0,0-.569,1.719V24H34.386V13H37.78v1.74h.043a3.89,3.89,0,0,1,3.534-2.009q3.652,0,3.652,4.533Zm7.928.269a5.913,5.913,0,0,1-4.324-1.542,5.589,5.589,0,0,1-1.574-4.184,5.589,5.589,0,0,1,1.633-4.27,6.17,6.17,0,0,1,4.415-1.542,5.842,5.842,0,0,1,4.3,1.542,5.48,5.48,0,0,1,1.558,4.077,5.816,5.816,0,0,1-1.606,4.329A5.979,5.979,0,0,1,52.938,24.269Zm.086-8.937a2.264,2.264,0,0,0-1.869.827,3.647,3.647,0,0,0-.666,2.342q0,3.169,2.557,3.169,2.438,0,2.438-3.255Q55.483,15.331,53.023,15.331Zm15.3.73a2.945,2.945,0,0,0-1.429-.333,2.058,2.058,0,0,0-1.729.811,3.538,3.538,0,0,0-.623,2.208V24H61.145V13h3.395v2.041h.043a2.937,2.937,0,0,1,2.9-2.234,2.186,2.186,0,0,1,.838.129Zm18.434,6.682a6.223,6.223,0,0,1-1.772,4.743,7.183,7.183,0,0,1-5.135,1.681,8.139,8.139,0,0,1-3.523-.634V25.676a6.747,6.747,0,0,0,3.427.988,3.691,3.691,0,0,0,2.664-.908,3.257,3.257,0,0,0,.945-2.465v-.87h-.043a3.791,3.791,0,0,1-3.427,1.848,4.122,4.122,0,0,1-3.341-1.482,6.012,6.012,0,0,1-1.235-3.975,6.7,6.7,0,0,1,1.375-4.437,4.489,4.489,0,0,1,3.62-1.644,3.341,3.341,0,0,1,3.008,1.547h.043V13h3.395ZM83.4,18.715v-.87a2.674,2.674,0,0,0-.618-1.778,2,2,0,0,0-1.606-.736,2.076,2.076,0,0,0-1.772.881,4.142,4.142,0,0,0-.645,2.481,3.5,3.5,0,0,0,.612,2.175,2,2,0,0,0,1.676.8,2.077,2.077,0,0,0,1.7-.811A3.325,3.325,0,0,0,83.4,18.715Zm13.363-2.653a2.945,2.945,0,0,0-1.429-.333,2.058,2.058,0,0,0-1.729.811,3.538,3.538,0,0,0-.623,2.208V24H89.59V13h3.395v2.041h.043a2.937,2.937,0,0,1,2.9-2.234,2.186,2.186,0,0,1,.838.129ZM107.5,24h-3.212V22.421h-.043a3.585,3.585,0,0,1-3.276,1.848,3.427,3.427,0,0,1-2.519-.908,3.253,3.253,0,0,1-.918-2.422q0-3.2,3.792-3.7l2.986-.4q0-1.8-1.955-1.8a6.673,6.673,0,0,0-3.738,1.171V13.655a8.41,8.41,0,0,1,1.939-.645,10.192,10.192,0,0,1,2.24-.279q4.705,0,4.705,4.694Zm-3.19-4.469V18.79l-2,.258q-1.654.215-1.654,1.493a1.234,1.234,0,0,0,.4.951,1.548,1.548,0,0,0,1.09.371,2.01,2.01,0,0,0,1.558-.661A2.386,2.386,0,0,0,104.307,19.531ZM120.946,24h-3.395V22.485h-.043a3.806,3.806,0,0,1-3.405,1.783,4.17,4.17,0,0,1-3.319-1.456,6.025,6.025,0,0,1-1.257-4.066,6.558,6.558,0,0,1,1.386-4.372,4.52,4.52,0,0,1,3.631-1.644,3.089,3.089,0,0,1,2.965,1.525h.043V7.715h3.395Zm-3.33-5.35v-.827a2.6,2.6,0,0,0-.623-1.783,2.2,2.2,0,0,0-3.384.177,4.116,4.116,0,0,0-.634,2.433,3.561,3.561,0,0,0,.612,2.234,2.174,2.174,0,0,0,3.378-.043A3.448,3.448,0,0,0,117.616,18.65Zm11.43,5.618a5.913,5.913,0,0,1-4.324-1.542,5.589,5.589,0,0,1-1.574-4.184,5.589,5.589,0,0,1,1.633-4.27,6.17,6.17,0,0,1,4.415-1.542,5.842,5.842,0,0,1,4.3,1.542,5.48,5.48,0,0,1,1.558,4.077,5.816,5.816,0,0,1-1.606,4.329A5.979,5.979,0,0,1,129.046,24.269Zm.086-8.937a2.264,2.264,0,0,0-1.869.827A3.647,3.647,0,0,0,126.6,18.5q0,3.169,2.557,3.169,2.438,0,2.438-3.255Q131.592,15.331,129.132,15.331ZM154.086,24h-3.395V22.485h-.043a3.806,3.806,0,0,1-3.405,1.783,4.17,4.17,0,0,1-3.319-1.456,6.025,6.025,0,0,1-1.257-4.066,6.558,6.558,0,0,1,1.386-4.372,4.52,4.52,0,0,1,3.631-1.644,3.089,3.089,0,0,1,2.965,1.525h.043V7.715h3.395Zm-3.33-5.35v-.827a2.6,2.6,0,0,0-.623-1.783,2.2,2.2,0,0,0-3.384.177,4.115,4.115,0,0,0-.634,2.433,3.561,3.561,0,0,0,.612,2.234,2.174,2.174,0,0,0,3.378-.043A3.448,3.448,0,0,0,150.756,18.65Zm16.07.816H159.65q.172,2.4,3.019,2.4a5.893,5.893,0,0,0,3.19-.859v2.449a8.381,8.381,0,0,1-3.964.816,5.58,5.58,0,0,1-4.136-1.477,5.58,5.58,0,0,1-1.472-4.12,5.887,5.887,0,0,1,1.59-4.34,5.3,5.3,0,0,1,3.91-1.6,4.807,4.807,0,0,1,3.722,1.429,5.5,5.5,0,0,1,1.316,3.878Zm-3.147-2.084q0-2.363-1.912-2.363a1.826,1.826,0,0,0-1.413.677,3.072,3.072,0,0,0-.725,1.687ZM3.147,37.66a1.983,1.983,0,0,1-1.407-.51A1.644,1.644,0,0,1,1.192,35.9a1.586,1.586,0,0,1,.548-1.246,2.048,2.048,0,0,1,1.407-.483,2.044,2.044,0,0,1,1.413.483A1.593,1.593,0,0,1,5.1,35.9a1.637,1.637,0,0,1-.542,1.268A2.016,2.016,0,0,1,3.147,37.66ZM4.823,50.4H1.429v-11H4.823Zm13.481,0H14.921V44.288q0-2.557-1.826-2.557a1.812,1.812,0,0,0-1.45.677,2.578,2.578,0,0,0-.569,1.719V50.4H7.681v-11h3.395v1.74h.043a3.89,3.89,0,0,1,3.534-2.009q3.652,0,3.652,4.533ZM29.326,50a6.712,6.712,0,0,1-3.319.666,5.614,5.614,0,0,1-4.1-1.536,5.305,5.305,0,0,1-1.568-3.964,5.844,5.844,0,0,1,1.681-4.42,6.213,6.213,0,0,1,4.5-1.617,5.768,5.768,0,0,1,2.814.516v2.879a3.87,3.87,0,0,0-2.374-.795,3.128,3.128,0,0,0-2.315.854,3.187,3.187,0,0,0-.854,2.358,3.135,3.135,0,0,0,.816,2.293,3,3,0,0,0,2.245.833,4.48,4.48,0,0,0,2.481-.795Zm12.106-4.136H34.257q.172,2.4,3.019,2.4a5.893,5.893,0,0,0,3.19-.859v2.449a8.381,8.381,0,0,1-3.964.816,5.12,5.12,0,0,1-5.607-5.6,5.887,5.887,0,0,1,1.59-4.34,5.3,5.3,0,0,1,3.91-1.6,4.807,4.807,0,0,1,3.722,1.429,5.5,5.5,0,0,1,1.316,3.878Zm-3.147-2.084q0-2.363-1.912-2.363a1.826,1.826,0,0,0-1.413.677,3.072,3.072,0,0,0-.725,1.687Zm12.343-1.321a2.945,2.945,0,0,0-1.429-.333,2.058,2.058,0,0,0-1.729.811,3.538,3.538,0,0,0-.623,2.208V50.4H43.452v-11h3.395v2.041h.043a2.937,2.937,0,0,1,2.9-2.234,2.186,2.186,0,0,1,.838.129Zm8.862,7.81a5.017,5.017,0,0,1-2.267.4q-3.588,0-3.588-3.728V41.9H51.853V39.4h1.783V37.026l3.384-.967V39.4H59.49v2.5H57.02V46.35q0,1.719,1.364,1.719a2.3,2.3,0,0,0,1.106-.312ZM63.121,37.66a1.983,1.983,0,0,1-1.407-.51,1.644,1.644,0,0,1-.548-1.251,1.586,1.586,0,0,1,.548-1.246,2.3,2.3,0,0,1,2.82,0,1.593,1.593,0,0,1,.542,1.246,1.637,1.637,0,0,1-.542,1.268A2.016,2.016,0,0,1,63.121,37.66ZM64.8,50.4H61.4v-11H64.8Zm13.621,0H75.023V48.885H74.98a3.806,3.806,0,0,1-3.405,1.783,4.17,4.17,0,0,1-3.319-1.456A6.025,6.025,0,0,1,67,45.147a6.558,6.558,0,0,1,1.386-4.372,4.52,4.52,0,0,1,3.631-1.644,3.089,3.089,0,0,1,2.965,1.525h.043V34.115h3.395Zm-3.33-5.35v-.827a2.6,2.6,0,0,0-.623-1.783,2.2,2.2,0,0,0-3.384.177,4.116,4.116,0,0,0-.634,2.433,3.561,3.561,0,0,0,.612,2.234,2.174,2.174,0,0,0,3.378-.043A3.448,3.448,0,0,0,75.088,45.05Zm16.64,5.35H88.344V48.724H88.29a3.839,3.839,0,0,1-3.362,1.944q-3.824,0-3.824-4.63V39.4h3.384v6.338q0,2.331,1.848,2.331A1.828,1.828,0,0,0,87.8,47.43a2.577,2.577,0,0,0,.548-1.735V39.4h3.384Zm20.324,0h-3.384V44.127q0-2.4-1.762-2.4a1.619,1.619,0,0,0-1.364.72,2.958,2.958,0,0,0-.526,1.794V50.4h-3.395V44.062q0-2.331-1.729-2.331a1.658,1.658,0,0,0-1.391.688,3.025,3.025,0,0,0-.521,1.869V50.4H94.585v-11h3.395v1.719h.043a4.168,4.168,0,0,1,3.556-1.987,3.167,3.167,0,0,1,3.19,2.052,4.069,4.069,0,0,1,3.7-2.052q3.588,0,3.588,4.426Zm6.123-1.278h-.043V50.4h-3.395V34.115h3.395v6.939h.043a4.028,4.028,0,0,1,3.577-1.923,3.925,3.925,0,0,1,3.276,1.461,6.3,6.3,0,0,1,1.149,4A6.823,6.823,0,0,1,124.835,49a4.374,4.374,0,0,1-3.588,1.665A3.466,3.466,0,0,1,118.175,49.122Zm-.1-4.641v1.128a2.575,2.575,0,0,0,.612,1.762,1.992,1.992,0,0,0,1.568.7,2.081,2.081,0,0,0,1.8-.9,4.331,4.331,0,0,0,.639-2.541,3.446,3.446,0,0,0-.585-2.132,1.976,1.976,0,0,0-1.67-.768,2.158,2.158,0,0,0-1.692.763A2.9,2.9,0,0,0,118.078,44.481Zm17.478-2.02a2.945,2.945,0,0,0-1.429-.333,2.058,2.058,0,0,0-1.729.811,3.538,3.538,0,0,0-.623,2.208V50.4H128.38v-11h3.395v2.041h.043a2.937,2.937,0,0,1,2.9-2.234,2.186,2.186,0,0,1,.838.129Zm11.376,3.405h-7.176q.172,2.4,3.019,2.4a5.893,5.893,0,0,0,3.19-.859v2.449a8.381,8.381,0,0,1-3.964.816,5.12,5.12,0,0,1-5.607-5.6,5.887,5.887,0,0,1,1.59-4.34,5.3,5.3,0,0,1,3.91-1.6,4.807,4.807,0,0,1,3.722,1.429,5.5,5.5,0,0,1,1.316,3.878Zm-3.147-2.084q0-2.363-1.912-2.363a1.826,1.826,0,0,0-1.413.677,3.072,3.072,0,0,0-.725,1.687Z" transform="translate(475 7478.864)" fill="#212429"/>
    <path id="Parrafo-2" data-name="Parrafo" d="M19.314,24H15.888V14.783q0-1.493.129-3.3h-.086a16.228,16.228,0,0,1-.483,2.041L11.838,24H9L5.328,13.634a20.172,20.172,0,0,1-.483-2.148h-.1q.14,2.277.14,4V24H1.762V8.6H6.843L9.99,17.727a12.856,12.856,0,0,1,.548,2.2H10.6a22.174,22.174,0,0,1,.612-2.224L14.362,8.6h4.952Zm12.321,0H28.424V22.421h-.043A3.585,3.585,0,0,1,25.1,24.269a3.427,3.427,0,0,1-2.519-.908,3.253,3.253,0,0,1-.918-2.422q0-3.2,3.792-3.7l2.986-.4q0-1.8-1.955-1.8a6.673,6.673,0,0,0-3.738,1.171V13.655a8.41,8.41,0,0,1,1.939-.645,10.192,10.192,0,0,1,2.24-.279q4.705,0,4.705,4.694Zm-3.19-4.469V18.79l-2,.258q-1.654.215-1.654,1.493a1.234,1.234,0,0,0,.4.951,1.548,1.548,0,0,0,1.09.371,2.01,2.01,0,0,0,1.558-.661A2.386,2.386,0,0,0,28.445,19.531ZM44.795,13,40.326,24.881q-1.611,4.286-4.855,4.286a6.221,6.221,0,0,1-2.03-.279V26.181a2.855,2.855,0,0,0,1.472.4,1.838,1.838,0,0,0,1.826-1.235l.58-1.364L32.85,13h3.76l2.052,6.692a8.7,8.7,0,0,1,.3,1.472H39a10.261,10.261,0,0,1,.354-1.45L41.433,13Zm6.392,11.269a5.913,5.913,0,0,1-4.324-1.542,5.589,5.589,0,0,1-1.574-4.184,5.589,5.589,0,0,1,1.633-4.27,6.17,6.17,0,0,1,4.415-1.542,5.842,5.842,0,0,1,4.3,1.542,5.48,5.48,0,0,1,1.558,4.077,5.816,5.816,0,0,1-1.606,4.329A5.979,5.979,0,0,1,51.187,24.269Zm.086-8.937a2.264,2.264,0,0,0-1.869.827,3.647,3.647,0,0,0-.666,2.342q0,3.169,2.557,3.169,2.438,0,2.438-3.255Q53.732,15.331,51.272,15.331Zm15.3.73a2.945,2.945,0,0,0-1.429-.333,2.058,2.058,0,0,0-1.729.811,3.538,3.538,0,0,0-.623,2.208V24H59.394V13h3.395v2.041h.043a2.937,2.937,0,0,1,2.9-2.234,2.186,2.186,0,0,1,.838.129ZM85,22.743a6.223,6.223,0,0,1-1.772,4.743A7.183,7.183,0,0,1,78.1,29.167a8.139,8.139,0,0,1-3.523-.634V25.676A6.747,6.747,0,0,0,78,26.664a3.691,3.691,0,0,0,2.664-.908,3.257,3.257,0,0,0,.945-2.465v-.87h-.043a3.791,3.791,0,0,1-3.427,1.848A4.122,4.122,0,0,1,74.8,22.786a6.012,6.012,0,0,1-1.235-3.975,6.7,6.7,0,0,1,1.375-4.437,4.489,4.489,0,0,1,3.62-1.644,3.341,3.341,0,0,1,3.008,1.547h.043V13H85Zm-3.352-4.028v-.87a2.674,2.674,0,0,0-.618-1.778,2,2,0,0,0-1.606-.736,2.076,2.076,0,0,0-1.772.881,4.142,4.142,0,0,0-.645,2.481,3.5,3.5,0,0,0,.612,2.175,2,2,0,0,0,1.676.8,2.077,2.077,0,0,0,1.7-.811A3.325,3.325,0,0,0,81.651,18.715Zm13.363-2.653a2.945,2.945,0,0,0-1.429-.333,2.058,2.058,0,0,0-1.729.811,3.538,3.538,0,0,0-.623,2.208V24H87.839V13h3.395v2.041h.043a2.937,2.937,0,0,1,2.9-2.234,2.186,2.186,0,0,1,.838.129ZM105.746,24h-3.212V22.421h-.043a3.585,3.585,0,0,1-3.276,1.848,3.427,3.427,0,0,1-2.519-.908,3.253,3.253,0,0,1-.918-2.422q0-3.2,3.792-3.7l2.986-.4q0-1.8-1.955-1.8a6.673,6.673,0,0,0-3.738,1.171V13.655a8.41,8.41,0,0,1,1.939-.645,10.192,10.192,0,0,1,2.24-.279q4.705,0,4.705,4.694Zm-3.19-4.469V18.79l-2,.258q-1.654.215-1.654,1.493a1.234,1.234,0,0,0,.4.951,1.548,1.548,0,0,0,1.09.371,2.01,2.01,0,0,0,1.558-.661A2.386,2.386,0,0,0,102.556,19.531ZM119.2,24H115.8V22.485h-.043a3.806,3.806,0,0,1-3.405,1.783,4.17,4.17,0,0,1-3.319-1.456,6.025,6.025,0,0,1-1.257-4.066,6.558,6.558,0,0,1,1.386-4.372,4.52,4.52,0,0,1,3.631-1.644,3.089,3.089,0,0,1,2.965,1.525h.043V7.715H119.2Zm-3.33-5.35v-.827a2.6,2.6,0,0,0-.623-1.783,2.2,2.2,0,0,0-3.384.177,4.116,4.116,0,0,0-.634,2.433,3.561,3.561,0,0,0,.612,2.234,2.174,2.174,0,0,0,3.378-.043A3.448,3.448,0,0,0,115.865,18.65Zm11.43,5.618a5.913,5.913,0,0,1-4.324-1.542,5.589,5.589,0,0,1-1.574-4.184,5.589,5.589,0,0,1,1.633-4.27,6.17,6.17,0,0,1,4.415-1.542,5.842,5.842,0,0,1,4.3,1.542A5.48,5.48,0,0,1,133.3,18.35a5.816,5.816,0,0,1-1.606,4.329A5.979,5.979,0,0,1,127.295,24.269Zm.086-8.937a2.264,2.264,0,0,0-1.869.827,3.647,3.647,0,0,0-.666,2.342q0,3.169,2.557,3.169,2.438,0,2.438-3.255Q129.841,15.331,127.381,15.331ZM152.335,24H148.94V22.485H148.9a3.806,3.806,0,0,1-3.405,1.783,4.17,4.17,0,0,1-3.319-1.456,6.025,6.025,0,0,1-1.257-4.066,6.558,6.558,0,0,1,1.386-4.372,4.52,4.52,0,0,1,3.631-1.644,3.089,3.089,0,0,1,2.965,1.525h.043V7.715h3.395ZM149,18.65v-.827a2.6,2.6,0,0,0-.623-1.783,2.2,2.2,0,0,0-3.384.177,4.115,4.115,0,0,0-.634,2.433,3.561,3.561,0,0,0,.612,2.234,2.174,2.174,0,0,0,3.378-.043A3.448,3.448,0,0,0,149,18.65Zm16.07.816H157.9q.172,2.4,3.019,2.4a5.893,5.893,0,0,0,3.19-.859v2.449a8.381,8.381,0,0,1-3.964.816,5.58,5.58,0,0,1-4.136-1.477,5.58,5.58,0,0,1-1.472-4.12,5.887,5.887,0,0,1,1.59-4.34,5.3,5.3,0,0,1,3.91-1.6,4.807,4.807,0,0,1,3.722,1.429,5.5,5.5,0,0,1,1.316,3.878Zm-3.147-2.084q0-2.363-1.912-2.363a1.826,1.826,0,0,0-1.413.677,3.072,3.072,0,0,0-.725,1.687ZM3.147,37.66a1.983,1.983,0,0,1-1.407-.51A1.644,1.644,0,0,1,1.192,35.9a1.586,1.586,0,0,1,.548-1.246,2.048,2.048,0,0,1,1.407-.483,2.044,2.044,0,0,1,1.413.483A1.593,1.593,0,0,1,5.1,35.9a1.637,1.637,0,0,1-.542,1.268A2.016,2.016,0,0,1,3.147,37.66ZM4.823,50.4H1.429v-11H4.823Zm13.481,0H14.921V44.288q0-2.557-1.826-2.557a1.812,1.812,0,0,0-1.45.677,2.578,2.578,0,0,0-.569,1.719V50.4H7.681v-11h3.395v1.74h.043a3.89,3.89,0,0,1,3.534-2.009q3.652,0,3.652,4.533ZM29.326,50a6.712,6.712,0,0,1-3.319.666,5.614,5.614,0,0,1-4.1-1.536,5.305,5.305,0,0,1-1.568-3.964,5.844,5.844,0,0,1,1.681-4.42,6.213,6.213,0,0,1,4.5-1.617,5.768,5.768,0,0,1,2.814.516v2.879a3.87,3.87,0,0,0-2.374-.795,3.128,3.128,0,0,0-2.315.854,3.187,3.187,0,0,0-.854,2.358,3.135,3.135,0,0,0,.816,2.293,3,3,0,0,0,2.245.833,4.48,4.48,0,0,0,2.481-.795Zm12.106-4.136H34.257q.172,2.4,3.019,2.4a5.893,5.893,0,0,0,3.19-.859v2.449a8.381,8.381,0,0,1-3.964.816,5.12,5.12,0,0,1-5.607-5.6,5.887,5.887,0,0,1,1.59-4.34,5.3,5.3,0,0,1,3.91-1.6,4.807,4.807,0,0,1,3.722,1.429,5.5,5.5,0,0,1,1.316,3.878Zm-3.147-2.084q0-2.363-1.912-2.363a1.826,1.826,0,0,0-1.413.677,3.072,3.072,0,0,0-.725,1.687Zm12.343-1.321a2.945,2.945,0,0,0-1.429-.333,2.058,2.058,0,0,0-1.729.811,3.538,3.538,0,0,0-.623,2.208V50.4H43.452v-11h3.395v2.041h.043a2.937,2.937,0,0,1,2.9-2.234,2.186,2.186,0,0,1,.838.129Zm8.862,7.81a5.017,5.017,0,0,1-2.267.4q-3.588,0-3.588-3.728V41.9H51.853V39.4h1.783V37.026l3.384-.967V39.4H59.49v2.5H57.02V46.35q0,1.719,1.364,1.719a2.3,2.3,0,0,0,1.106-.312ZM63.121,37.66a1.983,1.983,0,0,1-1.407-.51,1.644,1.644,0,0,1-.548-1.251,1.586,1.586,0,0,1,.548-1.246,2.3,2.3,0,0,1,2.82,0,1.593,1.593,0,0,1,.542,1.246,1.637,1.637,0,0,1-.542,1.268A2.016,2.016,0,0,1,63.121,37.66ZM64.8,50.4H61.4v-11H64.8Zm13.621,0H75.023V48.885H74.98a3.806,3.806,0,0,1-3.405,1.783,4.17,4.17,0,0,1-3.319-1.456A6.025,6.025,0,0,1,67,45.147a6.558,6.558,0,0,1,1.386-4.372,4.52,4.52,0,0,1,3.631-1.644,3.089,3.089,0,0,1,2.965,1.525h.043V34.115h3.395Zm-3.33-5.35v-.827a2.6,2.6,0,0,0-.623-1.783,2.2,2.2,0,0,0-3.384.177,4.116,4.116,0,0,0-.634,2.433,3.561,3.561,0,0,0,.612,2.234,2.174,2.174,0,0,0,3.378-.043A3.448,3.448,0,0,0,75.088,45.05Zm16.64,5.35H88.344V48.724H88.29a3.839,3.839,0,0,1-3.362,1.944q-3.824,0-3.824-4.63V39.4h3.384v6.338q0,2.331,1.848,2.331A1.828,1.828,0,0,0,87.8,47.43a2.577,2.577,0,0,0,.548-1.735V39.4h3.384Zm20.324,0h-3.384V44.127q0-2.4-1.762-2.4a1.619,1.619,0,0,0-1.364.72,2.958,2.958,0,0,0-.526,1.794V50.4h-3.395V44.062q0-2.331-1.729-2.331a1.658,1.658,0,0,0-1.391.688,3.025,3.025,0,0,0-.521,1.869V50.4H94.585v-11h3.395v1.719h.043a4.168,4.168,0,0,1,3.556-1.987,3.167,3.167,0,0,1,3.19,2.052,4.069,4.069,0,0,1,3.7-2.052q3.588,0,3.588,4.426Zm6.123-1.278h-.043V50.4h-3.395V34.115h3.395v6.939h.043a4.028,4.028,0,0,1,3.577-1.923,3.925,3.925,0,0,1,3.276,1.461,6.3,6.3,0,0,1,1.149,4A6.823,6.823,0,0,1,124.835,49a4.374,4.374,0,0,1-3.588,1.665A3.466,3.466,0,0,1,118.175,49.122Zm-.1-4.641v1.128a2.575,2.575,0,0,0,.612,1.762,1.992,1.992,0,0,0,1.568.7,2.081,2.081,0,0,0,1.8-.9,4.331,4.331,0,0,0,.639-2.541,3.446,3.446,0,0,0-.585-2.132,1.976,1.976,0,0,0-1.67-.768,2.158,2.158,0,0,0-1.692.763A2.9,2.9,0,0,0,118.078,44.481Zm17.478-2.02a2.945,2.945,0,0,0-1.429-.333,2.058,2.058,0,0,0-1.729.811,3.538,3.538,0,0,0-.623,2.208V50.4H128.38v-11h3.395v2.041h.043a2.937,2.937,0,0,1,2.9-2.234,2.186,2.186,0,0,1,.838.129Zm11.376,3.405h-7.176q.172,2.4,3.019,2.4a5.893,5.893,0,0,0,3.19-.859v2.449a8.381,8.381,0,0,1-3.964.816,5.12,5.12,0,0,1-5.607-5.6,5.887,5.887,0,0,1,1.59-4.34,5.3,5.3,0,0,1,3.91-1.6,4.807,4.807,0,0,1,3.722,1.429,5.5,5.5,0,0,1,1.316,3.878Zm-3.147-2.084q0-2.363-1.912-2.363a1.826,1.826,0,0,0-1.413.677,3.072,3.072,0,0,0-.725,1.687Z" transform="translate(879 7765.864)" fill="#212429"/>
    <path id="Parrafo-3" data-name="Parrafo" d="M20.154,19h-6.68V6.4h6.4V7.732H14.951v4.192H19.5v1.327H14.951v4.412h5.2Zm1.688-.325V17.128a4.266,4.266,0,0,0,2.593.87q1.9,0,1.9-1.266a1.1,1.1,0,0,0-.163-.611,1.62,1.62,0,0,0-.439-.444,3.383,3.383,0,0,0-.65-.347q-.374-.154-.8-.321a10.357,10.357,0,0,1-1.05-.479,3.173,3.173,0,0,1-.756-.545,2.028,2.028,0,0,1-.457-.69,2.441,2.441,0,0,1-.154-.905,2.15,2.15,0,0,1,.29-1.121,2.572,2.572,0,0,1,.773-.817,3.607,3.607,0,0,1,1.1-.5A4.893,4.893,0,0,1,25.3,9.789a5.164,5.164,0,0,1,2.092.4v1.459A4.077,4.077,0,0,0,25.111,11a2.671,2.671,0,0,0-.729.092,1.786,1.786,0,0,0-.558.259,1.2,1.2,0,0,0-.36.4,1.053,1.053,0,0,0-.127.514,1.233,1.233,0,0,0,.127.589,1.3,1.3,0,0,0,.374.422,2.855,2.855,0,0,0,.6.334q.352.149.8.325a11.131,11.131,0,0,1,1.072.47,3.678,3.678,0,0,1,.809.545,2.129,2.129,0,0,1,.514.7,2.254,2.254,0,0,1,.18.94,2.217,2.217,0,0,1-.294,1.16,2.523,2.523,0,0,1-.787.817,3.6,3.6,0,0,1-1.134.483,5.6,5.6,0,0,1-1.345.158A5.106,5.106,0,0,1,21.842,18.675Zm12.357.237a2.779,2.779,0,0,1-1.345.281q-2.364,0-2.364-2.637V11.23H28.943V10H30.49V7.8l1.441-.466V10H34.2v1.23H31.932V16.3a2.1,2.1,0,0,0,.308,1.292,1.228,1.228,0,0,0,1.02.387,1.515,1.515,0,0,0,.94-.3ZM42.566,19H41.125V17.594H41.09a3.018,3.018,0,0,1-2.769,1.617,2.959,2.959,0,0,1-2.1-.712,2.466,2.466,0,0,1-.76-1.89q0-2.522,2.971-2.936l2.7-.378Q41.125,11,39.271,11a4.431,4.431,0,0,0-2.936,1.107V10.633a5.577,5.577,0,0,1,3.059-.844q3.173,0,3.173,3.357Zm-1.441-4.553-2.171.3a3.525,3.525,0,0,0-1.512.5,1.432,1.432,0,0,0-.51,1.261,1.374,1.374,0,0,0,.47,1.077A1.817,1.817,0,0,0,38.655,18a2.314,2.314,0,0,0,1.771-.751,2.685,2.685,0,0,0,.7-1.9ZM46.759,17.7h-.035V19H45.282V5.676h1.441v5.906h.035A3.408,3.408,0,0,1,49.87,9.789,3.3,3.3,0,0,1,52.582,11a4.99,4.99,0,0,1,.98,3.239,5.578,5.578,0,0,1-1.1,3.617,3.658,3.658,0,0,1-3.006,1.358A2.96,2.96,0,0,1,46.759,17.7Zm-.035-3.63v1.257a2.676,2.676,0,0,0,.725,1.894A2.587,2.587,0,0,0,51.342,17a4.6,4.6,0,0,0,.743-2.786,3.629,3.629,0,0,0-.694-2.355A2.3,2.3,0,0,0,49.51,11a2.554,2.554,0,0,0-2.021.875A3.211,3.211,0,0,0,46.724,14.069ZM57.306,19H55.864V5.676h1.441Zm10.151-4.14H61.1a3.366,3.366,0,0,0,.809,2.32A2.788,2.788,0,0,0,64.038,18a4.422,4.422,0,0,0,2.795-1V18.35a5.224,5.224,0,0,1-3.138.861,3.8,3.8,0,0,1-3-1.226,5.018,5.018,0,0,1-1.09-3.45A4.921,4.921,0,0,1,60.8,11.112a3.819,3.819,0,0,1,2.958-1.323,3.384,3.384,0,0,1,2.733,1.143,4.764,4.764,0,0,1,.967,3.173ZM65.98,13.639a2.933,2.933,0,0,0-.6-1.942A2.051,2.051,0,0,0,63.73,11,2.328,2.328,0,0,0,62,11.731a3.31,3.31,0,0,0-.879,1.907Z" transform="translate(741 7509.864)" fill="#212429"/>
    <path id="Parrafo-4" data-name="Parrafo" d="M4.127,19V6.4h3.48q6.662,0,6.662,6.144a6.191,6.191,0,0,1-1.85,4.689A6.863,6.863,0,0,1,7.467,19ZM5.6,7.732v9.932H7.485a5.338,5.338,0,0,0,3.858-1.327,4.975,4.975,0,0,0,1.38-3.762q0-4.843-5.15-4.843Zm11.689-.018a.913.913,0,0,1-.659-.264.89.89,0,0,1-.272-.668.923.923,0,0,1,.932-.94.931.931,0,0,1,.672.268.939.939,0,0,1,0,1.332A.923.923,0,0,1,17.293,7.715ZM18,19H16.555V10H18Zm10.389,0H26.944V13.867Q26.944,11,24.852,11a2.269,2.269,0,0,0-1.789.813,3.013,3.013,0,0,0-.708,2.052V19H20.915V10h1.441v1.494h.035a3.248,3.248,0,0,1,2.953-1.705,2.753,2.753,0,0,1,2.259.954,4.248,4.248,0,0,1,.782,2.755Zm9.158,0H36.1V17.594h-.035A3.018,3.018,0,0,1,33.3,19.211a2.959,2.959,0,0,1-2.1-.712,2.466,2.466,0,0,1-.76-1.89q0-2.522,2.971-2.936l2.7-.378Q36.1,11,34.248,11a4.431,4.431,0,0,0-2.936,1.107V10.633a5.577,5.577,0,0,1,3.059-.844q3.173,0,3.173,3.357ZM36.1,14.447l-2.171.3a3.525,3.525,0,0,0-1.512.5,1.432,1.432,0,0,0-.51,1.261,1.374,1.374,0,0,0,.47,1.077A1.817,1.817,0,0,0,33.632,18a2.314,2.314,0,0,0,1.771-.751,2.685,2.685,0,0,0,.7-1.9ZM36.3,5.412l-2.3,2.883H32.876l1.96-2.883ZM53.039,19H51.6V13.832a3.9,3.9,0,0,0-.461-2.162A1.75,1.75,0,0,0,49.584,11a1.921,1.921,0,0,0-1.569.844,3.228,3.228,0,0,0-.646,2.021V19H45.928V13.656Q45.928,11,43.88,11a1.9,1.9,0,0,0-1.564.8,3.288,3.288,0,0,0-.615,2.07V19H40.259V10H41.7v1.424h.035a3.058,3.058,0,0,1,2.795-1.635,2.6,2.6,0,0,1,2.549,1.863,3.212,3.212,0,0,1,2.988-1.863q2.971,0,2.971,3.665ZM56.5,7.715a.913.913,0,0,1-.659-.264.89.89,0,0,1-.272-.668.923.923,0,0,1,.932-.94.931.931,0,0,1,.672.268.939.939,0,0,1,0,1.332A.923.923,0,0,1,56.5,7.715ZM57.2,19H55.763V10H57.2Zm9.053-.413a4.684,4.684,0,0,1-2.461.624,4.074,4.074,0,0,1-3.107-1.252,4.539,4.539,0,0,1-1.182-3.248,4.99,4.99,0,0,1,1.274-3.573,4.458,4.458,0,0,1,3.4-1.349,4.735,4.735,0,0,1,2.092.439v1.477A3.665,3.665,0,0,0,64.13,11a2.9,2.9,0,0,0-2.263.989,3.752,3.752,0,0,0-.883,2.6,3.573,3.573,0,0,0,.831,2.5A2.863,2.863,0,0,0,64.042,18a3.613,3.613,0,0,0,2.215-.782Zm5.941.624a4.175,4.175,0,0,1-3.186-1.261,4.672,4.672,0,0,1-1.191-3.344,4.867,4.867,0,0,1,1.239-3.542A4.455,4.455,0,0,1,72.41,9.789a4.037,4.037,0,0,1,3.142,1.239,4.914,4.914,0,0,1,1.129,3.437,4.835,4.835,0,0,1-1.217,3.45A4.265,4.265,0,0,1,72.2,19.211ZM72.3,11a2.742,2.742,0,0,0-2.2.945,3.88,3.88,0,0,0-.809,2.606,3.67,3.67,0,0,0,.817,2.522A2.778,2.778,0,0,0,72.3,18a2.635,2.635,0,0,0,2.149-.905,3.928,3.928,0,0,0,.751-2.575,4,4,0,0,0-.751-2.6A2.623,2.623,0,0,0,72.3,11Z" transform="translate(741 7742.864)" fill="#212429"/>
    <path id="Parrafo-5" data-name="Parrafo" d="M14.173,18.49V16.75a3.38,3.38,0,0,0,.716.475,5.8,5.8,0,0,0,.879.356,7,7,0,0,0,.927.224,5.17,5.17,0,0,0,.861.079,3.374,3.374,0,0,0,2.035-.505,1.9,1.9,0,0,0,.448-2.342,2.525,2.525,0,0,0-.62-.69,6.148,6.148,0,0,0-.936-.6q-.541-.286-1.165-.6-.659-.334-1.23-.677a5.332,5.332,0,0,1-.993-.756,3.153,3.153,0,0,1-.664-.936,2.9,2.9,0,0,1-.242-1.226,2.883,2.883,0,0,1,.378-1.5A3.242,3.242,0,0,1,15.562,7a4.5,4.5,0,0,1,1.4-.615,6.419,6.419,0,0,1,1.6-.2,6.147,6.147,0,0,1,2.716.448V8.295a4.923,4.923,0,0,0-2.865-.773,4.712,4.712,0,0,0-.967.1,2.731,2.731,0,0,0-.861.33,1.908,1.908,0,0,0-.615.589,1.563,1.563,0,0,0-.237.879,1.809,1.809,0,0,0,.18.835,2.046,2.046,0,0,0,.532.642,5.3,5.3,0,0,0,.857.563q.505.272,1.165.6.677.334,1.283.7a5.865,5.865,0,0,1,1.063.817,3.632,3.632,0,0,1,.725.993,2.792,2.792,0,0,1,.268,1.248,3.165,3.165,0,0,1-.365,1.578,2.993,2.993,0,0,1-.984,1.05,4.3,4.3,0,0,1-1.428.584,7.822,7.822,0,0,1-1.705.18,6.948,6.948,0,0,1-.738-.048q-.439-.048-.9-.141a7.315,7.315,0,0,1-.866-.229A2.694,2.694,0,0,1,14.173,18.49ZM24.87,7.715a.913.913,0,0,1-.659-.264.89.89,0,0,1-.272-.668.923.923,0,0,1,.932-.94.931.931,0,0,1,.672.268.939.939,0,0,1,0,1.332A.923.923,0,0,1,24.87,7.715ZM25.573,19H24.131V10h1.441Zm15.7,0H39.829V13.832a3.9,3.9,0,0,0-.461-2.162A1.75,1.75,0,0,0,37.816,11a1.921,1.921,0,0,0-1.569.844,3.228,3.228,0,0,0-.646,2.021V19H34.16V13.656Q34.16,11,32.112,11a1.9,1.9,0,0,0-1.564.8,3.288,3.288,0,0,0-.615,2.07V19H28.491V10h1.441v1.424h.035a3.058,3.058,0,0,1,2.795-1.635,2.6,2.6,0,0,1,2.549,1.863A3.212,3.212,0,0,1,38.3,9.789q2.971,0,2.971,3.665Zm4.2-1.3h-.035v5.44H43.995V10h1.441v1.582h.035a3.408,3.408,0,0,1,3.111-1.793A3.3,3.3,0,0,1,51.3,11a5.005,5.005,0,0,1,.976,3.239,5.578,5.578,0,0,1-1.1,3.617,3.658,3.658,0,0,1-3.006,1.358A3.011,3.011,0,0,1,45.471,17.7Zm-.035-3.63v1.257a2.676,2.676,0,0,0,.725,1.894A2.587,2.587,0,0,0,50.055,17,4.6,4.6,0,0,0,50.8,14.21a3.629,3.629,0,0,0-.694-2.355A2.3,2.3,0,0,0,48.222,11a2.554,2.554,0,0,0-2.021.875A3.211,3.211,0,0,0,45.436,14.069ZM56.018,19H54.577V5.676h1.441Zm10.151-4.14H59.815a3.366,3.366,0,0,0,.809,2.32A2.788,2.788,0,0,0,62.75,18a4.422,4.422,0,0,0,2.795-1V18.35a5.224,5.224,0,0,1-3.138.861,3.8,3.8,0,0,1-3-1.226,5.018,5.018,0,0,1-1.09-3.45,4.921,4.921,0,0,1,1.191-3.423,3.819,3.819,0,0,1,2.958-1.323A3.384,3.384,0,0,1,65.2,10.932a4.764,4.764,0,0,1,.967,3.173Zm-1.477-1.222a2.933,2.933,0,0,0-.6-1.942A2.051,2.051,0,0,0,62.443,11a2.328,2.328,0,0,0-1.731.729,3.31,3.31,0,0,0-.879,1.907Z" transform="translate(628 7626.864)" fill="#212429"/>
    <path id="Parrafo-6" data-name="Parrafo" d="M22.132,19h-6.68V6.4h6.4V7.732H16.929v4.192h4.553v1.327H16.929v4.412h5.2Zm1.688-.325V17.128a4.266,4.266,0,0,0,2.593.87q1.9,0,1.9-1.266a1.1,1.1,0,0,0-.163-.611,1.62,1.62,0,0,0-.439-.444,3.383,3.383,0,0,0-.65-.347q-.374-.154-.8-.321a10.357,10.357,0,0,1-1.05-.479,3.173,3.173,0,0,1-.756-.545,2.028,2.028,0,0,1-.457-.69,2.441,2.441,0,0,1-.154-.905,2.15,2.15,0,0,1,.29-1.121,2.572,2.572,0,0,1,.773-.817,3.607,3.607,0,0,1,1.1-.5,4.893,4.893,0,0,1,1.279-.167,5.164,5.164,0,0,1,2.092.4v1.459A4.077,4.077,0,0,0,27.089,11a2.671,2.671,0,0,0-.729.092,1.786,1.786,0,0,0-.558.259,1.2,1.2,0,0,0-.36.4,1.053,1.053,0,0,0-.127.514,1.233,1.233,0,0,0,.127.589,1.3,1.3,0,0,0,.374.422,2.855,2.855,0,0,0,.6.334q.352.149.8.325a11.131,11.131,0,0,1,1.072.47,3.678,3.678,0,0,1,.809.545,2.129,2.129,0,0,1,.514.7,2.254,2.254,0,0,1,.18.94,2.217,2.217,0,0,1-.294,1.16,2.523,2.523,0,0,1-.787.817,3.6,3.6,0,0,1-1.134.483,5.6,5.6,0,0,1-1.345.158A5.106,5.106,0,0,1,23.819,18.675Zm14.317-.088a4.684,4.684,0,0,1-2.461.624,4.074,4.074,0,0,1-3.107-1.252,4.539,4.539,0,0,1-1.182-3.248,4.99,4.99,0,0,1,1.274-3.573,4.458,4.458,0,0,1,3.4-1.349,4.735,4.735,0,0,1,2.092.439v1.477A3.665,3.665,0,0,0,36.01,11a2.9,2.9,0,0,0-2.263.989,3.752,3.752,0,0,0-.883,2.6,3.573,3.573,0,0,0,.831,2.5A2.863,2.863,0,0,0,35.922,18a3.613,3.613,0,0,0,2.215-.782ZM46.759,19H45.317V17.594h-.035a3.018,3.018,0,0,1-2.769,1.617,2.959,2.959,0,0,1-2.1-.712,2.466,2.466,0,0,1-.76-1.89q0-2.522,2.971-2.936l2.7-.378Q45.317,11,43.463,11a4.431,4.431,0,0,0-2.936,1.107V10.633a5.577,5.577,0,0,1,3.059-.844q3.173,0,3.173,3.357Zm-1.441-4.553-2.171.3a3.525,3.525,0,0,0-1.512.5,1.432,1.432,0,0,0-.51,1.261,1.374,1.374,0,0,0,.47,1.077A1.817,1.817,0,0,0,42.848,18a2.314,2.314,0,0,0,1.771-.751,2.685,2.685,0,0,0,.7-1.9Zm3.612,4.228V17.128a4.266,4.266,0,0,0,2.593.87q1.9,0,1.9-1.266a1.1,1.1,0,0,0-.163-.611,1.62,1.62,0,0,0-.439-.444,3.383,3.383,0,0,0-.65-.347q-.374-.154-.8-.321a10.357,10.357,0,0,1-1.05-.479,3.173,3.173,0,0,1-.756-.545,2.028,2.028,0,0,1-.457-.69,2.441,2.441,0,0,1-.154-.905,2.15,2.15,0,0,1,.29-1.121,2.572,2.572,0,0,1,.773-.817,3.607,3.607,0,0,1,1.1-.5,4.893,4.893,0,0,1,1.279-.167,5.164,5.164,0,0,1,2.092.4v1.459A4.077,4.077,0,0,0,52.2,11a2.671,2.671,0,0,0-.729.092,1.786,1.786,0,0,0-.558.259,1.2,1.2,0,0,0-.36.4,1.053,1.053,0,0,0-.127.514,1.233,1.233,0,0,0,.127.589,1.3,1.3,0,0,0,.374.422,2.855,2.855,0,0,0,.6.334q.352.149.8.325a11.131,11.131,0,0,1,1.072.47,3.678,3.678,0,0,1,.809.545,2.129,2.129,0,0,1,.514.7,2.254,2.254,0,0,1,.18.94,2.217,2.217,0,0,1-.294,1.16,2.523,2.523,0,0,1-.787.817,3.6,3.6,0,0,1-1.134.483,5.6,5.6,0,0,1-1.345.158A5.106,5.106,0,0,1,48.93,18.675Zm11.944.536a4.175,4.175,0,0,1-3.186-1.261A4.672,4.672,0,0,1,56.5,14.605a4.867,4.867,0,0,1,1.239-3.542,4.455,4.455,0,0,1,3.349-1.274,4.037,4.037,0,0,1,3.142,1.239,4.914,4.914,0,0,1,1.129,3.437,4.835,4.835,0,0,1-1.217,3.45A4.265,4.265,0,0,1,60.874,19.211ZM60.979,11a2.742,2.742,0,0,0-2.2.945,3.88,3.88,0,0,0-.809,2.606,3.67,3.67,0,0,0,.817,2.522A2.778,2.778,0,0,0,60.979,18a2.635,2.635,0,0,0,2.149-.905,3.928,3.928,0,0,0,.751-2.575,4,4,0,0,0-.751-2.6A2.623,2.623,0,0,0,60.979,11Z" transform="translate(835 7704.864)" fill="#212429"/>
    <path id="Parrafo-7" data-name="Parrafo" d="M12,18.473a7.392,7.392,0,0,1-3.48.738,5.613,5.613,0,0,1-4.307-1.731A6.389,6.389,0,0,1,2.6,12.936,6.7,6.7,0,0,1,4.417,8.049,6.175,6.175,0,0,1,9.032,6.186,7.4,7.4,0,0,1,12,6.7V8.277a6.024,6.024,0,0,0-2.988-.756,4.585,4.585,0,0,0-3.52,1.45,5.463,5.463,0,0,0-1.349,3.876,5.2,5.2,0,0,0,1.261,3.669,4.292,4.292,0,0,0,3.309,1.367A6.208,6.208,0,0,0,12,17.04Zm6.135.738a4.175,4.175,0,0,1-3.186-1.261,4.672,4.672,0,0,1-1.191-3.344A4.867,4.867,0,0,1,15,11.063a4.455,4.455,0,0,1,3.349-1.274,4.037,4.037,0,0,1,3.142,1.239,4.914,4.914,0,0,1,1.129,3.437,4.835,4.835,0,0,1-1.217,3.45A4.265,4.265,0,0,1,18.137,19.211ZM18.243,11a2.742,2.742,0,0,0-2.2.945,3.88,3.88,0,0,0-.809,2.606,3.67,3.67,0,0,0,.817,2.522A2.778,2.778,0,0,0,18.243,18a2.635,2.635,0,0,0,2.149-.905,3.928,3.928,0,0,0,.751-2.575,4,4,0,0,0-.751-2.6A2.623,2.623,0,0,0,18.243,11ZM37.7,19H36.26V13.832A3.9,3.9,0,0,0,35.8,11.67,1.75,1.75,0,0,0,34.248,11a1.921,1.921,0,0,0-1.569.844,3.228,3.228,0,0,0-.646,2.021V19H30.591V13.656Q30.591,11,28.543,11a1.9,1.9,0,0,0-1.564.8,3.288,3.288,0,0,0-.615,2.07V19H24.922V10h1.441v1.424H26.4a3.058,3.058,0,0,1,2.795-1.635,2.6,2.6,0,0,1,2.549,1.863,3.212,3.212,0,0,1,2.988-1.863q2.971,0,2.971,3.665Zm4.2-1.3h-.035v5.44H40.426V10h1.441v1.582H41.9a3.408,3.408,0,0,1,3.111-1.793A3.3,3.3,0,0,1,47.73,11a5.005,5.005,0,0,1,.976,3.239,5.578,5.578,0,0,1-1.1,3.617A3.658,3.658,0,0,1,44.6,19.211,3.011,3.011,0,0,1,41.9,17.7Zm-.035-3.63v1.257a2.676,2.676,0,0,0,.725,1.894A2.587,2.587,0,0,0,46.486,17a4.6,4.6,0,0,0,.743-2.786,3.629,3.629,0,0,0-.694-2.355A2.3,2.3,0,0,0,44.654,11a2.554,2.554,0,0,0-2.021.875A3.211,3.211,0,0,0,41.868,14.069ZM52.45,19H51.008V5.676H52.45ZM62.6,14.86H56.247a3.366,3.366,0,0,0,.809,2.32A2.788,2.788,0,0,0,59.182,18a4.422,4.422,0,0,0,2.795-1V18.35a5.224,5.224,0,0,1-3.138.861,3.8,3.8,0,0,1-3-1.226,5.018,5.018,0,0,1-1.09-3.45,4.921,4.921,0,0,1,1.191-3.423A3.819,3.819,0,0,1,58.9,9.789a3.384,3.384,0,0,1,2.733,1.143A4.764,4.764,0,0,1,62.6,14.1Zm-1.477-1.222a2.933,2.933,0,0,0-.6-1.942A2.051,2.051,0,0,0,58.875,11a2.328,2.328,0,0,0-1.731.729,3.31,3.31,0,0,0-.879,1.907Zm5.1,4.983a5.641,5.641,0,0,1-.892,3.415,2.99,2.99,0,0,1-2.553,1.2,2.71,2.71,0,0,1-1.2-.281V21.61a2.385,2.385,0,0,0,1.23.4q1.969,0,1.969-3.146V10h1.441Zm-.7-10.907a.913.913,0,0,1-.659-.264.89.89,0,0,1-.272-.668.923.923,0,0,1,.932-.94.931.931,0,0,1,.672.268.939.939,0,0,1,0,1.332A.923.923,0,0,1,65.519,7.715Zm7.383,11.5a4.175,4.175,0,0,1-3.186-1.261,4.672,4.672,0,0,1-1.191-3.344,4.867,4.867,0,0,1,1.239-3.542,4.455,4.455,0,0,1,3.349-1.274,4.037,4.037,0,0,1,3.142,1.239,4.914,4.914,0,0,1,1.129,3.437,4.835,4.835,0,0,1-1.217,3.45A4.265,4.265,0,0,1,72.9,19.211ZM73.007,11a2.742,2.742,0,0,0-2.2.945A3.88,3.88,0,0,0,70,14.553a3.67,3.67,0,0,0,.817,2.522A2.778,2.778,0,0,0,73.007,18a2.635,2.635,0,0,0,2.149-.905,3.928,3.928,0,0,0,.751-2.575,4,4,0,0,0-.751-2.6A2.623,2.623,0,0,0,73.007,11Z" transform="translate(869 7626.864)" fill="#212429"/>
    <path id="Parrafo-8" data-name="Parrafo" d="M17.9,19H16.262l-1.336-3.533H9.583L8.326,19H6.682L11.516,6.4h1.529Zm-3.454-4.86L12.465,8.77a5.142,5.142,0,0,1-.193-.844h-.035a4.708,4.708,0,0,1-.2.844l-1.96,5.37Zm6.592,3.56H21V19H19.558V5.676H21v5.906h.035a3.408,3.408,0,0,1,3.111-1.793A3.3,3.3,0,0,1,26.857,11a4.99,4.99,0,0,1,.98,3.239,5.578,5.578,0,0,1-1.1,3.617,3.658,3.658,0,0,1-3.006,1.358A2.96,2.96,0,0,1,21.035,17.7ZM21,14.069v1.257a2.676,2.676,0,0,0,.725,1.894A2.587,2.587,0,0,0,25.618,17a4.6,4.6,0,0,0,.743-2.786,3.629,3.629,0,0,0-.694-2.355A2.3,2.3,0,0,0,23.786,11a2.554,2.554,0,0,0-2.021.875A3.211,3.211,0,0,0,21,14.069ZM37.417,19H35.976V17.576h-.035a2.96,2.96,0,0,1-2.777,1.635q-3.217,0-3.217-3.832V10h1.433v5.15q0,2.848,2.18,2.848a2.205,2.205,0,0,0,1.736-.778,2.976,2.976,0,0,0,.681-2.035V10h1.441ZM47.8,19H46.356V13.867Q46.356,11,44.264,11a2.269,2.269,0,0,0-1.789.813,3.013,3.013,0,0,0-.708,2.052V19H40.327V10h1.441v1.494H41.8a3.248,3.248,0,0,1,2.953-1.705,2.753,2.753,0,0,1,2.259.954A4.248,4.248,0,0,1,47.8,13.5Zm10.4,0H56.753V17.471h-.035a3.327,3.327,0,0,1-3.094,1.74A3.362,3.362,0,0,1,50.913,18,4.958,4.958,0,0,1,49.9,14.711a5.394,5.394,0,0,1,1.125-3.577,3.71,3.71,0,0,1,3-1.345,2.885,2.885,0,0,1,2.7,1.459h.035V5.676h1.441Zm-1.441-4.069V13.6a2.575,2.575,0,0,0-.721-1.846A2.417,2.417,0,0,0,54.2,11a2.489,2.489,0,0,0-2.074.967,4.237,4.237,0,0,0-.756,2.672A3.81,3.81,0,0,0,52.1,17.1a2.37,2.37,0,0,0,1.947.9A2.462,2.462,0,0,0,56,17.128,3.242,3.242,0,0,0,56.753,14.931ZM67.555,19H66.114V17.594h-.035a3.018,3.018,0,0,1-2.769,1.617,2.959,2.959,0,0,1-2.1-.712,2.466,2.466,0,0,1-.76-1.89q0-2.522,2.971-2.936l2.7-.378Q66.114,11,64.259,11a4.431,4.431,0,0,0-2.936,1.107V10.633a5.577,5.577,0,0,1,3.059-.844q3.173,0,3.173,3.357Zm-1.441-4.553-2.171.3a3.525,3.525,0,0,0-1.512.5,1.432,1.432,0,0,0-.51,1.261,1.374,1.374,0,0,0,.47,1.077A1.817,1.817,0,0,0,63.644,18a2.314,2.314,0,0,0,1.771-.751,2.685,2.685,0,0,0,.7-1.9ZM77.742,19H76.3V13.867Q76.3,11,74.208,11a2.269,2.269,0,0,0-1.789.813,3.013,3.013,0,0,0-.708,2.052V19H70.271V10h1.441v1.494h.035A3.248,3.248,0,0,1,74.7,9.789a2.753,2.753,0,0,1,2.259.954,4.248,4.248,0,0,1,.782,2.755Zm6.891-.088a2.779,2.779,0,0,1-1.345.281q-2.364,0-2.364-2.637V11.23H79.376V10h1.547V7.8l1.441-.466V10h2.268v1.23H82.365V16.3a2.1,2.1,0,0,0,.308,1.292,1.228,1.228,0,0,0,1.02.387,1.515,1.515,0,0,0,.94-.3Zm9.158-4.052H87.436a3.366,3.366,0,0,0,.809,2.32A2.788,2.788,0,0,0,90.372,18a4.422,4.422,0,0,0,2.795-1V18.35a5.224,5.224,0,0,1-3.138.861,3.8,3.8,0,0,1-3-1.226,5.018,5.018,0,0,1-1.09-3.45,4.921,4.921,0,0,1,1.191-3.423A3.819,3.819,0,0,1,90.09,9.789a3.384,3.384,0,0,1,2.733,1.143,4.764,4.764,0,0,1,.967,3.173Zm-1.477-1.222a2.933,2.933,0,0,0-.6-1.942A2.051,2.051,0,0,0,90.064,11a2.328,2.328,0,0,0-1.731.729,3.31,3.31,0,0,0-.879,1.907Z" transform="translate(628 7545.864)" fill="#212429"/>
    <path id="Trazado_1032861" data-name="Trazado 1032861" d="M-160,7391.7l97.121,113.975" transform="translate(889 183.864)" fill="none" stroke="#5c939f" stroke-linecap="round" stroke-width="3"/>
    <g id="Trazado_1038882" data-name="Trazado 1038882" transform="translate(843.512 7696.223) rotate(138)" fill="#1d7083" stroke-linecap="round">
      <path d="M 16.2109489440918 17.5 L 0.7890505790710449 17.5 L 8.5 1.170930624008179 L 16.2109489440918 17.5 Z" stroke="none"/>
      <path d="M 8.5 2.341892242431641 L 1.578115463256836 17 L 15.42188453674316 17 L 8.5 2.341892242431641 M 8.5 0 L 17 18 L 0 18 L 8.5 0 Z" stroke="none" fill="#1d7083"/>
    </g>
    <g id="Trazado_1038883" data-name="Trazado 1038883" transform="translate(861.512 7630.74) rotate(90)" fill="#1d7083" stroke-linecap="round">
      <path d="M 16.2109489440918 17.5 L 0.7890505790710449 17.5 L 8.5 1.170930624008179 L 16.2109489440918 17.5 Z" stroke="none"/>
      <path d="M 8.5 2.341892242431641 L 1.578115463256836 17 L 15.42188453674316 17 L 8.5 2.341892242431641 M 8.5 0 L 17 18 L 0 18 L 8.5 0 Z" stroke="none" fill="#1d7083"/>
    </g>
    <g id="Trazado_1038884" data-name="Trazado 1038884" transform="translate(792.061 7727.864) rotate(180)" fill="#1d7083" stroke-linecap="round">
      <path d="M 16.2109489440918 17.5 L 0.7890505790710449 17.5 L 8.5 1.170930624008179 L 16.2109489440918 17.5 Z" stroke="none"/>
      <path d="M 8.5 2.341892242431641 L 1.578115463256836 17 L 15.42188453674316 17 L 8.5 2.341892242431641 M 8.5 0 L 17 18 L 0 18 L 8.5 0 Z" stroke="none" fill="#1d7083"/>
    </g>
    <path id="Trazado_1032862" data-name="Trazado 1032862" d="M-181,7453.288H-43.615" transform="translate(889 185.952)" fill="none" stroke="#5c939f" stroke-linecap="round" stroke-width="3"/>
    <path id="Trazado_1032863" data-name="Trazado 1032863" d="M-105.439,7527.11V7366.223" transform="translate(889 183.864)" fill="none" stroke="#5c939f" stroke-linecap="round" stroke-width="3"/>
  </g>
</svg>
