<svg xmlns="http://www.w3.org/2000/svg" xmlns:xlink="http://www.w3.org/1999/xlink" width="110" height="110" viewBox="0 0 110 110">
  <defs>
    <filter id="Trazado_982547" x="0" y="0" width="110" height="110" filterUnits="userSpaceOnUse">
      <feOffset dy="3" input="SourceAlpha"/>
      <feGaussianBlur stdDeviation="3" result="blur"/>
      <feFlood flood-opacity="0.161"/>
      <feComposite operator="in" in2="blur"/>
      <feComposite in="SourceGraphic"/>
    </filter>
  </defs>
  <g id="Grupo_1178633" data-name="Grupo 1178633" transform="translate(-693 -5020)">
    <g id="Grupo_1176397" data-name="Grupo 1176397" transform="translate(0.539 -10038)">
      <g id="Grupo_1173148" data-name="Grupo 1173148" transform="translate(701.461 15064)">
        <g id="Grupo_1163803" data-name="Grupo 1163803" transform="translate(0 0)">
          <g id="Grupo_1163015" data-name="Grupo 1163015">
            <g id="Grupo_1157017" data-name="Grupo 1157017" transform="translate(0 0)">
              <g id="Grupo_1155793" data-name="Grupo 1155793" transform="translate(0 0)">
                <g id="Grupo_1154704" data-name="Grupo 1154704">
                  <g id="Grupo_1150790" data-name="Grupo 1150790">
                    <g id="Grupo_1154214" data-name="Grupo 1154214">
                      <g id="Grupo_1152583" data-name="Grupo 1152583">
                        <g id="Grupo_1146973" data-name="Grupo 1146973" transform="translate(0 0)">
                          <g id="Grupo_1146954" data-name="Grupo 1146954">
                            <g transform="matrix(1, 0, 0, 1, -9, -6)" filter="url(#Trazado_982547)">
                              <g id="Trazado_982547-2" data-name="Trazado 982547" transform="translate(9 6)" fill="#f2f7e5">
                                <path d="M 46.00000381469727 90.49988555908203 C 39.99188232421875 90.49988555908203 34.16427230834961 89.32352447509766 28.67905807495117 87.00347137451172 C 23.38020324707031 84.76226043701172 18.62103080749512 81.55342864990234 14.53375053405762 77.46615600585938 C 10.44645690917969 73.37887573242188 7.237643718719482 68.61971282958984 4.996417045593262 63.32085800170898 C 2.676363706588745 57.83565902709961 1.500003814697266 52.00806045532227 1.500003814697266 45.99993896484375 C 1.500003814697266 39.99181747436523 2.676363706588745 34.16421890258789 4.996417045593262 28.67901802062988 C 7.237643718719482 23.38017845153809 10.44645690917969 18.62101936340332 14.53375053405762 14.53373908996582 C 18.62103080749512 10.44645881652832 23.38020324707031 7.237632274627686 28.67905807495117 4.996418952941895 C 34.16427230834961 2.676365613937378 39.99188232421875 1.500005602836609 46.00000381469727 1.500005602836609 C 52.00812530517578 1.500005602836609 57.83573532104492 2.676365613937378 63.32094955444336 4.996418952941895 C 68.61980438232422 7.237632274627686 73.37896728515625 10.44645881652832 77.46625518798828 14.53373908996582 C 81.55353546142578 18.62101936340332 84.76236724853516 23.38017845153809 87.00359344482422 28.67901802062988 C 89.32364654541016 34.16421890258789 90.5 39.99181747436523 90.5 45.99993896484375 C 90.5 52.00806045532227 89.32364654541016 57.83565902709961 87.00359344482422 63.32085800170898 C 84.76236724853516 68.61971282958984 81.55353546142578 73.37887573242188 77.46625518798828 77.46615600585938 C 73.37896728515625 81.55342864990234 68.61980438232422 84.76226043701172 63.32094955444336 87.00347137451172 C 57.83573532104492 89.32352447509766 52.00812530517578 90.49988555908203 46.00000381469727 90.49988555908203 Z" stroke="none"/>
                                <path d="M 46.00000381469727 2.999992370605469 C 40.19371795654297 2.999992370605469 34.56270217895508 4.136497497558594 29.26338958740234 6.377906799316406 C 24.14333343505859 8.543510437011719 19.54441833496094 11.64437866210938 15.59440612792969 15.59439849853516 C 11.64440155029297 19.54439544677734 8.54351806640625 24.14329528808594 6.377914428710938 29.26335144042969 C 4.136505126953125 34.56266784667969 3.000007629394531 40.19366836547852 3.000007629394531 45.99993896484375 C 3.000007629394531 51.80620956420898 4.136505126953125 57.43722534179688 6.377914428710938 62.73654174804688 C 8.54351806640625 67.85658264160156 11.64440155029297 72.45548248291016 15.59440612792969 76.40549468994141 C 19.54441833496094 80.35549926757812 24.14333343505859 83.45636749267578 29.26337432861328 85.62196350097656 C 34.56270217895508 87.86338043212891 40.19371795654297 88.9998779296875 46.00000381469727 88.9998779296875 C 51.80628967285156 88.9998779296875 57.43730545043945 87.86338043212891 62.73663330078125 85.62196350097656 C 67.85667419433594 83.45636749267578 72.45558929443359 80.35549926757812 76.40560150146484 76.40549468994141 C 80.35560607910156 72.45548248291016 83.45648956298828 67.85658264160156 85.62208557128906 62.73654174804688 C 87.86350250244141 57.43722534179688 89 51.80620956420898 89 45.99993896484375 C 89 40.19366836547852 87.86350250244141 34.56266784667969 85.62208557128906 29.26335144042969 C 83.45648956298828 24.14329528808594 80.35560607910156 19.54439544677734 76.40560150146484 15.59439849853516 C 72.45558929443359 11.64437866210938 67.85667419433594 8.543510437011719 62.73661804199219 6.377906799316406 C 57.43730545043945 4.136497497558594 51.80628967285156 2.999992370605469 46.00000381469727 2.999992370605469 M 46.00000381469727 -7.62939453125e-06 C 71.40510559082031 -7.62939453125e-06 92 20.59487915039062 92 45.99993896484375 C 92 71.40501403808594 71.40510559082031 91.99988555908203 46.00000381469727 91.99988555908203 C 20.59490203857422 91.99988555908203 7.62939453125e-06 71.40501403808594 7.62939453125e-06 45.99993896484375 C 7.62939453125e-06 20.59487915039062 20.59490203857422 -7.62939453125e-06 46.00000381469727 -7.62939453125e-06 Z" stroke="none" fill="#86b60c"/>
                              </g>
                            </g>
                          </g>
                        </g>
                      </g>
                    </g>
                  </g>
                </g>
              </g>
            </g>
          </g>
        </g>
      </g>
    </g>
    <g id="delivery-courier" transform="translate(666.316 5039)">
      <g id="Grupo_1178631" data-name="Grupo 1178631" transform="translate(57.423 1.038)">
        <path id="Trazado_1038105" data-name="Trazado 1038105" d="M86.851,327.111V306.6h-3.6l-4.458-3.433-1.961.756-.973-.223-6.948,2.694a8.076,8.076,0,0,0-4.716,7.315V327.14a1.572,1.572,0,0,0,1.572,1.572H88.451A1.6,1.6,0,0,1,86.851,327.111Z" transform="translate(-64.19 -265.856)" fill="#dd636e"/>
        <path id="Trazado_1038106" data-name="Trazado 1038106" d="M68.266,341.44v-15.3a8.125,8.125,0,0,1,3.668-6.754l-3.029,1.174a8.076,8.076,0,0,0-4.716,7.315v13.433a1.572,1.572,0,0,0,1.572,1.572H69.22A1.572,1.572,0,0,1,68.266,341.44Z" transform="translate(-64.189 -280.03)" fill="#da4a54"/>
        <path id="Trazado_1038107" data-name="Trazado 1038107" d="M190.632,262.386a.872.872,0,0,1-.557-.811l0-3.372a8.547,8.547,0,0,1-4.7,1.4,9.022,9.022,0,0,1-4.952-1.413v3.38c0,.667-.6.828-.849.927l-.187.073-.21.69-1.9.733.029.188,4.724,3.637h3.6v-3.1c0-.88.72-1.22,1.6-1.22l6.243-.005Z" transform="translate(-162.971 -226.571)" fill="#ffcebe"/>
        <path id="Trazado_1038108" data-name="Trazado 1038108" d="M185.327,259.6a9.014,9.014,0,0,1-4.9-1.412v3.38c0,.667-.6.828-.849.927l-.187.073-.21.69-1.9.733.029.188,4.724,3.637h3.3Z" transform="translate(-162.971 -226.57)" fill="#ffb1a0"/>
        <path id="Trazado_1038109" data-name="Trazado 1038109" d="M310.782,162.592h-.461l-2.972.954v4.427l.244.254a3.509,3.509,0,0,0,4.047-3.327A3.579,3.579,0,0,0,310.782,162.592Z" transform="translate(-276.593 -143.064)" fill="#ffcebe"/>
        <path id="Trazado_1038110" data-name="Trazado 1038110" d="M309.676,164.229l-2.327.747V169.4l.244.254a3.8,3.8,0,0,0,2.083-.334Z" transform="translate(-276.593 -144.494)" fill="#ffb1a0"/>
        <path id="Trazado_1038111" data-name="Trazado 1038111" d="M140.275,162.592h.461l2.972.954v4.427l-.244.254a3.509,3.509,0,0,1-4.047-3.327A3.58,3.58,0,0,1,140.275,162.592Z" transform="translate(-129.902 -143.064)" fill="#ffcebe"/>
        <path id="Trazado_1038112" data-name="Trazado 1038112" d="M141.744,164.9a3.561,3.561,0,0,1,.509-1.821l-1.517-.487h-.461a3.58,3.58,0,0,0-.858,2.309,3.509,3.509,0,0,0,4.047,3.327l.244-.254v-.08A3.346,3.346,0,0,1,141.744,164.9Z" transform="translate(-129.902 -143.064)" fill="#ffb1a0"/>
        <path id="Trazado_1038113" data-name="Trazado 1038113" d="M187.391,147.938a17.338,17.338,0,0,0-7.3-2.109,17.338,17.338,0,0,0-7.3,2.109,5.717,5.717,0,0,1-1.426.582v4.84a8.726,8.726,0,0,0,17.449,0v-4.84A5.714,5.714,0,0,1,187.391,147.938Z" transform="translate(-157.811 -128.422)" fill="#ffdecf"/>
        <path id="Trazado_1038114" data-name="Trazado 1038114" d="M175.932,158.672V151.91a16.394,16.394,0,0,0-3.138,1.339,5.715,5.715,0,0,1-1.426.582v4.84a8.822,8.822,0,0,0,11.052,8.313A8.546,8.546,0,0,1,175.932,158.672Z" transform="translate(-157.811 -133.734)" fill="#ffcebe"/>
        <path id="Trazado_1038115" data-name="Trazado 1038115" d="M161.589,300.579a.827.827,0,0,0,1.15.093l2.456-2.031a.827.827,0,0,0,.091-1.186l-4.124-4.644-4.753,1.843Z" transform="translate(-144.744 -256.812)" fill="#ffe07d"/>
        <path id="Trazado_1038116" data-name="Trazado 1038116" d="M298.907,297.181h-7.262l-.7.743H283.8l-.731-.743H279.95a1.615,1.615,0,0,0-.844,1.4v23.51a1.615,1.615,0,0,0,.844,1.4h18.957a1.6,1.6,0,0,0,1.6-1.6v-23.1A1.6,1.6,0,0,0,298.907,297.181Z" transform="translate(-251.922 -260.63)" fill="#fbc481"/>
        <path id="Trazado_1038117" data-name="Trazado 1038117" d="M245.722,321.885v-23.1a1.6,1.6,0,0,1,1.6-1.6h-5.376a1.6,1.6,0,0,0-1.6,1.6v23.1a1.6,1.6,0,0,0,1.6,1.6h5.376A1.6,1.6,0,0,1,245.722,321.885Z" transform="translate(-218.065 -260.63)" fill="#dd9973"/>
        <path id="Trazado_1038118" data-name="Trazado 1038118" d="M310.405,297.18v9.971a.751.751,0,0,0,1.162.628L314.284,306a.75.75,0,0,1,.822,0l2.718,1.779a.751.751,0,0,0,1.161-.628V297.18Z" transform="translate(-279.262 -260.629)" fill="#d6865f"/>
        <g id="Grupo_1178627" data-name="Grupo 1178627" transform="translate(31.143 36.551)">
          <path id="Trazado_1038119" data-name="Trazado 1038119" d="M314.7,297.18h-4.29v9.971a.751.751,0,0,0,1.162.628L314.284,306a.75.75,0,0,1,.411-.123Z" transform="translate(-310.405 -297.18)" fill="#b97359"/>
        </g>
        <path id="Trazado_1038120" data-name="Trazado 1038120" d="M167.392,99.522a15.644,15.644,0,0,0-24.011,0c-1.093,2.758.983,5.786,4.71,3.695a17.331,17.331,0,0,1,7.3-2.108,17.332,17.332,0,0,1,7.3,2.108C166.409,105.308,168.485,102.28,167.392,99.522Z" transform="translate(-133.111 -83.068)" fill="#ffe07d"/>
        <g id="Grupo_1178628" data-name="Grupo 1178628" transform="translate(9.98 11.374)">
          <path id="Trazado_1038121" data-name="Trazado 1038121" d="M149.095,100.4a14.958,14.958,0,0,1,2.137-2.277,14.781,14.781,0,0,0-7.85,5.08c-1.093,2.758.983,5.786,4.71,3.695a16.08,16.08,0,0,1,2.5-1.128C148.877,104.884,148.232,102.58,149.095,100.4Z" transform="translate(-143.092 -98.126)" fill="#ffd064"/>
        </g>
        <path id="Trazado_1038122" data-name="Trazado 1038122" d="M154.342,32.94a10.954,10.954,0,0,0-8.951,10.769v2.557a15.085,15.085,0,0,1,5.862-2.814c.168-4.507,1.368-8.381,3.089-10.511Z" transform="translate(-135.12 -29.812)" fill="#dd636e"/>
        <path id="Trazado_1038123" data-name="Trazado 1038123" d="M264.454,32.94c1.72,2.131,2.921,6,3.089,10.511a15.085,15.085,0,0,1,5.862,2.814V43.709A10.954,10.954,0,0,0,264.454,32.94Z" transform="translate(-239.123 -29.812)" fill="#dd636e"/>
        <path id="Trazado_1038124" data-name="Trazado 1038124" d="M223.682,11.532h2.108a11.066,11.066,0,0,1,1.2.066V10.1a1.9,1.9,0,0,0-1.9-1.9h-.715a1.9,1.9,0,0,0-1.9,1.9V11.6A11.1,11.1,0,0,1,223.682,11.532Z" transform="translate(-202.46 -8.207)" fill="#ffe07d"/>
        <g id="Grupo_1178629" data-name="Grupo 1178629" transform="translate(20.022)">
          <path id="Trazado_1038125" data-name="Trazado 1038125" d="M224.737,10.1a1.9,1.9,0,0,1,1.127-1.731,1.878,1.878,0,0,0-.77-.166h-.715a1.9,1.9,0,0,0-1.9,1.9V11.6a11.066,11.066,0,0,1,1.2-.066h1.054Z" transform="translate(-222.483 -8.207)" fill="#ffd064"/>
        </g>
        <path id="Trazado_1038126" data-name="Trazado 1038126" d="M195.778,31.493a11.017,11.017,0,0,0-2.039.19c-1.847,2.1-3.115,6.016-3.2,10.544a24.66,24.66,0,0,1,12.59,0c-.087-4.528-1.355-8.447-3.2-10.544a11.007,11.007,0,0,0-2.039-.19h-2.108Z" transform="translate(-174.556 -28.548)" fill="#da4a54"/>
        <g id="Grupo_1178630" data-name="Grupo 1178630" transform="translate(15.981 2.945)">
          <path id="Trazado_1038127" data-name="Trazado 1038127" d="M196.818,31.494h-1.04a11.017,11.017,0,0,0-2.039.19c-1.847,2.1-3.115,6.016-3.2,10.544a22.14,22.14,0,0,1,3.317-.645A19.987,19.987,0,0,1,196.818,31.494Z" transform="translate(-190.537 -31.494)" fill="#df4854"/>
        </g>
      </g>
      <g id="Grupo_1178632" data-name="Grupo 1178632" transform="translate(56.443 0)">
        <path id="Trazado_1038128" data-name="Trazado 1038128" d="M221.173,72.059H224.3a.949.949,0,1,0,0-1.9h-3.131a.949.949,0,0,0,0,1.9Z" transform="translate(-199.508 -61.287)"/>
        <path id="Trazado_1038129" data-name="Trazado 1038129" d="M271.011,465.771h-6.129a.949.949,0,0,0,0,1.9h6.129a.949.949,0,1,0,0-1.9Z" transform="translate(-237.689 -406.857)"/>
        <path id="Trazado_1038130" data-name="Trazado 1038130" d="M271.011,440.884h-6.129a.949.949,0,0,0,0,1.9h6.129a.949.949,0,0,0,0-1.9Z" transform="translate(-237.689 -385.118)"/>
        <path id="Trazado_1038131" data-name="Trazado 1038131" d="M271.011,416h-6.129a.949.949,0,1,0,0,1.9h6.129a.949.949,0,1,0,0-1.9Z" transform="translate(-237.689 -363.379)"/>
        <path id="Trazado_1038132" data-name="Trazado 1038132" d="M58.963,64.761H90.855a.949.949,0,1,0,0-1.9H81.273a.66.66,0,0,1-.651-.651v-23.1a.66.66,0,0,1,.651-.651h6.313V47.48a1.7,1.7,0,0,0,2.63,1.422l2.609-1.708L95.434,48.9a1.7,1.7,0,0,0,2.63-1.422v-2.4a.949.949,0,0,0-1.9,0v2.029l-2.411-1.578a1.7,1.7,0,0,0-1.861,0l-2.411,1.578V38.457h6.683v2.2a.949.949,0,1,0,1.9,0v-2.2h6.313a.66.66,0,0,1,.651.651v23.1a.66.66,0,0,1-.651.651H95.282a.949.949,0,0,0,0,1.9h9.095a2.551,2.551,0,0,0,2.548-2.549v-23.1a2.551,2.551,0,0,0-2.548-2.548H87.13l-1.686-.653,0-2.315a9.551,9.551,0,0,0,3.829-6.514,4.342,4.342,0,0,0,3.4-6.71,4.679,4.679,0,0,0-.041-3.121v-2.4a11.924,11.924,0,0,0-9.755-11.71v-.3A2.849,2.849,0,0,0,80.03,0h-.715a2.85,2.85,0,0,0-2.847,2.846v.3a11.925,11.925,0,0,0-9.755,11.71v2.4a4.662,4.662,0,0,0-.018,3.179,4.165,4.165,0,0,0,.7,5.512,4.629,4.629,0,0,0,2.68,1.141,9.447,9.447,0,0,0,3.823,6.5V35.9c-.017.008-12.115,4.7-12.132,4.7l-.018.007a8.975,8.975,0,0,0-5.3,8.193V62.241a2.523,2.523,0,0,0,2.52,2.52Zm22.31-28.2a2.551,2.551,0,0,0-2.548,2.548v1.963c-.085-.111.184.2-3.428-3.87a1.684,1.684,0,0,0,.5-1.246v-1.3a10.409,10.409,0,0,0,4,.792,9.5,9.5,0,0,0,3.748-.767v1.287a1.835,1.835,0,0,0,.1.6H81.273Zm8.074-11.4v-2.4a3.6,3.6,0,0,0,2.045-.656,2.427,2.427,0,0,1-2.045,3.06Zm1.388-10.305v.742A18.065,18.065,0,0,0,86.9,13.914a20.888,20.888,0,0,0-1.884-8.1A10.019,10.019,0,0,1,90.735,14.852ZM79.316,1.9h.715a.957.957,0,0,1,.949,1.052c-.2,0-2.415,0-2.613,0A.958.958,0,0,1,79.316,1.9ZM77.082,4.962a10.686,10.686,0,0,1,1.537-.118h2.109a10.864,10.864,0,0,1,1.537.118c1.46,1.831,2.455,4.96,2.7,8.447a26.147,26.147,0,0,0-10.586,0C74.627,9.922,75.622,6.793,77.082,4.962Zm-8.471,9.889A10.019,10.019,0,0,1,74.334,5.81a20.893,20.893,0,0,0-1.884,8.1,18.417,18.417,0,0,0-3.839,1.679ZM70,25.157a2.406,2.406,0,0,1-2.035-3.044,3.577,3.577,0,0,0,2.035.64ZM68.639,20.1a2.6,2.6,0,0,1-.172-2.123c2.894-2.247,7.471-3.211,11.206-3.211,3.718,0,8.261.924,11.206,3.211a2.621,2.621,0,0,1-.152,2.089c-.682,1.152-2.128.866-3.291.213h0a17.286,17.286,0,0,0-8.233-2.2,18.368,18.368,0,0,0-7.293,2.2c-1.148.644-2.575.936-3.271-.179ZM71.9,25.9V22.382a7.724,7.724,0,0,0,.941-.449,16.644,16.644,0,0,1,6.835-1.987,16.457,16.457,0,0,1,6.834,1.987,7.568,7.568,0,0,0,.941.448V25.9a7.665,7.665,0,0,1-7.643,7.651H79.79A7.7,7.7,0,0,1,71.9,25.9Zm1.641,12.183,3.6,4.057-2.268,1.876-4.21-4.817ZM58.34,48.808a7.142,7.142,0,0,1,4.12-6.434l6.319-2.45,4.742,5.426a1.766,1.766,0,0,0,2.469.2l2.457-2.032a1.789,1.789,0,0,0,.278-.29V62.213a2.686,2.686,0,0,0,.084.651H66.164V50.055a.949.949,0,1,0-1.9,0V62.864h-5.3a.624.624,0,0,1-.623-.623Z" transform="translate(-56.443 0)"/>
      </g>
    </g>
  </g>
</svg>
