<svg xmlns="http://www.w3.org/2000/svg" xmlns:xlink="http://www.w3.org/1999/xlink" width="106" height="106" viewBox="0 0 106 106">
  <defs>
    <filter id="Trazado_982547" x="0" y="0" width="106" height="106" filterUnits="userSpaceOnUse">
      <feOffset dy="3" input="SourceAlpha"/>
      <feGaussianBlur stdDeviation="3" result="blur"/>
      <feFlood flood-opacity="0.161"/>
      <feComposite operator="in" in2="blur"/>
      <feComposite in="SourceGraphic"/>
    </filter>
  </defs>
  <g id="Grupo_1178709" data-name="Grupo 1178709" transform="translate(-171.261 -2528)">
    <g id="Grupo_1173624" data-name="Grupo 1173624" transform="translate(0.261 -1716)">
      <g id="Grupo_1173435" data-name="Grupo 1173435" transform="translate(0 533)">
        <g id="Grupo_1172017" data-name="Grupo 1172017" transform="translate(0 2654)">
          <g id="Grupo_1167337" data-name="Grupo 1167337" transform="translate(180 1063)">
            <g id="Grupo_1166720" data-name="Grupo 1166720" transform="translate(0)">
              <g id="Grupo_1164305" data-name="Grupo 1164305">
                <g id="Grupo_1163948" data-name="Grupo 1163948">
                  <g id="Grupo_1158168" data-name="Grupo 1158168">
                    <g id="Grupo_1152576" data-name="Grupo 1152576">
                      <g id="Grupo_1148633" data-name="Grupo 1148633">
                        <g id="Grupo_1148525" data-name="Grupo 1148525">
                          <g transform="matrix(1, 0, 0, 1, -9, -6)" filter="url(#Trazado_982547)">
                            <g id="Trazado_982547-2" data-name="Trazado 982547" transform="translate(9 6)" fill="#e9f9fd">
                              <path d="M 44 86.5 C 38.26187515258789 86.5 32.69618606567383 85.37651062011719 27.45755004882812 83.16075897216797 C 22.3968505859375 81.020263671875 17.85157585144043 77.95565032958984 13.94796276092529 74.05204010009766 C 10.04434967041016 70.1484375 6.979737281799316 65.6031494140625 4.839250087738037 60.54246139526367 C 2.62348747253418 55.30381393432617 1.5 49.73812484741211 1.5 44 C 1.5 38.26187515258789 2.62348747253418 32.69618606567383 4.839250087738037 27.45755004882812 C 6.979737281799316 22.3968505859375 10.04434967041016 17.85157585144043 13.94796276092529 13.94796276092529 C 17.85157585144043 10.04434967041016 22.3968505859375 6.979737281799316 27.45755004882812 4.839250087738037 C 32.69618606567383 2.62348747253418 38.26187515258789 1.5 44 1.5 C 49.73812484741211 1.5 55.30381393432617 2.62348747253418 60.54246139526367 4.839250087738037 C 65.6031494140625 6.979737281799316 70.1484375 10.04434967041016 74.05204010009766 13.94796276092529 C 77.95565032958984 17.85157585144043 81.020263671875 22.3968505859375 83.16075897216797 27.45755004882812 C 85.37651062011719 32.69618606567383 86.5 38.26187515258789 86.5 44 C 86.5 49.73812484741211 85.37651062011719 55.30381393432617 83.16075897216797 60.54246139526367 C 81.020263671875 65.6031494140625 77.95565032958984 70.1484375 74.05204010009766 74.05204010009766 C 70.1484375 77.95565032958984 65.6031494140625 81.020263671875 60.54246139526367 83.16075897216797 C 55.30381393432617 85.37651062011719 49.73812484741211 86.5 44 86.5 Z" stroke="none"/>
                              <path d="M 44 3 C 38.46371459960938 3 33.09462738037109 4.083610534667969 28.0418701171875 6.220756530761719 C 23.15997314453125 8.285614013671875 18.77495574951172 11.24228668212891 15.00862884521484 15.00862884521484 C 11.24228668212891 18.77495574951172 8.285614013671875 23.15997314453125 6.220756530761719 28.0418701171875 C 4.083610534667969 33.09462738037109 3 38.46371459960938 3 44 C 3 49.53628540039062 4.083610534667969 54.9053840637207 6.220756530761719 59.9581298828125 C 8.285614013671875 64.84002685546875 11.24228668212891 69.22504425048828 15.00862884521484 72.99138641357422 C 18.77495574951172 76.75771331787109 23.15997314453125 79.71438598632812 28.0418701171875 81.77925872802734 C 33.09462738037109 83.9163818359375 38.46371459960938 85 44 85 C 49.53628540039062 85 54.9053840637207 83.9163818359375 59.95814514160156 81.77925872802734 C 64.84002685546875 79.71438598632812 69.22504425048828 76.75771331787109 72.99138641357422 72.99138641357422 C 76.75771331787109 69.22504425048828 79.71438598632812 64.84002685546875 81.77925872802734 59.95814514160156 C 83.9163818359375 54.9053840637207 85 49.53628540039062 85 44 C 85 38.46371459960938 83.9163818359375 33.09462738037109 81.77925872802734 28.0418701171875 C 79.71438598632812 23.15997314453125 76.75771331787109 18.77495574951172 72.99138641357422 15.00862884521484 C 69.22504425048828 11.24228668212891 64.84002685546875 8.285614013671875 59.9581298828125 6.220756530761719 C 54.9053840637207 4.083610534667969 49.53628540039062 3 44 3 M 44 0 C 68.30054473876953 0 88 19.69947052001953 88 44 C 88 68.30054473876953 68.30054473876953 88 44 88 C 19.69947052001953 88 0 68.30054473876953 0 44 C 0 19.69947052001953 19.69947052001953 0 44 0 Z" stroke="none" fill="#1d7083"/>
                            </g>
                          </g>
                        </g>
                      </g>
                    </g>
                  </g>
                </g>
              </g>
            </g>
          </g>
        </g>
      </g>
    </g>
    <g id="documentation_12650062" transform="translate(190.57 2531.632)">
      <path id="Trazado_1038680" data-name="Trazado 1038680" d="M405.429,97.962a.612.612,0,0,0,.608.611h4.2l-4.808-5.082Z" transform="translate(-355.859 -63.794)" fill="#e0c0c0"/>
      <path id="Trazado_1038681" data-name="Trazado 1038681" d="M277.86,101.848H265.5a.824.824,0,1,1,0-1.647H277.86a.824.824,0,1,1,0,1.647ZM265.5,96.284h6.417a.824.824,0,1,1,0,1.647H265.5a.824.824,0,1,1,0-1.647Zm12.358,9.481H266.843v.207l.31.643a2.677,2.677,0,0,0,.394.572c.029.023.131.058.47.058h13.748V97.931h-4.737a2.259,2.259,0,0,1-2.258-2.258V90.939H262.208a.61.61,0,0,0-.608.61v11.365h2.468A1.867,1.867,0,0,1,265.894,104l.056.117H277.86a.824.824,0,1,1,0,1.647Z" transform="translate(-226.85 -61.506)" fill="#ffe0e0"/>
      <path id="Trazado_1038682" data-name="Trazado 1038682" d="M395.2,431.956l2.059-.885-2.059-.882Z" transform="translate(-346.68 -365.8)" fill="#635463"/>
      <path id="Trazado_1038683" data-name="Trazado 1038683" d="M215.65,265.269h2.471v2.6H215.65Z" transform="translate(-185.634 -217.873)" fill="#faefe8"/>
      <path id="Trazado_1038684" data-name="Trazado 1038684" d="M213.675,44.384a2.259,2.259,0,0,1,2.258-2.258h13.491a2.129,2.129,0,0,1,1.9.757l1.764,1.866V39.135a.792.792,0,0,0-.8-.78H210.809a.792.792,0,0,0-.8.78V55.748h3.666Z" transform="translate(-180.575 -14.34)" fill="#a79ba7"/>
      <path id="Trazado_1038685" data-name="Trazado 1038685" d="M255.618,265.269h2.474v2.6h-2.474Z" transform="translate(-221.484 -217.873)" fill="#faefe8"/>
      <path id="Trazado_1038686" data-name="Trazado 1038686" d="M202.683,230.4a1.362,1.362,0,0,1-1.361,1.361h-7.165A1.361,1.361,0,0,1,192.8,230.4v-3.172a1.361,1.361,0,0,1,1.361-1.361h7.165a1.362,1.362,0,0,1,1.361,1.361Zm19.543-2.892H205.6a2.254,2.254,0,0,1-2.307-1.484.333.333,0,0,1-.029-.056l-1.273-2.643c-.064-.134-.07-.149-.339-.149h-9.288a.355.355,0,0,0-.351.351v8.707h30.569v-4.375a.355.355,0,0,0-.351-.351Z" transform="translate(-164.428 -180.115)" fill="#f7cb7f"/>
      <path id="Trazado_1038687" data-name="Trazado 1038687" d="M192.009,333.482H207.15a.753.753,0,0,1,.164.015.686.686,0,0,1,.161.053l4.965,2.129a.011.011,0,0,1,.006,0l4.974,2.135a.825.825,0,0,1,0,1.516l-1.624.7h6.432a.353.353,0,0,0,.351-.348V327.065H192.009Z" transform="translate(-164.429 -273.302)" fill="#ff7577"/>
      <path id="Trazado_1038688" data-name="Trazado 1038688" d="M107.055,178.828a5.521,5.521,0,0,0,5.517,5.514,5.59,5.59,0,0,0,1.589-.231V178.8a2,2,0,0,1,1.855-1.992v-2.287a5.515,5.515,0,0,0-8.961,4.305Z" transform="translate(-88.229 -135.393)" fill="#fff"/>
      <path id="Trazado_1038689" data-name="Trazado 1038689" d="M40.276,111.925a7.162,7.162,0,1,1-1.589-14.145,7.148,7.148,0,0,1,3.444.882V94.97c-.213-.073-.426-.14-.643-.2a.825.825,0,0,1-.584-.613L40.3,91.491c-.02-.093-.137-.552-.388-.552H37.463c-.251,0-.368.459-.388.552l-.608,2.667a.825.825,0,0,1-.584.613,10.622,10.622,0,0,0-2.407,1,.824.824,0,0,1-.847-.018l-2.316-1.46c-.082-.05-.488-.289-.666-.114L27.918,95.9c-.175.178.064.584.114.666l1.46,2.316a.817.817,0,0,1,.018.847,10.6,10.6,0,0,0-1,2.4.829.829,0,0,1-.613.587l-2.667.6c-.093.023-.552.14-.552.388v2.448c0,.251.459.368.552.388l2.667.608a.83.83,0,0,1,.613.584,10.626,10.626,0,0,0,1,2.407.824.824,0,0,1-.018.847l-1.46,2.316c-.05.079-.289.488-.114.663l1.729,1.729c.178.178.584-.064.666-.114l2.316-1.46a.831.831,0,0,1,.847-.018,10.506,10.506,0,0,0,2.407,1,.821.821,0,0,1,.584.61l.608,2.67c.02.091.137.549.388.549h2.445c.2,0,.321-.307.368-.464v-6.554Z" transform="translate(-14.343 -61.506)" fill="#6ab0e1"/>
      <path id="Trazado_1038690" data-name="Trazado 1038690" d="M29.385,408.774a3.449,3.449,0,0,0,3.444,3.447h2.378v-6.89H32.829a3.448,3.448,0,0,0-3.444,3.444Z" transform="translate(-18.562 -343.502)" fill="#635463"/>
      <path id="Trazado_1038691" data-name="Trazado 1038691" d="M346.951,415.505l3.324-1.425V410.9l-3.324-1.428Z" transform="translate(-303.406 -347.214)" fill="#ccc4cc"/>
      <path id="Trazado_1038692" data-name="Trazado 1038692" d="M140.929,405.329h19.578v2.62H140.929Z" transform="translate(-118.612 -343.501)" fill="#d6763e"/>
      <path id="Trazado_1038693" data-name="Trazado 1038693" d="M140.929,446.772h19.578v2.62H140.929Z" transform="translate(-118.612 -380.674)" fill="#d6763e"/>
      <path id="Trazado_1038694" data-name="Trazado 1038694" d="M101.867,405.329h2.375v6.89h-2.375Z" transform="translate(-83.575 -343.501)" fill="#ccc4cc"/>
      <g id="Grupo_1178708" data-name="Grupo 1178708" transform="translate(8.691 22.368)">
        <path id="Trazado_1038695" data-name="Trazado 1038695" d="M58.149,52.116H27.58V43.409a.355.355,0,0,1,.351-.351h9.288c.269,0,.275.015.339.149l1.273,2.643a.342.342,0,0,0,.029.056,2.254,2.254,0,0,0,2.307,1.484H57.8a.355.355,0,0,1,.351.351v4.375Zm0,14.262a.353.353,0,0,1-.351.348H51.366l1.624-.7a.825.825,0,0,0,0-1.516L48.016,62.38a.01.01,0,0,0-.006,0l-4.965-2.129a.688.688,0,0,0-.161-.053.753.753,0,0,0-.164-.015H27.58V53.763H58.149Zm-9.633-.222V64.389l2.059.882Zm-1.647.71-3.324,1.425V62.254l3.324,1.428Zm-4.974-2.418H22.317v-2.62H41.894Zm0,4.27H22.317V66.1H41.894Zm-21.228,0H18.292v-6.89h2.375Zm-4.022,0H14.267a3.445,3.445,0,0,1,0-6.89h2.378ZM27.787,39.13v2.287a2,2,0,0,0-1.855,1.992v5.31a5.59,5.59,0,0,1-1.589.231,5.514,5.514,0,1,1,3.444-9.82ZM25.564,57.438H23.12c-.251,0-.368-.459-.388-.549l-.608-2.67a.821.821,0,0,0-.584-.61,10.5,10.5,0,0,1-2.407-1,.831.831,0,0,0-.847.018l-2.316,1.46c-.082.05-.488.292-.666.114l-1.729-1.729c-.175-.175.064-.584.114-.663l1.46-2.316a.824.824,0,0,0,.018-.847,10.622,10.622,0,0,1-1-2.407.83.83,0,0,0-.613-.584l-2.667-.608c-.093-.02-.552-.137-.552-.388V42.212c0-.248.459-.365.552-.388l2.667-.6a.829.829,0,0,0,.613-.587,10.6,10.6,0,0,1,1-2.4.817.817,0,0,0-.018-.847l-1.46-2.316c-.05-.082-.289-.488-.114-.666L15.3,32.67c.178-.175.584.064.666.114l2.316,1.46a.824.824,0,0,0,.847.018,10.622,10.622,0,0,1,2.407-1,.825.825,0,0,0,.584-.613l.608-2.667c.02-.093.137-.552.388-.552h2.445c.251,0,.368.459.388.552l.608,2.667a.825.825,0,0,0,.584.613c.216.058.429.126.643.2v3.692A7.163,7.163,0,1,0,24.344,50.6a7.24,7.24,0,0,0,1.589-.181v6.554c-.047.158-.164.464-.368.464Zm3.87-24.555V24.8a.792.792,0,0,1,.8-.78H51.714a.792.792,0,0,1,.8.78v5.614L50.75,28.542a2.129,2.129,0,0,0-1.9-.757H35.358A2.259,2.259,0,0,0,33.1,30.044V41.408H29.435V32.883Zm24.943,1.9h-4.2a.612.612,0,0,1-.608-.611V29.7ZM51.01,42.612H39.1l-.056-.117a1.867,1.867,0,0,0-1.826-1.087H34.75V30.044a.609.609,0,0,1,.608-.61H47.92v4.735a2.259,2.259,0,0,0,2.258,2.258h4.737V45.74H41.167c-.339,0-.441-.035-.47-.058a2.675,2.675,0,0,1-.394-.572l-.31-.643v-.207H51.01a.824.824,0,1,0,0-1.647ZM57.8,45.74H56.563V35.59a2.233,2.233,0,0,0-.66-1.6l-1.738-1.837V24.8a2.443,2.443,0,0,0-2.45-2.427H30.235A2.441,2.441,0,0,0,27.787,24.8V30.6l-.225-.987a2.1,2.1,0,0,0-2-1.834H23.12a2.1,2.1,0,0,0-2,1.834l-.5,2.2a11.968,11.968,0,0,0-1.866.774l-1.91-1.2a2.1,2.1,0,0,0-2.708.114l-1.729,1.729a2.1,2.1,0,0,0-.114,2.708l1.2,1.91a12.256,12.256,0,0,0-.774,1.866l-2.2.5a2.1,2.1,0,0,0-1.831,1.995v2.448a2.1,2.1,0,0,0,1.831,1.995l2.2.5a12.507,12.507,0,0,0,.774,1.866L12.3,50.93a2.1,2.1,0,0,0,.114,2.708l1.729,1.732a2.1,2.1,0,0,0,2.708.114l1.91-1.2a12.077,12.077,0,0,0,1.866.774l.5,2.2a2.1,2.1,0,0,0,2,1.834h2.445a2.188,2.188,0,0,0,.368-.035V60.18H14.267a5.094,5.094,0,1,0,0,10.188H42.721a.8.8,0,0,0,.164-.018,1.024,1.024,0,0,0,.161-.05l4.483-1.925H57.8a2,2,0,0,0,2-2V47.741a2,2,0,0,0-2-2Z" transform="translate(-8.691 -22.368)" fill="#030403"/>
        <path id="Trazado_1038696" data-name="Trazado 1038696" d="M292.3,144.459h6.417a.824.824,0,0,0,0-1.647H292.3a.824.824,0,1,0,0,1.647Z" transform="translate(-262.338 -130.402)" fill="#030403"/>
        <path id="Trazado_1038697" data-name="Trazado 1038697" d="M207.9,253.529h-2.474v-2.6H207.9Zm-4.121,0H201.31v-2.6h2.471Zm4.407-4.247h-7.165a1.361,1.361,0,0,0-1.361,1.361v3.172a1.361,1.361,0,0,0,1.361,1.361h7.165a1.362,1.362,0,0,0,1.361-1.361v-3.172a1.362,1.362,0,0,0-1.361-1.361Z" transform="translate(-179.986 -225.901)" fill="#030403"/>
        <path id="Trazado_1038698" data-name="Trazado 1038698" d="M304.657,180.825H292.3a.824.824,0,1,0,0,1.647h12.358a.824.824,0,1,0,0-1.647Z" transform="translate(-262.338 -164.498)" fill="#030403"/>
      </g>
    </g>
  </g>
</svg>
