<svg xmlns="http://www.w3.org/2000/svg" xmlns:xlink="http://www.w3.org/1999/xlink" width="400" height="281" viewBox="0 0 400 281">
  <defs>
    <clipPath id="clip-path">
      <rect id="Rectángulo_415486" data-name="Rectángulo 415486" width="400" height="281" transform="translate(1020.261 5211)" fill="#fff" stroke="#707070" stroke-width="1" opacity="0.7"/>
    </clipPath>
    <clipPath id="clip-path-2">
      <path id="Trazado_1038203" data-name="Trazado 1038203" d="M341.732,135.707a8.43,8.43,0,0,1,2.045.255,8.37,8.37,0,1,1-2.045-.255" transform="translate(-333.353 -135.707)"/>
    </clipPath>
    <clipPath id="clip-path-3">
      <path id="Trazado_1038206" data-name="Trazado 1038206" d="M452.528,162.549a8.392,8.392,0,1,1-2.044.255,8.366,8.366,0,0,1,2.044-.255" transform="translate(-444.14 -162.549)"/>
    </clipPath>
  </defs>
  <g id="Enmascarar_grupo_1098816" data-name="Enmascarar grupo 1098816" transform="translate(-1020.261 -5211)" clip-path="url(#clip-path)">
    <g id="Grupo_1178725" data-name="Grupo 1178725" transform="translate(-4209.128 81.838)">
      <g id="Grupo_1178662" data-name="Grupo 1178662" transform="translate(5240.12 5170.296)">
        <path id="Trazado_1038189" data-name="Trazado 1038189" d="M401.009,202.08a23.7,23.7,0,0,1,2.431-4.814,27.082,27.082,0,0,1,1.992-2.464c.612-.684,1.287-1.323,1.983-1.972l.587-.557c1.858-1.769,3.715-3.542,5.548-5.331A130.362,130.362,0,0,0,423,176.827a68.852,68.852,0,0,0,7.595-11.261,63.1,63.1,0,0,0,5.281-13.584,62.363,62.363,0,0,0,1.339-26.312,64.128,64.128,0,0,0-3.37-12.342,67.761,67.761,0,0,0-5.724-11.451,76.258,76.258,0,0,0-17.442-19.446,87.392,87.392,0,0,0-23.845-13.473,92.421,92.421,0,0,0-13.694-3.987,97.826,97.826,0,0,0-17.724-1.918,221.48,221.48,0,0,0-24.606,1.026c-1.259.106-2.514.215-3.776.324l-.313.027-.237.023c-1.424.122-2.8.238-4.171.354q-1.569.132-3.139.259c-5.346.419-9.858.667-13.791.756-4.127.113-8.572.058-14.412-.18l-.089,0-.093,0-.125-.005-.178-.007.094.11a336.5,336.5,0,0,1-36.535-3.993c-5.379-.9-11.176-2.005-17.724-3.394-2.059-.439-4.105-.89-6.156-1.342l-.382-.083-.4-.087-.979-.215-.359-.081-.533-.119c-2.452-.539-4.894-1.078-7.337-1.593-6.326-1.349-11.436-2.3-16.082-3.006A138.479,138.479,0,0,0,188.279,50.3a84.442,84.442,0,0,0-9.786.224,65.168,65.168,0,0,0-20.306,4.91A58.961,58.961,0,0,0,146.5,62.184c-1.96,1.435-3.838,3.08-5.255,4.351l-.269.245c-1.622,1.468-3.239,2.929-4.879,4.367-3.527,3.062-6.6,5.5-9.657,7.688a86.3,86.3,0,0,1-11.088,6.655c-4.893,2.382-9.957,4.308-14.853,6.17l-.157.064c-5,1.9-10.177,3.861-15.272,6.253a65.235,65.235,0,0,0-13.578,8.155,32.267,32.267,0,0,0-8.228,9.625,25.44,25.44,0,0,0-3,10.527,32.2,32.2,0,0,0,.1,5.335,40.93,40.93,0,0,0,1.111,5.827,55.267,55.267,0,0,0,4.289,11.02,105.134,105.134,0,0,0,6.3,10.806c2.742,4.219,5.828,8.425,8.755,12.343l1.627,2.173.6.8.089.122.1.139c.617.824,1.231,1.642,1.836,2.462a85.964,85.964,0,0,1,5.415,8.143,66.812,66.812,0,0,1,3.268,6.889,56.1,56.1,0,0,1,2.422,7.626,65.613,65.613,0,0,1,1.389,9.174,76.273,76.273,0,0,1,.107,9.867c-.523,8.979-2.227,17.943-3.876,26.611l-.1.557-.72,3.835-.038.2c-.911,4.874-1.847,9.892-2.328,14.988a81.665,81.665,0,0,0-.18,13.229,66.853,66.853,0,0,0,1.78,11.466H368.27c.225-.1.458-.2.682-.31a73.563,73.563,0,0,0,9.238-5.157A61.486,61.486,0,0,0,386.313,278a52.38,52.38,0,0,0,12-16.966,59.273,59.273,0,0,0,3.549-10.9,49.5,49.5,0,0,0,1-5.944,46.641,46.641,0,0,0,.128-6.96,106.1,106.1,0,0,0-1.564-12.174l-.028-.168-.014-.08-.017-.085a94.268,94.268,0,0,1-1.63-13.781c-.015-.574-.006-1.205.031-2.114A27.774,27.774,0,0,1,401.009,202.08Z" transform="translate(-60.195 -50.254)" fill="#ffe1b9"/>
      </g>
      <g id="Grupo_1178672" data-name="Grupo 1178672" transform="translate(5259.939 5134.071)">
        <path id="Trazado_1038196" data-name="Trazado 1038196" d="M332.567,121.205H441.336a9.506,9.506,0,0,1,9.38,9.38v49.048a9.506,9.506,0,0,1-9.38,9.38H346.483c-.151.286-.3.583-.429.887a12.388,12.388,0,0,0-.772,2.853,14.093,14.093,0,0,0,.007,3.577,13.809,13.809,0,0,0,.888,3.282l.032.1.008,0a12.291,12.291,0,0,0,1.41,2.414,10.458,10.458,0,0,0,1.611,1.634l.062.058-.005.007.029.02h0l.016.013v0a10.283,10.283,0,0,0,1.828,1.038c.188.072.376.145.571.207a.656.656,0,0,1,.472.62.644.644,0,0,1-.643.643,15.364,15.364,0,0,1-5.551-1.038,17.815,17.815,0,0,1-4.88-2.893,19.22,19.22,0,0,1-3.776-4.228,18.821,18.821,0,0,1-2.37-5.125,16.324,16.324,0,0,1-.64-4.073l-1.78.008a9.506,9.506,0,0,1-9.38-9.38V130.585a9.506,9.506,0,0,1,9.38-9.38" transform="translate(-323.187 -121.205)" fill="#714a79"/>
        <g id="Grupo_1178671" data-name="Grupo 1178671" transform="translate(8.436 12.268)">
          <g id="Grupo_1178664" data-name="Grupo 1178664" transform="translate(3.944 6.153)">
            <path id="Trazado_1038197" data-name="Trazado 1038197" d="M369.83,177.8h56.112a1.71,1.71,0,1,1,0,3.42H369.83a1.71,1.71,0,0,1,0-3.42" transform="translate(-350.516 -148.344)" fill="#ffe6e2"/>
            <path id="Trazado_1038198" data-name="Trazado 1038198" d="M339.725,169.82h81.565a1.71,1.71,0,1,1,0,3.42H339.725a1.71,1.71,0,0,1,0-3.42" transform="translate(-320.395 -147.114)" fill="#ffe6e2"/>
            <path id="Trazado_1038199" data-name="Trazado 1038199" d="M360.533,150.965h56.112a1.71,1.71,0,1,1,0,3.42H360.533a1.71,1.71,0,0,1,0-3.42" transform="translate(-333.354 -144.21)" fill="#ffe6e2"/>
            <path id="Trazado_1038200" data-name="Trazado 1038200" d="M360.553,142.98h81.565a1.71,1.71,0,1,1,0,3.42H360.553a1.71,1.71,0,0,1,0-3.42" transform="translate(-358.843 -142.98)" fill="#ffe6e2"/>
          </g>
          <g id="Grupo_1178667" data-name="Grupo 1178667" transform="translate(93.724)">
            <path id="Trazado_1038201" data-name="Trazado 1038201" d="M341.732,135.707a8.43,8.43,0,0,1,2.045.255,8.37,8.37,0,1,1-2.045-.255" transform="translate(-333.353 -135.707)" fill="#edc4e0"/>
            <g id="Grupo_1178666" data-name="Grupo 1178666" transform="translate(0)">
              <g id="Grupo_1178665" data-name="Grupo 1178665" clip-path="url(#clip-path-2)">
                <path id="Trazado_1038202" data-name="Trazado 1038202" d="M334.927,155.815l4.721-8.178a4.375,4.375,0,1,1,4.805,0l4.724,8.182Z" transform="translate(-333.74 -136.311)" fill="#fefefe"/>
              </g>
            </g>
          </g>
          <g id="Grupo_1178670" data-name="Grupo 1178670" transform="translate(0 22.708)">
            <path id="Trazado_1038204" data-name="Trazado 1038204" d="M452.528,162.549a8.392,8.392,0,1,1-2.044.255,8.366,8.366,0,0,1,2.044-.255" transform="translate(-444.14 -162.549)" fill="#ffb244"/>
            <g id="Grupo_1178669" data-name="Grupo 1178669" transform="translate(0)">
              <g id="Grupo_1178668" data-name="Grupo 1178668" clip-path="url(#clip-path-3)">
                <path id="Trazado_1038205" data-name="Trazado 1038205" d="M445.77,182.2q2.362-4.089,4.721-8.178a4.376,4.376,0,1,1,4.805,0l4.724,8.182Z" transform="translate(-444.631 -163.083)" fill="#fefefe"/>
              </g>
            </g>
          </g>
        </g>
      </g>
      <g id="Grupo_1178685" data-name="Grupo 1178685" transform="matrix(0.848, 0.53, -0.53, 0.848, 5330.918, 5224.901)">
        <path id="Trazado_1038226" data-name="Trazado 1038226" d="M27.263,11.6q-.18-.526-.412-1.034C27.757,9.191,28.665,7.819,29.5,6.4Q27.207,4.11,24.913,1.819c-1.316.972-2.669,1.9-4.024,2.815-.239-.106-.482-.211-.75-.311-.053-.02-.109-.035-.163-.054-.007-.028-.014-.056-.021-.084-.228-.91-.453-1.824-.63-2.747C19.234.96,19.152.481,19.085,0H12.7c-.3,1.431-.52,2.878-.753,4.323-.294.109-.589.218-.881.353-.072.033-.136.07-.206.1-.16-.1-.32-.2-.48-.308-1.213-.794-2.406-1.61-3.564-2.48Q4.659,4.151,2.5,6.308C3.462,7.64,4.389,9,5.3,10.359a11.783,11.783,0,0,0-.522,1.3c-1.6.279-3.2.589-4.783.983V18.77c1.621.273,3.248.51,4.875.749.047.13.09.259.142.389-.9,1.36-1.823,2.709-2.653,4.114Q4.75,26.407,7.13,28.787c1.163-.92,2.344-1.818,3.527-2.714a11.969,11.969,0,0,0,1.193.518c.307,1.684.613,3.367.932,5.049H19.4c.144-1.664.36-3.321.613-4.971a12.052,12.052,0,0,0,1.383-.6c1.286.75,2.591,1.469,3.877,2.22q2.119-2.122,4.24-4.243c-.895-1.229-1.769-2.472-2.646-3.712.1-.216.188-.44.275-.667.906-.206,1.811-.418,2.711-.647h-.006a.118.118,0,0,0,.015,0l.031-.01,0,0c.586-.152,1.169-.309,1.752-.471v-6.39C30.177,12.024,28.718,11.827,27.263,11.6ZM18.526,19.11a5.559,5.559,0,0,1-.946.548,5.569,5.569,0,0,1-1.127.3c-.183.015-.363.025-.544.025a5.483,5.483,0,0,1-.592-.031,5.639,5.639,0,0,1-1.058-.289,5.482,5.482,0,0,1-.991-.57,5.5,5.5,0,0,1-.787-.785,5.175,5.175,0,0,1-.5-.831l-.063-.136a5.626,5.626,0,0,1-.3-1.114,5.444,5.444,0,0,1,0-1.123,5.522,5.522,0,0,1,.168-.729c.041-.133.087-.267.14-.4.041-.093.087-.184.134-.274a5.4,5.4,0,0,1,.454-.716c.031-.04.065-.081.1-.118.074-.087.121-.137.168-.184a5.114,5.114,0,0,1,.482-.445,5.285,5.285,0,0,1,.94-.554c.077-.031.158-.062.236-.09a5.568,5.568,0,0,1,.893-.224,5.684,5.684,0,0,1,.57-.029,5.278,5.278,0,0,1,.613.035,5.254,5.254,0,0,1,1.08.3,5.551,5.551,0,0,1,.974.573,5.408,5.408,0,0,1,.778.781,5.5,5.5,0,0,1,.544.937,5.429,5.429,0,0,1,.311,1.142,5.622,5.622,0,0,1,0,1.142,5.679,5.679,0,0,1-.3,1.093,5.64,5.64,0,0,1-.582.987A5.384,5.384,0,0,1,18.526,19.11Z" transform="translate(0 35.885)" fill="#dbb5d6"/>
        <path id="Trazado_1038227" data-name="Trazado 1038227" d="M22.52,12.552c0-.3-.016-.594-.046-.89,1.04-.809,2.083-1.615,3.079-2.476q-1.147-2.328-2.3-4.656c-1.249.4-2.512.75-3.776,1.1-.154-.142-.311-.284-.488-.429-.035-.029-.074-.055-.11-.084,0-.023,0-.046.006-.069.062-.749.127-1.5.23-2.246.053-.386.115-.77.188-1.152L14.464,0c-.595,1.01-1.14,2.048-1.688,3.085-.25.006-.5.014-.754.041-.063.006-.121.018-.184.026-.094-.12-.19-.237-.284-.357C10.838,1.883,10.143.956,9.489,0L5.107,2.162c.385,1.257.738,2.523,1.082,3.793a9.446,9.446,0,0,0-.735.857c-1.287-.2-2.576-.385-3.875-.493Q.789,8.642,0,10.967c1.159.625,2.332,1.224,3.5,1.823,0,.111,0,.22.008.332-1.035.8-2.08,1.585-3.072,2.436q1.2,2.424,2.386,4.842c1.119-.4,2.246-.775,3.374-1.15a9.549,9.549,0,0,0,.771.7c-.2,1.356-.4,2.712-.593,4.07l5.019,1.7c.537-1.225,1.128-2.425,1.745-3.611a9.57,9.57,0,0,0,1.217-.1c.781.9,1.576,1.784,2.356,2.684l4.308-2.126c-.362-1.162-.7-2.329-1.051-3.5.132-.142.26-.291.386-.443.738.077,1.476.157,2.216.216l0,0,.012,0h.026l0,0q.726.053,1.45.094L25.7,14.1C24.619,13.625,23.564,13.1,22.52,12.552ZM12.168,16.108c-.143-.036-.282-.075-.419-.121a4.3,4.3,0,0,1-.441-.176,4.567,4.567,0,0,1-.728-.492,4.348,4.348,0,0,1-.6-.687,4.385,4.385,0,0,1-.4-.8,4.137,4.137,0,0,1-.166-.759l-.012-.12a4.439,4.439,0,0,1,.058-.923,4.306,4.306,0,0,1,.287-.853,4.45,4.45,0,0,1,.315-.509c.065-.091.135-.18.209-.266.054-.061.113-.117.172-.173a4.387,4.387,0,0,1,.529-.426c.034-.022.07-.044.105-.064.08-.046.128-.073.175-.1a4.107,4.107,0,0,1,.481-.213,4.207,4.207,0,0,1,.856-.179l.2-.007a4.4,4.4,0,0,1,.735.061,4.12,4.12,0,0,1,.44.125,4.059,4.059,0,0,1,.456.184,4.191,4.191,0,0,1,.742.5,4.46,4.46,0,0,1,.592.686,4.351,4.351,0,0,1,.389.793,4.413,4.413,0,0,1,.172.851,4.332,4.332,0,0,1-.058.946,4.467,4.467,0,0,1-.3.866,4.589,4.589,0,0,1-.511.75,4.458,4.458,0,0,1-.7.6,4.271,4.271,0,0,1-.8.388,4.535,4.535,0,0,1-.859.172A4.575,4.575,0,0,1,12.168,16.108Z" transform="translate(10.476 0)" fill="#f2a138"/>
      </g>
      <g id="Grupo_1178693" data-name="Grupo 1178693" transform="translate(5368.873 5134.071)">
        <path id="Trazado_1038321" data-name="Trazado 1038321" d="M410.867,215.527h-.181a84.416,84.416,0,0,0-22.879,3.423,82.492,82.492,0,0,0-20.152,8.722,52.9,52.9,0,0,0-9.121,6.931,40.953,40.953,0,0,0-4.477,5.078,36.1,36.1,0,0,0-3.364,5.559,34.874,34.874,0,0,0-3.378,12.544,41.678,41.678,0,0,0,.027,6.919c.2,2.463.6,4.946.989,7.348l.078.475.1.619a72.975,72.975,0,0,1,1.159,10.541,28.8,28.8,0,0,1-.782,6.688,29.347,29.347,0,0,1-2.548,6.394,43.092,43.092,0,0,1-6.725,8.89s-.045.051-.066.074v0l0,0,0,0c-.006.006-.009.009-.009.01-3.011,3.069-6.377,5.876-9.631,8.59a124.038,124.038,0,0,0-10.011,8.986,51.171,51.171,0,0,0-4.327,5.077,39.7,39.7,0,0,0-3.554,5.848,37.431,37.431,0,0,0-3.957,15.724,37.841,37.841,0,0,0,3,15.411,46.159,46.159,0,0,0,3.826,7.209,56.844,56.844,0,0,0,15,15.659,50.534,50.534,0,0,0,12.878,6.575c1.233.419,2.584.8,4.133,1.175a.488.488,0,0,0,.119.014.792.792,0,0,0,.3-.062,46.8,46.8,0,0,0,9.55,2.785,61.578,61.578,0,0,0,11,.933c.317,0,.634,0,.951,0a84.564,84.564,0,0,0,12.6-1.172,115.9,115.9,0,0,0,12.8-2.867,164.179,164.179,0,0,0,45.347-21.177c1.825-1.243,3.428-2.414,4.9-3.581,1.567-1.241,3.171-2.627,4.766-4.124a72.08,72.08,0,0,0,8.224-9.211,78.14,78.14,0,0,0,6.507-10.245,85.8,85.8,0,0,0,4.893-11.091,102.71,102.71,0,0,0,5.416-23.906,130.153,130.153,0,0,0,.275-24.73c-.324-3.957-.841-8.047-1.532-12.158-.72-4.252-1.515-8.107-2.428-11.782-2.185-8.732-4.958-15.209-8.732-20.384a34.459,34.459,0,0,0-3.884-4.464,31.9,31.9,0,0,0-4.7-3.727,31.3,31.3,0,0,0-5.083-2.672,35.227,35.227,0,0,0-6.852-7.486,37.809,37.809,0,0,0-9.045-5.4,47.864,47.864,0,0,0-10.373-3.035,61.187,61.187,0,0,0-11.028-.927" transform="translate(-304.881 -215.527)" fill="#172e39"/>
        <path id="Trazado_1038322" data-name="Trazado 1038322" d="M410.253,294.909h-.095a11.648,11.648,0,0,0-2.258.25,14.359,14.359,0,0,0-2.3.664,25.434,25.434,0,0,0-9.218,6.282,28.375,28.375,0,0,0-3.632,4.591,21.665,21.665,0,0,0-1.991,3.962,17.226,17.226,0,0,0-1.068-2.668.827.827,0,0,0-.545-.381.9.9,0,0,0-.2-.024.911.911,0,0,0-.477.138.887.887,0,0,0-.38.545.959.959,0,0,0,.117.672s.056.113.056.113l.078.131.01-.007a21.343,21.343,0,0,1,1.4,4.574,20.327,20.327,0,0,1,.235,5.143,16.787,16.787,0,0,1-.845,3.839,13.513,13.513,0,0,1-1.473,2.846,11.95,11.95,0,0,1-1.738,1.923,12.4,12.4,0,0,1-1.106.817.786.786,0,0,0-.439-.124.891.891,0,0,0-.865.917l.012.731c.028,1.984.056,3.965.111,5.95.1,3.6.27,6.858.512,9.955.306,4.05.727,7.623,1.289,10.928a50.678,50.678,0,0,0,2.481,9.731,20.1,20.1,0,0,0,1.851,3.732,9.494,9.494,0,0,0,2.326,2.553,6.115,6.115,0,0,0,1.422.793,6.819,6.819,0,0,0,.815.263,6.342,6.342,0,0,0,.925.126c.148.014.3.02.448.02a7.158,7.158,0,0,0,2.94-.707,20.1,20.1,0,0,0,4.672-3.289,59.221,59.221,0,0,0,5.959-6,117.471,117.471,0,0,0,10.77-14.8c3.566-5.64,6.875-11.557,10.075-17.281q1.109-1.983,2.223-3.966a.835.835,0,0,0,.009-.794.562.562,0,0,0,.014-.181.88.88,0,0,0-.869-.84c-.4.023-.746.035-1.1.035-.412,0-.826-.016-1.236-.051a11.617,11.617,0,0,1-2.706-.615,9.674,9.674,0,0,1-1.955-1.047,10.147,10.147,0,0,1-1.665-1.566l.013.017a12.835,12.835,0,0,1-1.584-2.538,22.021,22.021,0,0,1-1.6-5.323,55.086,55.086,0,0,1-.638-9.677c.013-1.616.071-3.225.127-4.838.046-1.316.094-2.633.117-3.951a.778.778,0,0,0-.235-.561.938.938,0,0,0-.649-.282.9.9,0,0,0-.876.915c-.013.958-.045,1.912-.081,2.866a8.73,8.73,0,0,0-1.275-1.955,7.346,7.346,0,0,0-1.708-1.449,8.077,8.077,0,0,0-4.2-1.114" transform="translate(-293.005 -203.037)" fill="#fcbc9a"/>
        <path id="Trazado_1038323" data-name="Trazado 1038323" d="M409.542,294.884a12.356,12.356,0,0,0-2.26.249,15.083,15.083,0,0,0-2.31.674,25.482,25.482,0,0,0-9.227,6.284,28.493,28.493,0,0,0-3.635,4.6,21.986,21.986,0,0,0-1.988,3.965,13.908,13.908,0,0,0-1.027-2.668.873.873,0,0,0-.56-.4,1.2,1.2,0,0,0-.2-.023.906.906,0,0,0-.488.149.886.886,0,0,0-.389.552.941.941,0,0,0,.118.691l.054.113.081.131a21.126,21.126,0,0,1,1.4,4.558,20.132,20.132,0,0,1,.235,5.144,16.626,16.626,0,0,1-.766,3.613c2.212-.237,4.414-.557,6.593-1.009l-.076.014a45.772,45.772,0,0,0,5.126-1.375,36.027,36.027,0,0,0,4.852-2.03c-.019.014-.041.023-.064.037a30.027,30.027,0,0,0,6.347-4.332c-.017.014-.036.032-.053.045a37.167,37.167,0,0,0,3.44-3.562,44.5,44.5,0,0,0,3.106-4.077c-.014.019-.028.041-.041.059.216-.327.428-.657.632-.991v-.009c.009-1.469.059-2.943.109-4.407l.018-.429c.05-1.316.095-2.636.117-3.951a.787.787,0,0,0-.244-.579.952.952,0,0,0-.664-.294.923.923,0,0,0-.9.944c-.014.958-.045,1.912-.081,2.867a7.235,7.235,0,0,0-1.235-1.976,7.571,7.571,0,0,0-1.713-1.447,8.058,8.058,0,0,0-4.209-1.126Z" transform="translate(-292.39 -203.041)" fill="#fe9a67"/>
        <path id="Trazado_1038324" data-name="Trazado 1038324" d="M397.019,230.128a36.532,36.532,0,0,0-7.884,3.01,60.1,60.1,0,0,0-8.951,5.708c-2.05,1.531-4,3.132-5.811,4.633a.971.971,0,0,0-.155.132c-.623.515-1.242,1.037-1.863,1.56l-.369.312c-1.2,1-2.369,2.075-3.5,3.111s-2.327,2.124-3.534,3.136a.676.676,0,0,0-.081.082s-.064.067-.062.067a30.263,30.263,0,0,1-6.207,4.069,16.518,16.518,0,0,1-2.765.95c-.284.068-.568.13-.856.182l-.139.02c-.061.008-.12.02-.177.032a.831.831,0,0,0-.444.256.889.889,0,0,0-.23.621.952.952,0,0,0-.469.868c.2,3.022.48,6.09.746,9.056.378,4.208.768,8.561.962,12.856.082,1.856.124,3.728.123,5.558,0,.509,0,1.018-.009,1.527-.01,1.186-.021,2.414.023,3.62a46.348,46.348,0,0,0,1.318,9.458,34.339,34.339,0,0,0,3.43,8.6,30.6,30.6,0,0,0,5.919,7.4,35.731,35.731,0,0,0,12.668,7.369,46.828,46.828,0,0,0,14.085,2.4,51.4,51.4,0,0,0,13.25-1.478c.38-.091.758-.189,1.138-.289,9.808-2.611,18.063-8,23.243-15.168a31.413,31.413,0,0,0,3.943-7.232,14.727,14.727,0,0,0,2.863-.4q.276-.068.55-.146a16.809,16.809,0,0,0,3.514-1.459,17.568,17.568,0,0,0,5.7-5.044,13.87,13.87,0,0,0,2.631-6.95,11.573,11.573,0,0,0-.332-3.915,11.057,11.057,0,0,0-1.759-3.656,11.631,11.631,0,0,0-7.424-4.618,10.567,10.567,0,0,0-7.469,1.48l.041-.338.017-.27c.012-.191.029-.381.045-.569l.042-.513c.052-.762.076-1.522.076-2.286a40.064,40.064,0,0,0-.243-4.484,53.06,53.06,0,0,0-1.845-9.156,64.017,64.017,0,0,0-3.354-8.915,65.233,65.233,0,0,0-4.428-8.128,48.077,48.077,0,0,0-5.186-6.836,24,24,0,0,0-5.759-4.622,18.227,18.227,0,0,0-6.49-2.179,22.173,22.173,0,0,0-7.452.34c-.361.069-.713.15-1.07.237" transform="translate(-297.726 -213.348)" fill="#fcbc9a"/>
        <path id="Trazado_1038325" data-name="Trazado 1038325" d="M440.707,320.341a.69.69,0,0,0-.22.037.876.876,0,0,0-.654.429,204.722,204.722,0,0,1-15.116,22.785h0l0,0A173.846,173.846,0,0,1,407.1,363.306c-.425-.88-.84-1.771-1.249-2.724a71.141,71.141,0,0,1-4.56-17.97c-.89-6.63-1.224-13.426-1.549-20l-.051-1.027a.905.905,0,0,0-.8-.875.746.746,0,0,0-.308-.076,37.142,37.142,0,0,0-7.7,1.692,40.671,40.671,0,0,0-7.046,3.178,56.6,56.6,0,0,0-12.363,9.762,102.8,102.8,0,0,0-10.381,12.592c-3.3,4.61-6.242,9.3-8.685,13.27q-1.1,1.781-2.187,3.566c-1.75,2.863-3.561,5.821-5.4,8.7-3.087,4.8-5.986,9-8.865,12.834a135.169,135.169,0,0,1-9.986,11.826,106.073,106.073,0,0,1-11.8,10.676l.1-.051c-2.489,1.888-5.078,3.7-7.709,5.368a.92.92,0,0,0-.435.824.2.2,0,0,0-.038,0,.583.583,0,0,0-.128.018.89.89,0,0,0-.54.421.952.952,0,0,0-.083.659c.159.968.3,1.94.434,2.912l.023.207a2.742,2.742,0,0,0,.059.4l.034.177-.012,0c.036.262.073.517.1.773l.16,1.19.021.162a.837.837,0,0,0,.028.182l.031.252c.163,1.2.325,2.364.5,3.526a58.056,58.056,0,0,0,3.69,14.261A23.14,23.14,0,0,0,314,445.895a15.189,15.189,0,0,0,2.366,2.23,15.519,15.519,0,0,0,1.376.942,10.769,10.769,0,0,0,5.666,1.52h.116a16.039,16.039,0,0,0,3.864-.53,26.018,26.018,0,0,0,3.994-1.4,41.074,41.074,0,0,0,3.817-1.9c1.866-1.04,3.691-2.213,5.457-3.347l1.167-.749c2.838-1.811,5.414-3.562,7.876-5.353a101.663,101.663,0,0,0,14.871-12.981,65.659,65.659,0,0,0,6.38-8,35.557,35.557,0,0,0,4,3.113,177.794,177.794,0,0,1-8.834,26.586l.072-.115a156.253,156.253,0,0,1-11.047,21.42.886.886,0,0,0,.146,1.077.507.507,0,0,0-.071.188.886.886,0,0,0,.142.66.844.844,0,0,0,.564.366c4.2.355,8.615.521,13.9.521,4.429,0,8.933-.12,13.29-.235s8.868-.234,13.3-.234c2.633,0,5.022.04,7.3.125q5,.184,10,.4c9.907.41,20.153.832,30.233.832,2.811,0,5.553-.034,8.15-.1,1.376-.034,2.75-.086,4.124-.138l2.3-.083,2.353-.079c1.381-.045,2.761-.089,4.139-.147a90.433,90.433,0,0,0,12.914-1.307.935.935,0,0,0,.59-.3.885.885,0,0,0,.215-.65.9.9,0,0,0-.046-.319,141.407,141.407,0,0,1-7.378-29.723,148.819,148.819,0,0,1-1.238-20.352,165.823,165.823,0,0,1,1.5-20.757h0s0,0,0,0q.559-4.069,1.26-7.975a71.985,71.985,0,0,0,11.231,7.513,64.571,64.571,0,0,0,15.278,6.275,35.661,35.661,0,0,0,7.644,1.162q.476.019.955.019a21,21,0,0,0,6.038-.832,19.924,19.924,0,0,0,6.2-3.2,13.24,13.24,0,0,0,3.742-4.312,12.3,12.3,0,0,0,1.395-5.1,17.343,17.343,0,0,0-.647-5.429,37.72,37.72,0,0,0-5.559-11.264,90.315,90.315,0,0,0-8.179-10.255c-2.484-2.744-5.112-5.4-7.356-7.627a157.71,157.71,0,0,0-13.826-12.194,146.416,146.416,0,0,0-16.425-11.19,113.632,113.632,0,0,0-16-7.807,76.982,76.982,0,0,0-16.508-4.49Z" transform="translate(-305.31 -199.036)" fill="#ffb244"/>
        <path id="Trazado_1038326" data-name="Trazado 1038326" d="M442.3,388.231q-.847,8.307-2.5,16.5a167.519,167.519,0,0,1-4.231,16.564,153.111,153.111,0,0,1-5.923,15.918,129.518,129.518,0,0,1-7.675,14.905,107.816,107.816,0,0,1-7.638,11.084c4.156.111,8.32.183,12.462.183,2.64,0,5.379-.037,8.147-.1,1.378-.036,2.749-.086,4.127-.14l2.3-.081,2.356-.081c1.388-.05,2.761-.09,4.136-.145a94.281,94.281,0,0,0,12.916-1.307,1.067,1.067,0,0,0,.605-.312.927.927,0,0,0,.222-.669.849.849,0,0,0-.05-.33,141.154,141.154,0,0,1-7.373-29.711,148.693,148.693,0,0,1-1.24-20.353,165.18,165.18,0,0,1,1.5-20.759c.358-2.609.768-5.222,1.226-7.781q-2-1.608-3.906-3.327c-1.764-1.6-3.467-3.254-5.087-5q-1.89-2.045-3.628-4.227a150.576,150.576,0,0,1-.743,19.168" transform="translate(-288.157 -191.37)" fill="#714a79" opacity="0.07"/>
        <path id="Trazado_1038327" data-name="Trazado 1038327" d="M365.257,352.767q-1.661,1.764-3.178,3.644c-.958,1.2-1.858,2.445-2.722,3.716s-1.654,2.576-2.4,3.919a42.757,42.757,0,0,0-1.948,4.038,38.305,38.305,0,0,0-2.514,8.368,36.706,36.706,0,0,0-.493,8.708,37.712,37.712,0,0,0,1.262,7.6,40.641,40.641,0,0,0,2.925,7.568,51.844,51.844,0,0,0,4.661,7.4,53.226,53.226,0,0,0,6.04,6.981.91.91,0,1,0,1.288-1.285c-1.667-1.827-3.3-3.678-4.819-5.63a53.206,53.206,0,0,1-6.921-11.58l.095.23a39.376,39.376,0,0,1-2.722-9.945l.028.23a37.266,37.266,0,0,1,.034-9.731,41.222,41.222,0,0,1,2.782-10.161c-.017.037-.036.078-.053.118a44.671,44.671,0,0,1,5.849-10.023c-.017.022-.031.045-.05.067,1.031-1.329,2.111-2.609,3.26-3.833a.293.293,0,0,0,0-.407.3.3,0,0,0-.209-.084.26.26,0,0,0-.2.084m-11.384,24.259c-.008.053-.015.1-.022.154.007-.051.014-.1.022-.154m9.413,30.679.053.067c-.017-.023-.036-.044-.053-.067" transform="translate(-297.974 -193.947)" fill="#e29134"/>
        <path id="Trazado_1038328" data-name="Trazado 1038328" d="M436.921,366.937a.884.884,0,0,0-.064,1.229c1.52,1.728,3.151,3.355,4.824,4.933,1.709,1.614,3.486,3.156,5.281,4.674l-.042-.037c1.49,1.261,3,2.506,4.5,3.758a.394.394,0,1,0,.425-.664c-.109-.095-.222-.185-.33-.28l.081.067c-2.4-2.043-4.652-4.259-6.854-6.515-1.1-1.13-2.17-2.292-3.242-3.444-1.125-1.212-2.229-2.442-3.349-3.657a.877.877,0,0,0-.647-.282.866.866,0,0,0-.579.219m9.937,10.746c.014.013.027.024.042.036l-.042-.036" transform="translate(-284.647 -191.739)" fill="#e29134"/>
        <path id="Trazado_1038329" data-name="Trazado 1038329" d="M435.764,370.057a.8.8,0,0,0-.23,1.238q1.106,1.3,2.3,2.509c.837.841,1.723,1.628,2.627,2.392.863.731,1.767,1.414,2.69,2.07.977.7,1.958,1.383,2.938,2.08a.315.315,0,0,0,.434-.095.321.321,0,0,0-.095-.439q-1.391-.991-2.694-2.089l.076.068c-1.211-1.036-2.4-2.108-3.525-3.242a29.013,29.013,0,0,1-3.222-3.795l-.228-.346-.122-.177a.827.827,0,0,0-.348-.226.845.845,0,0,0-.238-.036.781.781,0,0,0-.359.086m1.312.723c.028.04.058.082.084.126-.029-.043-.058-.085-.084-.126" transform="translate(-284.852 -191.227)" fill="#e29134"/>
        <path id="Trazado_1038330" data-name="Trazado 1038330" d="M396.645,413a.327.327,0,0,0-.24.108.392.392,0,0,0-.1.289.3.3,0,0,0,.109.211,34.238,34.238,0,0,0,3.487,2.411q.929.557,1.89,1.054c.764.392,1.552.716,2.154.955a28.888,28.888,0,0,0,4.1,1.262c.623.146,1.3.272,2.129.4a16.1,16.1,0,0,0,2.29.19.851.851,0,0,0,.606-.248.731.731,0,0,0,.214-.523.8.8,0,0,0-.229-.536l-.16-.119a.755.755,0,0,0-.36-.1l-1.112-.1-.148-.013c-.486-.043-.94-.082-1.388-.135a30.053,30.053,0,0,1-7.086-1.771l-.126-.05-.249-.1a23.6,23.6,0,0,1-5.214-2.847l-.185-.14-.122-.095a.427.427,0,0,0-.26-.1" transform="translate(-290.994 -184.458)" fill="#714a79" opacity="0.07"/>
        <path id="Trazado_1038331" data-name="Trazado 1038331" d="M392.291,406.3a.358.358,0,0,0-.31.182.351.351,0,0,0,.137.469,54.823,54.823,0,0,0,7.967,4.105,61.323,61.323,0,0,0,8.3,2.744,84.808,84.808,0,0,0,8.668,1.773c2.877.446,5.848.818,8.829,1.1a.79.79,0,0,0,.781-.8.8.8,0,0,0-.238-.554.82.82,0,0,0-.559-.225l-1.595-.149c-1.669-.154-3.346-.312-5.014-.512-3.672-.434-6.88-.949-9.81-1.573a61.261,61.261,0,0,1-9.6-2.833c-1.238-.49-2.456-1.023-3.616-1.587-1.3-.643-2.569-1.349-3.778-2.1a.332.332,0,0,0-.16-.046" transform="translate(-291.68 -185.511)" fill="#714a79" opacity="0.07"/>
        <path id="Trazado_1038332" data-name="Trazado 1038332" d="M427.67,320.145a.88.88,0,0,0-.488-.142.807.807,0,0,0-.714.382,186.408,186.408,0,0,1-21.68,30.981c-1.619,1.811-3.279,3.577-4.961,5.331s-3.392,3.432-5.2,5.033a102.534,102.534,0,0,1-5.968-24c0,.021.007.042.009.062a159.045,159.045,0,0,1-1.3-16.59.868.868,0,0,0-1.736,0,157.238,157.238,0,0,0,1.814,20.146,100.657,100.657,0,0,0,5.036,19.67q.42,1.1.873,2.2a.963.963,0,0,0,.4.52.884.884,0,0,0,.669.086,3.725,3.725,0,0,1,.854-.338,106.06,106.06,0,0,0,7.794-7.713c2.41-2.568,4.743-5.2,6.972-7.934a179.668,179.668,0,0,0,12.333-17.31c1.912-3.016,3.752-6.085,5.533-9.182A.889.889,0,0,0,427.67,320.145Z" transform="translate(-292.672 -199.089)" fill="#e29134"/>
        <path id="Trazado_1038333" data-name="Trazado 1038333" d="M402.594,224.578c-.4,0-.8,0-1.212.019a46.609,46.609,0,0,0-6.561.723,57.221,57.221,0,0,0-6.724,1.636,69.965,69.965,0,0,0-13.483,5.792,65.941,65.941,0,0,0-12.024,8.541,46.409,46.409,0,0,0-8.908,10.608,32.877,32.877,0,0,0-2.9,6.277,26.06,26.06,0,0,0-1.321,6.7.747.747,0,0,0,.023.229.828.828,0,0,0-.344.574.883.883,0,0,0,.178.654.856.856,0,0,0,.578.336,39.968,39.968,0,0,0,4.913.3,52.219,52.219,0,0,0,10.263-1.093,73.558,73.558,0,0,0,15.9-5.264,82.024,82.024,0,0,0,14.691-8.663,62.366,62.366,0,0,0,11.584-10.978c.687-.86,1.348-1.753,1.963-2.655a72.057,72.057,0,0,0,1.992,9.966,45.652,45.652,0,0,0,2.242,6.284,26.294,26.294,0,0,0,3.162,5.446,16.094,16.094,0,0,0,4.854,4.316,12.565,12.565,0,0,0,5.286,1.53,34.313,34.313,0,0,0,.093,3.442,37.386,37.386,0,0,0,.823,5.767,20.42,20.42,0,0,0,.81,2.663,11.352,11.352,0,0,0,1.191,2.331,6.157,6.157,0,0,0,1.716,1.7,4.327,4.327,0,0,0,2.2.667l.164,0a5.483,5.483,0,0,0,2.323-.583,5.027,5.027,0,0,0,1.721-1.414,9.9,9.9,0,0,0,1.862-4.783,29.181,29.181,0,0,0,.235-6.21,71.764,71.764,0,0,0-3.3-17.264,47.544,47.544,0,0,0-8.465-14.922,36.776,36.776,0,0,0-13.427-10.234,29.178,29.178,0,0,0-7.208-2.089,32.8,32.8,0,0,0-4.885-.348" transform="translate(-298.416 -214.103)" fill="#172e39"/>
        <g id="Grupo_1178692" data-name="Grupo 1178692" transform="translate(123.039 49.517)">
          <path id="Trazado_1038334" data-name="Trazado 1038334" d="M462.956,270.793l-7.4-3.6-17.827-8.672a2.454,2.454,0,0,0-3.166,1.282l-16.548,34.011L411.9,306.381a2.456,2.456,0,0,0,.944,3.285l25.229,12.274a2.455,2.455,0,0,0,3.168-1.283L457.8,286.615l6.1-12.537a2.456,2.456,0,0,0-.944-3.284" transform="translate(-411.622 -258.312)" fill="#b2acc9"/>
          <path id="Trazado_1038335" data-name="Trazado 1038335" d="M434.556,259.8l-16.546,34.011-6.115,12.568a2.551,2.551,0,0,0,.488,2.98l2.763-5.679,12.03-24.728q5.015-10.3,10.027-20.609a2.552,2.552,0,0,0-2.647,1.457" transform="translate(-411.622 -258.313)" fill="#b2acc9" opacity="0.17"/>
          <path id="Trazado_1038336" data-name="Trazado 1038336" d="M438.692,280.2c1.852.9,4.291-.3,5.446-2.671s.59-5.032-1.26-5.933-4.29.3-5.445,2.67-.591,5.033,1.259,5.934" transform="translate(-407.656 -256.27)" fill="#ffebcd"/>
          <path id="Trazado_1038337" data-name="Trazado 1038337" d="M444.609,275.408a1.221,1.221,0,1,0-.311-1.469,1.078,1.078,0,0,0,.311,1.469" transform="translate(-406.504 -255.97)" fill="#ffebcd"/>
        </g>
        <path id="Trazado_1038338" data-name="Trazado 1038338" d="M481.247,311.594a18.854,18.854,0,0,0-2,.328,20.123,20.123,0,0,0-2.86.867,26.155,26.155,0,0,0-2.66,1.2l-.007,0,.007,0-.044.022a36.366,36.366,0,0,0-7.527,5.434l0,0,0,0h0a48.4,48.4,0,0,0-6.432,7.339c2.711,7.233,5.214,14.6,7.49,22.052a.77.77,0,0,0-.407.434,27.041,27.041,0,0,0-1.406,6.085c-.162,1.238-.307,2.481-.425,3.724-.194,2.025-.325,4.133-.394,6.438a87.311,87.311,0,0,0,.7,14.291,60.923,60.923,0,0,0,1.369,6.966,40.245,40.245,0,0,0,2.243,6.451,21.421,21.421,0,0,0,7.635,9.5,16.393,16.393,0,0,0,5.72,2.3,18.245,18.245,0,0,0,3.544.334,23.906,23.906,0,0,0,3.432-.258,30.393,30.393,0,0,0,4.065-.908,43.505,43.505,0,0,0,4.57-1.615,40.514,40.514,0,0,0,8.468-4.756,31.448,31.448,0,0,0,6.658-6.574,26.236,26.236,0,0,0,4.155-8.313c1.786-6.081,1.356-13.215-1.27-21.2A67.758,67.758,0,0,0,511.2,351.1c-1.668-3.133-3.612-6.347-6.117-10.117-2.147-3.232-4.449-6.456-6.619-9.476l-1.952-2.721c-1.7-2.378-3.4-4.756-5.141-7.116q-3.854-5.239-7.692-10.144-.128-.009-.26-.014a.013.013,0,0,0,.01,0h0c-.174,0-.349-.008-.523-.008a14.963,14.963,0,0,0-1.657.09M466.27,367.839l.023-.1c0,.316-.009.633-.009.949,0-.24,0-.484,0-.728h0V367.9l0,0,0,0v-.014Z" transform="translate(-281.017 -200.426)" fill="#ffb244"/>
        <path id="Trazado_1038339" data-name="Trazado 1038339" d="M463.768,335.482c.411,1.56.755,3.128,1.067,4.706s.583,3.161.863,4.747.534,3.164.8,4.743.574,3.138.9,4.7.655,3.1,1.049,4.634.832,3.033,1.347,4.521a43.437,43.437,0,0,0,4.1,8.734c.411.66.85,1.307,1.311,1.93a21.7,21.7,0,0,0,1.7,2.089,1.211,1.211,0,0,0,1.9-1.465c-.605-.935-1.229-1.853-1.826-2.789s-1.139-1.867-1.669-2.825a62.048,62.048,0,0,1-2.749-5.7c-.895-2.143-1.677-4.331-2.4-6.542-.768-2.355-1.428-4.737-2.066-7.134-.724-2.728-1.427-5.468-2.135-8.209-.711-2.084-1.454-4.157-2.213-6.224a.305.305,0,0,0,.008.084" transform="translate(-280.38 -196.667)" fill="#e29134"/>
        <path id="Trazado_1038340" data-name="Trazado 1038340" d="M466.893,359.685a32.462,32.462,0,0,0,.836,7.052A34.921,34.921,0,0,0,470.1,373.5a.783.783,0,0,0,.484.37.81.81,0,0,0,.913-1.189,27.2,27.2,0,0,1-1.74-3.382,26.675,26.675,0,0,1-1.792-6.552.172.172,0,0,0,0,.02,25.951,25.951,0,0,1-.207-3.083.434.434,0,0,0-.868,0m2.825,9.53.018.042-.018-.042" transform="translate(-279.887 -192.914)" fill="#e29134"/>
        <path id="Trazado_1038341" data-name="Trazado 1038341" d="M445.686,276.254a4.738,4.738,0,0,0-1.167.126,2.935,2.935,0,0,0-1.121.5,2.135,2.135,0,0,0-.682.927,3.512,3.512,0,0,0,.1,2.346,12.048,12.048,0,0,0,1.3,2.582,33.207,33.207,0,0,0,2.011,2.87,15.274,15.274,0,0,0-1.655-1.321,30.413,30.413,0,0,0-2.631-1.668,12.9,12.9,0,0,0-2.383-1.094,6.123,6.123,0,0,0-1.98-.362c-.112,0-.23,0-.344.014a3.021,3.021,0,0,0-1.94.944,2.677,2.677,0,0,0-.7,1.646,4.681,4.681,0,0,0,.448,2.066A11.357,11.357,0,0,0,436.206,288a25.333,25.333,0,0,0,1.777,2.243c1.352,1.551,2.839,3.02,4.245,4.381l.569.543.294.28a27.1,27.1,0,0,0-5.769-1.528,11.1,11.1,0,0,0-1.546-.123,6.871,6.871,0,0,0-.913.059,4.262,4.262,0,0,0-.994.266,2.5,2.5,0,0,0-.9.638,2.1,2.1,0,0,0-.429.922,2.334,2.334,0,0,0,.009,1.067,3.8,3.8,0,0,0,1.355,1.985,13.349,13.349,0,0,0,2.745,1.7,35.535,35.535,0,0,0,3.381,1.447c1.637.619,3.332,1.184,5.186,1.722,3.413,5.325,8.291,9.7,12.6,13.378q3.535,8.243,6.722,16.857.33-.6.7-1.179a28.459,28.459,0,0,1,4.936-5.8,38.226,38.226,0,0,1,6.443-4.693,43.186,43.186,0,0,1,7.084-3.318,39.656,39.656,0,0,1,4.627-1.359,340.342,340.342,0,0,0-26.6-30.409c-2.4-2.4-4.29-4.232-6.329-5.931a34.69,34.69,0,0,0-3.861-2.822,14.337,14.337,0,0,0-3.775-1.772,7.161,7.161,0,0,0-1.722-.289l-.168,0h-.171Z" transform="translate(-285.302 -205.972)" fill="#fcbc9a"/>
        <path id="Trazado_1038342" data-name="Trazado 1038342" d="M442.052,292.727a.314.314,0,0,0-.154.157.319.319,0,0,0,0,.222.275.275,0,0,0,.163.154,13.322,13.322,0,0,1,1.325.42,11.912,11.912,0,0,1,1.2.558l-.01-.007.013.008.054.029-.03-.014c.272.156.54.319.8.5a9.31,9.31,0,0,1,.941.736.365.365,0,0,0,.506-.081.36.36,0,0,0-.076-.5c-.321-.24-.652-.461-.991-.674-.356-.226-.731-.429-1.108-.619a12.139,12.139,0,0,0-2.422-.89.516.516,0,0,0-.115-.016.292.292,0,0,0-.108.021m2.569,1.527-.024-.015h0a.2.2,0,0,0,.027.016" transform="translate(-283.822 -203.384)" fill="#fe9a67"/>
        <path id="Trazado_1038343" data-name="Trazado 1038343" d="M444.5,284.17a.411.411,0,0,0,.09.574,13.657,13.657,0,0,1,1.307.873c.455.347.885.728,1.308,1.118l-.042-.042.061.059.034.031-.02-.017a41.627,41.627,0,0,1,2.854,3.136.639.639,0,0,0,.994-.8,23.153,23.153,0,0,0-6.012-5.018.518.518,0,0,0-.258-.074.379.379,0,0,0-.316.164m2.738,2.6-.014-.014-.02-.017.034.031" transform="translate(-283.423 -204.753)" fill="#fe9a67"/>
        <path id="Trazado_1038344" data-name="Trazado 1038344" d="M404.645,235.332a40.078,40.078,0,0,1-5.84,5.973.166.166,0,0,1,.025-.024,59.884,59.884,0,0,1-6.713,4.847q-1.851,1.154-3.761,2.207c-1.258.687-2.551,1.325-3.845,1.949h0l-.007,0-.116.056.022-.012a84.8,84.8,0,0,1-9.768,3.932,81.372,81.372,0,0,1-10,2.644l.067-.012c-1.933.361-3.867.683-5.821.9q-1.391.154-2.79.23c-.475.022-.954.036-1.428.036-.208,0-.416,0-.624,0-.258,0-.515,0-.768,0a1.336,1.336,0,1,0,.159,2.668c.556-.019,1.112-.087,1.668-.14q.929-.1,1.859-.222c1.243-.159,2.486-.344,3.716-.574,1.324-.249,2.649-.51,3.955-.84s2.618-.711,3.92-1.09q2.007-.583,3.984-1.274c1.343-.471,2.666-.991,3.987-1.515,2.663-1.062,5.28-2.224,7.829-3.526a81.649,81.649,0,0,0,11.8-7.265,45.949,45.949,0,0,0,8.911-8.563.3.3,0,0,0-.018-.406.311.311,0,0,0-.206-.076.257.257,0,0,0-.206.094m-20.231,15,.094-.044,0,0c-.032.015-.066.029-.1.046m14.417-9.049c.014-.012.028-.024.042-.035q-.021.016-.042.035" transform="translate(-297.96 -212.426)" fill="#2b4248"/>
        <path id="Trazado_1038345" data-name="Trazado 1038345" d="M395.513,235.1c-.133.118-.271.236-.41.354a.454.454,0,0,0,.035-.034,32.326,32.326,0,0,1-4.273,3.011c-1.474.882-3.01,1.658-4.563,2.4l.043-.022c-2,.949-4.051,1.786-6.107,2.6a.761.761,0,0,0-.434.37.753.753,0,0,0-.045.569.779.779,0,0,0,.37.434.716.716,0,0,0,.569.045q2.007-.915,3.992-1.862c1.393-.674,2.781-1.366,4.128-2.13a42.6,42.6,0,0,0,7.319-5.177.417.417,0,0,0-.027-.591.393.393,0,0,0-.27-.111.5.5,0,0,0-.328.138" transform="translate(-293.602 -212.469)" fill="#2b4248"/>
        <path id="Trazado_1038346" data-name="Trazado 1038346" d="M404.918,238.579a.421.421,0,0,0-.4.429,45.413,45.413,0,0,0,2.445,9.58,29.4,29.4,0,0,0,2.293,4.556,20.555,20.555,0,0,0,3.124,3.97.982.982,0,1,0,1.343-1.434,25.48,25.48,0,0,1-2.316-2.4,25.813,25.813,0,0,1-3.25-5.358,36.968,36.968,0,0,1-2.825-9.049.419.419,0,0,0-.4-.294Zm6.494,14.711c.035.043.072.087.106.131-.036-.043-.072-.087-.106-.131" transform="translate(-289.702 -211.9)" fill="#2b4248"/>
        <path id="Trazado_1038347" data-name="Trazado 1038347" d="M350.49,286.947c-.01.024-.02.049-.029.073a.049.049,0,0,0,0-.006,19.391,19.391,0,0,1-2.414,4.326c.023-.027.041-.053.059-.076a42.109,42.109,0,0,1-7.351,7.369l.091-.076c-2.189,1.8-4.435,3.531-6.574,5.389-1.117.968-2.17,2.021-3.219,3.065-1.112,1.1-2.211,2.22-3.282,3.36a62,62,0,0,0-5.9,7.243,41.08,41.08,0,0,0-4.371,8.159,34.266,34.266,0,0,0-2.1,8.857,36.947,36.947,0,0,0,.032,8.567,38.789,38.789,0,0,0,1.881,8.192,40.085,40.085,0,0,0,3.634,7.559,37.671,37.671,0,0,0,3.047,4.259,43.749,43.749,0,0,0,3.915,4.209,45.127,45.127,0,0,0,4.4,3.581,32.3,32.3,0,0,0,4.832,2.925,1.8,1.8,0,0,0,1.344.131,1.738,1.738,0,0,0,1.013-.827,1.772,1.772,0,0,0,.135-1.347,1.826,1.826,0,0,0-.832-1.013c-1.635-.983-3.257-1.98-4.812-3.087a43.016,43.016,0,0,1-7.49-6.989,39.866,39.866,0,0,1-5.324-8.491c.058.127.122.258.181.384a35.505,35.505,0,0,1-3.208-18.895,38.681,38.681,0,0,1,.721-4.459,35.942,35.942,0,0,1,1.413-4.69,41.661,41.661,0,0,1,5.056-8.914l-.122.176a71.757,71.757,0,0,1,6.035-7.156c2.007-2.12,4.068-4.183,6.27-6.1,2.17-1.89,4.393-3.721,6.5-5.683a31.961,31.961,0,0,0,5.448-6.351,19.408,19.408,0,0,0,1.731-3.491.363.363,0,0,0-.267-.439.372.372,0,0,0-.093-.013.385.385,0,0,0-.35.28m-.047.124-.012.034c0-.012.007-.022.012-.034m-32.314,46.876c0,.038-.008.076-.013.116,0-.039.008-.078.013-.116m.277,9.253c.02.111.038.222.058.333-.02-.111-.039-.222-.058-.333" transform="translate(-303.76 -204.334)" fill="#2b4248"/>
        <path id="Trazado_1038348" data-name="Trazado 1038348" d="M322.759,331.449a.289.289,0,0,0-.28.3,23.078,23.078,0,0,0,.731,4.874,27.8,27.8,0,0,0,1.908,4.992,37.949,37.949,0,0,0,2.771,4.688c.5.727,1.05,1.419,1.605,2.1s1.1,1.338,1.7,1.962a.931.931,0,1,0,1.274-1.356c-.591-.529-1.17-1.062-1.727-1.632-.536-.552-1.039-1.133-1.53-1.727a.288.288,0,0,1,.024.031l-.1-.126-.015-.018.012.014c-.372-.457-.742-.918-1.092-1.392q-.637-.868-1.2-1.781a31.252,31.252,0,0,1-1.921-3.6l.017.038a23.476,23.476,0,0,1-1.713-5.472,15.089,15.089,0,0,1-.167-1.61.3.3,0,0,0-.29-.281h-.008Zm6.376,14.106.078.095c-.025-.034-.053-.066-.081-.1l0,0" transform="translate(-302.609 -197.288)" fill="#2b4248"/>
        <path id="Trazado_1038349" data-name="Trazado 1038349" d="M389.042,285.2h0c-.226.2-.461.4-.692.593a33.712,33.712,0,0,1-3.782,2.76,26.875,26.875,0,0,1-4.212,2.169c-.669.263-1.266.476-1.83.647a11.233,11.233,0,0,0,4.016,5.3,5.9,5.9,0,0,0,3.234,1.069,5.049,5.049,0,0,0,1.763-.309,5.454,5.454,0,0,0,1.568-.855,5.054,5.054,0,0,0,1.64-2.425,6.884,6.884,0,0,0,.277-1.489,9.085,9.085,0,0,0-.014-1.476,15.414,15.414,0,0,0-1.792-5.728.712.712,0,0,0-.111-.169s-.061-.083-.065-.083" transform="translate(-293.791 -204.565)" fill="#fefefe"/>
        <path id="Trazado_1038350" data-name="Trazado 1038350" d="M366.833,270.8h-.054a1.191,1.191,0,0,0-.814.447c-.752.848-1.16,2.73-1.037,4.8.167,2.75,1.243,4.988,2.4,4.988,1.24-.078,2.076-2.381,1.906-5.243-.163-2.75-1.24-4.988-2.4-4.988" transform="translate(-295.933 -206.83)" fill="#172e39"/>
        <path id="Trazado_1038351" data-name="Trazado 1038351" d="M399.436,269.408h-.054c-1.189.076-2.02,2.429-1.852,5.243.168,2.75,1.244,4.988,2.4,4.988a1.2,1.2,0,0,0,.867-.447c.753-.848,1.161-2.73,1.038-4.8-.162-2.75-1.238-4.988-2.4-4.988" transform="translate(-290.804 -207.049)" fill="#172e39"/>
        <path id="Trazado_1038352" data-name="Trazado 1038352" d="M397.792,251.954c-2.044,0-3.4.561-3.641,1.5a1.494,1.494,0,0,0,.227,1.161c.743,1.249,2.878,2.47,5.436,3.112a13.755,13.755,0,0,0,3.376.451c2.043,0,3.4-.56,3.642-1.5a1.51,1.51,0,0,0-.228-1.161c-.744-1.249-2.878-2.47-5.437-3.112a13.748,13.748,0,0,0-3.375-.453" transform="translate(-291.338 -209.796)" fill="#172e39"/>
        <path id="Trazado_1038353" data-name="Trazado 1038353" d="M380.192,266.121a.361.361,0,0,0-.249.117.293.293,0,0,0-.074.212l.031.264.017.152c.179,1.52.366,3.09.476,4.639a25.9,25.9,0,0,1-.064,5.206l-.064.4a4.655,4.655,0,0,0-.834-.344,7.55,7.55,0,0,0-1.427-.3,5.108,5.108,0,0,0-.6-.037,4.547,4.547,0,0,0-1.7.323,3.885,3.885,0,0,0-1.61,1.183,3.832,3.832,0,0,0-.549.906,4.806,4.806,0,0,0-.331,1.043,6.159,6.159,0,0,0,.892,4.371,6.573,6.573,0,0,0,1.808,1.858,5.955,5.955,0,0,0,1.231.647,7.079,7.079,0,0,0,1.323.384,1.528,1.528,0,0,0,.25.024.849.849,0,0,0,.449-.12.891.891,0,0,0,.421-.549.955.955,0,0,0-.109-.746.852.852,0,0,0-.532-.385,7.34,7.34,0,0,1-1.17-.343,6.709,6.709,0,0,1-1.118-.637,6.062,6.062,0,0,1-.87-.87,5.578,5.578,0,0,1-.645-1.091,5.891,5.891,0,0,1-.316-1.149,4.711,4.711,0,0,1,0-1.105,4.523,4.523,0,0,1,.244-.924,3.952,3.952,0,0,1,.351-.6,3.579,3.579,0,0,1,.469-.468,2.972,2.972,0,0,1,.535-.31,3.867,3.867,0,0,1,.784-.212,4.8,4.8,0,0,1,.573-.031c.22,0,.438.013.659.031a11.839,11.839,0,0,1,2.036.538l.118.009a.429.429,0,0,0,.236-.056.486.486,0,0,0,.231-.4l.045-.425c.031-.3.064-.611.09-.913.031-.462.045-.927.05-1.393.014-1.01-.045-2.028-.1-2.89-.111-1.465-.3-2.977-.465-4.309l-.168-1.37a.336.336,0,0,0-.323-.326" transform="translate(-294.64 -207.567)" fill="#fe9a67"/>
      </g>
      <g id="Grupo_1178696" data-name="Grupo 1178696" transform="translate(5240.12 5317.114)">
        <path id="Trazado_1038375" data-name="Trazado 1038375" d="M371.688,441.263H333.822l.008.027H291.059v4.964h44.39l0,.007,36.237.017.024-4.989Z" transform="translate(-178.799 -361.48)" fill="#858197"/>
        <path id="Trazado_1038376" data-name="Trazado 1038376" d="M287.78,372.375H194.062q3.243,9.8,6.5,19.589Q207.693,413.48,214.836,435q3.668,11.088,7.346,22.162H350.755c-.007-.021-.013-.039-.02-.059h-.021l-1.2-3.67q-1.229-3.7-2.459-7.41-7.154-21.585-14.317-43.17l-10.119-30.5Z" transform="translate(-194.061 -372.322)" fill="#b2acc9"/>
        <path id="Trazado_1038377" data-name="Trazado 1038377" d="M208.383,372.326H194.061l3.185,9.79,3.273,9.869,7.138,21.529,7.138,21.515,3.151,9.5,4.2,12.658,44.117.035h29.489c-2.357-.943-4.421-1.78-6.3-2.576a173.574,173.574,0,0,1-17.287-8.52,167.578,167.578,0,0,1-16.264-10.47,155.326,155.326,0,0,1-14.714-12.151,136.669,136.669,0,0,1-12.874-13.815,118.067,118.067,0,0,1-10.425-15.121,101.014,101.014,0,0,1-7.6-16.35c-.708-2.008-1.341-3.986-1.881-5.876Z" transform="translate(-194.061 -372.326)" fill="#b2acc9" opacity="0.17"/>
        <path id="Trazado_1038378" data-name="Trazado 1038378" d="M256.925,411.843c4.693-1.218,7.362-6.6,5.957-12.026s-6.355-8.832-11.048-7.616-7.362,6.6-5.957,12.025,6.355,8.834,11.048,7.618" transform="translate(-185.967 -369.238)" fill="#ffebcd"/>
        <path id="Trazado_1038379" data-name="Trazado 1038379" d="M263.7,397.508a3.93,3.93,0,1,0-4.236-2.92,3.659,3.659,0,0,0,4.236,2.92" transform="translate(-183.792 -369.564)" fill="#ffebcd"/>
      </g>
      <path id="Trazado_1038380" data-name="Trazado 1038380" d="M491.339,445.267h-395c-1.355,0-2.5,1.866-2.5,4.075s1.145,4.076,2.5,4.076h395c1.355,0,2.5-1.866,2.5-4.076s-1.144-4.075-2.5-4.075" transform="translate(5135.29 4956.745)" fill="#653f65"/>
    </g>
  </g>
</svg>
