<svg xmlns="http://www.w3.org/2000/svg" xmlns:xlink="http://www.w3.org/1999/xlink" width="113" height="113" viewBox="0 0 113 113">
  <defs>
    <filter id="Trazado_982547" x="0" y="0" width="113" height="113" filterUnits="userSpaceOnUse">
      <feOffset dy="3" input="SourceAlpha"/>
      <feGaussianBlur stdDeviation="3" result="blur"/>
      <feFlood flood-opacity="0.161"/>
      <feComposite operator="in" in2="blur"/>
      <feComposite in="SourceGraphic"/>
    </filter>
  </defs>
  <g id="Grupo_1178727" data-name="Grupo 1178727" transform="translate(-195.461 -346)">
    <g id="Grupo_1177529" data-name="Grupo 1177529" transform="translate(-420 -1575)">
      <g id="Grupo_1173068" data-name="Grupo 1173068" transform="translate(444 -1060)">
        <g id="Grupo_1166845" data-name="Grupo 1166845" transform="translate(180.461 2987)">
          <g id="Grupo_1166720" data-name="Grupo 1166720">
            <g id="Grupo_1164305" data-name="Grupo 1164305" transform="translate(0)">
              <g id="Grupo_1163948" data-name="Grupo 1163948">
                <g id="Grupo_1158168" data-name="Grupo 1158168">
                  <g id="Grupo_1152576" data-name="Grupo 1152576">
                    <g id="Grupo_1148633" data-name="Grupo 1148633">
                      <g id="Grupo_1148525" data-name="Grupo 1148525">
                        <g transform="matrix(1, 0, 0, 1, -9, -6)" filter="url(#Trazado_982547)">
                          <g id="Trazado_982547-2" data-name="Trazado 982547" transform="translate(9 6)" fill="#fff4e6">
                            <path d="M 47.5 93.5 C 41.28937149047852 93.5 35.26533508300781 92.28397369384766 29.59518623352051 89.88570404052734 C 24.11771965026855 87.56893157958984 19.19813346862793 84.25196075439453 14.97309303283691 80.02691650390625 C 10.74804019927979 75.80186462402344 7.431066513061523 70.88229370117188 5.114293098449707 65.40481567382812 C 2.716026782989502 59.73468017578125 1.5 53.71062850952148 1.5 47.5 C 1.5 41.28937149047852 2.716026782989502 35.26533508300781 5.114293098449707 29.59518623352051 C 7.431066513061523 24.11771965026855 10.74804019927979 19.19813346862793 14.97309303283691 14.97309303283691 C 19.19813346862793 10.74804019927979 24.11771965026855 7.431066513061523 29.59518623352051 5.114293098449707 C 35.26533508300781 2.716026782989502 41.28937149047852 1.5 47.5 1.5 C 53.71062850952148 1.5 59.73468017578125 2.716026782989502 65.40481567382812 5.114293098449707 C 70.88229370117188 7.431066513061523 75.80186462402344 10.74804019927979 80.02691650390625 14.97309303283691 C 84.25196075439453 19.19813346862793 87.56893157958984 24.11771965026855 89.88570404052734 29.59518623352051 C 92.28397369384766 35.26533508300781 93.5 41.28937149047852 93.5 47.5 C 93.5 53.71062850952148 92.28397369384766 59.73468017578125 89.88570404052734 65.40481567382812 C 87.56893157958984 70.88229370117188 84.25196075439453 75.80186462402344 80.02691650390625 80.02691650390625 C 75.80186462402344 84.25196075439453 70.88229370117188 87.56893157958984 65.40481567382812 89.88570404052734 C 59.73468017578125 92.28397369384766 53.71062850952148 93.5 47.5 93.5 Z" stroke="none"/>
                            <path d="M 47.5 3 C 41.49121475219727 3 35.66376876831055 4.176155090332031 30.17950439453125 6.495796203613281 C 24.88084411621094 8.736953735351562 20.12152099609375 11.94598388671875 16.03375244140625 16.03375244140625 C 11.94598388671875 20.12152099609375 8.736953735351562 24.88084411621094 6.495796203613281 30.17950439453125 C 4.176155090332031 35.66376876831055 3 41.49121475219727 3 47.5 C 3 53.50878524780273 4.176155090332031 59.33623123168945 6.495796203613281 64.82049560546875 C 8.736953735351562 70.11915588378906 11.94598388671875 74.87847900390625 16.03375244140625 78.96624755859375 C 20.12152099609375 83.05401611328125 24.88084411621094 86.26304626464844 30.17950439453125 88.50419616699219 C 35.66376876831055 90.82384490966797 41.49121475219727 92 47.5 92 C 53.50878524780273 92 59.33623123168945 90.82384490966797 64.82049560546875 88.50419616699219 C 70.11915588378906 86.26304626464844 74.87847900390625 83.05401611328125 78.96624755859375 78.96624755859375 C 83.05401611328125 74.87847900390625 86.26304626464844 70.11915588378906 88.50419616699219 64.82049560546875 C 90.82384490966797 59.33623123168945 92 53.50878524780273 92 47.5 C 92 41.49121475219727 90.82384490966797 35.66376876831055 88.50419616699219 30.17950439453125 C 86.26304626464844 24.88084411621094 83.05401611328125 20.12152099609375 78.96624755859375 16.03375244140625 C 74.87847900390625 11.94598388671875 70.11915588378906 8.736953735351562 64.82049560546875 6.495796203613281 C 59.33623123168945 4.176155090332031 53.50878524780273 3 47.5 3 M 47.5 0 C 73.7335205078125 0 95 21.2664794921875 95 47.5 C 95 73.7335205078125 73.7335205078125 95 47.5 95 C 21.2664794921875 95 0 73.7335205078125 0 47.5 C 0 21.2664794921875 21.2664794921875 0 47.5 0 Z" stroke="none" fill="#ff9d1c"/>
                          </g>
                        </g>
                      </g>
                    </g>
                  </g>
                </g>
              </g>
            </g>
          </g>
        </g>
      </g>
    </g>
    <g id="human-resources_1332001" transform="translate(222.461 369.5)">
      <path id="Trazado_1038700" data-name="Trazado 1038700" d="M47.588,356.907a3.365,3.365,0,0,1-3.365,3.365H10.748a3.364,3.364,0,0,1-3.365-3.365A15.379,15.379,0,0,1,22.76,341.528h9.45a15.38,15.38,0,0,1,15.378,15.379Zm0,0" transform="translate(-6.532 -301.738)" fill="#d2d2d7"/>
      <path id="Trazado_1038701" data-name="Trazado 1038701" d="M71.623,356.907a3.365,3.365,0,0,1-3.365,3.365H37.912a3.365,3.365,0,0,1-3.365-3.365,15.379,15.379,0,0,1,15.378-15.379h6.32a15.38,15.38,0,0,1,15.378,15.379Zm0,0" transform="translate(-30.566 -301.738)" fill="#ebebf0"/>
      <path id="Trazado_1038702" data-name="Trazado 1038702" d="M156.878,271.641l-3.742,6.35-3.742-6.35v-9.082h7.483Zm0,0" transform="translate(-132.183 -231.867)" fill="#e3a76f"/>
      <path id="Trazado_1038703" data-name="Trazado 1038703" d="M154.394,448.688h-3.761l-1.981,6.4h7.789Zm0,0" transform="translate(-131.526 -396.552)" fill="#6990d7"/>
      <path id="Trazado_1038704" data-name="Trazado 1038704" d="M160.874,407.687h-3.408a1.255,1.255,0,0,1-1.252-1.252V403.42a1.256,1.256,0,0,1,1.252-1.252h3.408a1.256,1.256,0,0,1,1.252,1.252v3.015A1.256,1.256,0,0,1,160.874,407.687Zm0,0" transform="translate(-138.217 -355.391)" fill="#91aee2"/>
      <g id="Grupo_1178726" data-name="Grupo 1178726" transform="translate(5.652 3.738)">
        <path id="Trazado_1038705" data-name="Trazado 1038705" d="M57.808,177.045a4.373,4.373,0,1,1-4.373-4.373A4.373,4.373,0,0,1,57.808,177.045Zm0,0" transform="translate(-49.063 -156.074)" fill="#e3a76f"/>
        <path id="Trazado_1038706" data-name="Trazado 1038706" d="M247.855,177.053a4.373,4.373,0,1,1-4.373-4.373A4.373,4.373,0,0,1,247.855,177.053Zm0,0" transform="translate(-217.214 -156.081)" fill="#e3a76f"/>
        <path id="Trazado_1038707" data-name="Trazado 1038707" d="M102.572,32.362V52.7c0,5.288-6.188,9.732-9.857,11a5.668,5.668,0,0,1-1.741.364c-1.437,0-4.337-1.272-6.876-3.33s-4.722-4.9-4.722-8.039V32.362a3.753,3.753,0,0,1,3.752-3.753H98.819a3.752,3.752,0,0,1,3.753,3.753Zm0,0" transform="translate(-75.883 -28.609)" fill="#e3a76f"/>
      </g>
      <path id="Trazado_1038708" data-name="Trazado 1038708" d="M129.313,32.362V52.7c0,4.575-4.633,8.519-8.259,10.323a3.58,3.58,0,0,1-3.188,0,19.584,19.584,0,0,1-3.545-2.289c-2.541-2.057-4.722-4.9-4.722-8.039V32.362a3.753,3.753,0,0,1,3.753-3.753H125.56a3.753,3.753,0,0,1,3.753,3.753Zm0,0" transform="translate(-96.971 -24.871)" fill="#f2bb88"/>
      <path id="Trazado_1038709" data-name="Trazado 1038709" d="M241.42,36.468h-3.57a3.463,3.463,0,0,1-3.463-3.463V26.669a3.462,3.462,0,0,1,3.463-3.462h.75a3.462,3.462,0,0,1,3.463,3.462v9.156a.643.643,0,0,1-.643.643Zm0,0" transform="translate(-207.383 -20.091)" fill="#ae583e"/>
      <path id="Trazado_1038710" data-name="Trazado 1038710" d="M81.155,8.692V9.857c0,4.715-9.433,13.962-21.9,13.882H57.1c-1.21,0-2.192-.678-2.192-1.513V12.791c0-2.615,3.081-4.736,6.879-4.736H80.232a1.261,1.261,0,0,1,.388.059.672.672,0,0,1,.535.578Zm0,0" transform="translate(-48.584 -6.684)" fill="#c0694e"/>
      <path id="Trazado_1038711" data-name="Trazado 1038711" d="M80.62,8.114c-2.159,4.914-10.639,11.747-21.366,11.679H57.1c-1.21,0-2.192-.678-2.192-1.513V12.791c0-2.615,3.081-4.736,6.879-4.736H80.232a1.26,1.26,0,0,1,.388.059Zm0,0" transform="translate(-48.584 -6.684)" fill="#c97e67"/>
      <path id="Trazado_1038712" data-name="Trazado 1038712" d="M101.23,318.139l-2.87,2.994a.912.912,0,0,0-.211.906l2.606,8.208a1.518,1.518,0,0,0,2.126.482l5.147-3.334-5.355-9.089A.911.911,0,0,0,101.23,318.139Zm0,0" transform="translate(-86.803 -280.795)" fill="#aec2e9"/>
      <path id="Trazado_1038713" data-name="Trazado 1038713" d="M186.317,318.139l2.87,2.994a.913.913,0,0,1,.211.906l-2.606,8.208a1.518,1.518,0,0,1-2.126.482l-5.147-3.334,5.356-9.089A.911.911,0,0,1,186.317,318.139Zm0,0" transform="translate(-158.837 -280.795)" fill="#aec2e9"/>
      <path id="Trazado_1038714" data-name="Trazado 1038714" d="M340.273,68.458l-.424-2.4a.528.528,0,0,0-.612-.428l-2.957.522a7.334,7.334,0,0,0-.786-1.358l1.931-2.3a.528.528,0,0,0-.065-.744l-1.869-1.569a.529.529,0,0,0-.744.065l-1.93,2.3A7.237,7.237,0,0,0,331.341,62V59a.528.528,0,0,0-.528-.528h-2.44a.529.529,0,0,0-.528.528v3a7.239,7.239,0,0,0-1.475.537l-1.93-2.3a.528.528,0,0,0-.744-.065l-1.87,1.569a.528.528,0,0,0-.065.744l1.931,2.3a7.329,7.329,0,0,0-.786,1.358l-2.957-.521a.528.528,0,0,0-.612.428l-.424,2.4a.528.528,0,0,0,.428.612l2.959.522a7.269,7.269,0,0,0,.27,1.545l-2.6,1.5a.529.529,0,0,0-.194.722L321,75.473a.529.529,0,0,0,.722.193l2.6-1.5a7.375,7.375,0,0,0,1.2,1.009L324.495,78a.529.529,0,0,0,.316.677l2.293.834a.528.528,0,0,0,.677-.315l1.027-2.823a7.293,7.293,0,0,0,1.569,0l1.027,2.823a.528.528,0,0,0,.677.315l2.293-.834A.528.528,0,0,0,334.69,78l-1.027-2.822a7.347,7.347,0,0,0,1.2-1.009l2.6,1.5a.528.528,0,0,0,.721-.193l1.22-2.113a.529.529,0,0,0-.193-.722l-2.6-1.5a7.3,7.3,0,0,0,.27-1.545l2.959-.522A.527.527,0,0,0,340.273,68.458Zm0,0" transform="translate(-282.164 -51.294)" fill="#4172cc"/>
      <path id="Trazado_1038715" data-name="Trazado 1038715" d="M377.4,110.487a5.132,5.132,0,1,1-5.132-5.132A5.132,5.132,0,0,1,377.4,110.487Zm0,0" transform="translate(-324.835 -92.775)" fill="#2e5aac"/>
      <path id="Trazado_1038716" data-name="Trazado 1038716" d="M392.926,133.585a2.443,2.443,0,1,1,1.727-.716A2.427,2.427,0,0,1,392.926,133.585Zm0,0" transform="translate(-345.496 -113.43)" fill="#203e76"/>
      <path id="Trazado_1038717" data-name="Trazado 1038717" d="M306.851,271.956l-.51-2.892a.636.636,0,0,0-.736-.516l-3.559.627a8.783,8.783,0,0,0-.946-1.634l2.324-2.77a.635.635,0,0,0-.078-.9l-2.25-1.888a.636.636,0,0,0-.9.078l-2.323,2.769a8.734,8.734,0,0,0-1.775-.646v-3.614a.635.635,0,0,0-.635-.636h-2.937a.636.636,0,0,0-.636.636v3.614a8.758,8.758,0,0,0-1.775.646l-2.323-2.769a.636.636,0,0,0-.9-.078l-2.25,1.888a.636.636,0,0,0-.078.9l2.324,2.77a8.759,8.759,0,0,0-.946,1.634l-3.559-.627a.636.636,0,0,0-.737.516l-.51,2.892a.635.635,0,0,0,.516.737l3.561.628a8.814,8.814,0,0,0,.326,1.86l-3.129,1.807a.636.636,0,0,0-.233.869l1.469,2.544a.636.636,0,0,0,.869.233l3.131-1.808a8.832,8.832,0,0,0,1.446,1.214l-1.236,3.4a.636.636,0,0,0,.38.815l2.76,1a.636.636,0,0,0,.815-.38l1.236-3.4a8.793,8.793,0,0,0,1.888,0l1.236,3.4a.636.636,0,0,0,.815.38l2.76-1a.636.636,0,0,0,.38-.815l-1.236-3.4a8.853,8.853,0,0,0,1.446-1.214l3.131,1.808a.636.636,0,0,0,.869-.233l1.468-2.544a.636.636,0,0,0-.233-.869l-3.13-1.807a8.753,8.753,0,0,0,.326-1.86l3.561-.628A.636.636,0,0,0,306.851,271.956Zm0,0" transform="translate(-248.743 -229.547)" fill="#4172cc"/>
      <path id="Trazado_1038718" data-name="Trazado 1038718" d="M351.525,322.544a6.177,6.177,0,1,1-6.177-6.177A6.177,6.177,0,0,1,351.525,322.544Zm0,0" transform="translate(-300.095 -279.475)" fill="#2e5aac"/>
      <path id="Trazado_1038719" data-name="Trazado 1038719" d="M370.215,350.341a2.94,2.94,0,1,1,2.079-.861A2.921,2.921,0,0,1,370.215,350.341Zm0,0" transform="translate(-324.962 -304.333)" fill="#203e76"/>
      <path id="Trazado_1038720" data-name="Trazado 1038720" d="M312.5,63.243l2.316.409c.018.124.04.249.065.373L312.849,65.2a1.4,1.4,0,0,0-.512,1.91l1.22,2.114a1.4,1.4,0,0,0,1.91.512l2.037-1.176q.142.126.29.244l-.8,2.209a1.4,1.4,0,0,0,.836,1.793c2.29.806,2.35.919,2.773.919a1.4,1.4,0,0,0,1.313-.92l.8-2.21c.127,0,.252,0,.378,0l.8,2.21a1.4,1.4,0,0,0,1.793.836l2.293-.835a1.4,1.4,0,0,0,.837-1.793l-.8-2.209c.1-.079.195-.16.289-.244l2.037,1.176a1.4,1.4,0,0,0,1.91-.512l1.221-2.114a1.4,1.4,0,0,0-.513-1.91l-2.035-1.176c.024-.123.046-.248.065-.373l2.316-.409a1.4,1.4,0,0,0,1.155-1.378,1.442,1.442,0,0,0-.021-.243l-.424-2.4a1.4,1.4,0,0,0-1.621-1.135l-2.315.409c-.062-.112-.124-.221-.19-.329l1.511-1.8a1.4,1.4,0,0,0-.172-1.97l-1.87-1.569a1.4,1.4,0,0,0-1.971.173l-1.51,1.8c-.118-.046-.237-.089-.357-.13v-2.35a1.4,1.4,0,0,0-1.4-1.4h-2.44a1.4,1.4,0,0,0-1.4,1.4v2.35c-.12.041-.239.084-.356.13L318.42,53a1.4,1.4,0,0,0-1.971-.173l-1.869,1.569a1.4,1.4,0,0,0-.172,1.97l1.51,1.8c-.065.108-.129.217-.189.329l-2.316-.409a1.4,1.4,0,0,0-1.621,1.135l-.423,2.4a1.4,1.4,0,0,0,1.135,1.621Zm.944-3.385,2.62.462a.868.868,0,0,0,.947-.5,6.435,6.435,0,0,1,.693-1.2.87.87,0,0,0-.036-1.074l-1.711-2.04,1.346-1.128,1.71,2.038a.87.87,0,0,0,1.052.221,6.437,6.437,0,0,1,1.3-.472.871.871,0,0,0,.663-.845V52.659h1.755V55.32a.871.871,0,0,0,.664.845,6.462,6.462,0,0,1,1.3.472.871.871,0,0,0,1.052-.221l1.71-2.038,1.344,1.128-1.71,2.04a.871.871,0,0,0-.036,1.074,6.455,6.455,0,0,1,.692,1.2.869.869,0,0,0,.947.5l2.62-.462.305,1.73-2.622.462a.872.872,0,0,0-.717.8,6.429,6.429,0,0,1-.238,1.361.871.871,0,0,0,.4,1l2.3,1.33-.878,1.519-2.305-1.33a.87.87,0,0,0-1.063.151,6.479,6.479,0,0,1-1.059.889.87.87,0,0,0-.333,1.02l.91,2.5-1.649.6-.91-2.5a.87.87,0,0,0-.91-.567,6.6,6.6,0,0,1-1.385,0,.867.867,0,0,0-.91.567l-.91,2.5-1.65-.6.91-2.5a.87.87,0,0,0-.332-1.02,6.4,6.4,0,0,1-1.059-.889.87.87,0,0,0-1.064-.151l-2.305,1.33-.878-1.519,2.3-1.33a.87.87,0,0,0,.4-1,6.562,6.562,0,0,1-.238-1.361.871.871,0,0,0-.717-.8l-2.621-.462Zm0,0" transform="translate(-275.477 -44.61)"/>
      <path id="Trazado_1038721" data-name="Trazado 1038721" d="M365.577,109.808a6,6,0,1,0-6-6A6.008,6.008,0,0,0,365.577,109.808Zm0-10.262a4.261,4.261,0,1,1-4.261,4.26A4.265,4.265,0,0,1,365.577,99.546Zm0,0" transform="translate(-318.147 -86.094)"/>
      <path id="Trazado_1038722" data-name="Trazado 1038722" d="M386.238,127.766a3.313,3.313,0,1,0-2.342-5.657A3.309,3.309,0,0,0,386.238,127.766Zm0-4.886a1.571,1.571,0,1,1-1.111,2.684A1.569,1.569,0,0,1,386.238,122.881Zm0,0" transform="translate(-338.809 -106.74)"/>
      <path id="Trazado_1038723" data-name="Trazado 1038723" d="M58.965,42.258l-.51-2.893a1.5,1.5,0,0,0-1.745-1.222l-2.912.513q-.165-.31-.352-.607l1.9-2.266a1.51,1.51,0,0,0-.186-2.123l-2.249-1.887a1.51,1.51,0,0,0-2.123.186l-1.9,2.265q-.325-.132-.661-.24V31.026a1.508,1.508,0,0,0-1.505-1.507H43.784a1.509,1.509,0,0,0-1.507,1.507v2.956c-.223.072-.442.152-.659.24l-1.9-2.265a1.508,1.508,0,0,0-2.122-.186l-2.25,1.887a1.506,1.506,0,0,0-.186,2.123l1.9,2.266q-.188.3-.351.607L33.8,38.143a1.506,1.506,0,0,0-1.746,1.222l-.135.761q-.411-.171-.832-.317l-3.04-3.171a13.683,13.683,0,0,0,4.9-6.786,5.244,5.244,0,0,0,.266-10.224V17.246h.824a1.515,1.515,0,0,0,1.514-1.513V6.579a4.334,4.334,0,0,0-2.108-3.716V2.007A1.65,1.65,0,0,0,31.648.5H13.2A9.509,9.509,0,0,0,7.848,2.04,4.972,4.972,0,0,0,5.455,6.106v9.436c0,1.272,1.22,2.282,2.819,2.375v1.85a5.243,5.243,0,0,0,.234,9.96,9.349,9.349,0,0,0,.627,1.752.871.871,0,1,0,1.575-.742c-1.075-2.277-.559-2.955-.7-9.531V17.926a27.221,27.221,0,0,0,16.123-4.817,4.337,4.337,0,0,0,4.329,4.138h1c0,11.558.127,11.221-.353,12.645a12.887,12.887,0,0,1-4.57,5.705h0a18.594,18.594,0,0,1-2.7,1.706,7.225,7.225,0,0,1-3.1,1.019c-1.716,0-5.69-2.1-8.221-4.923a.871.871,0,0,0-1.3,1.162A18.519,18.519,0,0,0,13.7,36.844l-2.86,2.983A16.278,16.278,0,0,0,0,55.153a4.24,4.24,0,0,0,4.236,4.235H37.71a4.245,4.245,0,0,0,4.034-2.942l.216.079a1.509,1.509,0,0,0,1.932-.9l1.011-2.78c.234.009.467.009.7,0l1.012,2.78a1.505,1.505,0,0,0,1.93.9l2.761-1a1.508,1.508,0,0,0,.9-1.932l-1.012-2.78q.277-.216.537-.45l2.562,1.479a1.506,1.506,0,0,0,2.058-.551l1.468-2.543a1.5,1.5,0,0,0-.551-2.058l-2.561-1.479c.049-.229.09-.46.121-.691L57.742,44a1.506,1.506,0,0,0,1.222-1.744ZM8.274,27.74a3.5,3.5,0,0,1,0-6.062Zm27.148-3.03a3.505,3.505,0,0,1-2.211,3.255c0-.073,0,.287,0-6.509A3.5,3.5,0,0,1,35.422,24.71ZM10.675,16.184c-2.283,0-2.227.006-2.4-.013C7.6,16.1,7.2,15.746,7.2,15.542V6.106c0-2.1,2.752-3.865,6.008-3.865,19.318,0,18.432,0,18.5,0v.93c0,4.093-8.886,13.1-21.025,13.011Zm19.791-.679a2.594,2.594,0,0,1-2.592-2.592V11.792C30,10.031,32.345,7.48,33.16,4.866a2.578,2.578,0,0,1,.649,1.713v8.927ZM26.835,37.892l2.923,3.05c-.023.075-2.544,8.018-2.579,8.128a.667.667,0,0,1-.856.118l-4.446-2.88,4.959-8.416ZM23.057,49.147v1.88a.386.386,0,0,1-.381.381H19.268a.386.386,0,0,1-.381-.381v-1.88l2.085-1.35ZM24.1,39.1c-.71,1.2-.76,1.286-3.127,5.306-2.449-4.159-2.365-4.014-2.965-5.031C20.283,40.305,21.451,40.357,24.1,39.1ZM13.992,39.06h0l1.119-1.167c.364.617,1.556,2.642,1.622,2.753h0s0,0,0,0,0,0,0,0,0,0,0,.008l.018.028h0l.012.02c.156.263.826,1.4,3.3,5.595-4.9,3.175-4.623,3.053-4.983,2.961a.567.567,0,0,1-.319-.2c-.613-1.929-2.292-7.222-2.579-8.128ZM16.5,57.647H9.989v-5.74a.871.871,0,0,0-1.741,0v5.74H4.236a2.5,2.5,0,0,1-2.495-2.494,14.532,14.532,0,0,1,8.884-13.375c2.67,8.388,2.5,7.925,2.582,8.076a2.388,2.388,0,0,0,3.363.8l.577-.374a2.657,2.657,0,0,0,.876,2.468Zm1.821,0,1.394-4.5H22.3l1.439,4.5Zm19.384,0H33.7v-5.74a.87.87,0,0,0-1.741,0v5.74H25.57L23.986,52.7a2.117,2.117,0,0,0,.813-1.668v-.752l.577.374A2.365,2.365,0,0,0,28.8,49.7l2.519-7.933c.095.039.189.081.283.123l-.065.368A1.508,1.508,0,0,0,32.764,44l2.773.49c.053.047.105.1.158.146.029.19.063.381.1.569l-2.562,1.479a1.507,1.507,0,0,0-.551,2.058l1.47,2.543a1.506,1.506,0,0,0,2.057.551l2.563-1.479c.173.157.353.306.536.45L38.3,53.59a1.506,1.506,0,0,0,.9,1.932l.905.329a2.5,2.5,0,0,1-2.395,1.8ZM53.88,42.916a.87.87,0,0,0-.717.8,8,8,0,0,1-.294,1.676.87.87,0,0,0,.4.995l2.926,1.69-1.234,2.137-2.928-1.69a.87.87,0,0,0-1.063.151,8.055,8.055,0,0,1-1.3,1.095.871.871,0,0,0-.333,1.02l1.156,3.176-2.318.844-1.156-3.176a.872.872,0,0,0-.911-.569,7.862,7.862,0,0,1-1.7,0,.874.874,0,0,0-.911.569l-1.156,3.176-2.32-.844.113-.309c.977-2.852,1.209-2.939,1.057-3.425-.168-.543-.585-.449-1.649-1.557a.866.866,0,0,0-.959-.2c-.084.032.087-.057-3.033,1.741l-1.233-2.137,2.925-1.69a.869.869,0,0,0,.4-.995,7.948,7.948,0,0,1-.294-1.676c-.056-.838-.951-.823-1.015-.852L33.3,42.328l0-.022c0,.009,0,.017,0,.021l0-.027v0l.425-2.4,3.327.587a.872.872,0,0,0,.948-.5,7.871,7.871,0,0,1,.851-1.473.87.87,0,0,0-.035-1.074l-2.173-2.59,1.89-1.587,2.173,2.589a.868.868,0,0,0,1.051.221,7.834,7.834,0,0,1,1.6-.581.869.869,0,0,0,.663-.846V31.26h2.468v3.379a.87.87,0,0,0,.662.846,7.819,7.819,0,0,1,1.6.581.87.87,0,0,0,1.052-.221l2.171-2.589,1.891,1.587-2.173,2.59a.87.87,0,0,0-.036,1.074,7.826,7.826,0,0,1,.852,1.473.873.873,0,0,0,.947.5L56.78,39.9l.428,2.431Zm0,0" transform="translate(0 0)"/>
      <path id="Trazado_1038724" data-name="Trazado 1038724" d="M338.66,308.809a7.048,7.048,0,1,0,7.048,7.047A7.056,7.056,0,0,0,338.66,308.809Zm0,12.354a5.306,5.306,0,1,1,5.307-5.307A5.313,5.313,0,0,1,338.66,321.163Zm0,0" transform="translate(-293.408 -272.788)"/>
      <path id="Trazado_1038725" data-name="Trazado 1038725" d="M359.723,340.7a3.809,3.809,0,1,0,6.5-2.694A3.789,3.789,0,0,0,359.723,340.7Zm3.809,2.07A2.069,2.069,0,1,1,365,339.24,2.073,2.073,0,0,1,363.532,342.773Zm0,0" transform="translate(-318.279 -297.635)"/>
      <path id="Trazado_1038726" data-name="Trazado 1038726" d="M221.7,200.3a1.374,1.374,0,1,0,1.374-1.373A1.374,1.374,0,0,0,221.7,200.3Zm0,0" transform="translate(-196.161 -175.569)"/>
      <path id="Trazado_1038727" data-name="Trazado 1038727" d="M214.928,163.666a.871.871,0,0,0,.928-1.474c-1.854-1.165-4.829-.59-5.162-.52a.87.87,0,0,0,.355,1.7,8.25,8.25,0,0,1,3.056-.03,2.649,2.649,0,0,1,.823.32Zm0,0" transform="translate(-185.806 -142.423)"/>
      <path id="Trazado_1038728" data-name="Trazado 1038728" d="M119.9,198.93a1.39,1.39,0,1,0,.065,0A.626.626,0,0,0,119.9,198.93Zm0,0" transform="translate(-104.868 -175.569)"/>
      <path id="Trazado_1038729" data-name="Trazado 1038729" d="M105.3,161.672c-.333-.07-3.31-.645-5.162.52a.872.872,0,0,0,.464,1.608c.464,0,.44-.26,1.288-.455a8.258,8.258,0,0,1,3.055.031.87.87,0,0,0,.356-1.7Zm0,0" transform="translate(-88.239 -142.423)"/>
      <path id="Trazado_1038730" data-name="Trazado 1038730" d="M156.8,251.386a1.773,1.773,0,0,1-3.545,0,.871.871,0,0,0-.87-.87c-1.834,0-.7,4.384,2.643,4.384,2.742,0,3.878-2.894,3.438-3.868A.871.871,0,0,0,156.8,251.386Zm0,0" transform="translate(-134.057 -221.211)"/>
    </g>
  </g>
</svg>
