<svg xmlns="http://www.w3.org/2000/svg" xmlns:xlink="http://www.w3.org/1999/xlink" width="116" height="116" viewBox="0 0 116 116">
  <defs>
    <filter id="Trazado_982547" x="0" y="0" width="116" height="116" filterUnits="userSpaceOnUse">
      <feOffset dy="3" input="SourceAlpha"/>
      <feGaussianBlur stdDeviation="3" result="blur"/>
      <feFlood flood-opacity="0.161"/>
      <feComposite operator="in" in2="blur"/>
      <feComposite in="SourceGraphic"/>
    </filter>
  </defs>
  <g id="Grupo_1178707" data-name="Grupo 1178707" transform="translate(-451.261 -664)">
    <g id="Grupo_1173429" data-name="Grupo 1173429" transform="translate(280.261 -776)">
      <g id="Grupo_1173175" data-name="Grupo 1173175" transform="translate(180 1446)">
        <g id="Grupo_1171932" data-name="Grupo 1171932" transform="translate(0 0)">
          <g id="Grupo_1167337" data-name="Grupo 1167337" transform="translate(0)">
            <g id="Grupo_1166720" data-name="Grupo 1166720">
              <g id="Grupo_1164305" data-name="Grupo 1164305">
                <g id="Grupo_1163948" data-name="Grupo 1163948">
                  <g id="Grupo_1158168" data-name="Grupo 1158168">
                    <g id="Grupo_1152576" data-name="Grupo 1152576">
                      <g id="Grupo_1148633" data-name="Grupo 1148633">
                        <g id="Grupo_1148525" data-name="Grupo 1148525">
                          <g transform="matrix(1, 0, 0, 1, -9, -6)" filter="url(#Trazado_982547)">
                            <g id="Trazado_982547-2" data-name="Trazado 982547" transform="translate(9 6)" fill="#f2f7e5">
                              <path d="M 48.99999618530273 96.5 C 42.58687591552734 96.5 36.36638259887695 95.24431610107422 30.51131629943848 92.767822265625 C 24.85522270202637 90.37550354003906 19.77522277832031 86.95037078857422 15.4124231338501 82.58757019042969 C 11.04962253570557 78.22476959228516 7.624489307403564 73.14476776123047 5.232169628143311 67.48867797851562 C 2.75567626953125 61.63360977172852 1.499996185302734 55.41311645507812 1.499996185302734 48.99999618530273 C 1.499996185302734 42.58687591552734 2.75567626953125 36.36638259887695 5.232169628143311 30.51131629943848 C 7.624489307403564 24.85522270202637 11.04962253570557 19.77522277832031 15.4124231338501 15.4124231338501 C 19.77522277832031 11.04962253570557 24.85522270202637 7.624489307403564 30.51131629943848 5.232169628143311 C 36.36638259887695 2.75567626953125 42.58687591552734 1.499996185302734 48.99999618530273 1.499996185302734 C 55.41311645507812 1.499996185302734 61.63360977172852 2.75567626953125 67.48867797851562 5.232169628143311 C 73.14476776123047 7.624489307403564 78.22476959228516 11.04962253570557 82.58757019042969 15.4124231338501 C 86.95037078857422 19.77522277832031 90.37550354003906 24.85522270202637 92.767822265625 30.51131629943848 C 95.24431610107422 36.36638259887695 96.5 42.58687591552734 96.5 48.99999618530273 C 96.5 55.41311645507812 95.24431610107422 61.63360977172852 92.767822265625 67.48867797851562 C 90.37550354003906 73.14476776123047 86.95037078857422 78.22476959228516 82.58757019042969 82.58757019042969 C 78.22476959228516 86.95037078857422 73.14476776123047 90.37550354003906 67.48867797851562 92.767822265625 C 61.63360977172852 95.24431610107422 55.41311645507812 96.5 48.99999618530273 96.5 Z" stroke="none"/>
                              <path d="M 48.99999618530273 2.999992370605469 C 42.78871917724609 2.999992370605469 36.76481246948242 4.215812683105469 31.09564208984375 6.613670349121094 C 25.61834716796875 8.930366516113281 20.6986083984375 12.24755096435547 16.47309112548828 16.47309112548828 C 12.24755096435547 20.6986083984375 8.930366516113281 25.61834716796875 6.613670349121094 31.09564208984375 C 4.215812683105469 36.76481246948242 2.999992370605469 42.78871917724609 2.999992370605469 48.99999618530273 C 2.999992370605469 55.21127319335938 4.215812683105469 61.23517990112305 6.613670349121094 66.90435028076172 C 8.930366516113281 72.38163757324219 12.24755096435547 77.30137634277344 16.47309112548828 81.52690124511719 C 20.6986083984375 85.75244140625 25.61834716796875 89.06962585449219 31.09564208984375 91.38632202148438 C 36.76481246948242 93.7841796875 42.78871917724609 95 48.99999618530273 95 C 55.21127319335938 95 61.23517990112305 93.7841796875 66.90435028076172 91.38632202148438 C 72.38163757324219 89.06962585449219 77.30137634277344 85.75244140625 81.52690124511719 81.52690124511719 C 85.75244140625 77.30137634277344 89.06962585449219 72.38163757324219 91.38632202148438 66.90435028076172 C 93.7841796875 61.23517990112305 95 55.21127319335938 95 48.99999618530273 C 95 42.78871917724609 93.7841796875 36.76481246948242 91.38632202148438 31.09564208984375 C 89.06962585449219 25.61834716796875 85.75244140625 20.6986083984375 81.52690124511719 16.47309112548828 C 77.30137634277344 12.24755096435547 72.38163757324219 8.930366516113281 66.90435028076172 6.613670349121094 C 61.23517990112305 4.215812683105469 55.21127319335938 2.999992370605469 48.99999618530273 2.999992370605469 M 48.99999618530273 -7.62939453125e-06 C 76.06195068359375 -7.62939453125e-06 98 21.93804168701172 98 48.99999618530273 C 98 76.06195068359375 76.06195068359375 98 48.99999618530273 98 C 21.93804168701172 98 -7.62939453125e-06 76.06195068359375 -7.62939453125e-06 48.99999618530273 C -7.62939453125e-06 21.93804168701172 21.93804168701172 -7.62939453125e-06 48.99999618530273 -7.62939453125e-06 Z" stroke="none" fill="#86b60c"/>
                            </g>
                          </g>
                        </g>
                      </g>
                    </g>
                  </g>
                </g>
              </g>
            </g>
          </g>
        </g>
      </g>
    </g>
    <g id="united" transform="translate(458.544 664.782)">
      <path id="Trazado_1038642" data-name="Trazado 1038642" d="M208.411,208.568l-23.3-23.3a3.731,3.731,0,1,1,5.276-5.276l-6-6a3.722,3.722,0,0,1-1.1-2.64,3.832,3.832,0,0,1,.048-.6,3.725,3.725,0,0,1,5.969-2.347l-2.283-2.283a3.732,3.732,0,0,1-1.1-2.643,3.564,3.564,0,0,1,.05-.607,3.732,3.732,0,0,1,6.324-2.028l2.615,2.615a3.731,3.731,0,1,1,5.276-5.276l15.141,15.142.043-.06a6.822,6.822,0,0,1,9.657.007l7.061,7.06a7.245,7.245,0,0,1,2.121,5.112l0,4.417a7.8,7.8,0,0,0,2.285,5.507l1.575,1.574-18.008,18.007-2.012-2.012a7.8,7.8,0,0,0-5-2.267A7.237,7.237,0,0,1,208.411,208.568Zm0,0" transform="translate(-145.474 -124.678)" fill="#fecbaa"/>
      <path id="Trazado_1038643" data-name="Trazado 1038643" d="M353.935,362.628l20.439-20.439a1.724,1.724,0,0,1,2.439,0l7.28,7.279a1.725,1.725,0,0,1,0,2.439l-20.44,20.44a1.726,1.726,0,0,1-2.439,0l-7.279-7.28a1.724,1.724,0,0,1,0-2.439Zm0,0" transform="translate(-280.506 -271.182)" fill="#fdd559"/>
      <path id="Trazado_1038644" data-name="Trazado 1038644" d="M92.826,208.579l23.3-23.3A3.731,3.731,0,1,0,110.849,180l6-6a3.728,3.728,0,0,0-4.921-5.584l2.283-2.283a3.73,3.73,0,0,0,1.1-2.642,3.557,3.557,0,0,0-.05-.607,3.717,3.717,0,0,0-3.087-3.076,3.731,3.731,0,0,0-3.237,1.047l-2.615,2.615a3.73,3.73,0,0,0,1.048-3.236,3.693,3.693,0,0,0-1.043-2.044,3.734,3.734,0,0,0-5.28,0L85.9,173.339l-.043-.06a6.822,6.822,0,0,0-9.657.007l-7.06,7.06a7.242,7.242,0,0,0-2.121,5.112l0,4.417a7.791,7.791,0,0,1-2.284,5.507l-1.575,1.574,18.007,18.007,2.013-2.012a7.8,7.8,0,0,1,5-2.267,7.244,7.244,0,0,0,4.646-2.107Zm0,0" transform="translate(-50.125 -124.686)" fill="#fecbaa"/>
      <path id="Trazado_1038645" data-name="Trazado 1038645" d="M38.158,362.637,17.718,342.2a1.724,1.724,0,0,0-2.439,0L8,349.476a1.725,1.725,0,0,0,0,2.439l20.44,20.439a1.724,1.724,0,0,0,2.439,0l7.28-7.279A1.725,1.725,0,0,0,38.158,362.637Zm0,0" transform="translate(-5.948 -271.189)" fill="#ff84a7"/>
      <path id="Trazado_1038646" data-name="Trazado 1038646" d="M187.007,86.867v32.95a3.731,3.731,0,1,1-7.462,0V128.3a3.728,3.728,0,0,1-7.428.468V132a3.73,3.73,0,0,1-1.094,2.643,3.5,3.5,0,0,1-.464.394A3.732,3.732,0,0,1,164.654,132v-3.7a3.731,3.731,0,1,1-7.461,0V106.888l-.073.013a6.824,6.824,0,0,1-6.823-6.834V90.082a7.247,7.247,0,0,1,2.115-5.116l3.12-3.126a7.8,7.8,0,0,0,2.278-5.51V74.105h25.467V76.95a7.8,7.8,0,0,0,1.935,5.142,7.238,7.238,0,0,1,1.8,4.775Zm0,0" transform="translate(-119.286 -58.815)" fill="#fedfc5"/>
      <path id="Trazado_1038647" data-name="Trazado 1038647" d="M179.689,180a3.734,3.734,0,0,0-5.28,0l6-6a3.728,3.728,0,0,0-4.921-5.584l2.283-2.283a3.729,3.729,0,0,0,1.1-2.642,3.48,3.48,0,0,0-.05-.607,3.732,3.732,0,0,0-6.323-2.029l-2.615,2.615A3.731,3.731,0,1,0,164.6,158.2L149.46,173.339l-.043-.06a6.8,6.8,0,0,0-6.179-1.857A10.012,10.012,0,0,0,148.5,175.4v18.775a6.834,6.834,0,0,0,8.159,6.7,6.838,6.838,0,0,0,3.958,3.475l19.071-19.072A3.73,3.73,0,0,0,179.689,180Zm0,0" transform="translate(-113.684 -124.686)" fill="#ffae85"/>
      <path id="Trazado_1038648" data-name="Trazado 1038648" d="M216.278,185.683V172.506a6.831,6.831,0,0,0-.912.766l-.042.06-15.142-15.142a3.734,3.734,0,0,0-5.28,0,3.734,3.734,0,0,0,0,5.28l-2.615-2.615a3.729,3.729,0,0,0-6.324,2.029,3.555,3.555,0,0,0-.049.607,3.727,3.727,0,0,0,1.1,2.642l2.283,2.283A3.729,3.729,0,0,0,184.376,174l6,6a3.73,3.73,0,1,0-5.275,5.276L200.71,200.88a6.851,6.851,0,0,0,1.282.12,6.765,6.765,0,0,0,3.993-1.292,6.824,6.824,0,0,0,2.832-5.54v-1.682q.316.029.636.029a6.837,6.837,0,0,0,6.825-6.832Zm0,0" transform="translate(-145.464 -124.68)" fill="#ffae85"/>
      <path id="Trazado_1038649" data-name="Trazado 1038649" d="M187.007,86.867v32.95a3.732,3.732,0,0,1-3.731,3.737c-.056,0-.115,0-.176,0a3.691,3.691,0,0,1-2-.7s0,0,0,0a3.729,3.729,0,0,1-1.547-3.029V128.3a3.728,3.728,0,0,1-7.428.468V132a3.73,3.73,0,0,1-1.094,2.643,3.5,3.5,0,0,1-.464.394A3.732,3.732,0,0,1,164.654,132v-3.7a3.731,3.731,0,1,1-7.461,0V106.888l-.073.013a6.824,6.824,0,0,1-6.823-6.834V90.082a7.247,7.247,0,0,1,2.115-5.116l3.12-3.126a7.811,7.811,0,0,0,2.278-5.51V74.105h25.467V76.95a7.029,7.029,0,0,0,.246,1.926,7.751,7.751,0,0,0,1.689,3.217,7.3,7.3,0,0,1,1.8,4.775Zm0,0" transform="translate(-119.286 -58.815)" fill="#fedfc5"/>
      <path id="Trazado_1038650" data-name="Trazado 1038650" d="M214.566,86.867v32.95a3.732,3.732,0,0,1-3.731,3.737c-.056,0-.115,0-.176,0a3.691,3.691,0,0,1-2-.7L208.72,91.1a4.864,4.864,0,0,0-.124-.881,14.352,14.352,0,0,0-14.357-11.582H185.02a7.769,7.769,0,0,0,.348-2.3V74.1h25.467V76.95a7.03,7.03,0,0,0,.246,1.925,7.75,7.75,0,0,0,1.689,3.217,7.3,7.3,0,0,1,1.8,4.775Zm0,0" transform="translate(-146.844 -58.814)" fill="#fecbaa"/>
      <path id="Trazado_1038651" data-name="Trazado 1038651" d="M200.329,21.244H171.423a1.725,1.725,0,0,1-1.724-1.725V9.225A1.725,1.725,0,0,1,171.423,7.5h28.907a1.725,1.725,0,0,1,1.724,1.725V19.519A1.725,1.725,0,0,1,200.329,21.244Zm0,0" transform="translate(-134.684 -5.952)" fill="#83d9ff"/>
      <path id="Trazado_1038652" data-name="Trazado 1038652" d="M203.211,447.767l-.31,1.516.3-1.518a1.547,1.547,0,1,0-.6,3.036l.028.006a1.578,1.578,0,0,0,.293.028,1.548,1.548,0,0,0,.289-3.068Zm0,0" transform="translate(-159.807 -355.353)"/>
      <path id="Trazado_1038653" data-name="Trazado 1038653" d="M262.342,450.264l.154,1.539-.159-1.539a1.548,1.548,0,0,0,.156,3.087c.053,0,.107,0,.16-.008l.043,0a1.548,1.548,0,0,0-.355-3.075Zm0,0" transform="translate(-207.106 -357.353)"/>
      <path id="Trazado_1038654" data-name="Trazado 1038654" d="M232.73,451.233h-.023a1.539,1.539,0,0,0-1.6,1.477,1.556,1.556,0,0,0,1.486,1.615c.024,0,.048,0,.072,0a1.548,1.548,0,0,0,.069-3.093Zm0,0" transform="translate(-183.418 -358.126)"/>
      <path id="Trazado_1038655" data-name="Trazado 1038655" d="M174.656,439.888l-.019-.007a1.539,1.539,0,0,0-1.97.936,1.552,1.552,0,1,0,1.989-.929Zm0,0" transform="translate(-136.968 -349.046)"/>
      <path id="Trazado_1038656" data-name="Trazado 1038656" d="M291.519,444.853l.381,1.5-.386-1.5a1.547,1.547,0,1,0,.772,3l.041-.011a1.548,1.548,0,0,0-.808-2.988Zm0,0" transform="translate(-230.443 -353.025)"/>
      <path id="Trazado_1038657" data-name="Trazado 1038657" d="M319.525,435.084l.613,1.42-.618-1.419a1.548,1.548,0,1,0,1.236,2.838l.038-.017a1.547,1.547,0,0,0-1.269-2.823Zm0,0" transform="translate(-252.855 -345.207)"/>
      <path id="Trazado_1038658" data-name="Trazado 1038658" d="M148.031,81.786a1.548,1.548,0,1,0-.723-2.914l-.019.01a1.545,1.545,0,0,0,.742,2.9Zm0,0" transform="translate(-116.255 -62.452)"/>
      <path id="Trazado_1038659" data-name="Trazado 1038659" d="M64.066,166.171a1.547,1.547,0,0,0,2.09-.652l.027-.054a1.548,1.548,0,1,0-2.117.706Zm0,0" transform="translate(-50.189 -129.553)"/>
      <path id="Trazado_1038660" data-name="Trazado 1038660" d="M52.648,194.016a1.545,1.545,0,0,0,1.962-.97l.02-.061a1.548,1.548,0,1,0-1.982,1.031Zm0,0" transform="translate(-40.95 -151.576)"/>
      <path id="Trazado_1038661" data-name="Trazado 1038661" d="M79.6,140.41a1.546,1.546,0,0,0,2.162-.341l.02-.027a1.547,1.547,0,0,0-2.518-1.8l1.247.917-1.252-.911A1.547,1.547,0,0,0,79.6,140.41Zm0,0" transform="translate(-62.671 -109.206)"/>
      <path id="Trazado_1038662" data-name="Trazado 1038662" d="M122.593,97.931a1.554,1.554,0,1,0-.9-2.812l-.039.028a1.549,1.549,0,0,0,.935,2.784Zm0,0" transform="translate(-96.069 -75.255)"/>
      <path id="Trazado_1038663" data-name="Trazado 1038663" d="M49.711,311.644a1.548,1.548,0,1,0-.02-.068Zm0,0" transform="translate(-39.395 -245.735)"/>
      <path id="Trazado_1038664" data-name="Trazado 1038664" d="M99.938,117.714a1.552,1.552,0,1,0-1.081-2.653l-.026.026a1.546,1.546,0,0,0,1.107,2.628Zm0,0" transform="translate(-78.089 -90.96)"/>
      <path id="Trazado_1038665" data-name="Trazado 1038665" d="M46.432,281.542a1.548,1.548,0,0,0-3.072.383l.009.062a1.547,1.547,0,0,0,3.063-.445Zm0,0" transform="translate(-34.405 -222.38)"/>
      <path id="Trazado_1038666" data-name="Trazado 1038666" d="M43.092,253.263h.047a1.547,1.547,0,0,0,1.546-1.5l0-.066a1.548,1.548,0,1,0-1.594,1.568Zm0,0" transform="translate(-33.01 -198.534)"/>
      <path id="Trazado_1038667" data-name="Trazado 1038667" d="M45.607,223.276a1.6,1.6,0,0,0,.275.024,1.549,1.549,0,0,0,1.522-1.275c0-.023.007-.045.01-.068a1.548,1.548,0,1,0-1.807,1.319Zm0,0" transform="translate(-35.185 -174.752)"/>
      <path id="Trazado_1038668" data-name="Trazado 1038668" d="M403.2,144.2a1.547,1.547,0,0,0,2.548-1.757l-1.286.861,1.282-.868a1.548,1.548,0,1,0-2.562,1.737Zm0,0" transform="translate(-319.78 -112.505)"/>
      <path id="Trazado_1038669" data-name="Trazado 1038669" d="M437.315,229.032a1.547,1.547,0,0,0-1.365,1.711l.008.067a1.548,1.548,0,0,0,1.531,1.328,1.579,1.579,0,0,0,.221-.015,1.558,1.558,0,0,0-.395-3.091Zm0,0" transform="translate(-345.992 -181.767)"/>
      <path id="Trazado_1038670" data-name="Trazado 1038670" d="M429.7,200.27l.006.02a1.548,1.548,0,0,0,1.484,1.111,1.523,1.523,0,0,0,.437-.064,1.547,1.547,0,0,0,1.049-1.921l-.006-.02a1.548,1.548,0,1,0-2.969.874Zm0,0" transform="translate(-340.99 -157.372)"/>
      <path id="Trazado_1038671" data-name="Trazado 1038671" d="M418.7,171.207a1.556,1.556,0,0,0,1.4.869,1.546,1.546,0,0,0,1.385-2.225l-1.4.654,1.4-.657a1.548,1.548,0,0,0-2.8,1.314Zm0,0" transform="translate(-332.175 -134.095)"/>
      <path id="Trazado_1038672" data-name="Trazado 1038672" d="M383.651,120a1.558,1.558,0,1,0-.047-.049Zm0,0" transform="translate(-304.129 -93.137)"/>
      <path id="Trazado_1038673" data-name="Trazado 1038673" d="M438.91,260.385a1.557,1.557,0,0,0-.132,3.111l.088,0a1.548,1.548,0,0,0,1.543-1.462l0-.064A1.545,1.545,0,0,0,438.91,260.385Zm0,0" transform="translate(-347.084 -206.658)"/>
      <path id="Trazado_1038674" data-name="Trazado 1038674" d="M334.357,82.175l.037.02a1.542,1.542,0,0,0,2.084-.636,1.552,1.552,0,0,0-.629-2.095l-.749,1.354.744-1.357a1.547,1.547,0,1,0-1.488,2.714Zm0,0" transform="translate(-264.73 -62.914)"/>
      <path id="Trazado_1038675" data-name="Trazado 1038675" d="M360.487,99.121l.024.019a1.548,1.548,0,0,0,1.871-2.466l-.01-.007a1.547,1.547,0,1,0-1.884,2.455Zm0,0" transform="translate(-285.627 -76.466)"/>
      <path id="Trazado_1038676" data-name="Trazado 1038676" d="M104.687,77.154l-7.264-7.277a3.268,3.268,0,0,0-4.627,0l-.168.168-.477-.477A6.246,6.246,0,0,1,90.8,67.541a1.508,1.508,0,0,0-.11-.287,6.258,6.258,0,0,1-.36-2.1V63.094a1.559,1.559,0,1,0-.01-2.751,8.724,8.724,0,0,0-2.557-5.819l-7.048-7.06a8.362,8.362,0,0,0-10.692-.96l-.748-.752v-17.7a8.787,8.787,0,0,0-2.18-5.8,6.245,6.245,0,0,1-1.551-4.122v-1.3h.106a3.276,3.276,0,0,0,3.272-3.272V3.273A3.276,3.276,0,0,0,65.645,0H36.738a3.276,3.276,0,0,0-3.272,3.272V13.567a3.276,3.276,0,0,0,3.272,3.272h.239v.679a6.209,6.209,0,0,1-1.826,4.416l-3.12,3.126a8.731,8.731,0,0,0-2.567,6.209v9.984a8.344,8.344,0,0,0,.9,3.772,8.31,8.31,0,0,0-5.43,2.441l-7.048,7.06a8.732,8.732,0,0,0-2.567,6.209v4.42a6.208,6.208,0,0,1-1.826,4.416l-.472.472-.006,0-.168-.168a3.268,3.268,0,0,0-4.627,0L.955,77.154a3.281,3.281,0,0,0,0,4.628l2.488,2.491a1.547,1.547,0,1,0,2.19-2.187L3.145,79.595a.18.18,0,0,1,0-.254l7.265-7.277a.173.173,0,0,1,.246,0l1.263,1.265h0L29.166,90.6,31.1,92.541a.179.179,0,0,1,0,.254l-7.264,7.277a.174.174,0,0,1-.247,0l-13.573-13.6a1.548,1.548,0,1,0-2.191,2.187l13.574,13.6a3.268,3.268,0,0,0,4.627,0l7.264-7.277a3.28,3.28,0,0,0,0-4.627l-.079-.079.916-.918a6.218,6.218,0,0,1,4-1.815,8.756,8.756,0,0,0,5.635-2.555L50.438,78.3a5.3,5.3,0,0,0,3.83-4.036,5.276,5.276,0,0,0,7.54-4.775V65.813A5.274,5.274,0,0,0,69.269,61V50.14l4.76,4.784a1.548,1.548,0,0,0,2.194-2.183l-3.969-3.988a5.271,5.271,0,0,1,6.265.9l7.048,7.059a5.657,5.657,0,0,1,1.663,4.022v4.42a9.285,9.285,0,0,0,2.73,6.6l.48.481-2.245,2.249-13.576,13.6-.757-.758-.023-.023-.133-.134a9.317,9.317,0,0,0-5.993-2.716,5.675,5.675,0,0,1-3.65-1.656L58.979,77.74A1.547,1.547,0,1,0,56.8,79.933l5.082,5.054a8.757,8.757,0,0,0,5.635,2.555,6.221,6.221,0,0,1,4,1.814l.075.075a1.487,1.487,0,0,0,.128.129l.713.714-.079.08a3.28,3.28,0,0,0,0,4.627l7.264,7.277a3.269,3.269,0,0,0,4.628,0l20.441-20.477a3.28,3.28,0,0,0,0-4.627ZM91.362,61.766l-.029,0-.282-.057ZM41.573,82.8a5.664,5.664,0,0,1-3.644,1.653,9.318,9.318,0,0,0-5.993,2.716l-.913.915-.822-.824-.031-.031L15.2,72.236l.48-.481a9.285,9.285,0,0,0,2.73-6.6v-4.42a5.654,5.654,0,0,1,1.663-4.022l7.048-7.059a5.27,5.27,0,0,1,6.273-.895l-3.975,3.982a1.548,1.548,0,0,0,2.191,2.187l4.748-4.757v19.32a5.277,5.277,0,0,0,7.569,4.761,5.3,5.3,0,0,0,2.623,3.563ZM66.174,61a2.183,2.183,0,1,1-4.367,0V43.742a1.548,1.548,0,1,0-3.1,0V69.488a2.182,2.182,0,0,1-4.335.362V43.724a1.564,1.564,0,0,0-3.127.018V69.488a5.3,5.3,0,0,0,.032.58v3.118a2.183,2.183,0,1,1-4.366,0V43.706a1.548,1.548,0,0,0-3.1,0V69.488a2.183,2.183,0,1,1-4.366,0V40.7a1.547,1.547,0,1,0-3.095,0v5.324a1.52,1.52,0,0,0-.372.178,5.3,5.3,0,0,1-3.429-4.953V31.268a5.657,5.657,0,0,1,1.663-4.022l3.12-3.126a9.282,9.282,0,0,0,2.731-6.6v-.679h3.111a1.547,1.547,0,0,0,0-3.095H36.738a.177.177,0,0,1-.177-.177V3.272a.177.177,0,0,1,.177-.177H65.644a.177.177,0,0,1,.177.177V13.566a.177.177,0,0,1-.177.177h-15.2a1.547,1.547,0,1,0,0,3.095h12v1.3A9.344,9.344,0,0,0,64.762,24.3a5.689,5.689,0,0,1,1.413,3.753ZM102.5,79.595,82.055,100.072a.166.166,0,0,1-.123.052.168.168,0,0,1-.123-.052l-7.264-7.277a.179.179,0,0,1,0-.254l1.169-1.172h0L87.581,79.481l7.4-7.418a.173.173,0,0,1,.246,0l7.265,7.277A.18.18,0,0,1,102.5,79.595Zm0,0" transform="translate(0 0)"/>
      <path id="Trazado_1038677" data-name="Trazado 1038677" d="M195.464,32.8a1.651,1.651,0,1,0,1.648,1.651A1.651,1.651,0,0,0,195.464,32.8Zm0,0" transform="translate(-153.826 -26.036)"/>
      <path id="Trazado_1038678" data-name="Trazado 1038678" d="M457.062,374.688a1.651,1.651,0,1,0,1.647,1.651A1.651,1.651,0,0,0,457.062,374.688Zm0,0" transform="translate(-361.447 -297.377)"/>
      <path id="Trazado_1038679" data-name="Trazado 1038679" d="M112.307,444.854a1.648,1.648,0,1,0-1.647,1.651A1.651,1.651,0,0,0,112.307,444.854Zm0,0" transform="translate(-86.519 -351.755)"/>
    </g>
  </g>
</svg>
