<svg xmlns="http://www.w3.org/2000/svg" xmlns:xlink="http://www.w3.org/1999/xlink" width="110" height="110" viewBox="0 0 110 110">
  <defs>
    <filter id="Trazado_982547" x="0" y="0" width="110" height="110" filterUnits="userSpaceOnUse">
      <feOffset dy="3" input="SourceAlpha"/>
      <feGaussianBlur stdDeviation="3" result="blur"/>
      <feFlood flood-opacity="0.161"/>
      <feComposite operator="in" in2="blur"/>
      <feComposite in="SourceGraphic"/>
    </filter>
  </defs>
  <g id="Grupo_1178658" data-name="Grupo 1178658" transform="translate(884 -5024)">
    <g id="Grupo_1176400" data-name="Grupo 1176400" transform="translate(-1576.461 -10034)">
      <g id="Grupo_1173148" data-name="Grupo 1173148" transform="translate(701.461 15064)">
        <g id="Grupo_1163803" data-name="Grupo 1163803" transform="translate(0 0)">
          <g id="Grupo_1163015" data-name="Grupo 1163015">
            <g id="Grupo_1157017" data-name="Grupo 1157017" transform="translate(0 0)">
              <g id="Grupo_1155793" data-name="Grupo 1155793" transform="translate(0 0)">
                <g id="Grupo_1154704" data-name="Grupo 1154704">
                  <g id="Grupo_1150790" data-name="Grupo 1150790">
                    <g id="Grupo_1154214" data-name="Grupo 1154214">
                      <g id="Grupo_1152583" data-name="Grupo 1152583">
                        <g id="Grupo_1146973" data-name="Grupo 1146973" transform="translate(0 0)">
                          <g id="Grupo_1146954" data-name="Grupo 1146954">
                            <g transform="matrix(1, 0, 0, 1, -9, -6)" filter="url(#Trazado_982547)">
                              <g id="Trazado_982547-2" data-name="Trazado 982547" transform="translate(9 6)" fill="#f2f7e5">
                                <path d="M 46.00000381469727 90.49988555908203 C 39.99188232421875 90.49988555908203 34.16427230834961 89.32352447509766 28.67905807495117 87.00347137451172 C 23.38020324707031 84.76226043701172 18.62103080749512 81.55342864990234 14.53375053405762 77.46615600585938 C 10.44645690917969 73.37887573242188 7.237643718719482 68.61971282958984 4.996417045593262 63.32085800170898 C 2.676363706588745 57.83565902709961 1.500003814697266 52.00806045532227 1.500003814697266 45.99993896484375 C 1.500003814697266 39.99181747436523 2.676363706588745 34.16421890258789 4.996417045593262 28.67901802062988 C 7.237643718719482 23.38017845153809 10.44645690917969 18.62101936340332 14.53375053405762 14.53373908996582 C 18.62103080749512 10.44645881652832 23.38020324707031 7.237632274627686 28.67905807495117 4.996418952941895 C 34.16427230834961 2.676365613937378 39.99188232421875 1.500005602836609 46.00000381469727 1.500005602836609 C 52.00812530517578 1.500005602836609 57.83573532104492 2.676365613937378 63.32094955444336 4.996418952941895 C 68.61980438232422 7.237632274627686 73.37896728515625 10.44645881652832 77.46625518798828 14.53373908996582 C 81.55353546142578 18.62101936340332 84.76236724853516 23.38017845153809 87.00359344482422 28.67901802062988 C 89.32364654541016 34.16421890258789 90.5 39.99181747436523 90.5 45.99993896484375 C 90.5 52.00806045532227 89.32364654541016 57.83565902709961 87.00359344482422 63.32085800170898 C 84.76236724853516 68.61971282958984 81.55353546142578 73.37887573242188 77.46625518798828 77.46615600585938 C 73.37896728515625 81.55342864990234 68.61980438232422 84.76226043701172 63.32094955444336 87.00347137451172 C 57.83573532104492 89.32352447509766 52.00812530517578 90.49988555908203 46.00000381469727 90.49988555908203 Z" stroke="none"/>
                                <path d="M 46.00000381469727 2.999992370605469 C 40.19371795654297 2.999992370605469 34.56270217895508 4.136497497558594 29.26338958740234 6.377906799316406 C 24.14333343505859 8.543510437011719 19.54441833496094 11.64437866210938 15.59440612792969 15.59439849853516 C 11.64440155029297 19.54439544677734 8.54351806640625 24.14329528808594 6.377914428710938 29.26335144042969 C 4.136505126953125 34.56266784667969 3.000007629394531 40.19366836547852 3.000007629394531 45.99993896484375 C 3.000007629394531 51.80620956420898 4.136505126953125 57.43722534179688 6.377914428710938 62.73654174804688 C 8.54351806640625 67.85658264160156 11.64440155029297 72.45548248291016 15.59440612792969 76.40549468994141 C 19.54441833496094 80.35549926757812 24.14333343505859 83.45636749267578 29.26337432861328 85.62196350097656 C 34.56270217895508 87.86338043212891 40.19371795654297 88.9998779296875 46.00000381469727 88.9998779296875 C 51.80628967285156 88.9998779296875 57.43730545043945 87.86338043212891 62.73663330078125 85.62196350097656 C 67.85667419433594 83.45636749267578 72.45558929443359 80.35549926757812 76.40560150146484 76.40549468994141 C 80.35560607910156 72.45548248291016 83.45648956298828 67.85658264160156 85.62208557128906 62.73654174804688 C 87.86350250244141 57.43722534179688 89 51.80620956420898 89 45.99993896484375 C 89 40.19366836547852 87.86350250244141 34.56266784667969 85.62208557128906 29.26335144042969 C 83.45648956298828 24.14329528808594 80.35560607910156 19.54439544677734 76.40560150146484 15.59439849853516 C 72.45558929443359 11.64437866210938 67.85667419433594 8.543510437011719 62.73661804199219 6.377906799316406 C 57.43730545043945 4.136497497558594 51.80628967285156 2.999992370605469 46.00000381469727 2.999992370605469 M 46.00000381469727 -7.62939453125e-06 C 71.40510559082031 -7.62939453125e-06 92 20.59487915039062 92 45.99993896484375 C 92 71.40501403808594 71.40510559082031 91.99988555908203 46.00000381469727 91.99988555908203 C 20.59490203857422 91.99988555908203 7.62939453125e-06 71.40501403808594 7.62939453125e-06 45.99993896484375 C 7.62939453125e-06 20.59487915039062 20.59490203857422 -7.62939453125e-06 46.00000381469727 -7.62939453125e-06 Z" stroke="none" fill="#86b60c"/>
                              </g>
                            </g>
                          </g>
                        </g>
                      </g>
                    </g>
                  </g>
                </g>
              </g>
            </g>
          </g>
        </g>
      </g>
    </g>
    <g id="crm" transform="translate(-863.336 5046.001)">
      <g id="Grupo_1178657" data-name="Grupo 1178657" transform="translate(8.179 7.312)">
        <g id="Grupo_1178653" data-name="Grupo 1178653" transform="translate(4.931)">
          <path id="Trazado_1038151" data-name="Trazado 1038151" d="M58.723,149.722H75.351v-3.984a7.094,7.094,0,0,0-7.073-7.073H65.8a7.094,7.094,0,0,0-7.073,7.073v3.984Z" transform="translate(-58.723 -129.509)" fill="#ffd54f" fill-rule="evenodd"/>
          <ellipse id="Elipse_12293" data-name="Elipse 12293" cx="5.007" cy="4.945" rx="5.007" ry="4.945" transform="translate(3.307)" fill="#fedfc5"/>
        </g>
        <g id="Grupo_1178654" data-name="Grupo 1178654" transform="translate(32.636)">
          <path id="Trazado_1038152" data-name="Trazado 1038152" d="M305.293,149.722h16.628v-3.984a7.094,7.094,0,0,0-7.073-7.073h-2.481a7.094,7.094,0,0,0-7.073,7.073Z" transform="translate(-305.293 -129.509)" fill="#6ce75a" fill-rule="evenodd"/>
          <ellipse id="Elipse_12294" data-name="Elipse 12294" cx="5.007" cy="4.945" rx="5.007" ry="4.945" transform="translate(3.307)" fill="#fedfc5"/>
        </g>
        <g id="Grupo_1178655" data-name="Grupo 1178655" transform="translate(18.783 3.65)">
          <path id="Trazado_1038153" data-name="Trazado 1038153" d="M182.008,182.2h16.628v-3.984a7.094,7.094,0,0,0-7.073-7.073h-2.481a7.094,7.094,0,0,0-7.073,7.073V182.2Z" transform="translate(-182.008 -161.989)" fill="#43a2ff" fill-rule="evenodd"/>
          <ellipse id="Elipse_12295" data-name="Elipse 12295" cx="5.007" cy="4.945" rx="5.007" ry="4.945" transform="translate(3.307)" fill="#fedfc5"/>
        </g>
        <g id="Grupo_1178656" data-name="Grupo 1178656" transform="translate(0 15.277)">
          <path id="Trazado_1038154" data-name="Trazado 1038154" d="M76.222,233.179l6.471-5.149c-1.963-1.845-7.081-2.7-9.672-1.966-6.494,1.849-9.928,2.013-15.911-.807l-6.97,15.968c5.839-.95,10.1,3.93,11.819,5.7l8.769,8.986a2.1,2.1,0,1,0,2.964-2.964l1.186,1.186a2.569,2.569,0,0,0,3.634-3.634l.707.707a2.57,2.57,0,0,0,3.634-3.634l.48.479a2.569,2.569,0,0,0,3.634-3.634Z" transform="translate(-46.175 -221.649)" fill="#fedfc5" fill-rule="evenodd"/>
          <path id="Trazado_1038155" data-name="Trazado 1038155" d="M210.41,315.542a.985.985,0,1,1,1.413-1.374l6.523,6.658a.982.982,0,0,1,.245.431l1.728,1.811a2.6,2.6,0,0,1,0,3.634,2.548,2.548,0,0,1-1.151.662,2.62,2.62,0,0,0-.407-3.1ZM207.044,331.6l-4.981-5.147a.985.985,0,0,0-1.413,1.374l4.836,4.967a2.1,2.1,0,0,1,.423,2.355,2.1,2.1,0,0,0,1.135-3.549Zm4.82-2.448L206.883,324a.985.985,0,1,0-1.413,1.374l4.836,4.967a2.58,2.58,0,0,1,.408,3.1,2.547,2.547,0,0,0,1.15-.662A2.578,2.578,0,0,0,211.864,329.15Zm4.341-2.927c.079.079-3.313-3.438-4.981-5.147a.985.985,0,0,0-1.413,1.374l4.836,4.967a2.579,2.579,0,0,1,.408,3.1,2.548,2.548,0,0,0,1.15-.662A2.578,2.578,0,0,0,216.2,326.224Z" transform="translate(-179.525 -300.305)" fill="#fecbaa" fill-rule="evenodd"/>
          <path id="Trazado_1038156" data-name="Trazado 1038156" d="M14.84,193.608a23.574,23.574,0,0,1,14.208,1.6L22.286,214.73H14.84Z" transform="translate(-14.84 -193.147)" fill="#43a2ff" fill-rule="evenodd"/>
          <path id="Trazado_1038157" data-name="Trazado 1038157" d="M212.274,216.294l3.339,15.681c-3.737,0-5.992,1.863-9.007,3.094a3.657,3.657,0,0,1-4.038-.813l-9.824-9.818c-.735.655-2.773,1.934-2.773,4.109,0,3.29-3.322,5.353-6.613,5.353v-8.554a3.6,3.6,0,0,1,1.172-2.712l4.507-4.238a7.266,7.266,0,0,1,7.138-1.737C200.758,217.964,204.313,220.046,212.274,216.294Z" transform="translate(-164.423 -213.693)" fill="#ffb98d" fill-rule="evenodd"/>
          <path id="Trazado_1038158" data-name="Trazado 1038158" d="M384.921,193.608a23.574,23.574,0,0,0-14.208,1.6l6.762,19.526h7.446V193.608Z" transform="translate(-330.726 -193.147)" fill="#ffd54f" fill-rule="evenodd"/>
        </g>
      </g>
      <path id="Trazado_1038159" data-name="Trazado 1038159" d="M39.333,7.2,41.58,3.3a.843.843,0,0,1,1.459.843L40.792,8.038A.843.843,0,0,1,39.333,7.2ZM27.514,4.147A.843.843,0,1,1,28.974,3.3L31.22,7.2a.843.843,0,0,1-1.46.843Zm6.919,2.187V1.842a.843.843,0,1,1,1.686,0V6.335a.843.843,0,0,1-1.686,0Zm27.1,36.995h-6l-6.3-18.205a22.78,22.78,0,0,1,12.309-1.373V43.329Zm-9.144-1.245c.258-.13.522-.263.789-.393l-4.69-13.542A19.462,19.462,0,0,1,41.455,26.9c-.57-.18-1.16-.367-1.754-.536a6.464,6.464,0,0,0-6.33,1.54l-4.507,4.238a2.743,2.743,0,0,0-.907,2.1V41.9a6.706,6.706,0,0,0,3.193-1.226,4,4,0,0,0,1.734-3.235c0-2.264,1.755-3.681,2.7-4.442.144-.116.268-.216.359-.3a.842.842,0,0,1,1.156.033l9.824,9.817a2.8,2.8,0,0,0,3.124.63C50.857,42.853,51.635,42.462,52.388,42.084Zm-4.011,6.307a1.729,1.729,0,0,1-2.442,0l-5.357-5.478a.843.843,0,1,0-1.206,1.178L44.256,49.1l0,0,0,0a1.727,1.727,0,0,1-2.441,2.443l-5.585-5.706a.843.843,0,0,0-1.207,1.178l4.886,5s0,0,0,0l0,0,0,0a1.728,1.728,0,0,1,0,2.438,1.736,1.736,0,0,1-2.442,0l-6.064-6.184a.842.842,0,1,0-1.206,1.177L35.1,54.471l0,0a.008.008,0,0,0,0,0,1.254,1.254,0,0,1-.9,2.14H34.2a1.208,1.208,0,0,1-.863-.36l-8.769-8.986q-.153-.157-.331-.344a19.259,19.259,0,0,0-6.926-5.048l4.707-13.591a16.476,16.476,0,0,0,5.346.912,18.7,18.7,0,0,0,2.335-.155l-1.989,1.87a4.463,4.463,0,0,0-1.438,3.325V42.8a.843.843,0,0,0,.843.843c3.665,0,7.455-2.317,7.455-6.2a4.108,4.108,0,0,1,1.877-2.972l9.282,9.277a4.617,4.617,0,0,0,1.51,1.012l1.125,1.176a1.746,1.746,0,0,1,.014,2.455ZM15.025,43.329l6.3-18.205A22.772,22.772,0,0,0,9.022,23.751V43.329Zm3.827-25.874a5.89,5.89,0,0,0,5.143,0A6.262,6.262,0,0,1,28.549,21.5c-.189.182-.37.372-.542.573a7.913,7.913,0,0,0-1.888,5.119v.273a15.45,15.45,0,0,1-3.551-.768l.614-1.774a.842.842,0,0,0-.466-1.051A25.721,25.721,0,0,0,14.205,21.8a6.306,6.306,0,0,1,4.647-4.342Zm2.572-9.3a4.1,4.1,0,1,1-4.164,4.1A4.139,4.139,0,0,1,21.424,8.155ZM35.276,11.8a4.1,4.1,0,1,1-4.164,4.1A4.138,4.138,0,0,1,35.276,11.8Zm-3.06,14.874-.271.254a21.666,21.666,0,0,1-4.141.579v-.321A6.221,6.221,0,0,1,32.7,21.1a5.9,5.9,0,0,0,5.145,0A6.222,6.222,0,0,1,42.5,25.467l-.541-.171c-.582-.184-1.183-.375-1.8-.551a8.113,8.113,0,0,0-7.945,1.933Zm14.341-9.224a6.262,6.262,0,0,0-4.55,4.033A7.9,7.9,0,0,1,44.342,26a14.183,14.183,0,0,0,3.566.479l-.538-1.554a.843.843,0,0,1,.465-1.051A25.722,25.722,0,0,1,56.349,21.8,6.308,6.308,0,0,0,51.7,17.455a5.89,5.89,0,0,1-5.143,0Zm2.572-9.3a4.1,4.1,0,1,1-4.164,4.1A4.139,4.139,0,0,1,49.129,8.155Zm13.409,14.07a23.71,23.71,0,0,0-4.462-.473,8.024,8.024,0,0,0-4.7-5.525,5.732,5.732,0,0,0,1.6-3.969,5.85,5.85,0,0,0-11.7,0,5.734,5.734,0,0,0,1.595,3.966,7.961,7.961,0,0,0-4.256,4.194,7.959,7.959,0,0,0-1.085-.546,5.734,5.734,0,0,0,1.594-3.965,5.85,5.85,0,0,0-11.7,0,5.733,5.733,0,0,0,1.6,3.967,7.968,7.968,0,0,0-1.084.553,7.957,7.957,0,0,0-4.261-4.2,5.735,5.735,0,0,0,1.6-3.966,5.85,5.85,0,0,0-11.7,0,5.731,5.731,0,0,0,1.6,3.969,8.026,8.026,0,0,0-4.7,5.525,23.722,23.722,0,0,0-4.462.473.843.843,0,0,0-.677.826V44.171a.843.843,0,0,0,.843.843h7.446a.843.843,0,0,0,.8-.567l.337-.975A17.872,17.872,0,0,1,23.021,48.1c.122.128.237.246.341.354l8.769,8.986a2.878,2.878,0,0,0,2.058.869h.019a2.941,2.941,0,0,0,2.817-2.079A3.41,3.41,0,0,0,42.094,53.6a3.405,3.405,0,0,0,4.352-3.094,3.408,3.408,0,0,0,3.345-5.5,4.685,4.685,0,0,0,.889-.266c.876-.357,1.683-.763,2.464-1.155l.589-.294.4,1.153a.842.842,0,0,0,.8.567h7.447a.842.842,0,0,0,.843-.843V23.051a.846.846,0,0,0-.679-.826Z" transform="translate(0 0)" fill-rule="evenodd"/>
    </g>
  </g>
</svg>
