<svg xmlns="http://www.w3.org/2000/svg" xmlns:xlink="http://www.w3.org/1999/xlink" width="110" height="110" viewBox="0 0 110 110">
  <defs>
    <filter id="Trazado_982547" x="0" y="0" width="110" height="110" filterUnits="userSpaceOnUse">
      <feOffset dy="3" input="SourceAlpha"/>
      <feGaussianBlur stdDeviation="3" result="blur"/>
      <feFlood flood-opacity="0.161"/>
      <feComposite operator="in" in2="blur"/>
      <feComposite in="SourceGraphic"/>
    </filter>
  </defs>
  <g id="Grupo_1178745" data-name="Grupo 1178745" transform="translate(-377.461 -2944)">
    <g id="Grupo_1177562" data-name="Grupo 1177562" transform="translate(0 -12113)">
      <g id="Grupo_1173147" data-name="Grupo 1173147" transform="translate(386.461 15063)">
        <g id="Grupo_1163801" data-name="Grupo 1163801" transform="translate(0 0)">
          <g id="Grupo_1163014" data-name="Grupo 1163014">
            <g id="Grupo_1157015" data-name="Grupo 1157015" transform="translate(0 0)">
              <g id="Grupo_1155792" data-name="Grupo 1155792" transform="translate(0 0)">
                <g id="Grupo_1154703" data-name="Grupo 1154703">
                  <g id="Grupo_1150789" data-name="Grupo 1150789">
                    <g id="Grupo_1154212" data-name="Grupo 1154212">
                      <g id="Grupo_1152583" data-name="Grupo 1152583">
                        <g id="Grupo_1146973" data-name="Grupo 1146973" transform="translate(0 0)">
                          <g id="Grupo_1146954" data-name="Grupo 1146954">
                            <g transform="matrix(1, 0, 0, 1, -9, -6)" filter="url(#Trazado_982547)">
                              <g id="Trazado_982547-2" data-name="Trazado 982547" transform="translate(9 6)" fill="#f2f7e5">
                                <path d="M 46.00000381469727 90.49988555908203 C 39.99188232421875 90.49988555908203 34.16427230834961 89.32352447509766 28.67905807495117 87.00347137451172 C 23.38020324707031 84.76226043701172 18.62103080749512 81.55342864990234 14.53375053405762 77.46615600585938 C 10.44645690917969 73.37887573242188 7.237643718719482 68.61971282958984 4.996417045593262 63.32085800170898 C 2.676363706588745 57.83565902709961 1.500003814697266 52.00806045532227 1.500003814697266 45.99993896484375 C 1.500003814697266 39.99181747436523 2.676363706588745 34.16421890258789 4.996417045593262 28.67901802062988 C 7.237643718719482 23.38017845153809 10.44645690917969 18.62101936340332 14.53375053405762 14.53373908996582 C 18.62103080749512 10.44645881652832 23.38020324707031 7.237632274627686 28.67905807495117 4.996418952941895 C 34.16427230834961 2.676365613937378 39.99188232421875 1.500005602836609 46.00000381469727 1.500005602836609 C 52.00812530517578 1.500005602836609 57.83573532104492 2.676365613937378 63.32094955444336 4.996418952941895 C 68.61980438232422 7.237632274627686 73.37896728515625 10.44645881652832 77.46625518798828 14.53373908996582 C 81.55353546142578 18.62101936340332 84.76236724853516 23.38017845153809 87.00359344482422 28.67901802062988 C 89.32364654541016 34.16421890258789 90.5 39.99181747436523 90.5 45.99993896484375 C 90.5 52.00806045532227 89.32364654541016 57.83565902709961 87.00359344482422 63.32085800170898 C 84.76236724853516 68.61971282958984 81.55353546142578 73.37887573242188 77.46625518798828 77.46615600585938 C 73.37896728515625 81.55342864990234 68.61980438232422 84.76226043701172 63.32094955444336 87.00347137451172 C 57.83573532104492 89.32352447509766 52.00812530517578 90.49988555908203 46.00000381469727 90.49988555908203 Z" stroke="none"/>
                                <path d="M 46.00000381469727 2.999992370605469 C 40.19371795654297 2.999992370605469 34.56270217895508 4.136497497558594 29.26338958740234 6.377906799316406 C 24.14333343505859 8.543510437011719 19.54441833496094 11.64437866210938 15.59440612792969 15.59439849853516 C 11.64440155029297 19.54439544677734 8.54351806640625 24.14329528808594 6.377914428710938 29.26335144042969 C 4.136505126953125 34.56266784667969 3.000007629394531 40.19366836547852 3.000007629394531 45.99993896484375 C 3.000007629394531 51.80620956420898 4.136505126953125 57.43722534179688 6.377914428710938 62.73654174804688 C 8.54351806640625 67.85658264160156 11.64440155029297 72.45548248291016 15.59440612792969 76.40549468994141 C 19.54441833496094 80.35549926757812 24.14333343505859 83.45636749267578 29.26337432861328 85.62196350097656 C 34.56270217895508 87.86338043212891 40.19371795654297 88.9998779296875 46.00000381469727 88.9998779296875 C 51.80628967285156 88.9998779296875 57.43730545043945 87.86338043212891 62.73663330078125 85.62196350097656 C 67.85667419433594 83.45636749267578 72.45558929443359 80.35549926757812 76.40560150146484 76.40549468994141 C 80.35560607910156 72.45548248291016 83.45648956298828 67.85658264160156 85.62208557128906 62.73654174804688 C 87.86350250244141 57.43722534179688 89 51.80620956420898 89 45.99993896484375 C 89 40.19366836547852 87.86350250244141 34.56266784667969 85.62208557128906 29.26335144042969 C 83.45648956298828 24.14329528808594 80.35560607910156 19.54439544677734 76.40560150146484 15.59439849853516 C 72.45558929443359 11.64437866210938 67.85667419433594 8.543510437011719 62.73661804199219 6.377906799316406 C 57.43730545043945 4.136497497558594 51.80628967285156 2.999992370605469 46.00000381469727 2.999992370605469 M 46.00000381469727 -7.62939453125e-06 C 71.40510559082031 -7.62939453125e-06 92 20.59487915039062 92 45.99993896484375 C 92 71.40501403808594 71.40510559082031 91.99988555908203 46.00000381469727 91.99988555908203 C 20.59490203857422 91.99988555908203 7.62939453125e-06 71.40501403808594 7.62939453125e-06 45.99993896484375 C 7.62939453125e-06 20.59487915039062 20.59490203857422 -7.62939453125e-06 46.00000381469727 -7.62939453125e-06 Z" stroke="none" fill="#86b60c"/>
                              </g>
                            </g>
                          </g>
                        </g>
                      </g>
                    </g>
                  </g>
                </g>
              </g>
            </g>
          </g>
        </g>
      </g>
    </g>
    <g id="company-department_14753019" transform="translate(395.961 2924.508)">
      <g id="Grupo_1178737" data-name="Grupo 1178737" transform="translate(7.5 46.492)">
        <g id="Grupo_1178736" data-name="Grupo 1178736" transform="translate(0 0)">
          <g id="Grupo_1178728" data-name="Grupo 1178728" transform="translate(18.418 16.277)">
            <path id="Trazado_1038731" data-name="Trazado 1038731" d="M171.771,187.009h-4.112a1.158,1.158,0,0,0-1.158,1.158v29.945a1.158,1.158,0,0,0,1.158,1.158h4.112Z" transform="translate(-166.5 -187.009)" fill="#a79ba7"/>
            <path id="Trazado_1038732" data-name="Trazado 1038732" d="M304.112,187.009H300V219.27h4.112a1.158,1.158,0,0,0,1.158-1.158V188.167A1.158,1.158,0,0,0,304.112,187.009Z" transform="translate(-284.535 -187.009)" fill="#a79ba7"/>
          </g>
          <g id="Grupo_1178729" data-name="Grupo 1178729" transform="translate(18.418 16.277)">
            <path id="Trazado_1038733" data-name="Trazado 1038733" d="M171.771,439.479H166.5v1.857a1.158,1.158,0,0,0,1.158,1.158h4.112Z" transform="translate(-166.5 -410.233)" fill="#918291"/>
            <path id="Trazado_1038734" data-name="Trazado 1038734" d="M304.112,187.009H302.4V215.1a1.158,1.158,0,0,1-1.158,1.158H300v3.015h4.112a1.158,1.158,0,0,0,1.158-1.158V188.167A1.158,1.158,0,0,0,304.112,187.009Z" transform="translate(-284.535 -187.009)" fill="#918291"/>
          </g>
          <path id="Trazado_1038735" data-name="Trazado 1038735" d="M221.426,181H211V144.886a1.158,1.158,0,0,1,1.158-1.158h8.109a1.158,1.158,0,0,1,1.158,1.158Z" transform="translate(-187.427 -132.464)" fill="#e2dee2"/>
          <path id="Trazado_1038736" data-name="Trazado 1038736" d="M220.267,143.729h-1.274v33.1a1.158,1.158,0,0,1-1.158,1.158H211V181h10.426V144.887A1.158,1.158,0,0,0,220.267,143.729Z" transform="translate(-187.427 -132.465)" fill="#cbc4cc"/>
          <g id="Grupo_1178731" data-name="Grupo 1178731" transform="translate(0 0)">
            <path id="Trazado_1038737" data-name="Trazado 1038737" d="M22.561,55.093V52.95A.565.565,0,0,0,22,52.385h-.6A.568.568,0,0,1,20.864,52a6.132,6.132,0,0,0-.278-.672.568.568,0,0,1,.105-.652l.422-.422a.565.565,0,0,0,0-.8L19.6,47.94a.565.565,0,0,0-.8,0l-.422.422a.568.568,0,0,1-.652.105,6.133,6.133,0,0,0-.672-.278.568.568,0,0,1-.386-.535v-.6a.565.565,0,0,0-.565-.565H13.96a.565.565,0,0,0-.565.565v.6a.568.568,0,0,1-.386.535,6.132,6.132,0,0,0-.672.278.568.568,0,0,1-.652-.105l-.422-.422a.565.565,0,0,0-.8,0L8.95,49.455a.565.565,0,0,0,0,.8l.422.422a.568.568,0,0,1,.105.652A6.133,6.133,0,0,0,9.2,52a.568.568,0,0,1-.535.386h-.6a.565.565,0,0,0-.565.565v2.143a.565.565,0,0,0,.565.565h.6a.568.568,0,0,1,.535.386,6.133,6.133,0,0,0,.278.672.568.568,0,0,1-.105.652l-.422.422a.565.565,0,0,0,0,.8L10.465,60.1a.565.565,0,0,0,.8,0l.422-.422a.568.568,0,0,1,.652-.105,6.135,6.135,0,0,0,.672.278.568.568,0,0,1,.386.535v.6a.565.565,0,0,0,.565.565H16.1a.565.565,0,0,0,.565-.565v-.6a.568.568,0,0,1,.386-.535,6.137,6.137,0,0,0,.672-.278.568.568,0,0,1,.652.105l.422.422a.565.565,0,0,0,.8,0l1.515-1.515a.565.565,0,0,0,0-.8l-.422-.422a.568.568,0,0,1-.105-.652,6.133,6.133,0,0,0,.278-.672.568.568,0,0,1,.535-.386H22A.565.565,0,0,0,22.561,55.093Z" transform="translate(-7.502 -46.492)" fill="#a79ba7"/>
            <g id="Grupo_1178730" data-name="Grupo 1178730" transform="translate(5.06 1.282)">
              <path id="Trazado_1038738" data-name="Trazado 1038738" d="M60.616,62.172h-.6a.568.568,0,0,1-.535-.386,6.133,6.133,0,0,0-.278-.672.568.568,0,0,1,.105-.652l.422-.422a.565.565,0,0,0,0-.8l-1.515-1.515a.565.565,0,0,0-.8,0l-.14.14a7.622,7.622,0,0,1-6.1,11.6c.147.064.295.125.447.177a.568.568,0,0,1,.386.535v.6a.565.565,0,0,0,.565.565h2.143a.565.565,0,0,0,.565-.565v-.6a.568.568,0,0,1,.386-.535,6.134,6.134,0,0,0,.672-.278.568.568,0,0,1,.652.105l.422.422a.565.565,0,0,0,.8,0l1.515-1.515a.565.565,0,0,0,0-.8l-.422-.422a.568.568,0,0,1-.105-.652,6.133,6.133,0,0,0,.278-.672.568.568,0,0,1,.535-.386h.6a.565.565,0,0,0,.565-.565V62.737A.565.565,0,0,0,60.616,62.172Z" transform="translate(-51.182 -57.561)" fill="#918291"/>
            </g>
            <path id="Trazado_1038739" data-name="Trazado 1038739" d="M54.984,90.713H53.27a.339.339,0,0,0-.24.1l-1.212,1.212a.339.339,0,0,0-.1.24v1.713a.339.339,0,0,0,.1.24l1.212,1.212a.339.339,0,0,0,.24.1h1.713a.339.339,0,0,0,.24-.1l1.212-1.212a.339.339,0,0,0,.1-.24V92.263a.339.339,0,0,0-.1-.24l-1.212-1.212A.339.339,0,0,0,54.984,90.713Z" transform="translate(-46.598 -85.59)" fill="#7a6d79"/>
            <path id="Trazado_1038740" data-name="Trazado 1038740" d="M63.131,93.97l-1.056-1.056a4.348,4.348,0,0,1-2.782,4.026l.434.434a.339.339,0,0,0,.24.1H61.68a.339.339,0,0,0,.24-.1l1.212-1.212a.339.339,0,0,0,.1-.24V94.209A.339.339,0,0,0,63.131,93.97Z" transform="translate(-53.294 -87.536)" fill="#7a6d79"/>
          </g>
          <g id="Grupo_1178732" data-name="Grupo 1178732" transform="translate(42.845 0)">
            <ellipse id="Elipse_12300" data-name="Elipse 12300" cx="7.141" cy="7.79" rx="7.141" ry="7.79" transform="translate(0)" fill="#fedf30"/>
            <path id="Trazado_1038741" data-name="Trazado 1038741" d="M403,48.183a7.528,7.528,0,0,1-6.708,12.957A7.529,7.529,0,1,0,403,48.183Z" transform="translate(-394.101 -47.987)" fill="#fed402"/>
          </g>
          <g id="Grupo_1178734" data-name="Grupo 1178734" transform="translate(0 32.578)">
            <g id="Grupo_1178733" data-name="Grupo 1178733">
              <circle id="Elipse_12301" data-name="Elipse 12301" cx="7.53" cy="7.53" r="7.53" fill="#b3dafe"/>
            </g>
            <path id="Trazado_1038742" data-name="Trazado 1038742" d="M42.193,328.065a7.529,7.529,0,0,1-4.072,13.862,7.645,7.645,0,0,1-.77-.039,7.529,7.529,0,1,0,4.842-13.823Z" transform="translate(-33.893 -328.026)" fill="#8ac9fe"/>
            <circle id="Elipse_12302" data-name="Elipse 12302" cx="3.475" cy="3.475" r="3.475" transform="translate(4.054 4.054)" fill="#ffdfcf"/>
            <path id="Trazado_1038743" data-name="Trazado 1038743" d="M53.774,363.22a3.474,3.474,0,0,1-3.159,5.794,3.475,3.475,0,1,0,3.159-5.794Z" transform="translate(-45.621 -359.109)" fill="#ffcebf"/>
            <path id="Trazado_1038744" data-name="Trazado 1038744" d="M14.842,422.729a7.529,7.529,0,0,0,13.358,0Z" transform="translate(-13.992 -411.724)" fill="#fdb97e"/>
            <path id="Trazado_1038745" data-name="Trazado 1038745" d="M44.051,422.729a7.515,7.515,0,0,1-5.933,2.9,7.625,7.625,0,0,1-.771-.039A7.527,7.527,0,0,0,48.1,422.729Z" transform="translate(-33.89 -411.724)" fill="#fea95c"/>
          </g>
          <g id="Grupo_1178735" data-name="Grupo 1178735" transform="translate(42.513 32.578)">
            <circle id="Elipse_12303" data-name="Elipse 12303" cx="7.53" cy="7.53" r="7.53" fill="#86e8d0"/>
            <path id="Trazado_1038746" data-name="Trazado 1038746" d="M403.924,329.143a7.53,7.53,0,0,1-6.43,13.11,7.529,7.529,0,1,0,6.43-13.11Z" transform="translate(-394.83 -328.979)" fill="#5de1c4"/>
          </g>
        </g>
      </g>
      <g id="Grupo_1178744" data-name="Grupo 1178744" transform="translate(7.5 46.492)">
        <g id="Grupo_1178738" data-name="Grupo 1178738" transform="translate(15.059 7.53)">
          <path id="Trazado_1038747" data-name="Trazado 1038747" d="M286.526,111.492h-9.788A1.738,1.738,0,0,0,275,113.23v2" transform="translate(-259.072 -111.492)" fill="none" stroke="#000" stroke-linecap="round" stroke-linejoin="round" stroke-miterlimit="10" stroke-width="1.5"/>
          <path id="Trazado_1038748" data-name="Trazado 1038748" d="M137.5,111.492h9.788a1.738,1.738,0,0,1,1.738,1.738v2" transform="translate(-137.5 -111.492)" fill="none" stroke="#000" stroke-linecap="round" stroke-linejoin="round" stroke-miterlimit="10" stroke-width="1.5"/>
        </g>
        <line id="Línea_640" data-name="Línea 640" y2="0.579" transform="translate(27.049 15.061)" fill="none" stroke="#000" stroke-linecap="square" stroke-linejoin="round" stroke-miterlimit="10" stroke-width="1.5"/>
        <line id="Línea_641" data-name="Línea 641" y2="0.579" transform="translate(30.524 15.061)" fill="none" stroke="#000" stroke-linecap="square" stroke-linejoin="round" stroke-miterlimit="10" stroke-width="1.5"/>
        <line id="Línea_642" data-name="Línea 642" y2="0.579" transform="translate(27.049 19.347)" fill="none" stroke="#000" stroke-linecap="square" stroke-linejoin="round" stroke-miterlimit="10" stroke-width="1.5"/>
        <line id="Línea_643" data-name="Línea 643" y2="0.579" transform="translate(30.524 19.347)" fill="none" stroke="#000" stroke-linecap="square" stroke-linejoin="round" stroke-miterlimit="10" stroke-width="1.5"/>
        <line id="Línea_644" data-name="Línea 644" y2="11.327" transform="translate(27.049 37.212)" fill="none" stroke="#000" stroke-linecap="square" stroke-linejoin="round" stroke-miterlimit="10" stroke-width="1.5"/>
        <line id="Línea_645" data-name="Línea 645" y2="11.327" transform="translate(30.524 37.212)" fill="none" stroke="#000" stroke-linecap="square" stroke-linejoin="round" stroke-miterlimit="10" stroke-width="1.5"/>
        <line id="Línea_646" data-name="Línea 646" y2="9.615" transform="translate(27.049 23.633)" fill="none" stroke="#000" stroke-linecap="square" stroke-linejoin="round" stroke-miterlimit="10" stroke-width="1.5"/>
        <line id="Línea_647" data-name="Línea 647" y2="9.615" transform="translate(30.524 23.633)" fill="none" stroke="#000" stroke-linecap="square" stroke-linejoin="round" stroke-miterlimit="10" stroke-width="1.5"/>
        <g id="Grupo_1178740" data-name="Grupo 1178740" transform="translate(48.056 3.449)">
          <g id="Grupo_1178739" data-name="Grupo 1178739" transform="translate(0 1.02)">
            <path id="Trazado_1038749" data-name="Trazado 1038749" d="M426.118,85.7a2.791,2.791,0,0,0-2.393-.533,1.276,1.276,0,0,0-.5,2.29s.844.377,1.78.722c2.254.831,1.283,3.012-.531,3.012a2.89,2.89,0,0,1-2.133-.907" transform="translate(-422.346 -85.075)" fill="none" stroke="#000" stroke-linecap="round" stroke-linejoin="round" stroke-miterlimit="10" stroke-width="1.5"/>
          </g>
          <line id="Línea_648" data-name="Línea 648" y1="1.02" transform="translate(2.074)" fill="none" stroke="#000" stroke-linecap="round" stroke-linejoin="round" stroke-miterlimit="10" stroke-width="1.5"/>
          <line id="Línea_649" data-name="Línea 649" y1="1.02" transform="translate(2.074 7.14)" fill="none" stroke="#000" stroke-linecap="round" stroke-linejoin="round" stroke-miterlimit="10" stroke-width="1.5"/>
        </g>
        <g id="Grupo_1178741" data-name="Grupo 1178741" transform="translate(47.077 36.922)">
          <line id="Línea_650" data-name="Línea 650" x2="5.932" transform="translate(0 6.371)" fill="none" stroke="#000" stroke-linecap="round" stroke-linejoin="round" stroke-miterlimit="10" stroke-width="1.5"/>
          <line id="Línea_651" data-name="Línea 651" x2="5.932" transform="translate(0 3.186)" fill="none" stroke="#000" stroke-linecap="round" stroke-linejoin="round" stroke-miterlimit="10" stroke-width="1.5"/>
          <line id="Línea_652" data-name="Línea 652" x2="2.894" fill="none" stroke="#000" stroke-linecap="round" stroke-linejoin="round" stroke-miterlimit="10" stroke-width="1.5"/>
        </g>
        <path id="Trazado_1038750" data-name="Trazado 1038750" d="M72.5,293.468v-2.751a1.738,1.738,0,0,1,1.738-1.738h9.151" transform="translate(-64.97 -260.889)" fill="none" stroke="#000" stroke-linecap="round" stroke-linejoin="round" stroke-miterlimit="10" stroke-width="1.5"/>
        <path id="Trazado_1038751" data-name="Trazado 1038751" d="M356.389,293.468v-2.751a1.738,1.738,0,0,0-1.738-1.738H345.5" transform="translate(-306.346 -260.889)" fill="none" stroke="#000" stroke-linecap="round" stroke-linejoin="round" stroke-miterlimit="10" stroke-width="1.5"/>
        <path id="Trazado_1038752" data-name="Trazado 1038752" d="M22.561,55.093V52.95A.565.565,0,0,0,22,52.385h-.6A.568.568,0,0,1,20.864,52a6.132,6.132,0,0,0-.278-.672.568.568,0,0,1,.105-.652l.422-.422a.565.565,0,0,0,0-.8L19.6,47.94a.565.565,0,0,0-.8,0l-.422.422a.568.568,0,0,1-.652.105,6.133,6.133,0,0,0-.672-.278.568.568,0,0,1-.386-.535v-.6a.565.565,0,0,0-.565-.565H13.96a.565.565,0,0,0-.565.565v.6a.568.568,0,0,1-.386.535,6.132,6.132,0,0,0-.672.278.568.568,0,0,1-.652-.105l-.422-.422a.565.565,0,0,0-.8,0L8.95,49.455a.565.565,0,0,0,0,.8l.422.422a.568.568,0,0,1,.105.652A6.133,6.133,0,0,0,9.2,52a.568.568,0,0,1-.535.386h-.6a.565.565,0,0,0-.565.565v2.143a.565.565,0,0,0,.565.565h.6a.568.568,0,0,1,.535.386,6.133,6.133,0,0,0,.278.672.568.568,0,0,1-.105.652l-.422.422a.565.565,0,0,0,0,.8L10.465,60.1a.565.565,0,0,0,.8,0l.422-.422a.568.568,0,0,1,.652-.105,6.135,6.135,0,0,0,.672.278.568.568,0,0,1,.386.535v.6a.565.565,0,0,0,.565.565H16.1a.565.565,0,0,0,.565-.565v-.6a.568.568,0,0,1,.386-.535,6.137,6.137,0,0,0,.672-.278.568.568,0,0,1,.652.105l.422.422a.565.565,0,0,0,.8,0l1.515-1.515a.565.565,0,0,0,0-.8l-.422-.422a.568.568,0,0,1-.105-.652,6.133,6.133,0,0,0,.278-.672.568.568,0,0,1,.535-.386H22A.565.565,0,0,0,22.561,55.093Z" transform="translate(-7.502 -46.492)" fill="none" stroke="#000" stroke-linecap="round" stroke-linejoin="round" stroke-miterlimit="10" stroke-width="1.5"/>
        <path id="Trazado_1038753" data-name="Trazado 1038753" d="M54.984,90.713H53.27a.339.339,0,0,0-.24.1l-1.212,1.212a.339.339,0,0,0-.1.24v1.713a.339.339,0,0,0,.1.24l1.212,1.212a.339.339,0,0,0,.24.1h1.713a.339.339,0,0,0,.24-.1l1.212-1.212a.339.339,0,0,0,.1-.24V92.263a.339.339,0,0,0-.1-.24l-1.212-1.212A.339.339,0,0,0,54.984,90.713Z" transform="translate(-46.598 -85.59)" fill="none" stroke="#000" stroke-linecap="round" stroke-linejoin="round" stroke-miterlimit="10" stroke-width="1.5"/>
        <path id="Trazado_1038754" data-name="Trazado 1038754" d="M375.386,50.477a7.532,7.532,0,1,0,2.8-2.931" transform="translate(-331.987 -46.492)" fill="none" stroke="#000" stroke-linecap="round" stroke-linejoin="round" stroke-miterlimit="10" stroke-width="1.5"/>
        <path id="Trazado_1038755" data-name="Trazado 1038755" d="M221.426,181H211V144.886a1.158,1.158,0,0,1,1.158-1.158h8.109a1.158,1.158,0,0,1,1.158,1.158Z" transform="translate(-187.427 -132.464)" fill="none" stroke="#000" stroke-linecap="round" stroke-linejoin="round" stroke-miterlimit="10" stroke-width="1.5"/>
        <g id="Grupo_1178742" data-name="Grupo 1178742" transform="translate(18.418 16.277)">
          <path id="Trazado_1038756" data-name="Trazado 1038756" d="M166.5,195.116v23a1.158,1.158,0,0,0,1.158,1.158h4V187.008h-4a1.158,1.158,0,0,0-1.158,1.158v2.9" transform="translate(-166.5 -187.008)" fill="none" stroke="#000" stroke-linecap="round" stroke-linejoin="round" stroke-miterlimit="10" stroke-width="1.5"/>
          <path id="Trazado_1038757" data-name="Trazado 1038757" d="M305,187.008h-4v32.261h4a1.158,1.158,0,0,0,1.158-1.158V188.166A1.158,1.158,0,0,0,305,187.008Z" transform="translate(-285.42 -187.008)" fill="none" stroke="#000" stroke-linecap="round" stroke-linejoin="round" stroke-miterlimit="10" stroke-width="1.5"/>
        </g>
        <g id="Grupo_1178743" data-name="Grupo 1178743" transform="translate(0 32.578)">
          <circle id="Elipse_12304" data-name="Elipse 12304" cx="7.53" cy="7.53" r="7.53" fill="none" stroke="#000" stroke-linecap="round" stroke-linejoin="round" stroke-miterlimit="10" stroke-width="1.5"/>
        </g>
        <path id="Trazado_1038758" data-name="Trazado 1038758" d="M376.9,337.286a7.53,7.53,0,1,0,0-4.054" transform="translate(-334.111 -295.151)" fill="none" stroke="#000" stroke-linecap="round" stroke-linejoin="round" stroke-miterlimit="10" stroke-width="1.5"/>
        <circle id="Elipse_12305" data-name="Elipse 12305" cx="3.475" cy="3.475" r="3.475" transform="translate(4.054 36.633)" fill="none" stroke="#000" stroke-linecap="round" stroke-linejoin="round" stroke-miterlimit="10" stroke-width="1.5"/>
        <line id="Línea_653" data-name="Línea 653" x1="13.358" transform="translate(0.85 43.583)" fill="none" stroke="#000" stroke-linejoin="round" stroke-miterlimit="10" stroke-width="1.5"/>
      </g>
    </g>
  </g>
</svg>
