<svg xmlns="http://www.w3.org/2000/svg" xmlns:xlink="http://www.w3.org/1999/xlink" width="110" height="110" viewBox="0 0 110 110">
  <defs>
    <filter id="Trazado_982547" x="0" y="0" width="110" height="110" filterUnits="userSpaceOnUse">
      <feOffset dy="3" input="SourceAlpha"/>
      <feGaussianBlur stdDeviation="3" result="blur"/>
      <feFlood flood-opacity="0.161"/>
      <feComposite operator="in" in2="blur"/>
      <feComposite in="SourceGraphic"/>
    </filter>
  </defs>
  <g id="Grupo_1178652" data-name="Grupo 1178652" transform="translate(1199 -5023)">
    <g id="Grupo_1176399" data-name="Grupo 1176399" transform="translate(-1576.461 -10034)">
      <g id="Grupo_1173147" data-name="Grupo 1173147" transform="translate(386.461 15063)">
        <g id="Grupo_1163801" data-name="Grupo 1163801" transform="translate(0 0)">
          <g id="Grupo_1163014" data-name="Grupo 1163014">
            <g id="Grupo_1157015" data-name="Grupo 1157015" transform="translate(0 0)">
              <g id="Grupo_1155792" data-name="Grupo 1155792" transform="translate(0 0)">
                <g id="Grupo_1154703" data-name="Grupo 1154703">
                  <g id="Grupo_1150789" data-name="Grupo 1150789">
                    <g id="Grupo_1154212" data-name="Grupo 1154212">
                      <g id="Grupo_1152583" data-name="Grupo 1152583">
                        <g id="Grupo_1146973" data-name="Grupo 1146973" transform="translate(0 0)">
                          <g id="Grupo_1146954" data-name="Grupo 1146954">
                            <g transform="matrix(1, 0, 0, 1, -9, -6)" filter="url(#Trazado_982547)">
                              <g id="Trazado_982547-2" data-name="Trazado 982547" transform="translate(9 6)" fill="#f2f7e5">
                                <path d="M 46.00000381469727 90.49988555908203 C 39.99188232421875 90.49988555908203 34.16427230834961 89.32352447509766 28.67905807495117 87.00347137451172 C 23.38020324707031 84.76226043701172 18.62103080749512 81.55342864990234 14.53375053405762 77.46615600585938 C 10.44645690917969 73.37887573242188 7.237643718719482 68.61971282958984 4.996417045593262 63.32085800170898 C 2.676363706588745 57.83565902709961 1.500003814697266 52.00806045532227 1.500003814697266 45.99993896484375 C 1.500003814697266 39.99181747436523 2.676363706588745 34.16421890258789 4.996417045593262 28.67901802062988 C 7.237643718719482 23.38017845153809 10.44645690917969 18.62101936340332 14.53375053405762 14.53373908996582 C 18.62103080749512 10.44645881652832 23.38020324707031 7.237632274627686 28.67905807495117 4.996418952941895 C 34.16427230834961 2.676365613937378 39.99188232421875 1.500005602836609 46.00000381469727 1.500005602836609 C 52.00812530517578 1.500005602836609 57.83573532104492 2.676365613937378 63.32094955444336 4.996418952941895 C 68.61980438232422 7.237632274627686 73.37896728515625 10.44645881652832 77.46625518798828 14.53373908996582 C 81.55353546142578 18.62101936340332 84.76236724853516 23.38017845153809 87.00359344482422 28.67901802062988 C 89.32364654541016 34.16421890258789 90.5 39.99181747436523 90.5 45.99993896484375 C 90.5 52.00806045532227 89.32364654541016 57.83565902709961 87.00359344482422 63.32085800170898 C 84.76236724853516 68.61971282958984 81.55353546142578 73.37887573242188 77.46625518798828 77.46615600585938 C 73.37896728515625 81.55342864990234 68.61980438232422 84.76226043701172 63.32094955444336 87.00347137451172 C 57.83573532104492 89.32352447509766 52.00812530517578 90.49988555908203 46.00000381469727 90.49988555908203 Z" stroke="none"/>
                                <path d="M 46.00000381469727 2.999992370605469 C 40.19371795654297 2.999992370605469 34.56270217895508 4.136497497558594 29.26338958740234 6.377906799316406 C 24.14333343505859 8.543510437011719 19.54441833496094 11.64437866210938 15.59440612792969 15.59439849853516 C 11.64440155029297 19.54439544677734 8.54351806640625 24.14329528808594 6.377914428710938 29.26335144042969 C 4.136505126953125 34.56266784667969 3.000007629394531 40.19366836547852 3.000007629394531 45.99993896484375 C 3.000007629394531 51.80620956420898 4.136505126953125 57.43722534179688 6.377914428710938 62.73654174804688 C 8.54351806640625 67.85658264160156 11.64440155029297 72.45548248291016 15.59440612792969 76.40549468994141 C 19.54441833496094 80.35549926757812 24.14333343505859 83.45636749267578 29.26337432861328 85.62196350097656 C 34.56270217895508 87.86338043212891 40.19371795654297 88.9998779296875 46.00000381469727 88.9998779296875 C 51.80628967285156 88.9998779296875 57.43730545043945 87.86338043212891 62.73663330078125 85.62196350097656 C 67.85667419433594 83.45636749267578 72.45558929443359 80.35549926757812 76.40560150146484 76.40549468994141 C 80.35560607910156 72.45548248291016 83.45648956298828 67.85658264160156 85.62208557128906 62.73654174804688 C 87.86350250244141 57.43722534179688 89 51.80620956420898 89 45.99993896484375 C 89 40.19366836547852 87.86350250244141 34.56266784667969 85.62208557128906 29.26335144042969 C 83.45648956298828 24.14329528808594 80.35560607910156 19.54439544677734 76.40560150146484 15.59439849853516 C 72.45558929443359 11.64437866210938 67.85667419433594 8.543510437011719 62.73661804199219 6.377906799316406 C 57.43730545043945 4.136497497558594 51.80628967285156 2.999992370605469 46.00000381469727 2.999992370605469 M 46.00000381469727 -7.62939453125e-06 C 71.40510559082031 -7.62939453125e-06 92 20.59487915039062 92 45.99993896484375 C 92 71.40501403808594 71.40510559082031 91.99988555908203 46.00000381469727 91.99988555908203 C 20.59490203857422 91.99988555908203 7.62939453125e-06 71.40501403808594 7.62939453125e-06 45.99993896484375 C 7.62939453125e-06 20.59487915039062 20.59490203857422 -7.62939453125e-06 46.00000381469727 -7.62939453125e-06 Z" stroke="none" fill="#86b60c"/>
                              </g>
                            </g>
                          </g>
                        </g>
                      </g>
                    </g>
                  </g>
                </g>
              </g>
            </g>
          </g>
        </g>
      </g>
    </g>
    <g id="competitive-advantage" transform="translate(-1171.499 5046.5)">
      <g id="Grupo_1178651" data-name="Grupo 1178651" transform="translate(1.319 1.32)">
        <g id="Grupo_1178634" data-name="Grupo 1178634" transform="translate(0 43.783)">
          <path id="Trazado_1038133" data-name="Trazado 1038133" d="M8,418.9H22.582v-5.222a5.24,5.24,0,0,0-5.225-5.225H13.219A5.237,5.237,0,0,0,8,413.673Z" transform="translate(-7.997 -408.448)" fill="#8dcafc" fill-rule="evenodd"/>
        </g>
        <g id="Grupo_1178635" data-name="Grupo 1178635" transform="translate(2.188 33.577)">
          <path id="Trazado_1038134" data-name="Trazado 1038134" d="M33.114,325.308a5.1,5.1,0,1,0-5.1-5.1A5.115,5.115,0,0,0,33.114,325.308Z" transform="translate(-28.009 -315.102)" fill="#ffc7ab" fill-rule="evenodd"/>
        </g>
        <g id="Grupo_1178636" data-name="Grupo 1178636" transform="translate(6.781 43.783)">
          <path id="Trazado_1038135" data-name="Trazado 1038135" d="M75.244,418.9h2.579v-5.222a5.24,5.24,0,0,0-5.225-5.225H70.019a5.24,5.24,0,0,1,5.225,5.225Z" transform="translate(-70.019 -408.448)" fill="#58a0db" fill-rule="evenodd"/>
        </g>
        <g id="Grupo_1178637" data-name="Grupo 1178637" transform="translate(39.645 43.783)">
          <path id="Trazado_1038136" data-name="Trazado 1038136" d="M370.6,418.9h14.585v-5.222a5.24,5.24,0,0,0-5.225-5.225h-4.138a5.237,5.237,0,0,0-5.222,5.225V418.9Z" transform="translate(-370.604 -408.448)" fill="#8dcafc" fill-rule="evenodd"/>
        </g>
        <g id="Grupo_1178638" data-name="Grupo 1178638" transform="translate(41.834 33.577)">
          <path id="Trazado_1038137" data-name="Trazado 1038137" d="M395.721,325.308a5.1,5.1,0,1,0-5.1-5.1A5.112,5.112,0,0,0,395.721,325.308Z" transform="translate(-390.617 -315.102)" fill="#ffc7ab" fill-rule="evenodd"/>
        </g>
        <g id="Grupo_1178639" data-name="Grupo 1178639" transform="translate(19.702)">
          <path id="Trazado_1038138" data-name="Trazado 1038138" d="M191.592,17.3V37.021h8.033V17.3h3.394L195.608,8,188.2,17.3Z" transform="translate(-188.195 -7.997)" fill="#c9ef6c" fill-rule="evenodd"/>
        </g>
        <g id="Grupo_1178640" data-name="Grupo 1178640" transform="translate(13.014 43.312)">
          <path id="Trazado_1038139" data-name="Trazado 1038139" d="M141.125,404.139l-3.738.468-7.466,2.873a3.576,3.576,0,0,0-2.349,2.954l-.549,4.624h28.2l-.549-4.624a3.586,3.586,0,0,0-2.349-2.954l-7.466-2.873Z" transform="translate(-127.023 -404.139)" fill="#ec5a6e" fill-rule="evenodd"/>
        </g>
        <g id="Grupo_1178641" data-name="Grupo 1178641" transform="translate(22.779 39.302)">
          <path id="Trazado_1038140" data-name="Trazado 1038140" d="M216.343,367.458h8.669v4.711l-4.333,3.846-4.336-3.846Z" transform="translate(-216.343 -367.458)" fill="#ffaa7b" fill-rule="evenodd"/>
        </g>
        <g id="Grupo_1178642" data-name="Grupo 1178642" transform="translate(17.477 19.005)">
          <path id="Trazado_1038141" data-name="Trazado 1038141" d="M167.842,197.1h19.274v-7.643a7.664,7.664,0,0,0-7.643-7.643h-3.989a7.666,7.666,0,0,0-7.643,7.643V197.1Z" transform="translate(-167.842 -181.818)" fill="#945230" fill-rule="evenodd"/>
        </g>
        <g id="Grupo_1178643" data-name="Grupo 1178643" transform="translate(39.407 6.353)">
          <path id="Trazado_1038142" data-name="Trazado 1038142" d="M371.816,75.408V90.783h8.033V75.408h3.4l-7.413-9.3-7.41,9.3Z" transform="translate(-368.422 -66.107)" fill="#c9ef6c" fill-rule="evenodd"/>
        </g>
        <g id="Grupo_1178644" data-name="Grupo 1178644" transform="translate(0 6.353)">
          <path id="Trazado_1038143" data-name="Trazado 1038143" d="M11.394,75.408V90.783h8.03V75.408h3.4l-7.41-9.3L8,75.408Z" transform="translate(-7.997 -66.107)" fill="#c9ef6c" fill-rule="evenodd"/>
        </g>
        <g id="Grupo_1178645" data-name="Grupo 1178645" transform="translate(46.427 43.783)">
          <path id="Trazado_1038144" data-name="Trazado 1038144" d="M437.852,418.9h2.579v-5.222a5.24,5.24,0,0,0-5.225-5.225h-2.579a5.24,5.24,0,0,1,5.225,5.225Z" transform="translate(-432.627 -408.448)" fill="#58a0db" fill-rule="evenodd"/>
        </g>
        <g id="Grupo_1178646" data-name="Grupo 1178646" transform="translate(26.799 19.005)">
          <path id="Trazado_1038145" data-name="Trazado 1038145" d="M260.752,197.1h2.309v-7.643a7.664,7.664,0,0,0-7.643-7.643h-2.309a7.666,7.666,0,0,1,7.643,7.643Z" transform="translate(-253.109 -181.818)" fill="#6b2e10" fill-rule="evenodd"/>
        </g>
        <g id="Grupo_1178647" data-name="Grupo 1178647" transform="translate(17.362 31.154)">
          <path id="Trazado_1038146" data-name="Trazado 1038146" d="M169.686,292.936h13.72a2.893,2.893,0,0,1,0,5.786h-13.72a2.893,2.893,0,0,1,0-5.786Z" transform="translate(-166.794 -292.936)" fill="#ffaa7b" fill-rule="evenodd"/>
        </g>
        <g id="Grupo_1178648" data-name="Grupo 1178648" transform="translate(19.789 26.553)">
          <path id="Trazado_1038147" data-name="Trazado 1038147" d="M189.453,253.316h6.127a1.939,1.939,0,0,0,1.361-.527l1.844-1.686a.932.932,0,0,1,1.559.688v.9a.62.62,0,0,0,.62.62h2.213a.466.466,0,0,1,.465.465v5.225a7.327,7.327,0,1,1-14.653,0v-5.225a.466.466,0,0,1,.465-.465Z" transform="translate(-188.988 -250.857)" fill="#ffc7ab" fill-rule="evenodd"/>
        </g>
        <g id="Grupo_1178649" data-name="Grupo 1178649" transform="translate(45.478 6.353)">
          <path id="Trazado_1038148" data-name="Trazado 1038148" d="M426.63,90.783h2.678V75.408H426.63Zm3.4-15.375H432.7l-7.413-9.3-1.339,1.683Z" transform="translate(-423.952 -66.107)" fill="#a5cc43" fill-rule="evenodd"/>
        </g>
        <g id="Grupo_1178650" data-name="Grupo 1178650" transform="translate(6.071 6.353)">
          <path id="Trazado_1038149" data-name="Trazado 1038149" d="M66.206,90.783h2.678V75.408H66.206Zm3.4-15.375H72.28l-7.41-9.3L63.528,67.79Z" transform="translate(-63.528 -66.107)" fill="#a5cc43" fill-rule="evenodd"/>
        </g>
      </g>
      <path id="Trazado_1038150" data-name="Trazado 1038150" d="M52.121,44.483a5.966,5.966,0,1,0-7.8,0,6.106,6.106,0,0,0-2.388,1.428.872.872,0,0,0,1.211,1.256,4.327,4.327,0,0,1,3.014-1.225h4.129a4.348,4.348,0,0,1,4.343,4.343v4.34H45.255a.872.872,0,0,0,0,1.745H55.5a.872.872,0,0,0,.872-.872V50.286a6.1,6.1,0,0,0-4.249-5.8ZM44,39.976A4.221,4.221,0,1,1,48.219,44.2,4.226,4.226,0,0,1,44,39.976ZM11.613,54.625H2.244v-4.34a4.346,4.346,0,0,1,4.34-4.343h4.129a4.319,4.319,0,0,1,3.016,1.224.872.872,0,0,0,1.213-1.254,6.079,6.079,0,0,0-2.389-1.429,5.967,5.967,0,1,0-7.806,0A6.1,6.1,0,0,0,.5,50.286V55.5a.872.872,0,0,0,.872.872H11.613a.872.872,0,0,0,0-1.745ZM4.428,39.976A4.222,4.222,0,1,1,8.65,44.2,4.226,4.226,0,0,1,4.428,39.976ZM20.25,11.034a.872.872,0,0,1,.1-.922l7.4-9.283A.872.872,0,0,1,28.434.5h0a.872.872,0,0,1,.682.329l7.4,9.283a.872.872,0,0,1-.682,1.416H33.316V17.81a.872.872,0,0,1-1.745,0V10.655a.872.872,0,0,1,.872-.872H34.02L28.434,2.772,22.846,9.783h1.579a.872.872,0,0,1,.872.872V17.81a.872.872,0,0,1-1.745,0V11.527H21.035a.872.872,0,0,1-.786-.494ZM43.224,56c.012-.017.022-.034.033-.051l.014-.023c.012-.022.023-.044.033-.067l.005-.011a.865.865,0,0,0,.067-.261c0-.011,0-.023,0-.034s0-.034,0-.051c0,0,0,0,0-.005s0-.024,0-.036,0-.037,0-.056c0,0,0,0,0-.006l-.548-4.615a4.457,4.457,0,0,0-2.9-3.659l-6.3-2.42V42.326a8.223,8.223,0,0,0,2.4-3.29,3.746,3.746,0,0,0,3-3.681,3.683,3.683,0,0,0-.115-.909s0-.007,0-.01V27.968a8.51,8.51,0,0,0-8.5-8.5H26.442a8.51,8.51,0,0,0-8.5,8.5v6.471s0,.005,0,.008a3.676,3.676,0,0,0-.115.908,3.747,3.747,0,0,0,3.005,3.681,8.222,8.222,0,0,0,2.4,3.288V44.7l-6.3,2.419a4.446,4.446,0,0,0-2.9,3.659L13.494,55.4s0,0,0,.006c0,.018,0,.037,0,.056s0,.024,0,.036,0,0,0,.005c0,.017,0,.034,0,.051s0,.022,0,.033a.866.866,0,0,0,.067.261l.006.012c.01.023.021.045.033.067l.014.023c.01.017.021.035.033.051l.02.027c.011.015.022.029.034.043l.009.011.016.016.037.037.027.025.041.033.028.021.046.03.027.017.054.028.024.011c.021.009.042.017.063.024l.02.007c.023.007.047.014.07.019l.017,0c.025.005.05.009.075.012l.015,0a.875.875,0,0,0,.092,0H42.509a.873.873,0,0,0,.092,0l.015,0c.025,0,.051-.007.075-.012l.017,0c.024-.006.047-.012.07-.019l.02-.007c.021-.008.043-.015.063-.024l.024-.011.054-.028.027-.017.046-.03.028-.021.041-.033.027-.025.037-.037.016-.016.009-.011c.012-.014.023-.028.034-.043l.02-.027ZM36.571,36.889a8.221,8.221,0,0,0,.048-.882V33.858a1.994,1.994,0,0,1-.048,3.031ZM26.442,21.212h3.981a6.763,6.763,0,0,1,6.756,6.756v4.149a3.716,3.716,0,0,0-.56-.272V30.792a1.338,1.338,0,0,0-1.336-1.336H33.328v-.65a1.8,1.8,0,0,0-3.017-1.33L28.469,29.16a1.059,1.059,0,0,1-.768.3H21.586a1.338,1.338,0,0,0-1.336,1.336v1.052a3.729,3.729,0,0,0-.563.274v-4.15a6.763,6.763,0,0,1,6.756-6.756Zm-6.87,14.142a2.022,2.022,0,0,1,.677-1.5v2.151a8.248,8.248,0,0,0,.048.884A2.016,2.016,0,0,1,19.572,35.355Zm2.724,2.6c0-.01-.007-.021-.01-.031a6.417,6.417,0,0,1-.292-1.918V31.2H27.7a2.793,2.793,0,0,0,1.946-.754l1.843-1.685c.017-.016.026-.02.058-.006s.034.021.034.051v.9A1.493,1.493,0,0,0,33.074,31.2h1.8v4.807a6.42,6.42,0,0,1-.292,1.918c0,.01-.007.021-.01.031a6.463,6.463,0,0,1-2.262,3.19.875.875,0,0,0-.125.091,6.419,6.419,0,0,1-7.517-.01.877.877,0,0,0-.1-.072,6.465,6.465,0,0,1-2.272-3.2Zm6.138,6.235a8.134,8.134,0,0,0,3.452-.766v1.481l-3.452,3.065-3.455-3.065V43.424a8.134,8.134,0,0,0,3.455.768ZM40.94,54.625h-25.6l.432-3.642a2.7,2.7,0,0,1,1.791-2.235l6.36-2.444,3.93,3.486a.872.872,0,0,0,1.158,0L32.941,46.3,39.3,48.748a2.7,2.7,0,0,1,1.793,2.237l.432,3.64ZM40.7,17.869h2.515V32.342a.872.872,0,0,0,.872.872h8.018a.872.872,0,0,0,.872-.872V17.869H55.5a.872.872,0,0,0,.682-1.416L48.78,7.17a.872.872,0,0,0-1.364,0l-7.4,9.283a.872.872,0,0,0,.682,1.416Zm7.4-8.756,5.588,7.011H52.107a.872.872,0,0,0-.872.872V31.469H44.962V17a.872.872,0,0,0-.872-.872H42.512ZM1.372,17.869H3.89V32.342a.872.872,0,0,0,.872.872h8.015a.872.872,0,0,0,.872-.872V17.869h2.518a.872.872,0,0,0,.682-1.416L9.453,7.17a.872.872,0,0,0-.682-.329h0a.872.872,0,0,0-.682.329L.69,16.453a.872.872,0,0,0,.682,1.416Zm7.4-8.756,5.586,7.011h-1.58A.872.872,0,0,0,11.9,17V31.469H5.634V17a.872.872,0,0,0-.872-.872H3.183Z" transform="translate(0 0)"/>
    </g>
  </g>
</svg>
