<svg xmlns="http://www.w3.org/2000/svg" xmlns:xlink="http://www.w3.org/1999/xlink" width="110" height="110" viewBox="0 0 110 110">
  <defs>
    <filter id="Trazado_982547" x="0" y="0" width="110" height="110" filterUnits="userSpaceOnUse">
      <feOffset dy="3" input="SourceAlpha"/>
      <feGaussianBlur stdDeviation="3" result="blur"/>
      <feFlood flood-opacity="0.161"/>
      <feComposite operator="in" in2="blur"/>
      <feComposite in="SourceGraphic"/>
    </filter>
  </defs>
  <g id="Grupo_1178759" data-name="Grupo 1178759" transform="translate(-6971 -2936)">
    <g id="Grupo_1177567" data-name="Grupo 1177567" transform="translate(6278.539 -12122)">
      <g id="Grupo_1173148" data-name="Grupo 1173148" transform="translate(701.461 15064)">
        <g id="Grupo_1163803" data-name="Grupo 1163803" transform="translate(0 0)">
          <g id="Grupo_1163015" data-name="Grupo 1163015">
            <g id="Grupo_1157017" data-name="Grupo 1157017" transform="translate(0 0)">
              <g id="Grupo_1155793" data-name="Grupo 1155793" transform="translate(0 0)">
                <g id="Grupo_1154704" data-name="Grupo 1154704">
                  <g id="Grupo_1150790" data-name="Grupo 1150790">
                    <g id="Grupo_1154214" data-name="Grupo 1154214">
                      <g id="Grupo_1152583" data-name="Grupo 1152583">
                        <g id="Grupo_1146973" data-name="Grupo 1146973" transform="translate(0 0)">
                          <g id="Grupo_1146954" data-name="Grupo 1146954">
                            <g transform="matrix(1, 0, 0, 1, -9, -6)" filter="url(#Trazado_982547)">
                              <g id="Trazado_982547-2" data-name="Trazado 982547" transform="translate(9 6)" fill="#f2f7e5">
                                <path d="M 46.00000381469727 90.49988555908203 C 39.99188232421875 90.49988555908203 34.16427230834961 89.32352447509766 28.67905807495117 87.00347137451172 C 23.38020324707031 84.76226043701172 18.62103080749512 81.55342864990234 14.53375053405762 77.46615600585938 C 10.44645690917969 73.37887573242188 7.237643718719482 68.61971282958984 4.996417045593262 63.32085800170898 C 2.676363706588745 57.83565902709961 1.500003814697266 52.00806045532227 1.500003814697266 45.99993896484375 C 1.500003814697266 39.99181747436523 2.676363706588745 34.16421890258789 4.996417045593262 28.67901802062988 C 7.237643718719482 23.38017845153809 10.44645690917969 18.62101936340332 14.53375053405762 14.53373908996582 C 18.62103080749512 10.44645881652832 23.38020324707031 7.237632274627686 28.67905807495117 4.996418952941895 C 34.16427230834961 2.676365613937378 39.99188232421875 1.500005602836609 46.00000381469727 1.500005602836609 C 52.00812530517578 1.500005602836609 57.83573532104492 2.676365613937378 63.32094955444336 4.996418952941895 C 68.61980438232422 7.237632274627686 73.37896728515625 10.44645881652832 77.46625518798828 14.53373908996582 C 81.55353546142578 18.62101936340332 84.76236724853516 23.38017845153809 87.00359344482422 28.67901802062988 C 89.32364654541016 34.16421890258789 90.5 39.99181747436523 90.5 45.99993896484375 C 90.5 52.00806045532227 89.32364654541016 57.83565902709961 87.00359344482422 63.32085800170898 C 84.76236724853516 68.61971282958984 81.55353546142578 73.37887573242188 77.46625518798828 77.46615600585938 C 73.37896728515625 81.55342864990234 68.61980438232422 84.76226043701172 63.32094955444336 87.00347137451172 C 57.83573532104492 89.32352447509766 52.00812530517578 90.49988555908203 46.00000381469727 90.49988555908203 Z" stroke="none"/>
                                <path d="M 46.00000381469727 2.999992370605469 C 40.19371795654297 2.999992370605469 34.56270217895508 4.136497497558594 29.26338958740234 6.377906799316406 C 24.14333343505859 8.543510437011719 19.54441833496094 11.64437866210938 15.59440612792969 15.59439849853516 C 11.64440155029297 19.54439544677734 8.54351806640625 24.14329528808594 6.377914428710938 29.26335144042969 C 4.136505126953125 34.56266784667969 3.000007629394531 40.19366836547852 3.000007629394531 45.99993896484375 C 3.000007629394531 51.80620956420898 4.136505126953125 57.43722534179688 6.377914428710938 62.73654174804688 C 8.54351806640625 67.85658264160156 11.64440155029297 72.45548248291016 15.59440612792969 76.40549468994141 C 19.54441833496094 80.35549926757812 24.14333343505859 83.45636749267578 29.26337432861328 85.62196350097656 C 34.56270217895508 87.86338043212891 40.19371795654297 88.9998779296875 46.00000381469727 88.9998779296875 C 51.80628967285156 88.9998779296875 57.43730545043945 87.86338043212891 62.73663330078125 85.62196350097656 C 67.85667419433594 83.45636749267578 72.45558929443359 80.35549926757812 76.40560150146484 76.40549468994141 C 80.35560607910156 72.45548248291016 83.45648956298828 67.85658264160156 85.62208557128906 62.73654174804688 C 87.86350250244141 57.43722534179688 89 51.80620956420898 89 45.99993896484375 C 89 40.19366836547852 87.86350250244141 34.56266784667969 85.62208557128906 29.26335144042969 C 83.45648956298828 24.14329528808594 80.35560607910156 19.54439544677734 76.40560150146484 15.59439849853516 C 72.45558929443359 11.64437866210938 67.85667419433594 8.543510437011719 62.73661804199219 6.377906799316406 C 57.43730545043945 4.136497497558594 51.80628967285156 2.999992370605469 46.00000381469727 2.999992370605469 M 46.00000381469727 -7.62939453125e-06 C 71.40510559082031 -7.62939453125e-06 92 20.59487915039062 92 45.99993896484375 C 92 71.40501403808594 71.40510559082031 91.99988555908203 46.00000381469727 91.99988555908203 C 20.59490203857422 91.99988555908203 7.62939453125e-06 71.40501403808594 7.62939453125e-06 45.99993896484375 C 7.62939453125e-06 20.59487915039062 20.59490203857422 -7.62939453125e-06 46.00000381469727 -7.62939453125e-06 Z" stroke="none" fill="#86b60c"/>
                              </g>
                            </g>
                          </g>
                        </g>
                      </g>
                    </g>
                  </g>
                </g>
              </g>
            </g>
          </g>
        </g>
      </g>
    </g>
    <g id="economy_562559" transform="translate(6995 2946.316)">
      <path id="Trazado_1038796" data-name="Trazado 1038796" d="M37.12,66.608a.6.6,0,0,1,.6-.6h5.57a.6.6,0,0,1,.6.6v6.073a26.314,26.314,0,0,0,3.141-1.5V62.232a.6.6,0,0,1,.6-.6h5.57a.6.6,0,0,1,.6.6v3.542a27.234,27.234,0,0,0,3.419-4.706V56.123H54.29l6.3-6.313.134.135c.079-.85.121-1.712.121-2.583A26.929,26.929,0,0,0,34.174,20.184,27.243,27.243,0,0,0,27.214,73.6V69.562a.6.6,0,0,1,.6-.6h5.57a.6.6,0,0,1,.6.6v4.974l.195,0a26.422,26.422,0,0,0,2.946-.166V66.608Z" transform="translate(-6.604 -6.604)" fill="#89e1d0"/>
      <g id="Grupo_1178754" data-name="Grupo 1178754" transform="translate(0.896 13.58)" opacity="0.1">
        <path id="Trazado_1038797" data-name="Trazado 1038797" d="M27.214,71.679A27.3,27.3,0,0,1,36.654,20.3c-.817-.077-1.643-.118-2.48-.118A27.243,27.243,0,0,0,27.214,73.6Z" transform="translate(-7.5 -20.184)"/>
      </g>
      <path id="Trazado_1038798" data-name="Trazado 1038798" d="M144.332,20.184c-6.474,0-11.722,12.168-11.722,27.177,0,9.022,1.9,17.015,4.815,21.958a.6.6,0,0,1,.545-.356h5.57a.6.6,0,0,1,.6.6v4.971c.065,0,.13.006.195.006a5.681,5.681,0,0,0,2.946-.866V66.608a.6.6,0,0,1,.6-.6h4.983a50.909,50.909,0,0,0,3.2-18.649C156.055,32.352,150.806,20.184,144.332,20.184Z" transform="translate(-116.762 -6.604)" fill="#7fdee9"/>
      <path id="Trazado_1038799" data-name="Trazado 1038799" d="M411.633,274.4l-6.3-6.313-6.3,6.313h2.92v20.425h6.765V274.4Z" transform="translate(-351.342 -224.88)" fill="#89c947"/>
      <g id="Grupo_1178755" data-name="Grupo 1178755" transform="translate(47.687 47.031)" opacity="0.1">
        <path id="Trazado_1038800" data-name="Trazado 1038800" d="M403.977,300.094h-2.464l-2.483,2.488h2.92v20.424h2.506V300.572A.478.478,0,0,0,403.977,300.094Z" transform="translate(-399.029 -300.094)"/>
      </g>
      <path id="Trazado_1038801" data-name="Trazado 1038801" d="M179.229,435.351a.6.6,0,0,1-.6.6h-5.57a.6.6,0,0,1-.6-.6v-6.388a.6.6,0,0,1,.6-.6h5.57a.6.6,0,0,1,.6.6Z" transform="translate(-151.853 -366.005)" fill="#d5e962"/>
      <g id="Grupo_1178756" data-name="Grupo 1178756" transform="translate(20.611 62.361)" opacity="0.1">
        <path id="Trazado_1038802" data-name="Trazado 1038802" d="M174.918,435.351v-6.388a.6.6,0,0,1,.6-.6h-2.454a.6.6,0,0,0-.6.6v6.388a.6.6,0,0,0,.6.6h2.454A.6.6,0,0,1,174.918,435.351Z" transform="translate(-172.464 -428.366)"/>
      </g>
      <path id="Trazado_1038803" data-name="Trazado 1038803" d="M262.118,413.585a.6.6,0,0,1-.6.6h-5.57a.6.6,0,0,1-.6-.6v-9.342a.6.6,0,0,1,.6-.6h5.57a.6.6,0,0,1,.6.6Z" transform="translate(-224.837 -344.239)" fill="#89c947"/>
      <g id="Grupo_1178757" data-name="Grupo 1178757" transform="translate(30.516 59.406)" opacity="0.1">
        <path id="Trazado_1038804" data-name="Trazado 1038804" d="M257.807,413.585v-9.342a.6.6,0,0,1,.6-.6h-2.454a.6.6,0,0,0-.6.6v9.342a.6.6,0,0,0,.6.6H258.4A.6.6,0,0,1,257.807,413.585Z" transform="translate(-255.353 -403.645)"/>
      </g>
      <path id="Trazado_1038805" data-name="Trazado 1038805" d="M345.01,381.348a.6.6,0,0,1-.6.6h-5.57a.6.6,0,0,1-.6-.6V367.631a.6.6,0,0,1,.6-.6h5.57a.6.6,0,0,1,.6.6Z" transform="translate(-297.823 -312.002)" fill="#368c0e"/>
      <g id="Grupo_1178758" data-name="Grupo 1178758" transform="translate(40.422 55.031)" opacity="0.1">
        <path id="Trazado_1038806" data-name="Trazado 1038806" d="M340.7,381.348V367.631a.6.6,0,0,1,.6-.6h-2.454a.6.6,0,0,0-.6.6v13.717a.6.6,0,0,0,.6.6H341.3A.6.6,0,0,1,340.7,381.348Z" transform="translate(-338.245 -367.033)"/>
      </g>
      <path id="Trazado_1038807" data-name="Trazado 1038807" d="M60.925,48.886,55.051,43c.057-.743.09-1.49.09-2.243a28.151,28.151,0,0,0-8.069-19.845,27.222,27.222,0,0,0-39,0,28.438,28.438,0,0,0,0,39.69,27.33,27.33,0,0,0,11.645,7.077v1.667a1.5,1.5,0,0,0,1.494,1.494h5.57a1.5,1.5,0,0,0,1.494-1.494v-.524c.451-.012.9-.036,1.348-.07v.595a1.5,1.5,0,0,0,1.494,1.494h5.57a1.5,1.5,0,0,0,1.494-1.494V66.683q.682-.289,1.349-.616v3.279A1.5,1.5,0,0,0,41.02,70.84h5.57a1.5,1.5,0,0,0,1.494-1.494V59.513q.863-.977,1.626-2.021V69.944a.9.9,0,0,0,.9.9h6.765a.9.9,0,0,0,.9-.9V63.99a.9.9,0,1,0-1.793,0v5.057H51.5V49.519a.9.9,0,0,0-.9-.9h-.758l4.141-4.148,4.141,4.148h-.759a.9.9,0,0,0-.9.9V60.166a.9.9,0,1,0,1.793,0V50.415h2.023a.9.9,0,0,0,.634-1.53ZM40.18,39.861c-.018-1.312-.074-2.621-.171-3.9a.9.9,0,1,0-1.787.135c.094,1.237.148,2.5.166,3.768H28.466v-9.9a59.575,59.575,0,0,0,8.8-.759q.232,1.124.419,2.3a.9.9,0,0,0,1.77-.281q-.191-1.2-.425-2.344a36,36,0,0,0,9.628-3.244,26.4,26.4,0,0,1,4.67,14.225ZM21,61.481q-.465-.87-.894-1.861a35.957,35.957,0,0,1-1.834-5.54,57.712,57.712,0,0,1,8.4-.731v8.115H21.208A1.481,1.481,0,0,0,21,61.481ZM1.809,41.654H8.485a.9.9,0,1,0,0-1.793H1.809a26.4,26.4,0,0,1,4.67-14.225,35.995,35.995,0,0,0,9.626,3.244,58.882,58.882,0,0,0-1.147,10.981H13.026a.9.9,0,1,0,0,1.793h1.932a58.851,58.851,0,0,0,1.147,10.981,35.987,35.987,0,0,0-9.626,3.244A26.4,26.4,0,0,1,1.809,41.654ZM28.466,14.573c1.413.3,3.246,1.4,5.115,4.472a30.353,30.353,0,0,1,3.288,8.391,57.7,57.7,0,0,1-8.4.731V14.573Zm-1.793,0v13.59a57.71,57.71,0,0,1-8.4-.731A35.945,35.945,0,0,1,20.1,21.9C21.914,17.7,24.267,15.1,26.674,14.576Zm0,15.383v9.9H16.751A56.969,56.969,0,0,1,17.869,29.2,59.58,59.58,0,0,0,26.674,29.96ZM16.751,41.654h9.923v9.9a59.6,59.6,0,0,0-8.805.759A56.981,56.981,0,0,1,16.751,41.654Zm11.715,0h9.923a56.961,56.961,0,0,1-1.118,10.661,59.617,59.617,0,0,0-8.8-.759v-9.9h0ZM47.574,24.179a35.112,35.112,0,0,1-8.938,2.936c-1.342-5.5-3.442-9.71-5.969-12.128a25.45,25.45,0,0,1,13.125,7.181A26.613,26.613,0,0,1,47.574,24.179ZM9.349,22.168a25.451,25.451,0,0,1,13.126-7.181,18.912,18.912,0,0,0-4.016,6.2,37.819,37.819,0,0,0-1.955,5.93,35.106,35.106,0,0,1-8.937-2.936A26.557,26.557,0,0,1,9.349,22.168Zm0,37.179a26.584,26.584,0,0,1-1.783-2.011A35.1,35.1,0,0,1,16.5,54.4a37.831,37.831,0,0,0,1.955,5.93,25.752,25.752,0,0,0,1.26,2.544c0,.028,0,.056,0,.084V65.8A25.577,25.577,0,0,1,9.349,59.347Zm17.13,9.7H21.507v-5.79h4.972ZM29.62,60v6.525a4.972,4.972,0,0,1-1.153.411V53.348a57.633,57.633,0,0,1,8.4.733,37.61,37.61,0,0,1-1.382,4.429H31.114A1.5,1.5,0,0,0,29.62,60Zm6.765,9.043H31.413V60.3h4.972Zm1.793-4.324V60a1.494,1.494,0,0,0-.834-1.338A40.278,40.278,0,0,0,38.636,54.4q.629.126,1.243.265a1.487,1.487,0,0,0-.352.961v8.424Q38.861,64.408,38.178,64.723Zm8.113,4.324H41.319V55.927h4.972Zm.568-19.185a.9.9,0,0,0,.828.553H49.71v3.818q-.494.84-1.05,1.645-.285-.15-.579-.3a1.5,1.5,0,0,0-1.491-1.448H44.6a42.233,42.233,0,0,0-5.568-1.5,58.856,58.856,0,0,0,1.148-10.981h13.15c-.011.333-.029.664-.052.994l-6.227,6.238A.9.9,0,0,0,46.859,49.862Z"/>
    </g>
  </g>
</svg>
