<svg xmlns="http://www.w3.org/2000/svg" xmlns:xlink="http://www.w3.org/1999/xlink" width="113" height="113" viewBox="0 0 113 113">
  <defs>
    <filter id="Trazado_982547" x="0" y="0" width="113" height="113" filterUnits="userSpaceOnUse">
      <feOffset dy="3" input="SourceAlpha"/>
      <feGaussianBlur stdDeviation="3" result="blur"/>
      <feFlood flood-opacity="0.161"/>
      <feComposite operator="in" in2="blur"/>
      <feComposite in="SourceGraphic"/>
    </filter>
  </defs>
  <g id="Grupo_1178588" data-name="Grupo 1178588" transform="translate(-190 -525)">
    <g id="Grupo_1176377" data-name="Grupo 1176377" transform="translate(19 -1085)">
      <g id="Grupo_1173048" data-name="Grupo 1173048" transform="translate(0 944)">
        <g id="Grupo_1167505" data-name="Grupo 1167505" transform="translate(0 -151)">
          <g id="Grupo_1166845" data-name="Grupo 1166845" transform="translate(180 823)">
            <g id="Grupo_1166720" data-name="Grupo 1166720">
              <g id="Grupo_1164305" data-name="Grupo 1164305" transform="translate(0)">
                <g id="Grupo_1163948" data-name="Grupo 1163948">
                  <g id="Grupo_1158168" data-name="Grupo 1158168">
                    <g id="Grupo_1152576" data-name="Grupo 1152576">
                      <g id="Grupo_1148633" data-name="Grupo 1148633">
                        <g id="Grupo_1148525" data-name="Grupo 1148525">
                          <g transform="matrix(1, 0, 0, 1, -9, -6)" filter="url(#Trazado_982547)">
                            <g id="Trazado_982547-2" data-name="Trazado 982547" transform="translate(9 6)" fill="#fff4e6">
                              <path d="M 47.5 93.5 C 41.28937149047852 93.5 35.26533508300781 92.28397369384766 29.59518623352051 89.88570404052734 C 24.11771965026855 87.56893157958984 19.19813346862793 84.25196075439453 14.97309303283691 80.02691650390625 C 10.74804019927979 75.80186462402344 7.431066513061523 70.88229370117188 5.114293098449707 65.40481567382812 C 2.716026782989502 59.73468017578125 1.5 53.71062850952148 1.5 47.5 C 1.5 41.28937149047852 2.716026782989502 35.26533508300781 5.114293098449707 29.59518623352051 C 7.431066513061523 24.11771965026855 10.74804019927979 19.19813346862793 14.97309303283691 14.97309303283691 C 19.19813346862793 10.74804019927979 24.11771965026855 7.431066513061523 29.59518623352051 5.114293098449707 C 35.26533508300781 2.716026782989502 41.28937149047852 1.5 47.5 1.5 C 53.71062850952148 1.5 59.73468017578125 2.716026782989502 65.40481567382812 5.114293098449707 C 70.88229370117188 7.431066513061523 75.80186462402344 10.74804019927979 80.02691650390625 14.97309303283691 C 84.25196075439453 19.19813346862793 87.56893157958984 24.11771965026855 89.88570404052734 29.59518623352051 C 92.28397369384766 35.26533508300781 93.5 41.28937149047852 93.5 47.5 C 93.5 53.71062850952148 92.28397369384766 59.73468017578125 89.88570404052734 65.40481567382812 C 87.56893157958984 70.88229370117188 84.25196075439453 75.80186462402344 80.02691650390625 80.02691650390625 C 75.80186462402344 84.25196075439453 70.88229370117188 87.56893157958984 65.40481567382812 89.88570404052734 C 59.73468017578125 92.28397369384766 53.71062850952148 93.5 47.5 93.5 Z" stroke="none"/>
                              <path d="M 47.5 3 C 41.49121475219727 3 35.66376876831055 4.176155090332031 30.17950439453125 6.495796203613281 C 24.88084411621094 8.736953735351562 20.12152099609375 11.94598388671875 16.03375244140625 16.03375244140625 C 11.94598388671875 20.12152099609375 8.736953735351562 24.88084411621094 6.495796203613281 30.17950439453125 C 4.176155090332031 35.66376876831055 3 41.49121475219727 3 47.5 C 3 53.50878524780273 4.176155090332031 59.33623123168945 6.495796203613281 64.82049560546875 C 8.736953735351562 70.11915588378906 11.94598388671875 74.87847900390625 16.03375244140625 78.96624755859375 C 20.12152099609375 83.05401611328125 24.88084411621094 86.26304626464844 30.17950439453125 88.50419616699219 C 35.66376876831055 90.82384490966797 41.49121475219727 92 47.5 92 C 53.50878524780273 92 59.33623123168945 90.82384490966797 64.82049560546875 88.50419616699219 C 70.11915588378906 86.26304626464844 74.87847900390625 83.05401611328125 78.96624755859375 78.96624755859375 C 83.05401611328125 74.87847900390625 86.26304626464844 70.11915588378906 88.50419616699219 64.82049560546875 C 90.82384490966797 59.33623123168945 92 53.50878524780273 92 47.5 C 92 41.49121475219727 90.82384490966797 35.66376876831055 88.50419616699219 30.17950439453125 C 86.26304626464844 24.88084411621094 83.05401611328125 20.12152099609375 78.96624755859375 16.03375244140625 C 74.87847900390625 11.94598388671875 70.11915588378906 8.736953735351562 64.82049560546875 6.495796203613281 C 59.33623123168945 4.176155090332031 53.50878524780273 3 47.5 3 M 47.5 0 C 73.7335205078125 0 95 21.2664794921875 95 47.5 C 95 73.7335205078125 73.7335205078125 95 47.5 95 C 21.2664794921875 95 0 73.7335205078125 0 47.5 C 0 21.2664794921875 21.2664794921875 0 47.5 0 Z" stroke="none" fill="#ff9d1c"/>
                            </g>
                          </g>
                        </g>
                      </g>
                    </g>
                  </g>
                </g>
              </g>
            </g>
          </g>
        </g>
      </g>
    </g>
    <g id="inclusion" transform="translate(212 544.002)">
      <g id="Grupo_1178587" data-name="Grupo 1178587" transform="translate(4.839 4.836)">
        <path id="Trazado_1038036" data-name="Trazado 1038036" d="M92.432,356.741,91.7,371.727h26.939a1.061,1.061,0,0,0,1.058-1.058V357.8a1.061,1.061,0,0,0-1.058-1.058Z" transform="translate(-82.046 -315.376)" fill="#a0d904" fill-rule="evenodd"/>
        <path id="Trazado_1038037" data-name="Trazado 1038037" d="M92.279,383.141,91.7,394.968h26.939a1.061,1.061,0,0,0,1.058-1.058V384.2a1.061,1.061,0,0,0-1.058-1.058H92.279Z" transform="translate(-82.047 -338.618)" fill="#baed2c" fill-rule="evenodd"/>
        <path id="Trazado_1038038" data-name="Trazado 1038038" d="M27.353,324.629a1.779,1.779,0,0,0,3.521.444l.039.57a1.96,1.96,0,0,0,1.9,1.9,1.911,1.911,0,0,0,1.9-1.9v.546a1.9,1.9,0,1,0,3.81,0v-.519a1.9,1.9,0,0,0,3.81,0v-4.223a1.884,1.884,0,0,0,3.769,0v-5.455a4.707,4.707,0,0,0-1.338-3.356l-1.914-2.019a4.706,4.706,0,0,1-1.338-3.337l-.01-2.684H28.176l0,6.9c0,3.822-1.217,3.808-1.2,8.381l.374,4.755Z" transform="translate(-25.069 -269.47)" fill="#fdb0a0" fill-rule="evenodd"/>
        <path id="Trazado_1038039" data-name="Trazado 1038039" d="M27.353,324.63a1.779,1.779,0,0,0,3.521.444l.039.57a1.96,1.96,0,0,0,1.9,1.9,1.911,1.911,0,0,0,1.9-1.9v.546a1.9,1.9,0,1,0,3.81,0v-.519a1.9,1.9,0,0,0,3.81,0v-4.223a1.891,1.891,0,0,0,1.22,1.763,1.891,1.891,0,0,0,1.22-1.763v-4.773a4.707,4.707,0,0,0-1.338-3.356L41.53,311.3a4.7,4.7,0,0,1-1.338-3.337l-.008-3.366H28.176l0,6.9c0,3.822-1.217,3.808-1.2,8.381l.374,4.755Z" transform="translate(-25.069 -269.471)" fill="#ffcec0" fill-rule="evenodd"/>
        <path id="Trazado_1038040" data-name="Trazado 1038040" d="M45.13,465.675v-2.131a.862.862,0,1,1,1.723,0v.7A1.661,1.661,0,0,1,45.13,465.675Z" transform="translate(-41.048 -408.643)" fill="#fdb0a0" fill-rule="evenodd"/>
        <path id="Trazado_1038041" data-name="Trazado 1038041" d="M75.777,470.8v-2.532a.952.952,0,0,1,1.9,0v.627a1.91,1.91,0,0,1-1.9,1.9Z" transform="translate(-68.029 -412.721)" fill="#fdb0a0" fill-rule="evenodd"/>
        <path id="Trazado_1038042" data-name="Trazado 1038042" d="M107.622,470.21v-3.232a.952.952,0,0,1,1.9,0v1.327A1.911,1.911,0,0,1,107.622,470.21Z" transform="translate(-96.064 -411.587)" fill="#fdb0a0" fill-rule="evenodd"/>
        <path id="Trazado_1038043" data-name="Trazado 1038043" d="M139.465,411.088V400.41a.952.952,0,1,1,1.9,0v8.773a1.911,1.911,0,0,1-1.905,1.9Z" transform="translate(-124.097 -352.983)" fill="#fdb0a0" fill-rule="evenodd"/>
        <path id="Trazado_1038044" data-name="Trazado 1038044" d="M45,92.419l-14.986-.733v26.939a1.061,1.061,0,0,0,1.058,1.058h12.87A1.061,1.061,0,0,0,45,118.625Z" transform="translate(-27.745 -82.033)" fill="#f2671f" fill-rule="evenodd"/>
        <path id="Trazado_1038045" data-name="Trazado 1038045" d="M41.846,92.265l-11.827-.579v26.939a1.061,1.061,0,0,0,1.058,1.058h9.711a1.061,1.061,0,0,0,1.058-1.058Z" transform="translate(-27.745 -82.033)" fill="#ff8748" fill-rule="evenodd"/>
        <path id="Trazado_1038046" data-name="Trazado 1038046" d="M30.02,297.1v2.363a1.061,1.061,0,0,0,1.058,1.058h12.87a1.061,1.061,0,0,0,1.058-1.058V297.1Z" transform="translate(-27.746 -262.872)" fill="#495586" fill-rule="evenodd"/>
        <path id="Trazado_1038047" data-name="Trazado 1038047" d="M30.02,297.1v2.363a1.061,1.061,0,0,0,1.058,1.058h9.711a1.061,1.061,0,0,0,1.058-1.058V297.1Z" transform="translate(-27.746 -262.872)" fill="#5d689e" fill-rule="evenodd"/>
        <path id="Trazado_1038048" data-name="Trazado 1038048" d="M14.479,27.339a1.779,1.779,0,0,0-.444,3.521l-.57.039a1.96,1.96,0,0,0-1.9,1.9,1.911,1.911,0,0,0,1.9,1.9h-.546a1.9,1.9,0,1,0,0,3.81h.519a1.9,1.9,0,0,0,0,3.81h4.224a1.884,1.884,0,0,0,0,3.769h5.455a4.707,4.707,0,0,0,3.356-1.338l2.019-1.914a4.706,4.706,0,0,1,3.337-1.338l2.684-.01V28.162l-6.9,0c-3.822,0-3.808-1.217-8.381-1.2Z" transform="translate(-11.014 -25.055)" fill="#fdb0a0" fill-rule="evenodd"/>
        <path id="Trazado_1038049" data-name="Trazado 1038049" d="M14.479,27.339a1.779,1.779,0,0,0-.444,3.521l-.57.039a1.96,1.96,0,0,0-1.9,1.9,1.911,1.911,0,0,0,1.9,1.9h-.546a1.9,1.9,0,0,0,0,3.81h.519a1.9,1.9,0,0,0,0,3.81h4.224a1.891,1.891,0,0,0-1.763,1.22,1.891,1.891,0,0,0,1.763,1.22h4.773a4.707,4.707,0,0,0,3.356-1.338l2.019-1.914a4.7,4.7,0,0,1,3.337-1.338l3.366-.008V28.162l-6.9,0c-3.822,0-3.808-1.217-8.381-1.2l-4.755.374Z" transform="translate(-11.014 -25.055)" fill="#ffcec0" fill-rule="evenodd"/>
        <path id="Trazado_1038050" data-name="Trazado 1038050" d="M24.314,45.117h2.131a.862.862,0,0,1,0,1.723h-.7A1.661,1.661,0,0,1,24.314,45.117Z" transform="translate(-22.722 -41.035)" fill="#fdb0a0" fill-rule="evenodd"/>
        <path id="Trazado_1038051" data-name="Trazado 1038051" d="M15.578,75.764H18.11a.952.952,0,1,1,0,1.9h-.627A1.91,1.91,0,0,1,15.578,75.764Z" transform="translate(-15.032 -68.016)" fill="#fdb0a0" fill-rule="evenodd"/>
        <path id="Trazado_1038052" data-name="Trazado 1038052" d="M11.014,107.607h3.232a.952.952,0,0,1,0,1.9H12.919a1.911,1.911,0,0,1-1.9-1.905Z" transform="translate(-11.014 -96.049)" fill="#fdb0a0" fill-rule="evenodd"/>
        <path id="Trazado_1038053" data-name="Trazado 1038053" d="M15.349,139.453H26.027a.952.952,0,0,1,0,1.9H17.254A1.911,1.911,0,0,1,15.349,139.453Z" transform="translate(-14.83 -124.085)" fill="#fdb0a0" fill-rule="evenodd"/>
        <path id="Trazado_1038054" data-name="Trazado 1038054" d="M213.585,44.992l.733-14.986H187.379a1.061,1.061,0,0,0-1.058,1.058v12.87a1.061,1.061,0,0,0,1.058,1.058h26.206Z" transform="translate(-165.347 -27.732)" fill="#2a92fa" fill-rule="evenodd"/>
        <path id="Trazado_1038055" data-name="Trazado 1038055" d="M213.739,41.833l.579-11.827H187.379a1.061,1.061,0,0,0-1.058,1.058v9.711a1.061,1.061,0,0,0,1.058,1.058h26.36Z" transform="translate(-165.347 -27.732)" fill="#4eb1fc" fill-rule="evenodd"/>
        <path id="Trazado_1038056" data-name="Trazado 1038056" d="M189.742,30.006h-2.363a1.061,1.061,0,0,0-1.058,1.058V43.934a1.061,1.061,0,0,0,1.058,1.058h2.363Z" transform="translate(-165.347 -27.732)" fill="#495586" fill-rule="evenodd"/>
        <path id="Trazado_1038057" data-name="Trazado 1038057" d="M189.742,30.006h-2.363a1.061,1.061,0,0,0-1.058,1.058v9.711a1.061,1.061,0,0,0,1.058,1.058h2.363Z" transform="translate(-165.347 -27.732)" fill="#5d689e" fill-rule="evenodd"/>
        <path id="Trazado_1038058" data-name="Trazado 1038058" d="M343.9,14.465a1.779,1.779,0,0,0-3.521-.444l-.039-.57a1.96,1.96,0,0,0-1.9-1.9,1.911,1.911,0,0,0-1.9,1.9V12.9a1.9,1.9,0,1,0-3.81,0v.519a1.9,1.9,0,0,0-3.81,0v4.224a1.884,1.884,0,0,0-3.769,0V23.1a4.707,4.707,0,0,0,1.338,3.356l1.914,2.019a4.706,4.706,0,0,1,1.338,3.337l.01,2.684h13.335l0-6.9c0-3.822,1.217-3.808,1.2-8.381Z" transform="translate(-287.56 -11)" fill="#fdb0a0" fill-rule="evenodd"/>
        <path id="Trazado_1038059" data-name="Trazado 1038059" d="M353.672,14.465a1.779,1.779,0,0,0-3.521-.444l-.039-.57a1.96,1.96,0,0,0-1.9-1.9,1.911,1.911,0,0,0-1.9,1.9V12.9a1.9,1.9,0,1,0-3.81,0v.519a1.9,1.9,0,0,0-3.81,0v4.224a1.3,1.3,0,1,0-2.441,0V22.42a4.707,4.707,0,0,0,1.338,3.356l1.914,2.019a4.7,4.7,0,0,1,1.338,3.337l.008,3.366h12.009l0-6.9c0-3.822,1.217-3.808,1.2-8.381l-.373-4.755Z" transform="translate(-297.332 -11)" fill="#ffcec0" fill-rule="evenodd"/>
        <path id="Trazado_1038060" data-name="Trazado 1038060" d="M454.219,24.3v2.131a.862.862,0,0,1-1.723,0v-.7A1.661,1.661,0,0,1,454.219,24.3Z" transform="translate(-399.677 -22.709)" fill="#fdb0a0" fill-rule="evenodd"/>
        <path id="Trazado_1038061" data-name="Trazado 1038061" d="M422.234,15.564V18.1a.952.952,0,1,1-1.9,0v-.627A1.91,1.91,0,0,1,422.234,15.564Z" transform="translate(-371.358 -15.018)" fill="#fdb0a0" fill-rule="evenodd"/>
        <path id="Trazado_1038062" data-name="Trazado 1038062" d="M390.39,11v3.232a.952.952,0,0,1-1.9,0V12.9a1.911,1.911,0,0,1,1.9-1.9Z" transform="translate(-343.324 -11)" fill="#fdb0a0" fill-rule="evenodd"/>
        <path id="Trazado_1038063" data-name="Trazado 1038063" d="M358.545,15.335V26.013a.952.952,0,1,1-1.9,0V17.24a1.911,1.911,0,0,1,1.9-1.9Z" transform="translate(-315.289 -14.816)" fill="#fdb0a0" fill-rule="evenodd"/>
        <path id="Trazado_1038064" data-name="Trazado 1038064" d="M356.754,213.571l14.986.733V187.365a1.061,1.061,0,0,0-1.058-1.058h-12.87a1.061,1.061,0,0,0-1.058,1.058Z" transform="translate(-315.389 -165.333)" fill="#fdc72e" fill-rule="evenodd"/>
        <path id="Trazado_1038065" data-name="Trazado 1038065" d="M383.154,213.725l11.827.579V187.365a1.061,1.061,0,0,0-1.058-1.058h-9.711a1.061,1.061,0,0,0-1.058,1.058Z" transform="translate(-338.631 -165.333)" fill="#fcdb35" fill-rule="evenodd"/>
        <path id="Trazado_1038066" data-name="Trazado 1038066" d="M371.74,189.729v-2.363a1.061,1.061,0,0,0-1.058-1.058h-12.87a1.061,1.061,0,0,0-1.058,1.058v2.363Z" transform="translate(-315.39 -165.334)" fill="#495586" fill-rule="evenodd"/>
        <path id="Trazado_1038067" data-name="Trazado 1038067" d="M394.981,189.729v-2.363a1.061,1.061,0,0,0-1.058-1.058h-9.711a1.061,1.061,0,0,0-1.058,1.058v2.363Z" transform="translate(-338.631 -165.334)" fill="#5d689e" fill-rule="evenodd"/>
        <path id="Trazado_1038068" data-name="Trazado 1038068" d="M324.642,343.885a1.779,1.779,0,0,0,.444-3.521l.57-.039a1.96,1.96,0,0,0,1.9-1.905,1.91,1.91,0,0,0-1.9-1.9h.546a1.9,1.9,0,1,0,0-3.81h-.519a1.905,1.905,0,0,0,0-3.81H321.46a1.884,1.884,0,0,0,0-3.768h-5.455a4.707,4.707,0,0,0-3.356,1.338l-2.019,1.914a4.706,4.706,0,0,1-3.337,1.338l-2.684.01v13.335l6.9,0c3.822,0,3.808,1.217,8.381,1.2l4.755-.374Z" transform="translate(-269.483 -287.545)" fill="#fdb0a0" fill-rule="evenodd"/>
        <path id="Trazado_1038069" data-name="Trazado 1038069" d="M324.643,353.656a1.779,1.779,0,0,0,.444-3.521l.57-.039a1.96,1.96,0,0,0,1.9-1.905,1.91,1.91,0,0,0-1.9-1.9h.546a1.9,1.9,0,0,0,0-3.81h-.519a1.905,1.905,0,0,0,0-3.81h-4.224a1.3,1.3,0,1,0,0-2.441h-4.773a4.707,4.707,0,0,0-3.356,1.338l-2.019,1.914a4.7,4.7,0,0,1-3.337,1.338l-3.366.008v12.009l6.9,0c3.822,0,3.808,1.217,8.381,1.2l4.755-.374Z" transform="translate(-269.484 -297.316)" fill="#ffcec0" fill-rule="evenodd"/>
        <path id="Trazado_1038070" data-name="Trazado 1038070" d="M465.688,454.206h-2.131a.862.862,0,0,1,0-1.723h.7A1.661,1.661,0,0,1,465.688,454.206Z" transform="translate(-408.657 -399.664)" fill="#fdb0a0" fill-rule="evenodd"/>
        <path id="Trazado_1038071" data-name="Trazado 1038071" d="M470.813,422.221h-2.532a.952.952,0,1,1,0-1.9h.627A1.91,1.91,0,0,1,470.813,422.221Z" transform="translate(-412.735 -371.345)" fill="#fdb0a0" fill-rule="evenodd"/>
        <path id="Trazado_1038072" data-name="Trazado 1038072" d="M470.224,390.376h-3.232a.952.952,0,0,1,0-1.9h1.327a1.911,1.911,0,0,1,1.9,1.905Z" transform="translate(-411.6 -343.31)" fill="#fdb0a0" fill-rule="evenodd"/>
        <path id="Trazado_1038073" data-name="Trazado 1038073" d="M411.1,358.532H400.424a.952.952,0,1,1,0-1.9H409.2a1.911,1.911,0,0,1,1.9,1.905Z" transform="translate(-352.997 -315.276)" fill="#fdb0a0" fill-rule="evenodd"/>
        <path id="Trazado_1038074" data-name="Trazado 1038074" d="M297.114,371.726h2.363a1.061,1.061,0,0,0,1.058-1.058V357.8a1.061,1.061,0,0,0-1.058-1.058h-2.363Z" transform="translate(-262.885 -315.375)" fill="#495586" fill-rule="evenodd"/>
        <path id="Trazado_1038075" data-name="Trazado 1038075" d="M297.114,394.968h2.363a1.061,1.061,0,0,0,1.058-1.058V384.2a1.061,1.061,0,0,0-1.058-1.058h-2.363v11.827Z" transform="translate(-262.885 -338.618)" fill="#5d689e" fill-rule="evenodd"/>
      </g>
      <circle id="Elipse_12292" data-name="Elipse 12292" cx="7.286" cy="7.286" r="7.286" transform="translate(26.191 27.601) rotate(-5.682)" fill="#8bbd00"/>
      <path id="Trazado_1038076" data-name="Trazado 1038076" d="M201.613,209.947a7.286,7.286,0,1,1,6.5-7.243A7.287,7.287,0,0,1,201.613,209.947Z" transform="translate(-168.252 -168.556)" fill="#a8e304" fill-rule="evenodd"/>
      <path id="Trazado_1038077" data-name="Trazado 1038077" d="M37.63,31.389a.837.837,0,0,1,0,1.184L33.3,36.905a.839.839,0,0,1-.592.245.77.77,0,0,1-.11-.007.834.834,0,0,1-.615-.412l-1.444-2.5a.837.837,0,1,1,1.45-.837l.9,1.555,3.56-3.56a.839.839,0,0,1,1.185,0ZM34.149,40.6A6.448,6.448,0,1,0,27.7,34.148,6.456,6.456,0,0,0,34.149,40.6Zm0-14.571a8.123,8.123,0,1,0,8.124,8.124,8.133,8.133,0,0,0-8.124-8.124ZM61.032,59.369a1.052,1.052,0,0,1-1.1.972l-4.725.371h-.067a13.175,13.175,0,0,1-4.287-.6,12.424,12.424,0,0,0-3.982-.6h-.01l-3.536,0V47.8a5.518,5.518,0,0,0,3.237-1.528l2.02-1.914a3.864,3.864,0,0,1,2.779-1.108h5.454a1.047,1.047,0,1,1,0,2.093h-3.6a.838.838,0,0,0,0,1.675h7.826a1.068,1.068,0,1,1,0,2.135.838.838,0,0,0,0,1.675h.52a1.067,1.067,0,0,1,0,2.134H61.01a.837.837,0,1,0,0,1.675,1.069,1.069,0,0,1,1.069,1.067,1.13,1.13,0,0,1-1.125,1.07l-.571.038a.838.838,0,0,0-.093,1.66.831.831,0,0,1,.742.891Zm-19.382.759a.222.222,0,0,1-.22.22H39.9V47.038h1.525a.222.222,0,0,1,.22.22ZM20.2,62.1a1.068,1.068,0,0,1-1.067-1.067.838.838,0,0,0-1.675,0v.518a1.067,1.067,0,1,1-2.134,0v-.546a.837.837,0,1,0-1.675,0,1.069,1.069,0,0,1-1.069,1.067,1.131,1.131,0,0,1-1.07-1.123l-.038-.571a.837.837,0,0,0-1.659-.093h0a.83.83,0,0,1-.89.742,1.053,1.053,0,0,1-.972-1.1L7.585,55.2a13.18,13.18,0,0,1,.6-4.354,12.473,12.473,0,0,0,.6-3.993l0-3.534H20.493a5.5,5.5,0,0,0,1.526,3.235l1.914,2.021a3.865,3.865,0,0,1,1.108,2.778v5.456a1.047,1.047,0,0,1-2.093,0v-3.6a.838.838,0,0,0-1.675,0v7.825A1.068,1.068,0,0,1,20.2,62.1ZM7.261,19.136a.837.837,0,1,0,0-1.675h-.52a1.067,1.067,0,0,1,0-2.135h.547a.837.837,0,1,0,0-1.675,1.069,1.069,0,0,1-1.068-1.067,1.129,1.129,0,0,1,1.125-1.069l.571-.039a.838.838,0,0,0,.093-1.66.83.83,0,0,1-.742-.891,1.052,1.052,0,0,1,1.1-.972l4.724-.371h.067a13.17,13.17,0,0,1,4.286.6,12.425,12.425,0,0,0,3.983.6h3.545V20.489a5.518,5.518,0,0,0-3.236,1.528l-2.02,1.914a3.867,3.867,0,0,1-2.779,1.108H11.484a1.047,1.047,0,0,1,0-2.094h3.6a.838.838,0,0,0,0-1.675H7.261a1.067,1.067,0,1,1,0-2.134ZM26.649,8.167a.223.223,0,0,1,.22-.22h1.526V21.258H26.869a.224.224,0,0,1-.22-.221ZM48.093,6.191a1.068,1.068,0,0,1,1.067,1.067.837.837,0,0,0,1.675,0V6.74a1.068,1.068,0,0,1,2.136,0v.546a.837.837,0,0,0,1.675,0,1.068,1.068,0,0,1,1.067-1.067,1.13,1.13,0,0,1,1.069,1.123l.039.571a.837.837,0,0,0,.835.781l.056,0a.836.836,0,0,0,.767-.685h0a.831.831,0,0,1,.89-.742,1.055,1.055,0,0,1,.972,1.1l.371,4.724a13.193,13.193,0,0,1-.6,4.354,12.472,12.472,0,0,0-.6,3.993l0,3.534H47.806a5.51,5.51,0,0,0-1.526-3.236l-1.914-2.02a3.869,3.869,0,0,1-1.108-2.779V11.482a1.047,1.047,0,0,1,2.094,0v3.6a.838.838,0,1,0,1.675,0V7.259a1.068,1.068,0,0,1,1.067-1.067ZM60.129,26.646a.224.224,0,0,1,.221.221v1.525H47.039V26.868a.224.224,0,0,1,.22-.221ZM45.351,8.971V7.947H30.069V21.258H43.518l-.368-.389a5.542,5.542,0,0,1-1.567-3.931V11.482A2.725,2.725,0,0,1,44.3,8.76a2.7,2.7,0,0,1,1.047.211ZM8.169,41.648a.223.223,0,0,1-.22-.22V39.9h13.31v1.527a.223.223,0,0,1-.22.22Zm.8-18.7H7.949V38.226h13.31V24.779l-.389.368a5.542,5.542,0,0,1-3.931,1.567H11.484a2.725,2.725,0,0,1-2.722-2.722,2.7,2.7,0,0,1,.21-1.047ZM22.948,59.323v1.024H38.229V47.038H24.78l.368.388a5.54,5.54,0,0,1,1.567,3.931v5.456a2.725,2.725,0,0,1-2.722,2.722,2.7,2.7,0,0,1-1.047-.211ZM42.969,46.156a3.834,3.834,0,0,0,2.4-1.054V26.868a1.891,1.891,0,0,1,.794-1.54,3.833,3.833,0,0,0-1.055-2.4H26.869a1.894,1.894,0,0,1-1.54-.794,3.84,3.84,0,0,0-2.395,1.054V41.428a1.891,1.891,0,0,1-.795,1.539,3.838,3.838,0,0,0,1.055,2.4H41.429a1.894,1.894,0,0,1,1.54.793ZM56.814,41.58A2.725,2.725,0,0,1,59.536,44.3a2.691,2.691,0,0,1-.209,1.047h1.024V30.068H47.039V43.516l.389-.368A5.541,5.541,0,0,1,51.36,41.58h5.454ZM64.3,51.9a2.735,2.735,0,0,0-1.066-2.168,2.74,2.74,0,0,0-1.207-4.2V26.868a1.9,1.9,0,0,0-.834-1.57l0-3.862a10.744,10.744,0,0,1,.53-3.525,14.9,14.9,0,0,0,.668-4.858.556.556,0,0,0,0-.062l-.373-4.756a2.726,2.726,0,0,0-2.556-2.643,2.516,2.516,0,0,0-1.4.326,2.7,2.7,0,0,0-2.346-1.375,2.73,2.73,0,0,0-1.629.537,2.739,2.739,0,0,0-4.35-.018,2.741,2.741,0,0,0-4.2,1.208H26.869A1.9,1.9,0,0,0,25.3,7.1l-3.861,0h-.01a10.743,10.743,0,0,1-3.516-.529,14.781,14.781,0,0,0-4.754-.67c-.055,0-.111,0-.167,0l-4.754.374A2.725,2.725,0,0,0,5.6,8.84a2.519,2.519,0,0,0,.326,1.4,2.7,2.7,0,0,0-1.376,2.347,2.738,2.738,0,0,0,.537,1.629,2.738,2.738,0,0,0-.017,4.349,2.739,2.739,0,0,0,1.208,4.2V41.428A1.9,1.9,0,0,0,7.107,43l0,3.861a10.75,10.75,0,0,1-.53,3.525,14.882,14.882,0,0,0-.669,4.858.551.551,0,0,0,0,.062l.374,4.756A2.725,2.725,0,0,0,8.842,62.7c.047,0,.093,0,.14,0a2.51,2.51,0,0,0,1.257-.329,2.7,2.7,0,0,0,2.347,1.374,2.729,2.729,0,0,0,1.629-.537,2.737,2.737,0,0,0,4.35.018,2.74,2.74,0,0,0,4.2-1.208H41.429A1.893,1.893,0,0,0,43,61.19l3.862,0h.01a10.748,10.748,0,0,1,3.516.529,14.781,14.781,0,0,0,4.755.67c.055,0,.11,0,.166,0l4.755-.373a2.729,2.729,0,0,0,2.644-2.556,2.532,2.532,0,0,0-.328-1.4,2.7,2.7,0,0,0,1.375-2.348,2.73,2.73,0,0,0-.537-1.629A2.74,2.74,0,0,0,64.3,51.9Z" transform="translate(0 0)" fill-rule="evenodd"/>
    </g>
  </g>
</svg>
