<svg xmlns="http://www.w3.org/2000/svg" xmlns:xlink="http://www.w3.org/1999/xlink" width="400" height="515" viewBox="0 0 400 515">
  <defs>
    <clipPath id="clip-path">
      <rect id="Rectángulo_415484" data-name="Rectángulo 415484" width="400" height="515" transform="translate(1020 7998)" fill="#fff" stroke="#707070" stroke-width="1" opacity="0.82"/>
    </clipPath>
  </defs>
  <g id="Enmascarar_grupo_1098814" data-name="Enmascarar grupo 1098814" transform="translate(-1020 -7998)" clip-path="url(#clip-path)">
    <g id="OBJECTS" transform="translate(963.713 8060.554)">
      <g id="Grupo_1178662" data-name="Grupo 1178662" transform="translate(0 5.377)">
        <path id="Trazado_1038189" data-name="Trazado 1038189" d="M412.3,207.111a24.486,24.486,0,0,1,2.511-4.973,27.977,27.977,0,0,1,2.058-2.546c.633-.707,1.329-1.367,2.048-2.037l.606-.576c1.92-1.828,3.838-3.66,5.732-5.508a134.688,134.688,0,0,0,9.762-10.449,71.13,71.13,0,0,0,7.846-11.635,65.187,65.187,0,0,0,5.456-14.034,64.429,64.429,0,0,0,1.383-27.184,66.249,66.249,0,0,0-3.481-12.751,70,70,0,0,0-5.913-11.83A78.786,78.786,0,0,0,422.292,83.5a90.286,90.286,0,0,0-24.635-13.92,95.482,95.482,0,0,0-14.148-4.119A101.068,101.068,0,0,0,365.2,63.477a228.821,228.821,0,0,0-25.422,1.06c-1.3.11-2.6.222-3.9.335l-.323.027-.245.024c-1.471.126-2.893.246-4.309.365q-1.621.136-3.243.267c-5.523.433-10.185.689-14.248.781-4.264.117-8.856.06-14.889-.186l-.092,0-.1,0-.129-.006-.184-.007.1.114a347.647,347.647,0,0,1-37.746-4.125c-5.557-.925-11.546-2.072-18.311-3.506-2.128-.454-4.241-.919-6.36-1.387l-.394-.085-.415-.09-1.011-.222-.37-.084-.55-.123c-2.533-.557-5.056-1.113-7.58-1.646-6.536-1.394-11.815-2.381-16.615-3.105A143.071,143.071,0,0,0,192.524,50.3a87.243,87.243,0,0,0-10.11.231,67.327,67.327,0,0,0-20.979,5.073,60.915,60.915,0,0,0-12.078,6.971c-2.025,1.482-3.966,3.182-5.429,4.5l-.278.253c-1.676,1.517-3.346,3.026-5.041,4.512-3.644,3.164-6.816,5.686-9.977,7.942a89.167,89.167,0,0,1-11.455,6.876c-5.055,2.461-10.287,4.451-15.345,6.374l-.162.066c-5.169,1.961-10.514,3.989-15.778,6.461a67.4,67.4,0,0,0-14.027,8.425,33.337,33.337,0,0,0-8.5,9.944,26.284,26.284,0,0,0-3.1,10.876,33.267,33.267,0,0,0,.1,5.512,42.285,42.285,0,0,0,1.148,6.02,57.1,57.1,0,0,0,4.431,11.386,108.62,108.62,0,0,0,6.507,11.164c2.833,4.358,6.022,8.7,9.045,12.752l1.681,2.245.621.831.092.126.108.144c.638.851,1.271,1.7,1.9,2.543a88.813,88.813,0,0,1,5.594,8.412,69.029,69.029,0,0,1,3.376,7.117,57.964,57.964,0,0,1,2.5,7.879,67.787,67.787,0,0,1,1.435,9.478,78.8,78.8,0,0,1,.111,10.194c-.54,9.277-2.3,18.538-4,27.493l-.107.576-.744,3.963-.039.2c-.941,5.035-1.908,10.22-2.405,15.485a84.372,84.372,0,0,0-.186,13.667,69.07,69.07,0,0,0,1.839,11.846H378.479c.233-.108.473-.211.7-.32a76,76,0,0,0,9.544-5.328,63.518,63.518,0,0,0,8.393-6.642,54.115,54.115,0,0,0,12.393-17.528,61.233,61.233,0,0,0,3.666-11.257,51.135,51.135,0,0,0,1.037-6.141,48.187,48.187,0,0,0,.133-7.191,109.626,109.626,0,0,0-1.616-12.577l-.029-.174-.014-.082-.017-.088a97.4,97.4,0,0,1-1.684-14.237c-.016-.593-.006-1.245.032-2.184A28.7,28.7,0,0,1,412.3,207.111Z" transform="translate(0 144.676)" fill="#ffe1b9"/>
      </g>
      <g id="Grupo_1178674" data-name="Grupo 1178674" transform="translate(0 -117.378)">
        <path id="Trazado_1038207" data-name="Trazado 1038207" d="M228.736,81.654H70.907A12.207,12.207,0,0,0,58.861,93.7V202.629a12.207,12.207,0,0,0,12.046,12.046H228.736a12.207,12.207,0,0,0,12.046-12.046V93.7a12.207,12.207,0,0,0-12.046-12.046" fill="#ff9d1c"/>
        <g id="Grupo_1178673" data-name="Grupo 1178673">
          <rect id="Rectángulo_415479" data-name="Rectángulo 415479" width="28.317" height="85.537" transform="translate(83.545 106.183)" fill="#fff4e6"/>
          <rect id="Rectángulo_415480" data-name="Rectángulo 415480" width="28.32" height="51.676" transform="translate(118.848 139.357)" fill="#fff4e6"/>
          <rect id="Rectángulo_415481" data-name="Rectángulo 415481" width="28.316" height="67.492" transform="translate(154.156 123.312)" fill="#fff4e6"/>
          <path id="Trazado_1038208" data-name="Trazado 1038208" d="M72.9,100.9a2.049,2.049,0,0,0-2.022,2.022v88.406a2.014,2.014,0,0,0,.11.648,1.77,1.77,0,0,0-.047.415,2.049,2.049,0,0,0,2.021,2.021h151.86a2.021,2.021,0,1,0,0-4.043H74.9l.022-43.4V102.926A2.049,2.049,0,0,0,72.9,100.9" fill="#ffe1b9"/>
        </g>
      </g>
      <g id="Grupo_1178684" data-name="Grupo 1178684" transform="translate(91.871 -33.217)">
        <path id="Trazado_1038218" data-name="Trazado 1038218" d="M272.806,130.407c4.144,1.369,9.991-5.032,13.048-14.286s2.176-17.879-1.968-19.248-9.991,5.033-13.049,14.286-2.175,17.879,1.969,19.248" fill="#ffe1b9"/>
        <path id="Trazado_1038219" data-name="Trazado 1038219" d="M292.48,108.246a22.413,22.413,0,0,0,17.114-16.918,22.611,22.611,0,0,1-17.114,16.918" fill="#63c0c7"/>
        <path id="Trazado_1038220" data-name="Trazado 1038220" d="M287.781,64a22.37,22.37,0,0,0-14.717,39.22c-.372,1.551-.709,2.961-1.106,4.4a.569.569,0,0,0,0,.3.716.716,0,0,0,.251.62,19.667,19.667,0,0,0,6.435,3.569,27.532,27.532,0,0,0,7.478,1.521l.117,0a.7.7,0,0,0,.381-.094.733.733,0,0,0,.6-.576c.278-1.281.65-2.665,1.135-4.229A22.371,22.371,0,0,0,287.781,64" fill="#ffc14d"/>
        <path id="Trazado_1038221" data-name="Trazado 1038221" d="M295.164,86.635a3.565,3.565,0,0,0-.125-1.5,2.945,2.945,0,0,0-.941-1.363,3.293,3.293,0,0,0-1.281-.641,4.687,4.687,0,0,0-1.774-.082,3.75,3.75,0,0,0-.575.114,5.286,5.286,0,0,0-4.14-1.844,4.4,4.4,0,0,0-1.272.255,4.137,4.137,0,0,0-2.439-1.724,3.439,3.439,0,0,0-.814-.1c-.057,0-.114,0-.17,0a3.145,3.145,0,0,0-1.113.274,2.51,2.51,0,0,0-.863.652,3.5,3.5,0,0,0-.575.954.826.826,0,0,0-.225.507q-1.822,13.552-3.641,27.1a.732.732,0,0,0,.2.531.752.752,0,0,0,1.059.047.81.81,0,0,0,.242-.531q1.8-13.422,3.606-26.842a.874.874,0,0,0,.1-.178c.017-.048.035-.1.055-.143a3.014,3.014,0,0,1,.26-.419,2.382,2.382,0,0,1,.226-.212,2.285,2.285,0,0,1,.313-.166,3.248,3.248,0,0,1,.331-.076,3,3,0,0,1,.483.014,3.436,3.436,0,0,1,.6.186,3.691,3.691,0,0,1,.59.37,3.874,3.874,0,0,1,.457.484l.013.021-.06.05a4.76,4.76,0,0,0-1.2,1.86,4.87,4.87,0,0,0-.32,1.054,3.52,3.52,0,0,0-.066.6,1.982,1.982,0,0,0,.14.719,1.625,1.625,0,0,0,2.2.7,2.6,2.6,0,0,0,1.246-2.2,6.154,6.154,0,0,0,.015-1.258,7.98,7.98,0,0,0-.111-.888,3.808,3.808,0,0,1,.646-.143,4.3,4.3,0,0,1,.848.036,4.79,4.79,0,0,1,.917.289,5.089,5.089,0,0,1,.923.585c.057.05.111.1.164.154a4.282,4.282,0,0,0-.477.494,4.172,4.172,0,0,0-.886,2.141,2.252,2.252,0,0,0,.457,1.789,1.262,1.262,0,0,0,.883.387,1.776,1.776,0,0,0,1.066-.422,2.771,2.771,0,0,0,.422-.4,4.2,4.2,0,0,0,.433-.562,3.411,3.411,0,0,0,.461-1.324,2.972,2.972,0,0,0-.082-1.145,3.213,3.213,0,0,0-.09-.315l.134-.02a4.462,4.462,0,0,1,.8.022,3.43,3.43,0,0,1,.6.182,2.742,2.742,0,0,1,.374.241,2.548,2.548,0,0,1,.243.268,2.943,2.943,0,0,1,.173.335,3.115,3.115,0,0,1,.09.4,4.17,4.17,0,0,1-.033.731.469.469,0,0,0,.011.072q-5.7,12.479-11.392,24.961c-.013.025-.026.051-.038.078s-.013.032-.02.048l-.035.077a.711.711,0,0,0,.051.57.755.755,0,0,0,.445.367.74.74,0,0,0,.57-.054.836.836,0,0,0,.368-.442c.007-.015.015-.031.022-.047Q289.4,99.694,295.17,87.06A.611.611,0,0,0,295.164,86.635Zm-10.99-1.451a3.388,3.388,0,0,1-.148.51,1.929,1.929,0,0,1-.116.19l-.053.049-.044.024a.938.938,0,0,1-.092.02h-.11s0-.006,0-.009a2.184,2.184,0,0,1,.014-.323,5.183,5.183,0,0,1,.339-1.047c.08-.173.165-.344.26-.51A6.084,6.084,0,0,1,284.174,85.184Zm5.777.745a2.718,2.718,0,0,1-.132.413,3.014,3.014,0,0,1-.29.446,3.459,3.459,0,0,1-.3.3.529.529,0,0,1-.009-.055,2.773,2.773,0,0,1,.025-.531,3.722,3.722,0,0,1,.2-.631,3.788,3.788,0,0,1,.371-.589c.032-.035.065-.068.1-.1a3.059,3.059,0,0,1,.06.3A2.857,2.857,0,0,1,289.951,85.929Z" fill="#714a79"/>
        <path id="Trazado_1038222" data-name="Trazado 1038222" d="M270.693,105.454a3,3,0,0,0-2.1,3.688,3.243,3.243,0,0,0,1.379,1.792c.568.416,1.142.808,1.735,1.176.028.019.057.037.086.055.082.052.165.1.249.15l.067.041a29.4,29.4,0,0,0,2.755,1.382,3.052,3.052,0,0,0,.757.329,25.093,25.093,0,0,0,3.612,1.2l.032.007c.034.009.069.017.1.023l.046.013c.043.01.087.019.13.027.027.006.054.013.082.018s.056.015.085.021l.164.035.114.023c.388.079.776.152,1.167.215l.061.01.294.045.1.013.047.007.727.1h0c.412.053.826.1,1.242.137l.034,0,.2.017h.02l.035,0,.074.007c.039,0,.078.007.117.009l.059,0h.024l.112.009.059,0,.082.006.107,0,.082,0h.025l.156.006c.09,0,.178.007.267.009h.1l.093,0c.187,0,.369,0,.552,0h.233l.1,0h.1c.283-.009.566-.021.85-.038.041,0,.082,0,.123,0s.076-.008.115-.011l.076,0a3.116,3.116,0,0,0,2.122-.878,3,3,0,0,0-2.122-5.122l-.076,0c-.282.02-.566.034-.848.046h-.044l-.261.008h-.07l-.259,0H285.3c-.025,0-.05,0-.076,0-.109,0-.222,0-.336-.008h-.029c-.041,0-.08,0-.12,0l-.046,0H284.6c-.077,0-.153-.008-.229-.011h-.027l-.121-.008H284.2l-.14-.009-.028,0-.317-.023h0c-.3-.026-.6-.057-.9-.091l-.2-.034-.047-.007c-.408-.069-.813-.149-1.215-.234-.137-.031-.273-.062-.41-.1l-.045-.01c-.026-.006-.051-.013-.077-.018a.621.621,0,0,0-.062-.015l-.038-.009a24.505,24.505,0,0,1-2.827-.9,3.067,3.067,0,0,0-.5-.207q-1.11-.508-2.172-1.12l-.338-.2c-.648-.395-1.269-.82-1.877-1.265a2.522,2.522,0,0,0-1.465-.411,3.221,3.221,0,0,0-.848.11" fill="#ff9d1c"/>
        <path id="Trazado_1038223" data-name="Trazado 1038223" d="M269.881,109.809a3,3,0,0,0-2.094,3.692,3.2,3.2,0,0,0,1.379,1.792c.51.366,1.026.72,1.559,1.052l.094.058c.043.027.087.052.131.076q.759.452,1.544.856.055.032.114.06c.65.32,1.314.608,1.985.888.078.034.158.069.24.1l.173.073.089.034.021.009.05.019c.5.191,1,.373,1.5.539.042.014.084.026.126.037l.067.021.077.024a1.059,1.059,0,0,0,.117.035c.344.1.688.2,1.036.286l.112.031.044.01.244.059.056.013.055.012.328.074c.047.01.1.019.142.027.391.08.781.153,1.174.215l.175.025.013,0,.049.007.113.016.029,0c.047.007.094.011.141.019h0l.208.027.589.08h.008c.342.043.686.084,1.03.114.054.006.107.011.161.014l.05,0q.07.007.141.012l.225.014.079,0,.255.016.077,0h.013l.121,0h.024l.046,0,.129,0h.009l.254.007h.063c.084,0,.17,0,.256,0h.535l.116,0c.039,0,.079,0,.119,0a3,3,0,0,0,0-6l-.182,0h-.02l-.165,0h-.032c-.164,0-.332,0-.5,0h-.14l-.114,0H284.1l-.369-.012h0l-.124,0-.092-.007-.138-.006-.081,0-.076,0-.072,0-.191-.014-.024,0c-.357-.025-.715-.061-1.071-.1-.037-.006-.074-.013-.112-.018l-.091-.014q-.539-.091-1.074-.2l-.058-.013c-.142-.031-.286-.062-.429-.1-.038-.01-.075-.018-.114-.026l-.01,0-.037-.01c-.029-.008-.057-.015-.086-.021-.414-.1-.823-.217-1.232-.337l-.044-.013-.012,0c-.1-.029-.193-.06-.29-.091l-.008,0c-.558-.18-1.113-.382-1.659-.6-.311-.139-.617-.283-.921-.434q-.933-.468-1.822-1l-.016-.011c-.566-.347-1.113-.718-1.652-1.105a2.562,2.562,0,0,0-1.475-.413,3.215,3.215,0,0,0-.838.108m6.379,2.719.111.047-.111-.047m5.944,1.64.123.016-.123-.016" fill="#ff9d1c"/>
        <path id="Trazado_1038224" data-name="Trazado 1038224" d="M271.474,79.159c1.248,1.367,4.74.215,7.793-2.572s4.518-6.16,3.27-7.527-4.74-.214-7.793,2.573-4.518,6.159-3.27,7.526" fill="#fefefe"/>
        <path id="Trazado_1038225" data-name="Trazado 1038225" d="M269.243,86.3c1.006.408,2.327-.5,2.947-2.032s.307-3.1-.7-3.51-2.327.5-2.947,2.031-.307,3.1.7,3.511" fill="#fefefe"/>
      </g>
      <g id="Grupo_1178685" data-name="Grupo 1178685" transform="translate(326.365 57.347)">
        <path id="Trazado_1038226" data-name="Trazado 1038226" d="M70.439,263.306q-.225-.658-.516-1.3c1.134-1.722,2.272-3.44,3.316-5.216q-2.871-2.871-5.744-5.74c-1.649,1.218-3.343,2.374-5.041,3.526-.3-.133-.6-.264-.939-.39-.066-.025-.137-.044-.2-.068-.009-.035-.018-.07-.026-.1-.285-1.14-.567-2.285-.789-3.441-.115-.6-.218-1.2-.3-1.8h-8c-.372,1.793-.651,3.6-.943,5.415-.368.136-.738.273-1.1.442-.09.041-.17.088-.258.13-.2-.129-.4-.256-.6-.386-1.519-.994-3.014-2.017-4.464-3.106q-2.7,2.7-5.4,5.407c1.2,1.668,2.363,3.366,3.51,5.074a14.762,14.762,0,0,0-.654,1.627c-2.009.35-4.011.738-5.991,1.231v7.678c2.031.342,4.069.639,6.107.938.059.163.113.325.178.487-1.129,1.7-2.284,3.393-3.323,5.154q2.988,2.988,5.969,5.97c1.457-1.153,2.936-2.277,4.418-3.4a14.989,14.989,0,0,0,1.494.649c.384,2.11.768,4.218,1.168,6.325h8.29c.181-2.085.451-4.16.768-6.227a15.091,15.091,0,0,0,1.733-.752c1.611.939,3.246,1.84,4.856,2.781q2.655-2.658,5.311-5.315c-1.121-1.539-2.216-3.1-3.314-4.65.121-.271.235-.551.344-.835,1.135-.258,2.268-.523,3.4-.81h-.008a.149.149,0,0,0,.019,0l.039-.012,0,0c.734-.191,1.464-.387,2.195-.59v-8C74.089,263.838,72.261,263.591,70.439,263.306Zm-10.945,9.409a5.394,5.394,0,0,1-2.6,1.064c-.229.019-.455.031-.682.031a6.863,6.863,0,0,1-.741-.039,7.061,7.061,0,0,1-1.325-.362,5.409,5.409,0,0,1-2.227-1.7,6.483,6.483,0,0,1-.627-1.041l-.079-.171a7.049,7.049,0,0,1-.378-1.4,6.82,6.82,0,0,1,0-1.407,6.916,6.916,0,0,1,.21-.913c.051-.167.109-.335.175-.5.051-.117.109-.23.168-.343a6.766,6.766,0,0,1,.569-.9c.039-.05.082-.1.125-.148.093-.109.152-.171.211-.23a6.41,6.41,0,0,1,.6-.558,6.621,6.621,0,0,1,1.178-.694c.1-.039.2-.078.3-.113a6.971,6.971,0,0,1,1.119-.281,7.116,7.116,0,0,1,.714-.036,5.11,5.11,0,0,1,2.121.419,6.953,6.953,0,0,1,1.22.718,6.778,6.778,0,0,1,.975.978,6.891,6.891,0,0,1,.682,1.174,6.8,6.8,0,0,1,.39,1.431,7.041,7.041,0,0,1,0,1.43,5.434,5.434,0,0,1-1.107,2.6A6.747,6.747,0,0,1,59.494,272.715Z" fill="#ff9d1c"/>
        <path id="Trazado_1038227" data-name="Trazado 1038227" d="M77.62,219.547c0-.372-.02-.744-.057-1.115,1.3-1.013,2.609-2.023,3.857-3.1q-1.437-2.916-2.877-5.832c-1.564.5-3.147.939-4.73,1.375-.193-.178-.39-.356-.611-.538-.044-.036-.093-.069-.138-.1,0-.029,0-.058.007-.087.078-.938.159-1.878.288-2.813.067-.483.144-.964.235-1.443l-6.066-2.06c-.745,1.265-1.428,2.565-2.115,3.864-.313.008-.627.017-.945.051-.079.008-.152.023-.23.032-.118-.15-.238-.3-.356-.447-.9-1.145-1.766-2.306-2.585-3.5q-2.745,1.353-5.49,2.708c.482,1.575.925,3.161,1.355,4.751a11.838,11.838,0,0,0-.921,1.074c-1.612-.252-3.227-.482-4.854-.617q-.989,2.91-1.977,5.822c1.452.783,2.921,1.533,4.39,2.284,0,.139,0,.276.01.416-1.3,1-2.606,1.985-3.848,3.052q1.5,3.036,2.989,6.065c1.4-.5,2.813-.971,4.226-1.441a11.958,11.958,0,0,0,.966.877c-.252,1.7-.5,3.4-.743,5.1l6.287,2.135c.673-1.535,1.413-3.038,2.186-4.524A11.981,11.981,0,0,0,67.4,231.4c.978,1.125,1.974,2.235,2.951,3.362l5.4-2.663c-.454-1.455-.883-2.917-1.316-4.379.165-.178.326-.364.484-.555.925.1,1.849.2,2.776.27l-.006,0a.124.124,0,0,0,.015,0h.033l0,0q.909.066,1.816.118l2.062-6.069C80.25,220.891,78.928,220.232,77.62,219.547ZM64.653,224c-.179-.045-.353-.094-.525-.152a5.385,5.385,0,0,1-.552-.221,5.723,5.723,0,0,1-.912-.616,4.351,4.351,0,0,1-1.251-1.86,5.182,5.182,0,0,1-.208-.951l-.015-.15a5.56,5.56,0,0,1,.073-1.156,5.393,5.393,0,0,1,.36-1.068,5.57,5.57,0,0,1,.394-.638c.082-.114.169-.226.262-.333.068-.076.141-.146.215-.217a5.493,5.493,0,0,1,.663-.534c.042-.028.088-.055.132-.08.1-.058.16-.091.219-.12a5.147,5.147,0,0,1,.6-.267,5.269,5.269,0,0,1,1.072-.224c.084,0,.171-.007.254-.009a5.518,5.518,0,0,1,.921.076,5.172,5.172,0,0,1,.551.156,5.088,5.088,0,0,1,.571.231,5.251,5.251,0,0,1,.929.632,5.586,5.586,0,0,1,.741.859,5.451,5.451,0,0,1,.487.993,5.529,5.529,0,0,1,.215,1.066,5.427,5.427,0,0,1-.073,1.185,5.6,5.6,0,0,1-.371,1.085,5.748,5.748,0,0,1-.64.94,5.586,5.586,0,0,1-.871.749,5.348,5.348,0,0,1-1,.486,4.323,4.323,0,0,1-2.244.138Z" transform="translate(26.514 21)" fill="#fff4e6"/>
      </g>
      <g id="Grupo_1178686" data-name="Grupo 1178686" transform="translate(-22.56 -128.96)">
        <path id="Trazado_1038228" data-name="Trazado 1038228" d="M272.248,128.99a99.641,99.641,0,0,0-15.094,1.145A70.179,70.179,0,0,0,235.407,137a49.965,49.965,0,0,0-10.671,7.414,40.141,40.141,0,0,0-7.88,9.916,39.061,39.061,0,0,0-3.779,9.507,43.155,43.155,0,0,0-.985,5.256,49.449,49.449,0,0,0-.335,6.155c0,2.738.163,5.528.321,8.226.313,5.343.636,10.867-.308,16.257a29.261,29.261,0,0,1-1.925,6.25,28,28,0,0,1-3.711,5.814,36.124,36.124,0,0,1-6.861,6.166l.116-.052a100.9,100.9,0,0,1-14.652,7.793c-2.628,1.216-5.346,2.475-7.95,3.835a53.992,53.992,0,0,0-10.65,7.08,37.357,37.357,0,0,0-4.507,4.8,64.978,64.978,0,0,0-4.43,6.33c-5.624,9.135-8.478,19-8.257,28.527a42.555,42.555,0,0,0,.838,7.382,41.813,41.813,0,0,0,2.224,7.255,36.95,36.95,0,0,0,3.8,7.108,63.794,63.794,0,0,0,5.142,6.254l.23.256.454.51.454.507a1.019,1.019,0,0,0,.771.336,1.153,1.153,0,0,0,.378-.063c1.1.668,2.279,1.313,3.481,1.914,1.268.64,2.594,1.221,3.876,1.783,2.22.975,4.479,1.917,6.82,2.843,4.446,1.764,9.217,3.457,14.179,5.031a237.607,237.607,0,0,0,30.541,7.445,239.759,239.759,0,0,0,32.015,3.444c2.8.109,5.621.164,8.386.164a200.218,200.218,0,0,0,23.54-1.369,159.8,159.8,0,0,0,30.143-6.455,129.372,129.372,0,0,0,13.894-5.4c2.14-.978,4.354-2.081,6.581-3.279,2.283-1.222,4.425-2.476,6.368-3.729a45.551,45.551,0,0,0,10.661-9.439,40.033,40.033,0,0,0,6.422-11.149,47.961,47.961,0,0,0,2.87-12.385,68.5,68.5,0,0,0,.043-13.152,133.566,133.566,0,0,0-5.008-25.276c-1.25-4.418-2.647-8.8-3.723-12.12l-.356-1.075c-.43-1.291-.874-2.625-1.209-3.966a40.74,40.74,0,0,1-.816-4.323l-.024-.157c-.464-3.61-.639-7.221-.758-10.587-.053-1.445-.1-2.891-.14-4.336-.071-2.447-.146-4.893-.266-7.34a100.715,100.715,0,0,0-1.144-11.54,41.678,41.678,0,0,0-2.968-10.317,23.328,23.328,0,0,0-5.691-7.941,20.754,20.754,0,0,0-4.316-2.937,44,44,0,0,0-5.1-7.978,48.247,48.247,0,0,0-7.782-7.632,66.678,66.678,0,0,0-20.043-10.579,95.851,95.851,0,0,0-23.324-4.676c-2.714-.213-5.454-.322-8.14-.322" transform="translate(24.049)" fill="#172e39"/>
        <path id="Trazado_1038229" data-name="Trazado 1038229" d="M254.16,210.378a18.533,18.533,0,0,0-2.322.147,23.361,23.361,0,0,0-8.683,2.937,30.731,30.731,0,0,0-6.987,5.6,36.871,36.871,0,0,0-3.768,4.672l.018-.5-.008-.5a1.074,1.074,0,0,0-1.065-1.064,1.086,1.086,0,0,0-.771.331,1.011,1.011,0,0,0-.294.734,39.674,39.674,0,0,1-.273,5.888,25.323,25.323,0,0,1-1.527,5.9,18.249,18.249,0,0,1-2.148,3.746,15.8,15.8,0,0,1-2.581,2.592,17.534,17.534,0,0,1-3.15,1.871.838.838,0,0,0-.214-.024.991.991,0,0,0-.915.523,80.884,80.884,0,0,0-6.127,20.548,97.025,97.025,0,0,0-1.4,22.014c.1,1.642.261,3.332.488,5.021a18.262,18.262,0,0,0,.919,4.065,5.861,5.861,0,0,0,1.889,2.677,4.787,4.787,0,0,0,2.855.856h0a9.784,9.784,0,0,0,1.767-.186,16.049,16.049,0,0,0,2.126-.547,51.9,51.9,0,0,0,5.13-1.987,84.079,84.079,0,0,0,10.408-5.53A157.716,157.716,0,0,0,257.1,275.675c3.034-2.573,5.767-5,8.355-7.412a60.562,60.562,0,0,0,7.665-8.443,26.847,26.847,0,0,0,3.834-7.312,1.071,1.071,0,0,0-.583-1.249.968.968,0,0,0-.514-.974,24.754,24.754,0,0,1-4.727-2.8,17.847,17.847,0,0,1-2.768-2.749,15.627,15.627,0,0,1-1.811-3.112,17.664,17.664,0,0,1-1.061-3.981,28.784,28.784,0,0,1,.12-7.206l.008-.167h-.014a98.94,98.94,0,0,1,2.475-10.943,1.07,1.07,0,0,0-.744-1.309.948.948,0,0,0-.277-.039,1.08,1.08,0,0,0-.975.621,10.263,10.263,0,0,0-1.054-2.727,9.962,9.962,0,0,0-2.319-2.735,11.864,11.864,0,0,0-3.238-1.847,14.176,14.176,0,0,0-3.705-.832,14.413,14.413,0,0,0-1.61-.083" transform="translate(49.284 32.664)" fill="#fcbc9a"/>
        <path id="Trazado_1038230" data-name="Trazado 1038230" d="M247.1,210.5a23.45,23.45,0,0,0-8.692,2.95,30.793,30.793,0,0,0-7,5.6,36.626,36.626,0,0,0-3.767,4.685l.071-.486-.006-.5a1.111,1.111,0,0,0-1.1-1.1,1.141,1.141,0,0,0-.793.345,1.033,1.033,0,0,0-.3.755,40.936,40.936,0,0,1-.275,5.89,25.561,25.561,0,0,1-1.522,5.891c-.039.092-.08.184-.122.276q1.694.193,3.4.265h-.092a56.454,56.454,0,0,0,14.665-1.373h-.011l.034-.008.059-.014-.059.014a49.379,49.379,0,0,0,11.84-4.316.087.087,0,0,1,.02-.01.332.332,0,0,1,.043-.024.011.011,0,0,1,.007,0,.077.077,0,0,1,.011-.007l-.006.006a37.222,37.222,0,0,0,3.842-2.36,33.2,33.2,0,0,0,3.362-2.716l-.066.066c.677-.636,1.328-1.3,1.939-2,.249-.971.513-1.959.786-2.974a1.1,1.1,0,0,0-.761-1.341.886.886,0,0,0-.29-.055,1.1,1.1,0,0,0-1,.646,8.624,8.624,0,0,0-1.012-2.726A9.786,9.786,0,0,0,258,213.128a11.567,11.567,0,0,0-3.251-1.844,14,14,0,0,0-3.716-.849,14.4,14.4,0,0,0-1.61-.081,22.48,22.48,0,0,0-2.321.147" transform="translate(54.017 32.654)" fill="#fe9a67"/>
        <path id="Trazado_1038231" data-name="Trazado 1038231" d="M244.945,223.9h0l.008,0-.006,0" transform="translate(62.581 38.089)" fill="#fe9a67"/>
        <path id="Trazado_1038232" data-name="Trazado 1038232" d="M244.948,223.9l-.008.006-.024.013a.1.1,0,0,0,.024-.013.037.037,0,0,0,.013-.007h0" transform="translate(62.571 38.09)" fill="#fe9a67"/>
        <path id="Trazado_1038233" data-name="Trazado 1038233" d="M294.538,376.217c-2.87,0-5.909.149-9.291.454-4.933.451-9.808,1.156-13.926,1.784-4.068.626-8.187,1.349-12.241,2.152a213.874,213.874,0,0,0-25.165,6.513,139.847,139.847,0,0,0-23.9,10.183A88.814,88.814,0,0,0,191.08,411c.544-2.351,1.124-4.724,1.747-7.042a1.074,1.074,0,0,0-.743-1.316.922.922,0,0,0-.272-.038,1.07,1.07,0,0,0-1.037.788,180.531,180.531,0,0,0-4.505,22.888,186.166,186.166,0,0,0-1.665,24.34,136.126,136.126,0,0,0,2.5,27.278,1.049,1.049,0,0,0,1.047.779,1.011,1.011,0,0,0,.262-.034,1.028,1.028,0,0,0,.367-.184.732.732,0,0,0,.165.015c5.42-.4,10.619-.516,16.861-.632,4.346-.079,8.9-.119,13.917-.119l2.969,0c11.393.045,22.989.32,33.824.608l9.9.275c15.467.437,31.461.887,47.2.887q5.3,0,10.6-.073c13.065-.184,24.888-.73,36.145-1.675a1.118,1.118,0,0,0,.7-.332.894.894,0,0,0,.4.086,1.04,1.04,0,0,0,.748-.311,1.013,1.013,0,0,0,.317-.755,273.59,273.59,0,0,0-5.212-31.11,167.808,167.808,0,0,0-9.882-29.913c-1.951-4.386-3.8-8.166-5.66-11.551a74.141,74.141,0,0,0-6.761-10.342,46.117,46.117,0,0,0-8.608-8.437,38.42,38.42,0,0,0-11.176-5.7,66.286,66.286,0,0,0-15.029-2.955c-1.8-.142-3.708-.213-5.656-.213M188.406,426.2l0-.052.041-.109c-.053.343-.1.687-.151,1.03.032-.251.064-.5.1-.752h0l.008-.062.008-.027V426.2Zm171.819,49.435h.013c-.041-.618-.092-1.237-.151-1.853.067.617.14,1.235.212,1.848Z" transform="translate(38.366 99.221)" fill="#653f65"/>
        <path id="Trazado_1038234" data-name="Trazado 1038234" d="M225.934,425.08a.553.553,0,0,0,.191.734c1.6,1.106,3.279,2.117,4.982,3.07a42.756,42.756,0,0,0,5.709,2.616,40.921,40.921,0,0,0,12.235,2.644,1.834,1.834,0,0,0,0-3.667,45.213,45.213,0,0,1-7.351-.336,44.013,44.013,0,0,1-10.794-2.892c.027.011.052.024.076.036a25.51,25.51,0,0,1-4.319-2.392.448.448,0,0,0-.256-.077.562.562,0,0,0-.471.263m4.971,2.169a.845.845,0,0,0-.083-.034c.027.01.055.021.083.034" transform="translate(54.924 118.726)" fill="#64566f"/>
        <path id="Trazado_1038235" data-name="Trazado 1038235" d="M242.746,428.837a2.123,2.123,0,0,0-1.467,2.584c1.145,4.034,2.305,8.058,3.4,12.1s2.047,8.118,3.038,12.186a2.091,2.091,0,0,0,3.82.5,2.269,2.269,0,0,0,.214-1.614,99.951,99.951,0,0,0-2.88-12.229c-1.149-4.029-2.386-8.035-3.536-12.064a2.141,2.141,0,0,0-2.04-1.543,2.069,2.069,0,0,0-.549.076" transform="translate(61.08 120.309)" fill="#64566f"/>
        <path id="Trazado_1038236" data-name="Trazado 1038236" d="M279.677,397.112a.647.647,0,0,0-.23.876,129.269,129.269,0,0,1,8.325,16.411c-.027-.06-.055-.121-.081-.186a169.518,169.518,0,0,1,7.653,22.711,228.475,228.475,0,0,1,4.8,23.32q.366,2.363.685,4.725c.22,1.645.434,3.29.618,4.941l.066.476a1.845,1.845,0,0,0,.46.793,1.8,1.8,0,0,0,2.541,0,1.718,1.718,0,0,0,.526-1.27c-.362-3.946-.876-7.877-1.571-11.78-.691-3.87-1.539-7.719-2.518-11.529a197.151,197.151,0,0,0-7.521-22.9c-1.823-4.643-3.838-9.214-6.012-13.7-2.091-4.313-4.379-8.55-6.864-12.655a.648.648,0,0,0-.556-.317.624.624,0,0,0-.32.087" transform="translate(76.394 107.572)" fill="#64566f"/>
        <path id="Trazado_1038237" data-name="Trazado 1038237" d="M255.688,230.583a90.16,90.16,0,0,0-12.9.947,116.461,116.461,0,0,0-24.217,6.5c-13.346,4.987-26.177,11.676-38.591,18.142-2.9,1.511-5.792,3.021-8.692,4.51-7.265,3.723-12.881,6.432-18.2,8.786-4.7-6.924-9.683-13.833-14.505-20.511-2.429-3.37-4.907-6.8-7.368-10.263a74.027,74.027,0,0,1-6.361,5.639,65.976,65.976,0,0,1-9.289,6.185c-5.649,3.062-12.025,5.331-18.513,5.133q.336,1.3.689,2.59a172.53,172.53,0,0,0,8.189,23.107,124.33,124.33,0,0,0,9.273,17.626,66.564,66.564,0,0,0,12.957,15.179,43.927,43.927,0,0,0,8.1,5.43,35.931,35.931,0,0,0,4.434,1.948,44.2,44.2,0,0,0,5.343,1.527,52.245,52.245,0,0,0,11.644,1.265,67.267,67.267,0,0,0,11.462-1.03,95.308,95.308,0,0,0,22.723-7.237,142.819,142.819,0,0,0,15.277-8.052A60.716,60.716,0,0,0,206.11,321.8a48.186,48.186,0,0,0,1.456,9.8,43.1,43.1,0,0,0,3.646,9.371,44.363,44.363,0,0,0,6.071,8.77,47.5,47.5,0,0,0,4.11,4.177,42.525,42.525,0,0,0,4.232,3.224c-.35,17.982-1.117,36.461-2.272,54.914-1.145,18.223-2.721,36.878-4.686,55.451-.022.186-.043.373-.06.554a1.027,1.027,0,0,0,.313.755,1.143,1.143,0,0,0,.284.624,43.7,43.7,0,0,0,8.446,6.9,60.643,60.643,0,0,0,10.05,5.048,105.47,105.47,0,0,0,22.208,5.813c3.268.542,6.8,1.013,10.778,1.45,4.012.439,7.636.734,11.073.9,2.365.109,4.769.164,7.144.164a154.3,154.3,0,0,0,16.2-.853c16.541-1.757,31.519-6.219,44.519-13.269a93.448,93.448,0,0,0,14.463-9.672,85.618,85.618,0,0,0,6.4-5.8c1.051-1.051,2.085-2.145,3.076-3.257,1.183-1.309,2.431-2.716,3.543-4.221a1.06,1.06,0,0,0-.06-1.249.757.757,0,0,0-.06-.262c-1.774-4.533-3.416-8.512-5.02-12.18s-3.383-7.576-5.464-11.938c-2.014-4.242-4.04-8.342-5.758-11.8a.876.876,0,0,0-.109-.224q-1.915-3.842-3.838-7.669l-1.927-3.842-.586-1.177-.586-1.172-.437-.87c-.143-.3-.258-.531-.373-.767q-2.455-4.927-4.839-9.886c-3.524-7.357-6.459-13.925-8.966-20.088a1.321,1.321,0,0,0-.258-.4,1.111,1.111,0,0,0,.2-.656c-.011-2.273.13-4.571.262-6.8.1-1.654.175-3.3.247-4.954l.066-1.626c.2-4.319.46-8.709.717-12.81l.383-5.867c.433-6.652.881-13.527,1.172-20.293.64-14.884.778-32.423-3.066-49.659a55.139,55.139,0,0,0-5.9-16.166,26.654,26.654,0,0,0-5.221-6.5,21.181,21.181,0,0,0-3.466-2.48,19.427,19.427,0,0,0-4.034-1.7,1.013,1.013,0,0,0-.241-.032.9.9,0,0,0-.3.049,1.058,1.058,0,0,0-.6-.2,1.1,1.1,0,0,0-.925.52,53.514,53.514,0,0,1-3.126,4.347l.022-.027a91.822,91.822,0,0,1-17.292,16.377c-8.873,6.579-19.219,12.546-32.51,18.743a169.4,169.4,0,0,1,1.33-27.961,142.96,142.96,0,0,1,3.536-17.807,1.07,1.07,0,0,0-.716-1.3.832.832,0,0,0-.411-.273,50.012,50.012,0,0,0-6.624-1.155,59.22,59.22,0,0,0-6.453-.313h-.2Z" transform="translate(3.225 40.773)" fill="#ffb244"/>
        <path id="Trazado_1038238" data-name="Trazado 1038238" d="M295.086,272.08h0l-.006.006-17.287,5.174-17.276,5.179L233.939,290.4l-26.582,7.965,2.154,7.27,2.178,7.281q8,26.685,15.985,53.37l.064.214,3.75,12.518,12.47,41.614,33.858-10.118q17.388-5.2,34.76-10.412l3.963-1.187.063-.22-.077-.163a.725.725,0,0,0-.105-.22q-1.535-3.077-3.07-6.135l-.772-1.539-1.927-3.842-.586-1.177-.586-1.172-.437-.87-.373-.767q-2.455-4.925-4.839-9.885c-3.578-7.486-6.511-14.055-8.966-20.088a1.39,1.39,0,0,0-.265-.415.78.78,0,0,0,.223-.615c-.011-2.116.112-4.274.22-6.18l.02-.333.022-.283c.1-1.655.175-3.3.247-4.955l.066-1.626c.21-4.7.51-9.563.716-12.81l.384-5.869.011-.235.01-.2.011-.151c.4-6.086.846-12.986,1.139-19.708.2-4.734.413-11.033.322-17.784l-1.441-4.807-1.434-4.777a.076.076,0,0,0-.031-.018" transform="translate(47.497 57.427)" fill="#f2a138"/>
        <path id="Trazado_1038239" data-name="Trazado 1038239" d="M192.487,264.548q-2.611,3.178-5.025,6.5c-1.686,2.326-3.285,4.724-4.8,7.165a79.446,79.446,0,0,0-4.133,7.549,44.926,44.926,0,0,0-3,7.817.844.844,0,0,0,.586,1.029.858.858,0,0,0,.646-.081.873.873,0,0,0,.384-.5c.9-2.654,1.827-5.3,2.918-7.888-.028.06-.055.126-.083.186a85.842,85.842,0,0,1,5.042-9.968,90.872,90.872,0,0,1,6.349-9.3.8.8,0,0,1-.06.071c.548-.7,1.1-1.4,1.665-2.085a.355.355,0,0,0,0-.493.373.373,0,0,0-.259-.1.3.3,0,0,0-.234.1" transform="translate(34.713 54.363)" fill="#e29134"/>
        <path id="Trazado_1038240" data-name="Trazado 1038240" d="M100.952,210.986a22.323,22.323,0,0,0-4.029,1.226,15.127,15.127,0,0,0-3.564,2.068.8.8,0,0,0-.256.346.982.982,0,0,0-.339.667,216.851,216.851,0,0,0,1.641,25.87,182.225,182.225,0,0,0,4.927,24.842q.889-.021,1.78-.083h-.028a39.5,39.5,0,0,0,5.261-.755,46.034,46.034,0,0,0,5.189-1.45c-.028.011-.06.021-.087.032A50.465,50.465,0,0,0,117.877,261a59.518,59.518,0,0,0,6.009-3.561c-.011.008-.024.015-.036.025a.453.453,0,0,1,.066-.043h0l.01-.006h0l-.007.006.007-.006a67.539,67.539,0,0,0,10.37-8.735c-2.284-3.194-4.47-6.285-6.616-9.39-2.026-2.95-3.8-5.577-5.42-8.035q-1.328-2.028-2.633-4.072l-.76-1.211-.467-.738-.673-1.083c-.848-1.38-1.686-2.759-2.513-4.149-1.735-2.951-3.356-5.809-4.807-8.5a1.152,1.152,0,0,0-.465-.492,1.033,1.033,0,0,0-.936-.636c-.328,0-.656-.01-.98-.01a36.286,36.286,0,0,0-7.073.629m.132,54.937c-.022,0-.043.006-.066.006a.284.284,0,0,1,.066-.006" transform="translate(1.506 32.656)" fill="#fcbc9a"/>
        <path id="Trazado_1038241" data-name="Trazado 1038241" d="M255.367,237.28a1.1,1.1,0,0,0-.328.778,1.035,1.035,0,0,0,.23.652c-.23,3.788-.439,8.276-.28,12.737a60.165,60.165,0,0,0,1.742,12.606,57.54,57.54,0,0,0,4.28,11.222,88.113,88.113,0,0,0,5.579,9.651c3.41,5.21,7.3,10.214,11.062,15.053,5.249,6.754,10.685,13.75,14.895,21.4.652,1.166,1.3,2.4,1.976,3.788.45.909.838,1.774,1.172,2.618a1.264,1.264,0,0,0,.488.58q-.946.359-1.895.715a14.873,14.873,0,0,0,1.8.538c.716.158,1.439.279,2.172.367a59.449,59.449,0,0,0,8.376.06c1.379-.043,2.765-.077,4.144-.017,1.309.06,2.611.224,3.908.388a88.782,88.782,0,0,1,12.766,2.443c1.072.3,2.146.624,3.2.991.891.305,1.784.635,2.665.974,1.784.684,3.552,1.413,5.3,2.206a82.3,82.3,0,0,1,10.544,5.694c1.483.96,2.932,1.973,4.332,3.048a36.04,36.04,0,0,0,.824-12.791,57.524,57.524,0,0,0-4.423-16.373,89.4,89.4,0,0,0-8.578-15.59c-1.724-2.535-3.59-5.008-5.184-7.1-1.927-2.518-3.925-5.031-5.944-7.472-4.479-5.4-9.175-10.576-13.948-15.377A179.646,179.646,0,0,0,300,256.571a116.661,116.661,0,0,0-17.786-11.7,71.177,71.177,0,0,0-18.585-6.9,51.764,51.764,0,0,0-7.532-.985l-.055-.006a.958.958,0,0,0-.678.3" transform="translate(66.591 43.34)" fill="#ffb244"/>
        <path id="Trazado_1038242" data-name="Trazado 1038242" d="M291.554,261a.026.026,0,0,0-.02.02l-.329.1-86.736,28.447,23.673,72.268,16.016,48.834,87.108-28.542-23.709-72.379-15.978-48.723s-.021-.021-.025-.021" transform="translate(46.338 52.98)" fill="#ffebcd"/>
        <path id="Trazado_1038243" data-name="Trazado 1038243" d="M297.146,256.445q19.849,60.534,39.7,121.067l-87.075,28.554Q229.921,345.532,210.071,285l87.075-28.554" transform="translate(48.586 51.152)" fill="#fefefe"/>
        <path id="Trazado_1038244" data-name="Trazado 1038244" d="M352.076,319.006l.071.055a77.714,77.714,0,0,0-8.566-5.617,75.335,75.335,0,0,0-9.022-4.319.125.125,0,0,0,.028.017c-1.829-.717-3.684-1.373-5.562-1.932-.157-.046-.317-.084-.474-.13a18.789,18.789,0,0,0-8.419-4.461c-.863-.231-1.74-.409-2.623-.556a32.837,32.837,0,0,0-4.152-.978,33.643,33.643,0,0,1,7.731,1.128,20.729,20.729,0,0,1,4.4,1.827,13.912,13.912,0,0,1,2.64,2.035c.258.277.5.559.733.859a1.052,1.052,0,0,0,1.68-1.265,15.72,15.72,0,0,0-6.766-4.767,30.628,30.628,0,0,0-8.971-1.855q-1.473-.1-2.955-.1a43.864,43.864,0,0,0-6.153.436c-.639.09-1.268.219-1.9.346a1.087,1.087,0,0,0-.58-.164,1.222,1.222,0,0,0-.4.067c-1.289.433-2.563.9-3.831,1.394-.413.137-.825.273-1.236.42a40.679,40.679,0,0,0-4.275,1.445c-.234.092-.462.2-.7.293-.511.206-1.019.42-1.526.64-.448.193-.9.377-1.349.57q-.677.25-1.35.509h0c-.743.286-1.484.573-2.22.873-1.012.415-2.012.856-3.017,1.289-3.3,1.3-6.553,2.724-9.793,4.168-.013.006-.02.015-.031.021-3.889,1.5-7.768,3.031-11.589,4.7l-.092.035q-2.1.8-4.1,1.571a71.733,71.733,0,0,0,.936,8.31,75.07,75.07,0,0,0,2.49,10.049,83.766,83.766,0,0,0,3.81,9.694.042.042,0,0,1,.011.022v-.006l.015.032c-.006,0-.006-.01-.011-.015,1.265,2.688,2.678,5.31,4.2,7.86q2.628.057,5.2.06c1.768,0,3.531-.017,5.3-.06a185.44,185.44,0,0,0,22.962-1.9,116.189,116.189,0,0,0,21.3-5.08,76.348,76.348,0,0,0,9.738-4.072,44.554,44.554,0,0,0,8.3-5.426,33.49,33.49,0,0,0,5.89-6.349,30.48,30.48,0,0,0,4.861-11.184C352.5,319.33,352.289,319.167,352.076,319.006Zm-40.821-15.4c1.519.041,3.037.122,4.543.31.406.056.81.121,1.215.189.761.242,1.519.489,2.259.786C316.614,304.372,313.942,303.935,311.255,303.608Z" transform="translate(67.704 68.208)" fill="#ffb244"/>
        <path id="Trazado_1038245" data-name="Trazado 1038245" d="M319.213,296.827q-6.4,1.133-12.71,2.765c-4.138,1.066-8.233,2.3-12.284,3.662-4.1,1.368-8.15,2.863-12.173,4.423s-8.031,3.236-12.011,4.921q-2.873,1.215-5.737,2.464c-1.986.859-3.984,1.712-5.95,2.628a.776.776,0,0,0,.619,1.422c1.932-.776,3.831-1.626,5.741-2.458q2.981-1.3,5.956-2.6,5.947-2.6,11.945-5.074,5.863-2.422,11.823-4.582,6.054-2.169,12.227-3.945a129.473,129.473,0,0,1,12.653-2.93.355.355,0,0,0,.3-.4.361.361,0,0,0-.346-.3.347.347,0,0,0-.053,0" transform="translate(67.775 67.358)" fill="#e29134"/>
        <path id="Trazado_1038246" data-name="Trazado 1038246" d="M288.092,348.32a69.972,69.972,0,0,1-3.957-7.043,83.73,83.73,0,0,1-4.3-10.5,84.951,84.951,0,0,1-2.878-11.073,77.182,77.182,0,0,1-1.04-7.681c-9.392,3.621-17.171,6.788-24.267,9.875l-.322-.071c-.235-.049-.476-.1-.717-.153-.865-.209-1.735-.46-2.59-.706l-.367-.1-.448-.137-.142-.038c-1.392-.411-2.782-.816-4.177-1.183a28.843,28.843,0,0,0-7.253-1.2c-.437,0-.876.017-1.313.06a7.823,7.823,0,0,0-1.731.378,5.9,5.9,0,0,0-1.565.81,4.437,4.437,0,0,0-1.932,2.59,2.9,2.9,0,0,0,.778,2.458,7.783,7.783,0,0,0,2.524,1.724,20.645,20.645,0,0,0,4.127,1.429l-.537.032-.547.109-1.527.324c-1.976.416-3.952.842-5.918,1.3-2.944.68-5.315,1.331-7.455,2.043a24.726,24.726,0,0,0-2.929,1.16,10,10,0,0,0-2.217,1.352,3.433,3.433,0,0,0-1.2,1.7,3.64,3.64,0,0,0,.1,2.447,3.178,3.178,0,0,0,1.428,1.522,7.272,7.272,0,0,0,2.409.794,14.634,14.634,0,0,0,2.535.186l.2-.006c.942,0,2-.06,3.334-.186a21.1,21.1,0,0,0-5.1,2.769,6.2,6.2,0,0,0-1.763,2.075,3.555,3.555,0,0,0,1.253,4.434,5.452,5.452,0,0,0,2.492.838,8.879,8.879,0,0,0,1.143.07,17.753,17.753,0,0,0,1.91-.13,32.552,32.552,0,0,0,6.235-1.473,7.057,7.057,0,0,0-1.3,1.128,5.988,5.988,0,0,0-1.516,2.358,2.968,2.968,0,0,0-.109,1.32,2.724,2.724,0,0,0,.586,1.291,3.628,3.628,0,0,0,1.045.866,5.034,5.034,0,0,0,1.527.586,6.042,6.042,0,0,0,1.187.121,9.973,9.973,0,0,0,1.774-.192,16.06,16.06,0,0,0,2.485-.744,23.824,23.824,0,0,0,2.672-1.177,58.236,58.236,0,0,0,5.479-3.2q1.354-.87,2.693-1.792c.789-.4,1.568-.817,2.343-1.246.5-.163,1-.336,1.522-.46a35.443,35.443,0,0,1,7.14-.661c1.247-.006,2.49.032,3.739.06q2.068.057,4.138.1,3.815.088,7.63.186c.283.02.565.048.848.066C278.944,348.045,283.587,348.246,288.092,348.32Z" transform="translate(50.171 73.458)" fill="#fcbc9a"/>
        <path id="Trazado_1038247" data-name="Trazado 1038247" d="M235.13,334.945a33.714,33.714,0,0,1-3.466,1.976l.1-.049c-.9.437-1.812.838-2.742,1.188a25.722,25.722,0,0,1-2.869.886.35.35,0,0,0-.214.444.356.356,0,0,0,.444.219,36.993,36.993,0,0,0,4.735-1.56,40.6,40.6,0,0,0,4.575-2.251.511.511,0,0,0,.143-.71.508.508,0,0,0-.706-.143" transform="translate(54.947 82.623)" fill="#fe9a67"/>
        <path id="Trazado_1038248" data-name="Trazado 1038248" d="M232.528,329.29c-.276.164-.562.314-.851.462.018-.008.035-.018.052-.025l-.053.027-.015.008.014-.008a44.5,44.5,0,0,1-10.373,3.367.353.353,0,0,0-.22.444.359.359,0,0,0,.175.2.371.371,0,0,0,.269.017q2.947-.616,5.83-1.49c.919-.279,1.829-.584,2.731-.908.985-.356,1.949-.75,2.923-1.117a.55.55,0,0,0,.345-.7.512.512,0,0,0-.273-.312.526.526,0,0,0-.242-.06.634.634,0,0,0-.311.088m-.853.464h0" transform="translate(52.999 80.352)" fill="#fe9a67"/>
        <path id="Trazado_1038249" data-name="Trazado 1038249" d="M271.486,238.728a1.063,1.063,0,0,0-.6-.554,1.1,1.1,0,0,0-.352-.059,1.049,1.049,0,0,0-.441.1,1.153,1.153,0,0,0-.548.608l-.022.039c.021-.039.042-.077.062-.116l-.069.129a45.63,45.63,0,0,1-6.742,9.452c.031-.034.062-.067.094-.1-.056.062-.113.122-.17.184.024-.025.046-.05.069-.076l-.074.081A80.7,80.7,0,0,1,253,257.2,135.44,135.44,0,0,1,241.8,265c-3.38,2.124-6.827,4.131-10.3,6.114A112.8,112.8,0,0,1,218.251,278c-.043-.61-.092-1.221-.123-1.83-.561-12.264,1.043-24.532,3.559-36.519,0,.021-.007.043-.011.064q.755-3.563,1.614-7.1a1.133,1.133,0,0,0-.038-.795,1.038,1.038,0,0,0-.6-.547,1,1,0,0,0-.352-.062,1.09,1.09,0,0,0-.441.094,1.018,1.018,0,0,0-.548.608,204.619,204.619,0,0,0-4.4,23.537c-.488,4.029-.81,8.08-.936,12.131-.066,2.008-.071,4.023-.028,6.031.045,1.938.12,3.88.307,5.813a1.056,1.056,0,0,0,1.221.849c.02,0,.035-.017.053-.021a1.172,1.172,0,0,0,.837-.006,85.757,85.757,0,0,0,11.567-5.814c3.093-1.769,6.191-3.526,9.246-5.359a141.8,141.8,0,0,0,17.719-12.305,74.506,74.506,0,0,0,8.342-8.069,44.738,44.738,0,0,0,6.289-9.18A.988.988,0,0,0,271.486,238.728Z" transform="translate(50.932 41.023)" fill="#e29134"/>
        <path id="Trazado_1038250" data-name="Trazado 1038250" d="M111.186,203.181a10.16,10.16,0,0,0-1.414.111.953.953,0,0,0-.646.412,1.105,1.105,0,0,0-.188.841,1.039,1.039,0,0,0,.35.589,10.48,10.48,0,0,0-.834.855,20.352,20.352,0,0,0-1.682,2.143,12.63,12.63,0,0,0-1.683,3.8,12.074,12.074,0,0,0-.411,3.8,7.493,7.493,0,0,0,.834,3.219,3.7,3.7,0,0,0,2.2,1.841,3.484,3.484,0,0,0,.908.118,4.9,4.9,0,0,0,2.337-.661A10.33,10.33,0,0,0,112.7,219a13.516,13.516,0,0,0,1.616-1.7,11.732,11.732,0,0,0,1.656-2.96,13.446,13.446,0,0,0,.921-3.973,11.019,11.019,0,0,0-.045-1.956,7.612,7.612,0,0,0-.465-1.892,5.041,5.041,0,0,0-2.262-2.657,5.97,5.97,0,0,0-2.93-.687" transform="translate(6.281 29.776)" fill="#fe9a67"/>
        <path id="Trazado_1038251" data-name="Trazado 1038251" d="M103.15,198.372q-6.535,22.977-13.066,45.957a4.791,4.791,0,0,0,.394,3.914,5.532,5.532,0,0,0,3.245,2.441c2.782.8,6.285-.612,7.04-3.286q6.544-22.975,13.066-45.957a4.79,4.79,0,0,0-.394-3.914,5.531,5.531,0,0,0-3.247-2.441,5.919,5.919,0,0,0-1.626-.223c-2.377,0-4.8,1.34-5.413,3.509" transform="translate(0.334 26.437)" fill="#646171"/>
        <path id="Trazado_1038252" data-name="Trazado 1038252" d="M108.715,216.765c14.135,3.3,29.855-8.824,35.081-27.06s-2.007-35.719-16.143-39.02-29.855,8.824-35.081,27.06,2.008,35.72,16.143,39.02" transform="translate(0.747 8.49)" fill="#858197"/>
        <path id="Trazado_1038253" data-name="Trazado 1038253" d="M121.873,155.56c-9.176,0-18.694,8.789-22.632,20.9-2.263,6.931-2.48,14.037-.614,20.008s5.575,10.108,10.464,11.62a13.986,13.986,0,0,0,3.421.608c.235.01.471.015.712.015,9.176,0,18.7-8.791,22.633-20.9,2.262-6.932,2.479-14.039.612-20.008s-5.575-10.108-10.464-11.62a13.92,13.92,0,0,0-3.421-.608c-.234-.011-.469-.015-.712-.015" transform="translate(3.355 10.664)" fill="#e0dee9"/>
        <path id="Trazado_1038254" data-name="Trazado 1038254" d="M98.753,198.392a14.157,14.157,0,0,0-1.847.126,5.594,5.594,0,0,0-2.14.73A4.455,4.455,0,0,0,93,201.4a3.512,3.512,0,0,0-.066,2.4,4.458,4.458,0,0,0,.649,1.153,2.443,2.443,0,0,0,.418.44,5.847,5.847,0,0,0-2.393,1.508A4.8,4.8,0,0,0,90.31,210a5.437,5.437,0,0,0,1.135,3.316,6.753,6.753,0,0,0,.565.68,4.77,4.77,0,0,0-1.662.783,3.427,3.427,0,0,0-1.193,1.655,3.921,3.921,0,0,0,.038,2.237,5.548,5.548,0,0,0,1.581,2.569,11.093,11.093,0,0,0,3.1,1.939,25.938,25.938,0,0,0,3.861,1.352c.612.235,1.23.454,1.85.657a35.165,35.165,0,0,0,5.411,1.265,26.177,26.177,0,0,0,3.8.284h.313a19.389,19.389,0,0,0,3.681-.394,6.559,6.559,0,0,0,2.995-1.406,3.324,3.324,0,0,0,.846-1.3,3.116,3.116,0,0,0,.067-1.7,4.9,4.9,0,0,0-.747-1.718,7.549,7.549,0,0,0-.636-.9l.237-.088a5.334,5.334,0,0,0,1.532-1.39,4.381,4.381,0,0,0,.576-1.1,4.275,4.275,0,0,0,.244-1.341,5.606,5.606,0,0,0-.495-2.311,5.93,5.93,0,0,0-.565-1.076,3.165,3.165,0,0,0,.792-.54,3.555,3.555,0,0,0,1.044-1.967,6.246,6.246,0,0,0-.883-4.2,8.879,8.879,0,0,0-2.8-2.79,18.251,18.251,0,0,0-3.862-1.868,40.188,40.188,0,0,0-8.066-1.857c-1.309-.179-2.588-.346-3.861-.4-.149-.006-.3-.006-.45-.006" transform="translate(0 27.854)" fill="#fcbc9a"/>
        <path id="Trazado_1038255" data-name="Trazado 1038255" d="M92.555,210.1a.692.692,0,0,0-.055.526.743.743,0,0,0,.345.426c5.8,3.607,12.853,4.149,19.515,4.161a.43.43,0,0,0-.028-.859c-1.331-.006-2.663-.076-4-.2l.046,0a47.25,47.25,0,0,1-5.45-.862,39.84,39.84,0,0,1-5.326-1.571l.181.066a29.973,29.973,0,0,1-4.281-1.987.644.644,0,0,0-.318-.081.723.723,0,0,0-.633.377m15.863,4.061a.267.267,0,0,0-.035,0l.035,0" transform="translate(1.389 32.402)" fill="#fe9a67"/>
        <path id="Trazado_1038256" data-name="Trazado 1038256" d="M93.765,204.236a.63.63,0,0,0-.049.488.684.684,0,0,0,.317.394,30.813,30.813,0,0,0,9,3.7,38.316,38.316,0,0,0,4.91.88,41,41,0,0,0,4.993.28.482.482,0,1,0-.028-.964c-1.114,0-2.23-.05-3.338-.153h0a37.57,37.57,0,0,1-9.218-2.124c.049.022.1.038.147.06a35.844,35.844,0,0,1-5.867-2.829.569.569,0,0,0-.293-.08.672.672,0,0,0-.583.348" transform="translate(1.877 30.059)" fill="#fe9a67"/>
        <path id="Trazado_1038257" data-name="Trazado 1038257" d="M265.05,143.335a44.237,44.237,0,0,0-10.136,1.286,72.71,72.71,0,0,0-12.165,4.156c-2.849,1.215-5.607,2.538-8.163,3.788a1.112,1.112,0,0,0-.22.111c-.88.427-1.757.865-2.637,1.3l-.525.261c-1.693.839-3.379,1.764-5.011,2.658s-3.346,1.833-5.055,2.679a.66.66,0,0,0-.119.074.6.6,0,0,1-.094.06,36.72,36.72,0,0,1-8.465,3.011,20,20,0,0,1-3.526.327q-.528,0-1.058-.031l-.17-.017c-.076-.007-.147-.011-.217-.011a1,1,0,0,0-.6.172,1.079,1.079,0,0,0-.45.666,1.153,1.153,0,0,0-.8.887c-.624,3.614-1.177,7.3-1.712,10.869-.76,5.06-1.544,10.293-2.546,15.4-.433,2.21-.919,4.421-1.445,6.574-.146.6-.3,1.2-.447,1.8-.353,1.392-.716,2.833-1.009,4.266a56.038,56.038,0,0,0-1.155,11.5,41.576,41.576,0,0,0,1.576,11.1,37.029,37.029,0,0,0,4.846,10.4,43.285,43.285,0,0,0,12.8,12.294,56.638,56.638,0,0,0,15.884,6.854,62.206,62.206,0,0,0,16.013,2.053c.474,0,.946-.006,1.42-.015,12.288-.266,23.541-4.243,31.687-11.2a38.092,38.092,0,0,0,6.708-7.381,17.7,17.7,0,0,0,3.484.348c.228,0,.457,0,.688-.014a20.266,20.266,0,0,0,4.552-.712,21.243,21.243,0,0,0,8.145-4.3,16.8,16.8,0,0,0,5.085-7.423,14.059,14.059,0,0,0,.727-4.7,13.808,13.808,0,0,0-.273-2.379,13.363,13.363,0,0,0-.751-2.427,13.935,13.935,0,0,0-2.887-4.417,14.1,14.1,0,0,0-4.526-3.139,12.787,12.787,0,0,0-9.212-.394l.144-.387.1-.314c.069-.22.142-.437.214-.656l.2-.591c.279-.883.526-1.768.744-2.667a48.542,48.542,0,0,0,1-5.345,64.181,64.181,0,0,0,.45-11.3,77.695,77.695,0,0,0-1.4-11.448,78.9,78.9,0,0,0-2.887-10.83,58.148,58.148,0,0,0-4.144-9.528,29.047,29.047,0,0,0-5.455-7.087,22.069,22.069,0,0,0-7.011-4.421,26.841,26.841,0,0,0-8.866-1.729c-.444-.023-.883-.028-1.326-.028" transform="translate(43.472 5.757)" fill="#fcbc9a"/>
        <path id="Trazado_1038258" data-name="Trazado 1038258" d="M269.28,194.431a.811.811,0,0,0-.482.371.774.774,0,0,0-.081.631,13.383,13.383,0,0,1,.747,2.919.213.213,0,0,0,0-.029l0,.038c.008.055.015.109.024.165-.007-.046-.014-.09-.02-.132a16.324,16.324,0,0,1-.029,3.931c.01-.06.015-.115.027-.175a19.313,19.313,0,0,1-.427,2.183,16.09,16.09,0,0,1-.793,2.3l.013-.025a17.506,17.506,0,0,1-2.092,3.561l.064-.081a15.346,15.346,0,0,1-2.513,2.55.373.373,0,0,0,0,.525.377.377,0,0,0,.521,0,18.75,18.75,0,0,0,1.762-1.6,17.739,17.739,0,0,0,1.61-1.938,18.5,18.5,0,0,0,2.409-4.594,16.515,16.515,0,0,0,.968-4.9,14.758,14.758,0,0,0-.706-5.123.841.841,0,0,0-.788-.6.886.886,0,0,0-.214.029m.189,3.963,0-.034a.017.017,0,0,0,0-.008.4.4,0,0,1,.006.042" transform="translate(70.073 26.252)" fill="#fe9a67"/>
        <path id="Trazado_1038259" data-name="Trazado 1038259" d="M269.241,194.02a4.366,4.366,0,0,0-1.658.783.655.655,0,0,0,.6,1.155q.755-.261,1.527-.455a10.833,10.833,0,0,1,2.473-.207,11.351,11.351,0,0,1,5.4,1.722,8.273,8.273,0,0,1,1.428,1.2,7.632,7.632,0,0,1,.58.782.37.37,0,0,0,.514.094.384.384,0,0,0,.1-.521,10.612,10.612,0,0,0-5.617-4.176,11.365,11.365,0,0,0-3.6-.6,7.907,7.907,0,0,0-1.746.224m2.765,1.265.081,0-.081,0m-2.311.22a1.2,1.2,0,0,1-.119.025l.119-.025m9.317,2.709c.02.022.041.043.06.064a.539.539,0,0,1-.06-.064" transform="translate(71.554 26.009)" fill="#fe9a67"/>
        <path id="Trazado_1038260" data-name="Trazado 1038260" d="M261.838,137.1c-1.427,0-2.845.052-4.215.153a64.727,64.727,0,0,0-10.617,1.708,83.129,83.129,0,0,0-10.419,3.29,92.038,92.038,0,0,0-18.68,9.937c-1.889,1.3-3.807,2.706-5.863,4.3a76.453,76.453,0,0,0-6.1,5.245,40.576,40.576,0,0,0-5.081,5.853,24.76,24.76,0,0,0-3.484,6.862,1.158,1.158,0,0,0-.021.825,1.044,1.044,0,0,0,.555.583.979.979,0,0,0,.432.094,1.039,1.039,0,0,0,.3.1,100.6,100.6,0,0,0,18.729,1.731q1.8,0,3.6-.06A105.145,105.145,0,0,0,243.35,174.5a96.61,96.61,0,0,0,33.491-15.729,63.553,63.553,0,0,0-.538,6.41,61.833,61.833,0,0,0,.345,9.182,42.977,42.977,0,0,0,1.983,8.925,27.27,27.27,0,0,0,4.069,7.74,21.919,21.919,0,0,0,2.6,2.831,19.845,19.845,0,0,0,2.789,2.1c-.221,1.274-.359,2.566-.467,3.659a62.129,62.129,0,0,0-.29,6.373A24.51,24.51,0,0,0,288,211.91c.474,1.857,1.306,3.073,2.478,3.617a2.924,2.924,0,0,0,1.256.276,5.889,5.889,0,0,0,3.477-1.492,12.829,12.829,0,0,0,2.625-2.768,19.875,19.875,0,0,0,2.021-3.813,35.748,35.748,0,0,0,1.469-4.5c.371-1.376.709-2.9,1.029-4.665.5-2.716.832-5.4,1.188-8.376.223-1.819.367-3.316.455-4.708.1-1.711.142-3.446.115-5.157a56.78,56.78,0,0,0-1.041-10.021,43.3,43.3,0,0,0-7.955-18.091,38.25,38.25,0,0,0-16.7-12.222,46.189,46.189,0,0,0-16.575-2.891" transform="translate(43.457 3.256)" fill="#172e39"/>
        <path id="Trazado_1038261" data-name="Trazado 1038261" d="M275.136,148.027a75.353,75.353,0,0,1-6.613,3.936c-2.326,1.237-4.746,2.309-7.182,3.317l.164-.066a102.894,102.894,0,0,1-25.985,6.715l.034,0-.118.014-.233.029.073-.01a139.791,139.791,0,0,1-17.409.963c-2.946-.011-5.9-.1-8.835-.252-2.923-.147-5.83-.4-8.747-.563a1.846,1.846,0,0,0-1.62,2.78,1.748,1.748,0,0,0,1.1.849,91.144,91.144,0,0,0,11.774.848,115.232,115.232,0,0,0,11.659-.4c3.936-.334,7.873-.793,11.759-1.488,3.826-.691,7.615-1.539,11.358-2.573q3.819-1.059,7.549-2.386c2.546-.909,5.036-1.938,7.5-3.049s4.865-2.365,7.231-3.684,4.692-2.754,6.952-4.27a.41.41,0,0,0,.147-.558.421.421,0,0,0-.36-.207.35.35,0,0,0-.2.059m-39.86,13.932.16-.02.084-.01c-.08.007-.163.018-.244.029" transform="translate(43.907 7.617)" fill="#2b4248"/>
        <path id="Trazado_1038262" data-name="Trazado 1038262" d="M257.657,154.685c-.072,2.441-.149,4.882-.132,7.323a56.155,56.155,0,0,0,.45,6.86,30.347,30.347,0,0,0,1.543,6.64,28.355,28.355,0,0,0,3.394,6.574c.071.105.147.2.219.307a1.437,1.437,0,0,0,.625.394,1.493,1.493,0,0,0,1.127-.1,1.466,1.466,0,0,0,.7-.842,1.42,1.42,0,0,0,.028-.772,1.479,1.479,0,0,0-.35-.657q-.584-.755-1.145-1.533l.038.055a29.051,29.051,0,0,1-1.98-3.262,35.5,35.5,0,0,1-1.676-3.733c.034.083.066.164.094.241a32.21,32.21,0,0,1-1.26-4.287,39.267,39.267,0,0,1-.661-4.449c.006.049.011.1.015.153a76.3,76.3,0,0,1-.24-8.879.394.394,0,0,0-.378-.4h-.01a.4.4,0,0,0-.4.378m6.508,24.267c.05.07.1.14.149.212l-.149-.212" transform="translate(67.63 10.161)" fill="#2b4248"/>
        <path id="Trazado_1038263" data-name="Trazado 1038263" d="M208.281,190.256c-.318.432-.652.853-.991,1.27l.006-.007a37.24,37.24,0,0,1-6.747,6.2l.048-.038c-1.352.964-2.737,1.889-4.155,2.754-1.435.881-2.912,1.7-4.39,2.5-2.995,1.621-6.022,3.164-9.048,4.724a81.664,81.664,0,0,0-8.687,5.163,51,51,0,0,0-4.187,3.159,36.128,36.128,0,0,0-3.652,3.552,50,50,0,0,0-6.4,8.907,46.562,46.562,0,0,0-4.309,10.22,44.4,44.4,0,0,0-1.7,10.979,40.288,40.288,0,0,0,.294,5.754,30.859,30.859,0,0,0,1.079,5.206,30.234,30.234,0,0,0,1.139,3.136c.191.46.4.908.629,1.352a10.9,10.9,0,0,0,.919,1.462,1.756,1.756,0,0,0,.744.471,1.737,1.737,0,0,0,1.33-.126,1.7,1.7,0,0,0,.636-.591,1.8,1.8,0,0,0,.224-1.319c-.137-.844-.378-1.67-.575-2.5s-.39-1.67-.559-2.508c-.307-1.515-.538-3.042-.7-4.58a48.466,48.466,0,0,1-.177-6,47.6,47.6,0,0,1,.646-6.134,48.1,48.1,0,0,1,1.467-5.823,52.706,52.706,0,0,1,2.225-5.851,47.108,47.108,0,0,1,2.805-5.1,47.932,47.932,0,0,1,3.418-4.687,50.086,50.086,0,0,1,8.976-8.177.139.139,0,0,0-.021.015c1.229-.873,2.48-1.712,3.737-2.538,1.369-.9,2.737-1.808,4.127-2.672,2.776-1.724,5.573-3.4,8.316-5.184,1.347-.876,2.65-1.806,3.946-2.754s2.529-1.927,3.733-2.972a42.454,42.454,0,0,0,6.449-6.886.352.352,0,0,0-.1-.482.348.348,0,0,0-.186-.056.386.386,0,0,0-.3.161m-.93,1.2-.034.039c.013-.013.021-.027.034-.039" transform="translate(26.105 24.524)" fill="#2b4248"/>
        <path id="Trazado_1038264" data-name="Trazado 1038264" d="M292.784,200.754a.349.349,0,0,0-.258.422A123.924,123.924,0,0,1,297,224.2c-.006-.087-.017-.175-.022-.256q.2,2.094.263,4.193c.055,1.456.092,2.918.07,4.385a56.762,56.762,0,0,1-.7,8.293,40.915,40.915,0,0,1-3.087,10.011,34.163,34.163,0,0,1-1.827,3.313,31.138,31.138,0,0,1-2.552,3.487c.1-.12.2-.241.307-.362-.328.388-.657.783-1.008,1.155a1.932,1.932,0,0,0-.586,1.271,1.844,1.844,0,0,0,1.763,1.9,1.781,1.781,0,0,0,1.314-.492c.59-.625,1.16-1.26,1.707-1.923a23.28,23.28,0,0,0,1.45-1.965,30.838,30.838,0,0,0,2.382-4.319,35.285,35.285,0,0,0,2.682-9.212,54.025,54.025,0,0,0,.652-9.678c-.028-1.665-.126-3.328-.28-4.982-.153-1.7-.388-3.383-.635-5.063-1.132-7.818-3.437-15.4-5.692-22.947a.359.359,0,0,0-.336-.269.458.458,0,0,0-.085.011" transform="translate(79.806 28.797)" fill="#2b4248"/>
        <path id="Trazado_1038265" data-name="Trazado 1038265" d="M284.4,157.257a.486.486,0,0,0-.192.652,23.261,23.261,0,0,1,1.724,3.515,28.629,28.629,0,0,1,1.151,4.067,43.109,43.109,0,0,1,.6,4.275.065.065,0,0,1,0-.017c0,.014,0,.028,0,.041.008.077.017.156.024.234,0-.035-.008-.069-.011-.1q.113,1.228.2,2.459c.06.964.088,1.932.132,2.9.087,1.916.137,3.826.328,5.731a1.354,1.354,0,0,0,.324.607,1.348,1.348,0,0,0,1.91.071,1.311,1.311,0,0,0,.427-.942c-.088-2.068-.307-4.138-.548-6.191-.115-.963-.262-1.916-.4-2.874-.158-1.029-.339-2.052-.575-3.065a37.845,37.845,0,0,0-4.439-11.162.5.5,0,0,0-.429-.252.5.5,0,0,0-.223.055m3.3,12.665-.013-.133c0-.008,0-.015,0-.024,0,.053.008.1.014.157" transform="translate(78.316 11.323)" fill="#2b4248"/>
        <path id="Trazado_1038266" data-name="Trazado 1038266" d="M258.127,147.007a39.23,39.23,0,0,1-5.422,2.752l.025-.01-.028.011-.017.007.01,0a57.345,57.345,0,0,1-7.344,2.417,66.623,66.623,0,0,1-7.88,1.47l.031,0q-4.263.519-8.551.625-2.085.048-4.17-.006c-1.413-.034-2.825-.132-4.238-.224a1.171,1.171,0,0,0-1.183,1.155,1.185,1.185,0,0,0,1.151,1.188c1.554.055,3.114.032,4.669-.006,1.626-.039,3.24-.121,4.86-.247a79.928,79.928,0,0,0,10.111-1.407,69.39,69.39,0,0,0,9.783-2.71,47.162,47.162,0,0,0,8.664-4.187.485.485,0,0,0,.175-.652.48.48,0,0,0-.413-.235.44.44,0,0,0-.233.066m-20.709,6.651-.125.017c.043-.007.084-.011.125-.017m15.277-3.894s0,0,.007,0h0l-.01,0" transform="translate(52.314 7.204)" fill="#2b4248"/>
        <path id="Trazado_1038267" data-name="Trazado 1038267" d="M228.3,175.211a.392.392,0,0,0-.4.314l-.06.607c-.193,1.882-.39,3.719-.657,5.506a31.606,31.606,0,0,1-1.45,6.128l-.179.455a6.358,6.358,0,0,0-.9-.632,8.978,8.978,0,0,0-1.6-.729,5.727,5.727,0,0,0-1.937-.341,5.43,5.43,0,0,0-.845.066,4.74,4.74,0,0,0-2.224.977,4.616,4.616,0,0,0-.883.929,5.241,5.241,0,0,0-.664,1.141,7.457,7.457,0,0,0-.105,5.4,7.968,7.968,0,0,0,1.64,2.671,7.638,7.638,0,0,0,1.289,1.092,8.309,8.309,0,0,0,1.459.8,1.376,1.376,0,0,0,.537.122.933.933,0,0,0,.322-.05,1.054,1.054,0,0,0,.638-.538,1.165,1.165,0,0,0,.066-.914.968.968,0,0,0-.523-.584,9.193,9.193,0,0,1-1.3-.72,7.422,7.422,0,0,1-1.141-1.048,5.752,5.752,0,0,1-1.278-2.72,6.928,6.928,0,0,1-.071-1.442,6.364,6.364,0,0,1,.279-1.3,5.984,5.984,0,0,1,.541-1.026,5.5,5.5,0,0,1,.572-.615,3.8,3.8,0,0,1,.675-.43,3.689,3.689,0,0,1,.713-.219,3.976,3.976,0,0,1,.715-.059l.273.01a6.665,6.665,0,0,1,1.457.334,13.63,13.63,0,0,1,2.265,1.17.485.485,0,0,0,.247.063.52.52,0,0,0,.186-.029.565.565,0,0,0,.37-.408l.175-.509c.115-.346.23-.691.339-1.036.158-.537.3-1.085.427-1.631.282-1.194.476-2.364.646-3.45.245-1.7.415-3.438.577-5.123l.178-1.753a.414.414,0,0,0-.3-.464l-.074-.011" transform="translate(50.944 18.55)" fill="#fe9a67"/>
        <path id="Trazado_1038268" data-name="Trazado 1038268" d="M244.8,165.152c-1.316,0-2.232.38-2.58,1.069a1.843,1.843,0,0,0-.039,1.429c.545,1.665,2.742,3.674,5.6,5.12a14.14,14.14,0,0,0,5.984,1.682c1.316,0,2.234-.381,2.587-1.075a1.823,1.823,0,0,0,.034-1.422c-.545-1.665-2.741-3.676-5.6-5.122a14.14,14.14,0,0,0-5.989-1.682" transform="translate(61.425 14.513)" fill="#172e39"/>
        <path id="Trazado_1038269" data-name="Trazado 1038269" d="M244.4,182.762c-1.375,0-2.864,2.513-3.391,5.722-.542,3.37.17,6.3,1.588,6.54.063.006.123.011.184.011,1.378,0,2.864-2.513,3.386-5.72.548-3.37-.161-6.3-1.582-6.541-.063-.006-.123-.011-.184-.011" transform="translate(60.93 21.581)" fill="#172e39"/>
        <path id="Trazado_1038270" data-name="Trazado 1038270" d="M212.284,177c-1.38,0-2.87,2.513-3.391,5.722-.548,3.369.163,6.3,1.582,6.54.063.006.123.011.184.011,1.375,0,2.864-2.513,3.391-5.72.542-3.37-.17-6.306-1.588-6.541-.056-.006-.118-.011-.178-.011" transform="translate(48.039 19.268)" fill="#172e39"/>
        <path id="Trazado_1038271" data-name="Trazado 1038271" d="M231.292,197.609a.618.618,0,0,0-.2.039.721.721,0,0,0-.5.894,9.49,9.49,0,0,1,.6,2.164,6.829,6.829,0,0,1,.011,1.361,5.427,5.427,0,0,1-.334,1.25,5.206,5.206,0,0,1-.524.877,4.622,4.622,0,0,1-.715.72,4.941,4.941,0,0,1-.862.507,4.625,4.625,0,0,1-1.1.294,4.937,4.937,0,0,1-.5.028,4.131,4.131,0,0,1-.454-.028,4.249,4.249,0,0,1-.975-.256,4.868,4.868,0,0,1-.79-.479,4.985,4.985,0,0,1-.605-.611,5.683,5.683,0,0,1-.633-1.092,7.691,7.691,0,0,1-.388-1.529,1.408,1.408,0,0,1-.025-.16.768.768,0,0,0-.207-.506.722.722,0,0,0-1.033,0,.694.694,0,0,0-.212.516,9.838,9.838,0,0,0,.29,1.546,6.329,6.329,0,0,0,.521,1.289,5.416,5.416,0,0,0,1.684,1.9,4.735,4.735,0,0,0,2.01.8,5.307,5.307,0,0,0,.839.066,5.429,5.429,0,0,0,4.917-3.117,7.408,7.408,0,0,0-.119-5.935.783.783,0,0,0-.335-.433.693.693,0,0,0-.363-.106" transform="translate(53.311 27.539)" fill="#172e39"/>
      </g>
      <g id="Grupo_1178695" data-name="Grupo 1178695" transform="translate(35)">
        <path id="Trazado_1038354" data-name="Trazado 1038354" d="M81.937,319.4a19.414,19.414,0,0,0-2.568.176,17.358,17.358,0,0,0-3.51.89,15.213,15.213,0,0,0-2.931,1.412,16.093,16.093,0,0,0-4.917,4.643,14.281,14.281,0,0,0-2.4,9.726,15.521,15.521,0,0,0,.876,3.607,17.333,17.333,0,0,0,1.45,3.025,25.594,25.594,0,0,0,1.758,2.6,27.231,27.231,0,0,0,8.777,7.187,48.079,48.079,0,0,0,5.482,2.519c1.641.634,3.443,1.252,5.672,1.946,2.146.666,4.077,1.242,5.9,1.758l1.641.464c1.445.408,2.888.815,4.327,1.243a68.771,68.771,0,0,1,11.21,4.23,33.5,33.5,0,0,1,7.029,4.616l.006.005,0-.009,0,.011,0,0a25.773,25.773,0,0,1,2.755,2.825.388.388,0,0,0,.3.137.408.408,0,0,0,.267-.1.551.551,0,0,0,.176.025.735.735,0,0,0,.148-.015.829.829,0,0,0,.656-.953,97.17,97.17,0,0,0-4.485-16.916,69.83,69.83,0,0,0-7.993-15.307,58.555,58.555,0,0,0-10.642-11.7,40.349,40.349,0,0,0-6.533-4.466,30.63,30.63,0,0,0-7.351-2.9,23.487,23.487,0,0,0-3.923-.645c-.391-.027-.789-.039-1.184-.039" fill="#fff4e6"/>
        <path id="Trazado_1038355" data-name="Trazado 1038355" d="M99.916,367.221a9.665,9.665,0,0,0-1.838.172,7.568,7.568,0,0,0-1.623.516,7.208,7.208,0,0,0-1.612,1.009,7.071,7.071,0,0,0-2.093,2.77,6.411,6.411,0,0,0-.4,3.1,7.893,7.893,0,0,0,.316,1.486,8.391,8.391,0,0,0,.669,1.549,10.535,10.535,0,0,0,2.1,2.634,15.275,15.275,0,0,0,2.81,2.014,21.6,21.6,0,0,0,5.366,2.091,46.84,46.84,0,0,0,6.056,1.086c.981.125,1.966.235,2.951.345a60.557,60.557,0,0,1,9.231,1.518,21.185,21.185,0,0,1,5.236,2.179l.183.112a.335.335,0,0,0,.174.053.239.239,0,0,0,.171-.069c.038.11.089.219.14.333a.669.669,0,0,0,.361.368.661.661,0,0,0,.5.008.652.652,0,0,0,.369-.361.64.64,0,0,0,.007-.5,44.733,44.733,0,0,0-4.466-6.88,47.631,47.631,0,0,0-5.84-6.111A48.59,48.59,0,0,0,112,371.706c-1.039-.636-2.144-1.257-3.285-1.843a31.668,31.668,0,0,0-3.385-1.513,18.818,18.818,0,0,0-3.662-.988,10.912,10.912,0,0,0-1.755-.141" fill="#fff4e6"/>
        <path id="Trazado_1038356" data-name="Trazado 1038356" d="M147.627,303.464c-.152,0-.3,0-.453.008a24.805,24.805,0,0,0-10.844,2.92,23.069,23.069,0,0,0-7.414,6.467,28.29,28.29,0,0,0-2.591,4.263,35.434,35.434,0,0,0-1.891,4.571,47.637,47.637,0,0,0-2.176,10.354A68.9,68.9,0,0,0,122.1,343a87.557,87.557,0,0,0,1.207,10.661c.446,2.549,1.032,5.14,1.742,7.7a61.312,61.312,0,0,0,2.165,6.47.8.8,0,0,0,.241.982.774.774,0,0,0,.454.15.858.858,0,0,0,.65-.316c.648-.78,1.334-1.516,1.98-2.2,1.45-1.511,3.034-3.01,4.565-4.459q1-.945,1.993-1.9c1.878-1.815,3.838-3.759,5.824-5.778a100.519,100.519,0,0,0,10.872-12.654,52.7,52.7,0,0,0,4.248-7.173,34.983,34.983,0,0,0,2.422-6.459,29.538,29.538,0,0,0,.813-11.207,16.942,16.942,0,0,0-4.042-9.415,12.2,12.2,0,0,0-4.363-2.991,13.462,13.462,0,0,0-2.779-.759,14.354,14.354,0,0,0-2.467-.2" fill="#fff4e6"/>
        <path id="Trazado_1038357" data-name="Trazado 1038357" d="M166.286,348.539a20.417,20.417,0,0,0-4.9.656,36.757,36.757,0,0,0-11.386,5.392,59.7,59.7,0,0,0-9.423,7.853,46.563,46.563,0,0,0-3.5,3.927,35.111,35.111,0,0,0-3.8,6.161,37.2,37.2,0,0,0-2.63,7.362,60.648,60.648,0,0,0-1.277,7.673c-.164,1.486-.292,2.977-.42,4.467-.082.954-.164,1.908-.256,2.862a.386.386,0,0,0,.088.281.372.372,0,0,0,.254.132.948.948,0,0,0,.326.079.37.37,0,0,0,.275-.11,2.253,2.253,0,0,1,.381-.335l.563-.363c.284-.186.567-.373.859-.552l.1-.073-.005-.009c.5-.271,1.024-.565,1.551-.859l.756-.424c.8-.45,1.7-.894,2.85-1.4a51.551,51.551,0,0,1,5.921-2.12c1.633-.484,3.394-.941,5.1-1.382,1.049-.272,2.1-.544,3.145-.829a61.838,61.838,0,0,0,8.352-2.818,39.591,39.591,0,0,0,4.454-2.293,51.015,51.015,0,0,0,4.912-3.3,44.674,44.674,0,0,0,4.626-4.025,31.949,31.949,0,0,0,3.938-4.7,18.078,18.078,0,0,0,2.447-5.108,11.913,11.913,0,0,0,.316-5.494,12.314,12.314,0,0,0-2.6-5.376,15.972,15.972,0,0,0-2.349-2.336,13.556,13.556,0,0,0-7.854-2.916c-.265-.012-.535-.02-.8-.02" fill="#fff4e6"/>
        <g id="Grupo_1178694" data-name="Grupo 1178694">
          <path id="Trazado_1038358" data-name="Trazado 1038358" d="M125.429,378.078c.021.05.043.1.065.148l-.018-.042C125.461,378.149,125.445,378.113,125.429,378.078Z" fill="#714a79"/>
          <path id="Trazado_1038359" data-name="Trazado 1038359" d="M84.508,332.644l.037.015,0,0Z" fill="#714a79"/>
          <path id="Trazado_1038360" data-name="Trazado 1038360" d="M173.493,355.12a.376.376,0,0,0-.338-.2.547.547,0,0,0-.217.049c-2.191.953-4.367,1.93-6.507,2.98-2.223,1.086-4.414,2.239-6.586,3.422-1.106.6-2.18,1.254-3.258,1.9s-2.153,1.324-3.207,2.019c-2.156,1.422-4.231,2.969-6.254,4.57a74.93,74.93,0,0,0-10.863,10.481c-.852,1.016-1.657,2.066-2.446,3.129-.734.992-1.437,2.008-2.093,3.055a37.607,37.607,0,0,0-1.893,3.4c-.185-2.1-.322-4.207-.4-6.314a137.621,137.621,0,0,1,3.615-34.958c.074-.329.15-.661.229-.993a168.525,168.525,0,0,1,5.048-17.066,143.687,143.687,0,0,1,6.914-16.234q1-2.012,2.077-3.983l0,.006.082-.152a.258.258,0,0,0-.054-.352.279.279,0,0,0-.155-.045.221.221,0,0,0-.2.1q-4.2,7.688-7.727,15.7-1.786,4.066-3.363,8.215c-1.058,2.77-2.012,5.574-2.9,8.4s-1.668,5.692-2.371,8.567q-1.066,4.371-1.864,8.793a135.056,135.056,0,0,0-1.9,16.312q-.434-1.125-.9-2.236a64.915,64.915,0,0,0-3.113-6.359c-1.176-2.11-2.465-4.145-3.816-6.141-1.422-2.094-2.95-4.1-4.547-6.062-6.274-7.7-13.574-14.754-22.278-19.657a49.412,49.412,0,0,0-8.4-3.793,45.127,45.127,0,0,0-4.445-1.269,41.2,41.2,0,0,0-4.469-.746h-.02a.251.251,0,0,0,.028.5l.217.027h-.006a38.574,38.574,0,0,1,9.389,2.446l-.01-.005.042.017.008,0h0a50.793,50.793,0,0,1,5.984,2.883,57.7,57.7,0,0,1,5.723,3.725,77.3,77.3,0,0,1,13.91,13.457q1.105,1.383,2.16,2.81c.746,1,1.453,2.031,2.156,3.062q2.075,3.048,3.965,6.219c1.215,2.039,2.367,4.114,3.477,6.211s2.214,4.231,3.214,6.4c.1.215.2.434.3.653-.009-.022-.018-.042-.026-.064.024.057.049.114.073.17.013.031.027.062.04.092-.007-.016-.015-.033-.022-.05a30.723,30.723,0,0,1,1.174,3.276q-.027,2.448.043,4.893a24.823,24.823,0,0,0-2.523-2.353,36.544,36.544,0,0,0-6.125-3.949,55.287,55.287,0,0,0-6.692-2.907c-2.3-.843-4.628-1.605-6.968-2.339-1.786-.563-3.579-1.1-5.368-1.657a.216.216,0,0,0-.066-.01.253.253,0,0,0-.238.19.256.256,0,0,0,.179.3c1.789.554,3.579,1.109,5.36,1.691,1.866.612,3.716,1.273,5.539,2a54.36,54.36,0,0,1,5.121,2.361,40.506,40.506,0,0,1,4.912,3.006,32.364,32.364,0,0,1,5.865,5.586c.412.523.785,1.075,1.162,1.624.1,1.72.221,3.438.39,5.152.054.547.133,1.091.2,1.637a1.138,1.138,0,0,0,.094.791c.257,2.115.556,4.225.949,6.319.547,2.925,1.234,5.812,1.988,8.691a12.147,12.147,0,0,0,.5,1.516,1.715,1.715,0,0,0,3.25-1,17.506,17.506,0,0,0-.48-1.84c-.184-.629-.356-1.262-.528-1.895-.32-1.2-.621-2.406-.9-3.613-.563-2.41-1.027-4.844-1.434-7.285-.142-.852-.26-1.707-.381-2.563.376-.775.746-1.553,1.121-2.328.637-1.317,1.316-2.617,2.023-3.9s1.469-2.554,2.258-3.8c.741-1.161,1.531-2.289,2.351-3.4l-.042.056.068-.091.162-.218-.087.119a66.843,66.843,0,0,1,6.525-7.384c1.23-1.207,2.492-2.383,3.793-3.512,1.24-1.081,2.522-2.114,3.817-3.129a109.6,109.6,0,0,1,10.2-7.039c1.711-1.047,3.477-2.024,5.258-2.949s3.562-1.8,5.387-2.6A.4.4,0,0,0,173.493,355.12Z" fill="#714a79"/>
          <path id="Trazado_1038361" data-name="Trazado 1038361" d="M138.262,382.42c.034-.044.068-.089.1-.134l-.075.1C138.28,382.4,138.271,382.408,138.262,382.42Z" fill="#714a79"/>
        </g>
        <path id="Trazado_1038362" data-name="Trazado 1038362" d="M166.493,401.6h-65.43c-.189,2.047-.279,4.151-.279,6.265,0,15.7,5,30.666,13.381,40.037l30.906.008h8.309c8.389-9.373,13.393-24.342,13.393-40.045,0-2.019-.087-4.119-.259-6.244Z" fill="#fefefe"/>
        <path id="Trazado_1038363" data-name="Trazado 1038363" d="M134.423,401.625H101.064q-.258,3.07-.258,6.242,0,3.027.235,5.964a6.4,6.4,0,0,1,4.112-1.515,5.612,5.612,0,0,1,2.11.395,5.466,5.466,0,0,1,2.094,1.5c1.1,1.258,1.789,2.8,2.8,4.125a7.291,7.291,0,0,0,1.086,1.094,7.547,7.547,0,0,0,1.481.832,6.372,6.372,0,0,0,1.3.367,3.495,3.495,0,0,0,1.875-.238,5.857,5.857,0,0,0,1.121-.668,18.733,18.733,0,0,0,2.6-2.707,19.885,19.885,0,0,1,2.645-2.758,7.837,7.837,0,0,1,1.633-1.059,7.125,7.125,0,0,1,1-.387,6.907,6.907,0,0,1,1.011-.191,6.672,6.672,0,0,1,2.192.129,8.9,8.9,0,0,1,1.226.363,8.7,8.7,0,0,1,1.27.567c1.578.906,2.555,2.488,3.633,3.906a9.679,9.679,0,0,0,1.515,1.605,5.275,5.275,0,0,0,.84.5,4.763,4.763,0,0,0,.926.258,5.46,5.46,0,0,0,1.129-.008,4.668,4.668,0,0,0,.891-.238,4.976,4.976,0,0,0,.839-.5,8.151,8.151,0,0,0,1.176-1.238c.488-.652.938-1.336,1.434-1.981a8.17,8.17,0,0,1,2.078-2.031,6.778,6.778,0,0,1,3.676-.988,6.49,6.49,0,0,1,1.07.14,6.829,6.829,0,0,1,1.918.774,15.922,15.922,0,0,1,3.223,2.723,29.568,29.568,0,0,0,2.871,2.781,6.909,6.909,0,0,0,1.222.75,4.837,4.837,0,0,0,.922.265,3.959,3.959,0,0,0,.836,0,4.681,4.681,0,0,0,1.02-.3,7.61,7.61,0,0,0,1.406-.856,4.847,4.847,0,0,0,.773-.762l.012-.016a74.531,74.531,0,0,0,.75-10.6c0-2.113-.09-4.2-.258-6.242h-32.07Z" fill="#ffc14d"/>
        <path id="Trazado_1038364" data-name="Trazado 1038364" d="M104.45,413.855a6.175,6.175,0,0,0-1.176.324,6.349,6.349,0,0,0-1.113.66,7.5,7.5,0,0,0-.942.926,67.084,67.084,0,0,0,4.193,17.479,0,0,0,0,1,0,0,3.664,3.664,0,0,1,1.641-.821,7.07,7.07,0,0,1,3.844.524,33.5,33.5,0,0,1,4.148,2.019c1.231.672,2.449,1.379,3.742,1.934a7.32,7.32,0,0,0,1.563.48,3.522,3.522,0,0,0,.711-.008,5.183,5.183,0,0,0,1.023-.277,6.3,6.3,0,0,0,1.211-.723c1.09-.867,1.973-1.957,3.028-2.871a8.4,8.4,0,0,1,1.828-1.269,6.679,6.679,0,0,1,1.1-.438,8.682,8.682,0,0,1,1.133-.23,7.058,7.058,0,0,1,2.43.031,5.935,5.935,0,0,1,1.847.707,25.665,25.665,0,0,1,2.922,2.254,9.994,9.994,0,0,0,2.047,1.219,9.506,9.506,0,0,0,2.106.578,6.686,6.686,0,0,0,1.523.012,6.181,6.181,0,0,0,1.211-.332,8.11,8.11,0,0,0,1.66-1.012l.223-.176a29.131,29.131,0,0,1,3.621-2.918,7.387,7.387,0,0,1,2.3-.918,8.086,8.086,0,0,1,1.566-.164,5.722,5.722,0,0,1,1.156.113,7.482,7.482,0,0,1,2.215.918,22.177,22.177,0,0,1,2.129,1.481c.692.528,1.38,1.084,2.1,1.594a64.3,64.3,0,0,0,4.183-14.161,6.641,6.641,0,0,1-1.953.946,4.838,4.838,0,0,1-2.058.121,5.138,5.138,0,0,1-1.743-.633,14.046,14.046,0,0,1-3.058-2.586,30.749,30.749,0,0,0-2.973-2.871,8.056,8.056,0,0,0-1.59-.949,5.5,5.5,0,0,0-1.207-.328,5.594,5.594,0,0,0-1.164.007,6.75,6.75,0,0,0-1.351.368,5.572,5.572,0,0,0-1,.578,8.583,8.583,0,0,0-1.27,1.308.108.108,0,0,0-.013.017.055.055,0,0,0-.006.011c-.414.543-.8,1.109-1.2,1.664a10.729,10.729,0,0,1-1.289,1.539,5.665,5.665,0,0,1-1.711,1.125,5.143,5.143,0,0,1-2.152.379,5.263,5.263,0,0,1-2.082-.5,6,6,0,0,1-1.578-1.121,25.693,25.693,0,0,1-2.379-2.969,9.347,9.347,0,0,0-1.492-1.574,6.083,6.083,0,0,0-1.09-.621.442.442,0,0,1-.043-.02,8.876,8.876,0,0,0-1.945-.555,6.077,6.077,0,0,0-1.348,0,5.674,5.674,0,0,0-1.152.317,7,7,0,0,0-1.364.8,24.468,24.468,0,0,0-3.238,3.425,13.473,13.473,0,0,1-2.7,2.571,5.22,5.22,0,0,1-3.469.9,6.556,6.556,0,0,1-1.125-.226,8.585,8.585,0,0,1-1.1-.426,7.39,7.39,0,0,1-2.231-1.559,13.391,13.391,0,0,1-1.629-2.219c-.437-.714-.859-1.441-1.359-2.113a6.526,6.526,0,0,0-.969-1,4.717,4.717,0,0,0-.84-.484,4.907,4.907,0,0,0-.98-.258,6.043,6.043,0,0,0-.66-.035,6.2,6.2,0,0,0-.664.035m41.795,2.911-.006.011a.055.055,0,0,1,.006-.011" fill="#ffc14d"/>
        <path id="Trazado_1038365" data-name="Trazado 1038365" d="M153.071,432.386a6.639,6.639,0,0,0-1.479.391l-.013.007.011-.006-.027.01-.031.014.008,0-.011,0a9.171,9.171,0,0,0-1.7,1.028c-1,.789-1.907,1.692-2.918,2.469a8.17,8.17,0,0,1-1.582.981,7.512,7.512,0,0,1-.938.363,6.978,6.978,0,0,1-3.371.1,10.014,10.014,0,0,1-2.535-.851,11.631,11.631,0,0,1-2.086-1.379c-.543-.434-1.062-.895-1.609-1.324a7.8,7.8,0,0,0-1.4-.864,5.692,5.692,0,0,0-1.175-.324,7.054,7.054,0,0,0-1.551.024,7.127,7.127,0,0,0-1.555.4,7.383,7.383,0,0,0-1.328.8c-.1.082-.207.168-.305.254-.758.652-1.426,1.39-2.144,2.086a8.831,8.831,0,0,1-2.367,1.765,5.513,5.513,0,0,1-1.532.488,4.252,4.252,0,0,1-1,.063,6.392,6.392,0,0,1-1.664-.391,29.366,29.366,0,0,1-3.836-1.882c-1.277-.7-2.555-1.414-3.887-2a10.276,10.276,0,0,0-2.546-.769,4.951,4.951,0,0,0-.895-.008,3.365,3.365,0,0,0-.648.172,2.853,2.853,0,0,0-.457.266,3.538,3.538,0,0,0-.438.445l-.031.044a47.785,47.785,0,0,0,8.144,13.124h39.2a46.837,46.837,0,0,0,7.444-11.557c-.648-.453-1.27-.945-1.894-1.424a17.347,17.347,0,0,0-3.429-2.23,3.774,3.774,0,0,0-1.665-.335,7.552,7.552,0,0,0-.765.042" fill="#ffc14d"/>
        <path id="Trazado_1038366" data-name="Trazado 1038366" d="M151.59,432.778h0l.053-.023a.224.224,0,0,0-.055.024" fill="#af414c"/>
        <path id="Trazado_1038367" data-name="Trazado 1038367" d="M151.469,432.828c.02-.007.04-.017.06-.024,0,0,0,0,0,0a.348.348,0,0,0-.062.025" fill="#af414c"/>
        <path id="Trazado_1038368" data-name="Trazado 1038368" d="M130.676,433.023c.035,0,.07-.008.109-.016-.039,0-.074.012-.109.016" fill="#af414c"/>
        <path id="Trazado_1038369" data-name="Trazado 1038369" d="M110.962,434.578c-.031-.016-.059-.027-.086-.039.026.012.054.027.086.039" fill="#af414c"/>
        <path id="Trazado_1038370" data-name="Trazado 1038370" d="M148.551,414.851c.023-.008.043-.02.066-.027a.365.365,0,0,0-.066.027" fill="#af414c"/>
        <path id="Trazado_1038371" data-name="Trazado 1038371" d="M163.641,420.175c.047-.02.09-.043.137-.062-.047.019-.09.039-.137.062" fill="#af414c"/>
        <path id="Trazado_1038372" data-name="Trazado 1038372" d="M107.61,433.818a3.618,3.618,0,0,0-.656.176,2.969,2.969,0,0,0-.457.265,3.442,3.442,0,0,0-.446.45,46.276,46.276,0,0,0,8.114,13.2l20.6.005a36.3,36.3,0,0,1-6.415-4.634A37.766,37.766,0,0,1,123.543,438a5.868,5.868,0,0,1-.585.314,5.589,5.589,0,0,1-1.524.484,5.083,5.083,0,0,1-.769.075,2.2,2.2,0,0,1-.227-.012,6.376,6.376,0,0,1-1.656-.387A28.391,28.391,0,0,1,115,436.623l-.391-.211c-1.25-.688-2.379-1.3-3.551-1.813a10.146,10.146,0,0,0-2.554-.773c-.168-.016-.34-.024-.508-.024-.129,0-.258,0-.387.016" fill="#ffb244"/>
        <path id="Trazado_1038373" data-name="Trazado 1038373" d="M104.448,413.833a5.885,5.885,0,0,0-1.18.328,6.11,6.11,0,0,0-1.121.66,7.6,7.6,0,0,0-.941.93,66.668,66.668,0,0,0,4.187,17.5,4.006,4.006,0,0,1,1.664-.809,5.037,5.037,0,0,1,.961-.089,8.044,8.044,0,0,1,2.875.609,33.725,33.725,0,0,1,4.145,2.019l.652.356c.938.519,2,1.105,3.09,1.578a7.522,7.522,0,0,0,1.57.484c.1.008.2.012.3.012.145,0,.281-.008.418-.019a5.486,5.486,0,0,0,1.028-.282,6.5,6.5,0,0,0,.585-.3,43.337,43.337,0,0,1-6.335-13.958c-.062-.24-.121-.478-.178-.717-.053-.005-.106-.011-.158-.018a6.843,6.843,0,0,1-1.121-.222,9.3,9.3,0,0,1-1.094-.426,7.3,7.3,0,0,1-2.227-1.559,13.267,13.267,0,0,1-1.625-2.211l-.222-.367c-.36-.59-.727-1.191-1.137-1.75a6.638,6.638,0,0,0-.973-1,4.679,4.679,0,0,0-.844-.484,5.1,5.1,0,0,0-.988-.262,6.3,6.3,0,0,0-.664-.035,6.477,6.477,0,0,0-.664.035" fill="#ffb244"/>
        <path id="Trazado_1038374" data-name="Trazado 1038374" d="M101.063,401.6c-.187,2.047-.281,4.148-.281,6.262,0,1.968.082,3.976.234,5.965a6.641,6.641,0,0,1,3.32-1.438,6.357,6.357,0,0,1,.817-.055,5.4,5.4,0,0,1,4.187,1.891,16.3,16.3,0,0,1,1.59,2.3l.1.164c.347.559.7,1.133,1.109,1.664a7.446,7.446,0,0,0,1.086,1.094,7.768,7.768,0,0,0,1.488.836,6.679,6.679,0,0,0,1.109.335,52.884,52.884,0,0,1-.354-19.015H101.063Z" fill="#ffb244"/>
      </g>
      <path id="Trazado_1038380" data-name="Trazado 1038380" d="M406.006,445.267H95.8c-1.064,0-1.963,1.612-1.963,3.521s.9,3.522,1.963,3.522H406.006c1.064,0,1.963-1.612,1.963-3.522s-.9-3.521-1.963-3.521" fill="#653f65"/>
    </g>
  </g>
</svg>
