<svg xmlns="http://www.w3.org/2000/svg" xmlns:xlink="http://www.w3.org/1999/xlink" width="295" height="383" viewBox="0 0 295 383">
  <defs>
    <clipPath id="clip-path">
      <rect id="Rectángulo_415477" data-name="Rectángulo 415477" width="295" height="383" transform="translate(180 797)" fill="#fff" stroke="#707070" stroke-width="1" opacity="0.75"/>
    </clipPath>
    <clipPath id="clip-path-2">
      <path id="Trazado_1037980" data-name="Trazado 1037980" d="M337.861,80.877c1.155,3.38,1.251,6.559.432,11.043-.082.449-.343,1.454-.343,1.454s6.536,1.713,7.889,2.052q4.312,1.081,8.631,2.137c1.454-4.1,2.105-8.9,6.031-11.48,5.271-3.459,11.425-5.639,15.191-10.971a21.414,21.414,0,0,0,2.866-18c-2.158-7.45-8.152-13.489-15.288-16.529a24.7,24.7,0,0,0-25.382,3.884,20.839,20.839,0,0,0-7.4,13.64c-.617,6.341,2.037,12.352,5.057,17.759A30.8,30.8,0,0,1,337.861,80.877Z" transform="translate(-330.396 -38.68)"/>
    </clipPath>
    <clipPath id="clip-path-6">
      <path id="Trazado_1038002" data-name="Trazado 1038002" d="M522.04,344.833s3.005,22.524,4.559,23.145,24.963,5.49,24.963,5.49l-48.639,34.023-38.472-35.266s21.131-2.382,22.063-5.49,1.308-16.387,1.308-16.387l17.839-18.209Z" transform="translate(-464.451 -332.14)"/>
    </clipPath>
    <clipPath id="clip-path-7">
      <path id="Trazado_1038009" data-name="Trazado 1038009" d="M581.44,297.848a6.707,6.707,0,0,0-6.526-4.454c-5.075.1-4.745-3.2-6.215-4.351-1.658-1.295-6.733.414-4.04,8.8C568.212,308.911,583.823,306.652,581.44,297.848Z" transform="translate(-563.887 -288.656)"/>
    </clipPath>
  </defs>
  <g id="Enmascarar_grupo_1098813" data-name="Enmascarar grupo 1098813" transform="translate(-180 -797)" clip-path="url(#clip-path)">
    <g id="Grupo_1178586" data-name="Grupo 1178586">
      <g id="_26928345_flat_people_getting_an_idea" data-name="26928345_flat_people_getting_an_idea" transform="translate(176.569 801.147)">
        <g id="Elements" transform="translate(-9 -1)">
          <g id="Grupo_1178552" data-name="Grupo 1178552" transform="translate(250.679 92.981)">
            <path id="Trazado_1037972" data-name="Trazado 1037972" d="M205.732,207.183c23.9,1.755,25.327,3.177,27.081,27.081,1.754-23.9,3.177-25.327,27.081-27.081-23.9-1.754-25.327-3.177-27.081-27.081C231.059,204.006,229.636,205.429,205.732,207.183Z" transform="translate(-205.732 -180.102)" fill="#fff16e"/>
          </g>
          <g id="Grupo_1178553" data-name="Grupo 1178553" transform="translate(24.197 168.438)">
            <path id="Trazado_1037973" data-name="Trazado 1037973" d="M684.933,334.31c11.144.818,11.807,1.481,12.625,12.625.818-11.144,1.481-11.807,12.625-12.625-11.144-.818-11.807-1.481-12.625-12.625C696.74,332.829,696.077,333.493,684.933,334.31Z" transform="translate(-684.933 -321.685)" fill="#fff16e"/>
          </g>
          <g id="Grupo_1178554" data-name="Grupo 1178554" transform="translate(12.431 23.053)">
            <path id="Trazado_1037974" data-name="Trazado 1037974" d="M760.447,410.808c18.463,1.355,19.562,2.454,20.917,20.917,1.355-18.463,2.454-19.562,20.917-20.917-18.463-1.355-19.562-2.454-20.917-20.917C780.009,408.354,778.91,409.453,760.447,410.808Z" transform="translate(-760.447 -389.891)" fill="#e2dacc"/>
            <path id="Trazado_1037975" data-name="Trazado 1037975" d="M746.161,545.319c9.231.677,9.781,1.227,10.459,10.459.677-9.231,1.227-9.781,10.458-10.459-9.231-.677-9.781-1.227-10.458-10.458C755.942,544.092,755.393,544.642,746.161,545.319Z" transform="translate(-717.63 -457.598)" fill="#e2dacc"/>
            <path id="Trazado_1038035" data-name="Trazado 1038035" d="M746.161,545.319c9.231.677,9.781,1.227,10.459,10.459.677-9.231,1.227-9.781,10.458-10.459-9.231-.677-9.781-1.227-10.458-10.458C755.942,544.092,755.393,544.642,746.161,545.319Z" transform="translate(-746.161 -307.598)" fill="#e2dacc"/>
          </g>
          <ellipse id="Elipse_12289" data-name="Elipse 12289" cx="4.012" cy="4.012" rx="4.012" ry="4.012" transform="translate(291.806 173.039)" fill="none" stroke="#e2dacc" stroke-miterlimit="10" stroke-width="1.62"/>
          <g id="Rocket" transform="translate(276.676 180.913)">
            <ellipse id="Elipse_12290" data-name="Elipse 12290" cx="4.012" cy="4.012" rx="4.012" ry="4.012" transform="translate(2.926 7.072)" fill="none" stroke="#e2dacc" stroke-miterlimit="10" stroke-width="1.114"/>
            <path id="Trazado_1037976" data-name="Trazado 1037976" d="M218.883,372.227c1.242,2.358,5.467,7.141,5.467,7.141a67.387,67.387,0,0,0,7.14-2.889c2.973-1.407,6.8-3.489,6.8-3.489h0s-.542-5.988-1.75-8.681a33.969,33.969,0,0,0-19.222-19.218A33.114,33.114,0,0,0,218.883,372.227Z" transform="translate(-215.127 -345.091)" fill="none" stroke="#e2dacc" stroke-miterlimit="10" stroke-width="1.114"/>
            <path id="Trazado_1037977" data-name="Trazado 1037977" d="M205.555,378.525c.207.449.414.915.6,1.4a24.257,24.257,0,0,1,1.329,5.352c.138.9.242,1.726.311,2.331l2.693-2.624,2.265-2.216a.828.828,0,0,0-.26-1.356l-2.938-1.227Z" transform="translate(-184.747 -360.706)" fill="none" stroke="#e2dacc" stroke-miterlimit="10" stroke-width="1.114"/>
            <path id="Trazado_1037978" data-name="Trazado 1037978" d="M242.921,400.836a.828.828,0,0,0,.912,1.04l3.141-.433,3.194-.432a45.872,45.872,0,0,1-4.61-6.128c-.224-.432-.449-.863-.639-1.295l-1.157,4.178Z" transform="translate(-241.807 -367.741)" fill="none" stroke="#e2dacc" stroke-miterlimit="10" stroke-width="1.114"/>
            <line id="Línea_627" data-name="Línea 627" x2="2.431" y2="5.216" transform="translate(22.103 31.161)" fill="none" stroke="#e2dacc" stroke-linecap="round" stroke-miterlimit="10" stroke-width="1.114"/>
            <line id="Línea_628" data-name="Línea 628" x2="2.431" y2="5.216" transform="translate(12.429 35.089)" fill="none" stroke="#e2dacc" stroke-linecap="round" stroke-miterlimit="10" stroke-width="1.114"/>
            <line id="Línea_629" data-name="Línea 629" x2="2.431" y2="5.216" transform="translate(17.924 34.587)" fill="none" stroke="#e2dacc" stroke-linecap="round" stroke-miterlimit="10" stroke-width="1.114"/>
          </g>
          <g id="Bulb" transform="translate(174.549)">
            <g id="Grupo_1178562" data-name="Grupo 1178562">
              <g id="Grupo_1178560" data-name="Grupo 1178560" transform="translate(14.857 17.609)">
                <g id="Grupo_1178556" data-name="Grupo 1178556" clip-path="url(#clip-path-2)">
                  <path id="Trazado_1037979" data-name="Trazado 1037979" d="M346.26,56.657,295.613,9.565l-6.3,8.918,48.073,45.229Z" transform="translate(-275.371 -25.082)" fill="#fff16e" opacity="0.32"/>
                </g>
                <g id="Grupo_1178557" data-name="Grupo 1178557" clip-path="url(#clip-path-2)">
                  <path id="Trazado_1037981" data-name="Trazado 1037981" d="M371.631,75.5,320.984,28.407l-3.691,7.712,48.073,45.229Z" transform="translate(-315.653 -33.882)" fill="#fff16e" opacity="0.32"/>
                </g>
                <g id="Grupo_1178558" data-name="Grupo 1178558" clip-path="url(#clip-path-2)">
                  <path id="Trazado_1037983" data-name="Trazado 1037983" d="M388.543,96.743,337.9,49.651,334.2,57.363l48.073,45.229Z" transform="translate(-341.578 -43.804)" fill="#fff16e" opacity="0.32"/>
                </g>
                <g id="Grupo_1178559" data-name="Grupo 1178559" clip-path="url(#clip-path-2)">
                  <path id="Trazado_1037985" data-name="Trazado 1037985" d="M404.563,117.311,353.915,70.219l-3.69,7.712L398.3,123.161Z" transform="translate(-366.136 -53.41)" fill="#fff16e" opacity="0.32"/>
                </g>
                <path id="Trazado_1037987" data-name="Trazado 1037987" d="M337.861,80.877c1.155,3.38,1.251,6.559.432,11.043-.082.449-.343,1.454-.343,1.454s6.536,1.713,7.889,2.052q4.312,1.081,8.631,2.137c1.454-4.1,2.105-8.9,6.031-11.48,5.271-3.459,11.425-5.639,15.191-10.971a21.414,21.414,0,0,0,2.866-18c-2.158-7.45-8.152-13.489-15.288-16.529a24.7,24.7,0,0,0-25.382,3.884,20.839,20.839,0,0,0-7.4,13.64c-.617,6.341,2.037,12.352,5.057,17.759A30.8,30.8,0,0,1,337.861,80.877Z" transform="translate(-330.396 -38.68)" fill="none" stroke="#eada42" stroke-miterlimit="10" stroke-width="3.239"/>
              </g>
              <g id="Grupo_1178561" data-name="Grupo 1178561">
                <path id="Trazado_1037988" data-name="Trazado 1037988" d="M354.547,71.423s2.477-13.492-11.808-19.473" transform="translate(-297.437 -27.269)" fill="none" stroke="#fff16e" stroke-linecap="round" stroke-miterlimit="10" stroke-width="6.478"/>
                <line id="Línea_630" data-name="Línea 630" x2="9.612" y2="2.275" transform="translate(68.504 48.789)" fill="none" stroke="#ffeb5c" stroke-linecap="round" stroke-miterlimit="10" stroke-width="3.239"/>
                <line id="Línea_631" data-name="Línea 631" y1="3.507" x2="10.795" transform="translate(68.504 30.91)" fill="none" stroke="#ffeb5c" stroke-linecap="round" stroke-miterlimit="10" stroke-width="3.239"/>
                <line id="Línea_632" data-name="Línea 632" y1="8.303" x2="7.926" transform="translate(61.822 9.306)" fill="none" stroke="#ffeb5c" stroke-linecap="round" stroke-miterlimit="10" stroke-width="3.239"/>
                <line id="Línea_633" data-name="Línea 633" x1="10.822" y1="2.126" transform="translate(0 31.146)" fill="none" stroke="#ffeb5c" stroke-linecap="round" stroke-miterlimit="10" stroke-width="3.239"/>
                <line id="Línea_634" data-name="Línea 634" x1="8.214" y1="7.509" transform="translate(9.6 13.693)" fill="none" stroke="#ffeb5c" stroke-linecap="round" stroke-miterlimit="10" stroke-width="3.239"/>
                <line id="Línea_635" data-name="Línea 635" x1="3.624" y1="10.388" transform="translate(26.115 1.397)" fill="none" stroke="#ffeb5c" stroke-linecap="round" stroke-miterlimit="10" stroke-width="3.239"/>
                <line id="Línea_636" data-name="Línea 636" y1="12.134" x2="1.774" transform="translate(46.34)" fill="none" stroke="#ffeb5c" stroke-linecap="round" stroke-miterlimit="10" stroke-width="3.239"/>
              </g>
            </g>
            <g id="Grupo_1178563" data-name="Grupo 1178563" transform="translate(17.615 77.575)">
              <path id="Trazado_1037989" data-name="Trazado 1037989" d="M381.466,163.185l11.755,3.159a2.572,2.572,0,0,0,3.151-1.817l2.375-8.839-16.724-4.494-2.375,8.839A2.573,2.573,0,0,0,381.466,163.185Z" transform="translate(-378.714 -151.195)" fill="none" stroke="#eada42" stroke-miterlimit="10" stroke-width="3.223"/>
              <line id="Línea_637" data-name="Línea 637" x1="21.738" y1="5.793" transform="translate(0 2.556)" fill="none" stroke="#eada42" stroke-linecap="round" stroke-miterlimit="10" stroke-width="2.429"/>
              <line id="Línea_638" data-name="Línea 638" x1="19.745" y1="5.262" transform="translate(0 6.556)" fill="none" stroke="#eada42" stroke-linecap="round" stroke-miterlimit="10" stroke-width="2.429"/>
            </g>
          </g>
        </g>
        <g id="Girl" transform="translate(20.235 31.464)">
          <g id="Grupo_1178567" data-name="Grupo 1178567" transform="translate(59.065 20.078)">
            <path id="Trazado_1037996" data-name="Trazado 1037996" d="M623.17,108.8l-5.456-.061,2.555,4.557a.1.1,0,0,0,.118.046l3.3-.944-.364-3.468A.152.152,0,0,0,623.17,108.8Z" transform="translate(-617.714 -108.741)" fill="#ffd4d4" stroke="#231f20" stroke-miterlimit="10" stroke-width="0.933"/>
            <path id="Trazado_1037997" data-name="Trazado 1037997" d="M602.59,121.931,581.683,109.2a.225.225,0,0,0-.35.144,5.334,5.334,0,0,1-2.621,4.037.2.2,0,0,0-.02.363C583.1,116.127,598.754,126,598.754,126Z" transform="translate(-575.765 -108.936)" fill="#c63c4d" stroke="#231f20" stroke-miterlimit="10" stroke-width="0.933"/>
            <path id="Trazado_1037998" data-name="Trazado 1037998" d="M625.574,108.78l.7.617-.919-.093.3.489-.437-.044.459.5-.6-.061.154.539-.436-.044-.679-1.77Z" transform="translate(-623.719 -108.759)" fill="#231f20"/>
          </g>
          <g id="Grupo_1178575" data-name="Grupo 1178575" transform="translate(21.312)">
            <path id="Trazado_1037999" data-name="Trazado 1037999" d="M427.264,160.99c-12.053-42.865,17.261-54.923,34.438-59.414a17.421,17.421,0,1,1,27.145-3.156c53.134-.888,42.395,59.182,42.395,59.182s35.405,5.063,31.055,44.81c-4.287,39.17-58.5,34.676-58.5,34.676s-15.106,4.13-36.332,4.13C380.822,245.916,404.83,156.556,427.264,160.99Z" transform="translate(-406.229 -71.454)" fill="#2b0004"/>
            <g id="Grupo_1178569" data-name="Grupo 1178569" transform="translate(38.296 139.14)">
              <path id="Trazado_1038000" data-name="Trazado 1038000" d="M522.04,344.833s3.005,22.524,4.559,23.145,24.963,5.49,24.963,5.49l-48.639,34.023-38.472-35.266s21.131-2.382,22.063-5.49,1.308-16.387,1.308-16.387l17.839-18.209Z" transform="translate(-464.451 -332.14)" fill="#fcbf9c"/>
              <g id="Grupo_1178568" data-name="Grupo 1178568" clip-path="url(#clip-path-6)">
                <path id="Trazado_1038001" data-name="Trazado 1038001" d="M577.718,346.013S556.8,371.463,528.311,361.8c-20.923-10.979,3.522-27.138,3.522-27.138l45.885,11.347" transform="translate(-520.129 -333.32)" fill="#e27a47"/>
              </g>
            </g>
            <path id="Trazado_1038003" data-name="Trazado 1038003" d="M460.286,201.5c2.914-1.363,6.634-.139,10.036,2.846,3.4-25.491,19.909-45.026,40.4-45.694,20.586-.671,38.4,17.914,43.363,43.3,3.282-3.445,7.07-5.056,10.174-3.844,5.115,2,6.429,10.874,2.932,19.827-2.977,7.622-8.477,12.822-13.2,12.972-4.742,23.055-20.421,40.168-39.581,40.793s-35.924-15.435-42.155-38.136c-4.648-.128-10.239-4.9-13.6-12.091C454.579,212.772,455.311,203.828,460.286,201.5Z" transform="translate(-439.251 -111.966)" fill="#fcbf9c"/>
            <path id="Trazado_1038004" data-name="Trazado 1038004" d="M474.791,251.034s-5.388,1.612-5.146,9.048" transform="translate(-352.147 -155.12)" fill="none" stroke="#110500" stroke-linecap="round" stroke-miterlimit="10" stroke-width="1.62"/>
            <path id="Trazado_1038005" data-name="Trazado 1038005" d="M643.919,257.064s5.482,1.258,5.724,8.693" transform="translate(-619.884 -157.936)" fill="none" stroke="#110500" stroke-linecap="round" stroke-miterlimit="10" stroke-width="1.62"/>
            <path id="Trazado_1038006" data-name="Trazado 1038006" d="M501.767,213.294s13.118-4.557,23.061,5.8" transform="translate(-419.309 -137.027)" fill="none" stroke="#110500" stroke-linecap="round" stroke-miterlimit="10" stroke-width="3.239"/>
            <path id="Trazado_1038007" data-name="Trazado 1038007" d="M603.852,217.5s-13.887.083-19.8,13.166" transform="translate(-542.185 -139.459)" fill="none" stroke="#110500" stroke-linecap="round" stroke-miterlimit="10" stroke-width="3.239"/>
            <g id="Grupo_1178571" data-name="Grupo 1178571" transform="translate(54.613 115.965)">
              <path id="Trazado_1038008" data-name="Trazado 1038008" d="M581.44,297.848a6.707,6.707,0,0,0-6.526-4.454c-5.075.1-4.745-3.2-6.215-4.351-1.658-1.295-6.733.414-4.04,8.8C568.212,308.911,583.823,306.652,581.44,297.848Z" transform="translate(-563.887 -288.656)" fill="#110500"/>
              <g id="Grupo_1178570" data-name="Grupo 1178570" transform="translate(0)" clip-path="url(#clip-path-7)">
                <ellipse id="Elipse_12291" data-name="Elipse 12291" cx="12.74" cy="10.332" rx="12.74" ry="10.332" transform="translate(-12.74 7.327)" fill="#fe5152"/>
              </g>
            </g>
            <path id="Trazado_1038010" data-name="Trazado 1038010" d="M552.444,266.255s6.681,10.255,1.864,14.76a3.936,3.936,0,0,1-3.729,1.088" transform="translate(-476.549 -162.228)" fill="none" stroke="#110500" stroke-linecap="round" stroke-miterlimit="10" stroke-width="1.62"/>
            <path id="Trazado_1038011" data-name="Trazado 1038011" d="M474.472,178.593c6.836-2.072,26.129-12.119,28.653-30.349l1.656,4.118c7.922-3.915,37.64-5.051,37.64-5.051l19.1,38.033L556.3,196.667s-11.39-.051-25.892-20.353c-10.847-15.186-18.375-15.981-23.242-18.025C507.164,158.29,502.438,175.9,474.472,178.593Z" transform="translate(-441.459 -106.676)" fill="#2b0004"/>
            <g id="Grupo_1178573" data-name="Grupo 1178573" transform="translate(61.38)">
              <g id="Grupo_1178572" data-name="Grupo 1178572" transform="translate(0)">
                <path id="Trazado_1038012" data-name="Trazado 1038012" d="M540.938,105.073a5.935,5.935,0,0,0,1.572-1.355c.461-.516.913-1.032,1.386-1.51a5.766,5.766,0,0,1,3.287-1.858,6.852,6.852,0,0,1,3.659.772,4.064,4.064,0,0,0,2.41.319,4.781,4.781,0,0,0,2.157-1.028,9.878,9.878,0,0,0,2.609-3.587,16.851,16.851,0,0,0,1.25-4.13,19.987,19.987,0,0,0-.4-8.537,16.874,16.874,0,0,0-4.293-7.424,19.1,19.1,0,0,0-7.226-4.5,21.789,21.789,0,0,0-16.369.949,25.8,25.8,0,0,1,8.051-1.2,22.059,22.059,0,0,1,7.834,1.541c4.924,1.95,9.029,5.988,10.34,11.092a18.3,18.3,0,0,1,.427,7.806,16.081,16.081,0,0,1-1.048,3.766,8.417,8.417,0,0,1-2.108,3.088,3.5,3.5,0,0,1-1.493.8,2.7,2.7,0,0,1-1.621-.153,10.2,10.2,0,0,0-2.11-.605,6.289,6.289,0,0,0-2.247.047,5.323,5.323,0,0,0-2.029.936,8.261,8.261,0,0,0-1.52,1.521c-.438.552-.811,1.136-1.2,1.7A6.222,6.222,0,0,1,540.938,105.073Z" transform="translate(-530.98 -71.067)" fill="#2b0004"/>
              </g>
            </g>
            <g id="Grupo_1178574" data-name="Grupo 1178574" transform="translate(50.747 0.144)">
              <path id="Trazado_1038013" data-name="Trazado 1038013" d="M590.749,71.928a13.015,13.015,0,0,0-5.984-.425,11.6,11.6,0,0,0-5.669,2.469,10.324,10.324,0,0,0-2.1,2.352,12.251,12.251,0,0,0-.774,1.362,11.727,11.727,0,0,0-.555,1.448,13.827,13.827,0,0,0-.539,5.979,28.5,28.5,0,0,1,1.792-5.485c.183-.431.44-.82.648-1.23.259-.381.48-.782.77-1.135A10.777,10.777,0,0,1,580.2,75.3a13.619,13.619,0,0,1,4.857-2.488A24.716,24.716,0,0,1,590.749,71.928Z" transform="translate(-575.015 -71.338)" fill="#2b0004"/>
            </g>
            <path id="Trazado_1038014" data-name="Trazado 1038014" d="M521.685,246.869c.218,2.177,1.537,3.828,2.946,3.686s2.374-2.021,2.156-4.2-1.537-3.828-2.946-3.686S521.467,244.692,521.685,246.869Z" transform="translate(-431.897 -151.21)" fill="#110500"/>
            <path id="Trazado_1038015" data-name="Trazado 1038015" d="M594.372,257.364c.218,2.177,1.537,3.828,2.946,3.686s2.374-2.021,2.156-4.2-1.537-3.828-2.946-3.686S594.154,255.187,594.372,257.364Z" transform="translate(-543.323 -156.111)" fill="#110500"/>
          </g>
          <g id="Grupo_1178583" data-name="Grupo 1178583" transform="translate(0 64.389)">
            <path id="Trazado_1038016" data-name="Trazado 1038016" d="M338.917,357.753s-19.746-11.179-43.569,1.043c8.494,16.366,7.306,15.959,7.306,15.959l32.317-3.936Z" transform="translate(-102.073 -267.169)" fill="#192f35" stroke="#110500" stroke-miterlimit="10" stroke-width="3.239"/>
            <g id="Grupo_1178581" data-name="Grupo 1178581" transform="translate(171.929 0)">
              <path id="Trazado_1038017" data-name="Trazado 1038017" d="M336.21,223.265s1.059-21.041,2.682-31.382c-1.42.1-4,2.143-4.627,3.419-2.731,5.524-7.213,22.342-10.3,52.455-1.729-2.125-5.435-1.38-8.9-5.72s-13.254-2.751-13.711-.932,18.881,9.879,20.483,17.495,6.012,9.334,6.081,11.4-1.855,19.314-1.855,19.314l12.341,9.147,19.35-7.273s-2.217-13.138-1.38-21.124c0,0,10.332-16.428,5.312-34.448a3.17,3.17,0,0,0-1.166-1.688,35.931,35.931,0,0,1-6.419-7.19,4.566,4.566,0,0,0-4.089-1.905c-3.184.261-6.684.11-8.073-.488C340.158,223.58,338.769,222.317,336.21,223.265Z" transform="translate(-301.353 -191.883)" fill="#fcbf9c" stroke="#000" stroke-linecap="round" stroke-miterlimit="10" stroke-width="1.62"/>
              <g id="Grupo_1178576" data-name="Grupo 1178576" transform="translate(27.948 32.007)">
                <path id="Trazado_1038018" data-name="Trazado 1038018" d="M353.811,251.939s-7.319,8.994-6.382,13.782,3.11,11.629,9.172,11.582" transform="translate(-347.347 -251.939)" fill="none" stroke="#000" stroke-linecap="round" stroke-miterlimit="10" stroke-width="0.81"/>
                <path id="Trazado_1038019" data-name="Trazado 1038019" d="M344.445,264.112s-5.78,3.805-6.624,6.476,2.3,8.473,3.9,14.483c0,0,4.22.111,4.539-6.059" transform="translate(-331.858 -257.624)" fill="none" stroke="#000" stroke-linecap="round" stroke-miterlimit="10" stroke-width="0.81"/>
                <path id="Trazado_1038020" data-name="Trazado 1038020" d="M322.019,268.772s-7,6.038-7.427,7.244c0,0-.126,8.623,3.217,10.99,2.94-.418,3.126-4.155,3.126-4.155s-.628-4.841-.4-4.983,6.644-1.211,6.655-3.232l.01-2.022" transform="translate(-300.488 -259.801)" fill="none" stroke="#000" stroke-linecap="round" stroke-miterlimit="10" stroke-width="0.81"/>
              </g>
              <g id="Grupo_1178578" data-name="Grupo 1178578" transform="translate(22.929 56.912)">
                <g id="Grupo_1178577" data-name="Grupo 1178577" transform="translate(0)">
                  <path id="Trazado_1038021" data-name="Trazado 1038021" d="M363.972,311.262a20.816,20.816,0,0,0-1.251-4.462,17.558,17.558,0,0,0-2.292-4.057,11.285,11.285,0,0,0-3.545-3.034,9.422,9.422,0,0,0-2.193-.813,9.879,9.879,0,0,0-2.31-.227A10.484,10.484,0,0,1,356.724,300a11.809,11.809,0,0,1,1.832,1.333,13.353,13.353,0,0,1,1.533,1.675,18.773,18.773,0,0,1,2.328,3.922A30.212,30.212,0,0,1,363.972,311.262Z" transform="translate(-352.381 -298.668)" fill="#c9805b"/>
                </g>
              </g>
              <g id="Grupo_1178580" data-name="Grupo 1178580" transform="translate(44.062 60.942)">
                <g id="Grupo_1178579" data-name="Grupo 1178579" transform="translate(0)">
                  <path id="Trazado_1038022" data-name="Trazado 1038022" d="M329.885,320.37a13.276,13.276,0,0,1-2.516-2.956,14.486,14.486,0,0,1-1.639-3.49c-.109-.3-.176-.619-.266-.928l-.127-.467-.084-.476c-.054-.318-.117-.635-.164-.955-.024-.322-.055-.644-.09-.966l-.05-.484,0-.486-.011-.975c0-.651.079-1.3.1-1.956-.114.643-.232,1.291-.308,1.944l-.051.987-.025.495.021.495c.012.33.028.66.051.99.041.328.1.654.148.982l.077.491.121.482c.086.32.149.647.256.961a13.02,13.02,0,0,0,3.042,5.066A9.719,9.719,0,0,0,329.885,320.37Z" transform="translate(-324.646 -306.23)" fill="#c9805b"/>
                </g>
              </g>
            </g>
            <path id="Trazado_1038023" data-name="Trazado 1038023" d="M304.19,550.463c55.606,1.2,144.27-.953,144.27-.953s7.046-42.641,4.559-86.926c0,0,47,53.09,62.492,6.49a60.958,60.958,0,0,0,2.649-25.844c-3-27.521-14.18-82.183-14.18-82.183S478.5,384.38,458.2,362.11c-.207,14.27,2.1,36.217,3.625,43.97-21.131-20.847-36.15-21.182-63.3-22.141,0,0-33.763,18-63.6.467,0,0-77.879.976-67.935,117.815,0,0,3.41,30.114,30.453,37.6,0,2.8.078,10.522.078,10.522Z" transform="translate(-266.11 -270.89)" fill="#ff9d1c"/>
            <path id="Trazado_1038024" data-name="Trazado 1038024" d="M359.463,445.544a63.449,63.449,0,0,0-.855,21.528c2.362,15.382,8.578,12.789,8.578,12.789-1.085-3.977-4.139-13.912-5.064-18.382C360.963,455.876,360.1,450.546,359.463,445.544Z" transform="translate(-163.75 -310.354)" fill="#8b550e"/>
            <g id="Grupo_1178582" data-name="Grupo 1178582" transform="translate(69.265 90.439)">
              <path id="Trazado_1038025" data-name="Trazado 1038025" d="M352.381,404.412c27.155.959,42.174,1.074,63.3,21.922,0,0,4.163,33.025,10.735,39.24" transform="translate(-289.238 -381.582)" fill="none" stroke="#110500" stroke-linecap="round" stroke-miterlimit="10" stroke-width="1.62"/>
              <path id="Trazado_1038026" data-name="Trazado 1038026" d="M554.812,405.386s-33.377,17.652-62.726.453" transform="translate(-492.086 -382.037)" fill="none" stroke="#fff" stroke-linecap="round" stroke-miterlimit="10" stroke-width="3.239"/>
              <path id="Trazado_1038027" data-name="Trazado 1038027" d="M339.5,361.576s-24.752,22.674-44.964,1.321a.289.289,0,0,0-.509.175c-.123,14.278,2.135,35.63,3.634,43.255" transform="translate(-171.209 -361.576)" fill="none" stroke="#110500" stroke-linecap="round" stroke-miterlimit="10" stroke-width="1.62"/>
            </g>
          </g>
          <g id="Grupo_1178585" data-name="Grupo 1178585" transform="translate(31.757 268.099)">
            <path id="Trazado_1038028" data-name="Trazado 1038028" d="M595.891,647.665s5.291,27.82-13.9,35.948c-13.391-8.445-9.247-22.946-9.247-22.946Z" transform="translate(-538.989 -608.462)" fill="#192f35" stroke="#000" stroke-miterlimit="10" stroke-width="1.62"/>
            <path id="Trazado_1038029" data-name="Trazado 1038029" d="M491.6,672.178l10.065,7.613s15.606,2.331,19.542,3.159c2,.414,3.9,2.555,5.283,4.557h33.491c-1.64-9.65-4.713-16.625-10.893-19.473-4.9-2.261-13.655-.587-16.9-1.45-7.872-2.072-24.342-12.016-24.342-12.016Z" transform="translate(-459.481 -611.687)" fill="#fcbf9c" stroke="#000" stroke-miterlimit="10" stroke-width="1.62"/>
            <g id="Grupo_1178584" data-name="Grupo 1178584" transform="translate(72.986 61.216)">
              <path id="Trazado_1038030" data-name="Trazado 1038030" d="M513.8,702.9s-.829-11.138-7.562-13.935" transform="translate(-494.092 -688.969)" fill="none" stroke="#000" stroke-linecap="round" stroke-miterlimit="10" stroke-width="1.62"/>
              <path id="Trazado_1038031" data-name="Trazado 1038031" d="M526.294,706.262s0-7.513-5.869-10.1" transform="translate(-514.149 -692.327)" fill="none" stroke="#000" stroke-linecap="round" stroke-miterlimit="10" stroke-width="1.62"/>
              <path id="Trazado_1038032" data-name="Trazado 1038032" d="M540.286,710.12a12.019,12.019,0,0,0-3.341-5.7" transform="translate(-536.945 -696.185)" fill="none" stroke="#000" stroke-linecap="round" stroke-miterlimit="10" stroke-width="1.62"/>
            </g>
            <path id="Trazado_1038033" data-name="Trazado 1038033" d="M588.605,574.108s-7.363,37.289,42.447,38.946c-15.653,12.637-13.035,36.2-13.035,36.2-29.211-.258-43-9.81-43-9.81" transform="translate(-575.015 -574.108)" fill="#ff9d1c" stroke="#110500" stroke-linecap="round" stroke-miterlimit="10" stroke-width="1.62"/>
          </g>
        </g>
        <g id="Line" transform="translate(14.968 375.79)">
          <path id="Trazado_1038034" data-name="Trazado 1038034" d="M641.488,716.373H455.413" transform="translate(-455.413 -716.373)" fill="none" stroke="#65494c" stroke-linecap="round" stroke-miterlimit="10" stroke-width="6.478"/>
          <line id="Línea_639" data-name="Línea 639" x1="105.265" transform="translate(181.963)" fill="none" stroke="#65494c" stroke-linecap="round" stroke-miterlimit="10" stroke-width="6.478"/>
        </g>
      </g>
      <g id="Leaf_1_" transform="translate(368.151 1109.609)">
        <g id="Grupo_1178564" data-name="Grupo 1178564" transform="translate(0)">
          <path id="Trazado_1037990" data-name="Trazado 1037990" d="M334.077,650.351s33.678-23.973,33.815-73.441C360.755,581.388,335.3,605.912,334.077,650.351Z" transform="translate(-334.077 -576.91)" fill="#37a56e"/>
          <path id="Trazado_1037991" data-name="Trazado 1037991" d="M334.077,650.351s33.678-23.973,33.815-73.441Z" transform="translate(-334.077 -576.91)" fill="#54b582"/>
        </g>
        <g id="Grupo_1178565" data-name="Grupo 1178565" transform="translate(0 69.671)">
          <path id="Trazado_1037992" data-name="Trazado 1037992" d="M247.415,711.4s32.51,25.533,80,11.691C321.105,717.514,290.391,700.027,247.415,711.4Z" transform="translate(-247.415 -707.636)" fill="#37a56e"/>
          <path id="Trazado_1037993" data-name="Trazado 1037993" d="M247.415,714.706s32.51,25.533,80,11.692Z" transform="translate(-247.415 -710.938)" fill="#54b582"/>
        </g>
        <g id="Grupo_1178566" data-name="Grupo 1178566" transform="translate(0 9.221)">
          <path id="Trazado_1037994" data-name="Trazado 1037994" d="M197.04,658.431s63.721-1.3,106.849-64.2C290.909,593.738,237.189,602.881,197.04,658.431Z" transform="translate(-197.04 -594.211)" fill="#37a56e"/>
          <path id="Trazado_1037995" data-name="Trazado 1037995" d="M197.04,658.447s63.721-1.3,106.849-64.2Z" transform="translate(-197.04 -594.227)" fill="#54b582"/>
        </g>
      </g>
    </g>
  </g>
</svg>
