<svg xmlns="http://www.w3.org/2000/svg" xmlns:xlink="http://www.w3.org/1999/xlink" width="110" height="110" viewBox="0 0 110 110">
  <defs>
    <filter id="Trazado_982547" x="0" y="0" width="110" height="110" filterUnits="userSpaceOnUse">
      <feOffset dy="3" input="SourceAlpha"/>
      <feGaussianBlur stdDeviation="3" result="blur"/>
      <feFlood flood-opacity="0.161"/>
      <feComposite operator="in" in2="blur"/>
      <feComposite in="SourceGraphic"/>
    </filter>
  </defs>
  <g id="Grupo_1178624" data-name="Grupo 1178624" transform="translate(-378 -5019)">
    <g id="Grupo_1176396" data-name="Grupo 1176396" transform="translate(0.539 -10038)">
      <g id="Grupo_1173147" data-name="Grupo 1173147" transform="translate(386.461 15063)">
        <g id="Grupo_1163801" data-name="Grupo 1163801" transform="translate(0 0)">
          <g id="Grupo_1163014" data-name="Grupo 1163014">
            <g id="Grupo_1157015" data-name="Grupo 1157015" transform="translate(0 0)">
              <g id="Grupo_1155792" data-name="Grupo 1155792" transform="translate(0 0)">
                <g id="Grupo_1154703" data-name="Grupo 1154703">
                  <g id="Grupo_1150789" data-name="Grupo 1150789">
                    <g id="Grupo_1154212" data-name="Grupo 1154212">
                      <g id="Grupo_1152583" data-name="Grupo 1152583">
                        <g id="Grupo_1146973" data-name="Grupo 1146973" transform="translate(0 0)">
                          <g id="Grupo_1146954" data-name="Grupo 1146954">
                            <g transform="matrix(1, 0, 0, 1, -9, -6)" filter="url(#Trazado_982547)">
                              <g id="Trazado_982547-2" data-name="Trazado 982547" transform="translate(9 6)" fill="#f2f7e5">
                                <path d="M 46.00000381469727 90.49988555908203 C 39.99188232421875 90.49988555908203 34.16427230834961 89.32352447509766 28.67905807495117 87.00347137451172 C 23.38020324707031 84.76226043701172 18.62103080749512 81.55342864990234 14.53375053405762 77.46615600585938 C 10.44645690917969 73.37887573242188 7.237643718719482 68.61971282958984 4.996417045593262 63.32085800170898 C 2.676363706588745 57.83565902709961 1.500003814697266 52.00806045532227 1.500003814697266 45.99993896484375 C 1.500003814697266 39.99181747436523 2.676363706588745 34.16421890258789 4.996417045593262 28.67901802062988 C 7.237643718719482 23.38017845153809 10.44645690917969 18.62101936340332 14.53375053405762 14.53373908996582 C 18.62103080749512 10.44645881652832 23.38020324707031 7.237632274627686 28.67905807495117 4.996418952941895 C 34.16427230834961 2.676365613937378 39.99188232421875 1.500005602836609 46.00000381469727 1.500005602836609 C 52.00812530517578 1.500005602836609 57.83573532104492 2.676365613937378 63.32094955444336 4.996418952941895 C 68.61980438232422 7.237632274627686 73.37896728515625 10.44645881652832 77.46625518798828 14.53373908996582 C 81.55353546142578 18.62101936340332 84.76236724853516 23.38017845153809 87.00359344482422 28.67901802062988 C 89.32364654541016 34.16421890258789 90.5 39.99181747436523 90.5 45.99993896484375 C 90.5 52.00806045532227 89.32364654541016 57.83565902709961 87.00359344482422 63.32085800170898 C 84.76236724853516 68.61971282958984 81.55353546142578 73.37887573242188 77.46625518798828 77.46615600585938 C 73.37896728515625 81.55342864990234 68.61980438232422 84.76226043701172 63.32094955444336 87.00347137451172 C 57.83573532104492 89.32352447509766 52.00812530517578 90.49988555908203 46.00000381469727 90.49988555908203 Z" stroke="none"/>
                                <path d="M 46.00000381469727 2.999992370605469 C 40.19371795654297 2.999992370605469 34.56270217895508 4.136497497558594 29.26338958740234 6.377906799316406 C 24.14333343505859 8.543510437011719 19.54441833496094 11.64437866210938 15.59440612792969 15.59439849853516 C 11.64440155029297 19.54439544677734 8.54351806640625 24.14329528808594 6.377914428710938 29.26335144042969 C 4.136505126953125 34.56266784667969 3.000007629394531 40.19366836547852 3.000007629394531 45.99993896484375 C 3.000007629394531 51.80620956420898 4.136505126953125 57.43722534179688 6.377914428710938 62.73654174804688 C 8.54351806640625 67.85658264160156 11.64440155029297 72.45548248291016 15.59440612792969 76.40549468994141 C 19.54441833496094 80.35549926757812 24.14333343505859 83.45636749267578 29.26337432861328 85.62196350097656 C 34.56270217895508 87.86338043212891 40.19371795654297 88.9998779296875 46.00000381469727 88.9998779296875 C 51.80628967285156 88.9998779296875 57.43730545043945 87.86338043212891 62.73663330078125 85.62196350097656 C 67.85667419433594 83.45636749267578 72.45558929443359 80.35549926757812 76.40560150146484 76.40549468994141 C 80.35560607910156 72.45548248291016 83.45648956298828 67.85658264160156 85.62208557128906 62.73654174804688 C 87.86350250244141 57.43722534179688 89 51.80620956420898 89 45.99993896484375 C 89 40.19366836547852 87.86350250244141 34.56266784667969 85.62208557128906 29.26335144042969 C 83.45648956298828 24.14329528808594 80.35560607910156 19.54439544677734 76.40560150146484 15.59439849853516 C 72.45558929443359 11.64437866210938 67.85667419433594 8.543510437011719 62.73661804199219 6.377906799316406 C 57.43730545043945 4.136497497558594 51.80628967285156 2.999992370605469 46.00000381469727 2.999992370605469 M 46.00000381469727 -7.62939453125e-06 C 71.40510559082031 -7.62939453125e-06 92 20.59487915039062 92 45.99993896484375 C 92 71.40501403808594 71.40510559082031 91.99988555908203 46.00000381469727 91.99988555908203 C 20.59490203857422 91.99988555908203 7.62939453125e-06 71.40501403808594 7.62939453125e-06 45.99993896484375 C 7.62939453125e-06 20.59487915039062 20.59490203857422 -7.62939453125e-06 46.00000381469727 -7.62939453125e-06 Z" stroke="none" fill="#86b60c"/>
                              </g>
                            </g>
                          </g>
                        </g>
                      </g>
                    </g>
                  </g>
                </g>
              </g>
            </g>
          </g>
        </g>
      </g>
    </g>
    <g id="customer-service" transform="translate(369.19 5042)">
      <path id="Trazado_1038078" data-name="Trazado 1038078" d="M261.033,261.412v4.513l-5.052,3.8-5.052-3.8v-4.513Z" transform="translate(-187.696 -231.314)" fill="#fed2a4"/>
      <path id="Trazado_1038079" data-name="Trazado 1038079" d="M253.231,265.925v-4.513h-2.3v4.513l5.052,3.8,1.151-.867Z" transform="translate(-187.695 -231.314)" fill="#ffbd86"/>
      <path id="Trazado_1038080" data-name="Trazado 1038080" d="M55.312,145.429H48.037A1.727,1.727,0,0,1,46.31,143.7V132.769a1.727,1.727,0,0,1,1.727-1.727h7.275a1.727,1.727,0,0,1,1.727,1.727v5.467l3.576,3.617H57.039V143.7A1.727,1.727,0,0,1,55.312,145.429Z" transform="translate(-6.636 -115.954)" fill="#75cc77"/>
      <path id="Trazado_1038081" data-name="Trazado 1038081" d="M69.606,306.2h3.576v-3.8a1.788,1.788,0,1,0-3.576,0Z" transform="translate(-27.25 -266)" fill="#fed2a4"/>
      <path id="Trazado_1038082" data-name="Trazado 1038082" d="M72.259,300.835a1.789,1.789,0,0,0-2.653,1.566v3.8h1.727v-3.8A1.788,1.788,0,0,1,72.259,300.835Z" transform="translate(-27.25 -266)" fill="#ffbd86"/>
      <path id="Trazado_1038083" data-name="Trazado 1038083" d="M65.479,316.934a1.727,1.727,0,0,0,1.727-1.727v-1.849l6.551-8.5a3.454,3.454,0,0,1,1.527-1.128l8.332-3.115,5.049,3.8,5.049-3.8L105,304.167a4.833,4.833,0,0,1,3.336,4.6v15.319H74.359v-8.937l-6.127,7.4a3.454,3.454,0,0,1-2.874,1.538H65.3a3.454,3.454,0,0,1-3.454-3.454v-3.7Z" transform="translate(-20.379 -266)" fill="#42a5f5"/>
      <g id="Grupo_1178625" data-name="Grupo 1178625" transform="translate(41.462 34.612)">
        <path id="Trazado_1038084" data-name="Trazado 1038084" d="M305.96,304.416l4.37-3.293-1.624-.512-3.9,2.937Z" transform="translate(-276.834 -300.612)" fill="#0593fc"/>
        <path id="Trazado_1038085" data-name="Trazado 1038085" d="M170.559,411.017h2.3v10.759h-2.3Z" transform="translate(-158.042 -398.305)" fill="#0593fc"/>
        <path id="Trazado_1038086" data-name="Trazado 1038086" d="M64.145,320.633v-3.7h3.638a1.727,1.727,0,0,0,1.727-1.727v-1.849l6.551-8.5a3.455,3.455,0,0,1,1.527-1.128l6.793-2.539-.764-.575-8.332,3.115a3.454,3.454,0,0,0-1.527,1.128l-6.551,8.5v1.849a1.727,1.727,0,0,1-1.727,1.727H61.842v3.7a3.454,3.454,0,0,0,3.454,3.454h.062a3.457,3.457,0,0,0,1.12-.186A3.457,3.457,0,0,1,64.145,320.633Z" transform="translate(-61.842 -300.612)" fill="#0593fc"/>
      </g>
      <path id="Trazado_1038087" data-name="Trazado 1038087" d="M170.559,411.017h26.823V418.2H170.559Z" transform="translate(-116.58 -363.694)" fill="#ffca28"/>
      <path id="Trazado_1038088" data-name="Trazado 1038088" d="M170.559,411.017h2.3V418.2h-2.3Z" transform="translate(-116.58 -363.694)" fill="#f9b916"/>
      <path id="Trazado_1038089" data-name="Trazado 1038089" d="M187.741,131.752h-1.734a2.406,2.406,0,0,0-2.406,2.406v1.8a2.406,2.406,0,0,0,2.406,2.406h1.734Z" transform="translate(-128.12 -116.582)" fill="#fed2a4"/>
      <path id="Trazado_1038090" data-name="Trazado 1038090" d="M370.056,131.752h1.734a2.406,2.406,0,0,1,2.406,2.406v1.8a2.406,2.406,0,0,1-2.406,2.406h-1.734Z" transform="translate(-293.107 -116.582)" fill="#fed2a4"/>
      <path id="Trazado_1038091" data-name="Trazado 1038091" d="M219.559,103.642v8.32a8,8,0,0,0,8,8h1.322a8,8,0,0,0,8-8v-8.238l-8.664-3.647Z" transform="translate(-159.938 -88.554)" fill="#fff3de"/>
      <path id="Trazado_1038092" data-name="Trazado 1038092" d="M221.862,111.962v-8.32l7.5-3.086-1.138-.479-8.664,3.565v8.32a8,8,0,0,0,8,8h1.322c.165,0,.328-.007.49-.016A8,8,0,0,1,221.862,111.962Z" transform="translate(-159.938 -88.554)" fill="#ffe5c2"/>
      <path id="Trazado_1038093" data-name="Trazado 1038093" d="M191.469,49.292h3.974a3.454,3.454,0,0,0,3.454-3.454V38.562H196.65a5.181,5.181,0,0,0-5.181,5.181Z" transform="translate(-135.082 -34.122)" fill="#546e7a"/>
      <path id="Trazado_1038094" data-name="Trazado 1038094" d="M198.9,38.563h-2.246a5.181,5.181,0,0,0-5.181,5.181v5.548h2.3V43.743A5.181,5.181,0,0,1,198.9,38.563Z" transform="translate(-135.081 -34.122)" fill="#435860"/>
      <path id="Trazado_1038095" data-name="Trazado 1038095" d="M265.295,7.5a7.09,7.09,0,0,1,7.09,7.09v7.216H259.433a3.454,3.454,0,0,1-3.454-3.454v-7.4A3.454,3.454,0,0,1,259.433,7.5h5.862Z" transform="translate(-192.165 -6.638)" fill="#546e7a"/>
      <path id="Trazado_1038096" data-name="Trazado 1038096" d="M258.282,18.353v-7.4A3.454,3.454,0,0,1,261.736,7.5h-2.3a3.454,3.454,0,0,0-3.454,3.454v7.4a3.454,3.454,0,0,0,3.454,3.454h2.3A3.454,3.454,0,0,1,258.282,18.353Z" transform="translate(-192.165 -6.637)" fill="#435860"/>
      <path id="Trazado_1038097" data-name="Trazado 1038097" d="M48.037,359.916h3.7a1.727,1.727,0,0,0,1.727-1.727v-7.275a1.727,1.727,0,0,0-1.727-1.727h-3.7a1.727,1.727,0,0,0-1.727,1.727v7.275A1.727,1.727,0,0,0,48.037,359.916Z" transform="translate(-6.636 -308.982)" fill="#fff3de"/>
      <path id="Trazado_1038098" data-name="Trazado 1038098" d="M48.614,358.189v-7.275a1.727,1.727,0,0,1,1.727-1.727h-2.3a1.727,1.727,0,0,0-1.727,1.727v7.275a1.727,1.727,0,0,0,1.727,1.727h2.3A1.727,1.727,0,0,1,48.614,358.189Z" transform="translate(-6.637 -308.982)" fill="#ffe5c2"/>
      <g id="Grupo_1178626" data-name="Grupo 1178626" transform="translate(38.81 0)">
        <path id="Trazado_1038099" data-name="Trazado 1038099" d="M320.555,154.457a.863.863,0,0,0,.864-.864v-1.133a.864.864,0,0,0-1.727,0v1.133A.863.863,0,0,0,320.555,154.457Z" transform="translate(-287.351 -134.143)"/>
        <path id="Trazado_1038100" data-name="Trazado 1038100" d="M255.937,154.457a.863.863,0,0,0,.864-.864v-1.133a.864.864,0,0,0-1.727,0v1.133A.863.863,0,0,0,255.937,154.457Z" transform="translate(-230.173 -134.143)"/>
        <path id="Trazado_1038101" data-name="Trazado 1038101" d="M271.529,206.116a3.033,3.033,0,0,0,3.029-3.029.864.864,0,1,0-1.727,0,1.3,1.3,0,1,1-2.6,0,.864.864,0,1,0-1.727,0A3.033,3.033,0,0,0,271.529,206.116Z" transform="translate(-242.054 -178.94)"/>
        <path id="Trazado_1038102" data-name="Trazado 1038102" d="M87.955,46.3a.863.863,0,0,0,.864-.864V42.763a5.687,5.687,0,0,0-3.94-5.42L74.2,33.979V30.544a9.311,9.311,0,0,0,3.612-7.9c1.981.152,4.14-1.022,4.14-3.27v-1.8a3.257,3.257,0,0,0-.886-2.234c.011-.055.017-2.463.017-2.463a.864.864,0,1,0-1.727,0v1.428H67.268a2.594,2.594,0,0,1-2.591-2.591v-7.4a2.594,2.594,0,0,1,2.591-2.591H73.13a6.234,6.234,0,0,1,6.227,6.227V9.114a.864.864,0,0,0,1.727,0V7.954A7.963,7.963,0,0,0,73.13,0H67.269a4.324,4.324,0,0,0-4.253,3.576H61.568a6.052,6.052,0,0,0-6.045,6.045s0,5.642.012,5.687a3.258,3.258,0,0,0-.918,2.268v1.8c0,2.212,2.149,3.439,4.14,3.27a9.18,9.18,0,0,0,3.612,7.9v3.47l-7.769,2.9a4.321,4.321,0,0,0-1.907,1.41l-5,6.495v-2.89a2.585,2.585,0,0,0-.894-1.955V36.4a2.652,2.652,0,1,0-5.3,0v2.941a2.383,2.383,0,0,0-2.682,2.591v7.275A2.6,2.6,0,0,0,40.6,51.669v2.963a4.361,4.361,0,0,0,7.946,2.434l4.572-5.524v6.539a.863.863,0,0,0,.864.864H87.955a.863.863,0,0,0,.864-.864V49.205a.864.864,0,1,0-1.727,0v8.014H81.666V45.761a.864.864,0,0,0-1.727,0v.7h-25.1v-.891a.864.864,0,1,0-1.727,0v3.265L47.187,56c-1.414,1.706-4.861,1.758-4.861-1.365V51.8h2.743v.925a.864.864,0,1,0,1.727,0v-1.56a2.585,2.585,0,0,0,.895-1.956V47.651l6.371-8.27a2.6,2.6,0,0,1,1.145-.846l7.886-2.948,4.673,3.518a.9.9,0,0,0,1.094-.041L73.5,35.569l10.851,3.419a3.961,3.961,0,0,1,2.74,3.775v2.678a.864.864,0,0,0,.864.864Zm-8.016,1.883v5.46H65.114a.864.864,0,1,0,0,1.727H79.939v1.845h-25.1V55.374h6.509a.864.864,0,1,0,0-1.727H54.843v-5.46ZM43.219,36.4a.925.925,0,1,1,1.849,0v2.941H43.219Zm-2.682,5.532a.864.864,0,0,1,.864-.864h3.7a.864.864,0,0,1,.864.864v.986H43.25a.864.864,0,0,0,0,1.727h2.713v1.849H43.25a.864.864,0,0,0,0,1.727h2.713v.986c0,.576-.349.824-.863.863H41.4a.864.864,0,0,1-.864-.864ZM80.226,19.379a1.544,1.544,0,0,1-1.543,1.542h-.87V16.033h.87a1.544,1.544,0,0,1,1.543,1.542ZM57.25,9.621A4.322,4.322,0,0,1,61.568,5.3h1.383v6.412h0a2.594,2.594,0,0,1-2.591,2.591H57.25Zm.637,11.3a1.544,1.544,0,0,1-1.542-1.542v-1.8a1.544,1.544,0,0,1,1.542-1.542h.871v4.888h-.871Zm2.6,2.487V16.03a4.314,4.314,0,0,0,3.33-1.727,4.314,4.314,0,0,0,3.454,1.73h8.817v7.375c0,9.489-15.6,9.478-15.6,0ZM72.474,31.54v2.638l-4.188,3.156L64.1,34.178V31.54c2.059,1.235,6.166,1.159,8.377,0Z" transform="translate(-38.81 0)"/>
        <path id="Trazado_1038103" data-name="Trazado 1038103" d="M64.148,175.54a.864.864,0,0,0,1.221,0l3.576-3.577a.864.864,0,0,0-1.221-1.221l-2.966,2.966-1.178-1.178a.864.864,0,1,0-1.221,1.221Z" transform="translate(-59.425 -150.859)"/>
        <path id="Trazado_1038104" data-name="Trazado 1038104" d="M41.4,139.656h7.275a2.594,2.594,0,0,0,2.591-2.591v-.986H53.98c.912-.007,1.315-.7.614-1.471l-3.327-3.365v-5.112a2.594,2.594,0,0,0-2.591-2.591H41.4a2.594,2.594,0,0,0-2.591,2.591v10.933A2.594,2.594,0,0,0,41.4,139.656Zm-.864-13.524a.864.864,0,0,1,.864-.864h7.275a.864.864,0,0,1,.864.864V131.6a.863.863,0,0,0,.25.607l2.122,2.147H50.4a.863.863,0,0,0-.864.864v1.849a.864.864,0,0,1-.864.864H41.4a.864.864,0,0,1-.864-.864Z" transform="translate(-38.811 -109.318)"/>
      </g>
    </g>
  </g>
</svg>
